<?xml version="1.0" encoding="UTF-8"?>
<svg id="Ebene_1" data-name="Ebene 1" xmlns="http://www.w3.org/2000/svg" viewBox="0 0 111.5468 115.0545">
  <path d="M57.7177,41.7221c-5.1846,0-9.0732,2.4482-11.3057,5.4004h-6.1509c-.3512,1.9717-.5454,4.0608-.5454,6.2646,0,12.1689,6.5527,19.9453,16.5615,19.9453,9.7207,0,15.5537-7.9209,15.5537-16.4893,0-9.1445-5.833-15.1211-14.1133-15.1211ZM56.2773,68.436c-6.625,0-10.1533-5.6885-10.2969-13.3926,0-1.1523.2881-2.0889.7197-2.8086,1.7285-3.3848,5.2568-5.7607,9.0732-5.7607,5.832,0,9.6484,4.0322,9.6484,10.7295s-3.6719,11.2324-9.1445,11.2324Z"/>
</svg>