<?xml version="1.0" encoding="UTF-8"?>
<svg id="Ebene_1" data-name="Ebene 1" xmlns="http://www.w3.org/2000/svg" width="39.3512mm" height="40.5887mm" viewBox="0 0 111.5468 115.0545">
  <path d="M67.2216,38.5536c-1.2959-.0723-2.9521,0-4.752.2881-9.9365,1.6562-15.1934,8.9287-16.2734,16.6338h.2158c2.2324-2.9521,6.1211-5.4004,11.3057-5.4004,8.2803,0,14.1133,5.9766,14.1133,15.1211,0,8.5684-5.833,16.4893-15.5537,16.4893-10.0088,0-16.5615-7.7764-16.5615-19.9453,0-9.2168,3.3125-16.4902,7.9209-21.0986,3.8877-3.8154,9.0723-6.1924,14.9775-6.9121,1.8721-.2881,3.4561-.3604,4.6074-.3604v5.1846ZM65.4218,65.5566c0-6.6973-3.8164-10.7295-9.6484-10.7295-3.8164,0-7.3447,2.376-9.0732,5.7607-.4316.7197-.7197,1.6562-.7197,2.8086.1436,7.7041,3.6719,13.3926,10.2969,13.3926,5.4727,0,9.1445-4.5361,9.1445-11.2324Z" fill="#1d1d1b"/>
</svg>