<?xml version="1.0" encoding="UTF-8"?>
<svg id="Ebene_1" data-name="Ebene 1" xmlns="http://www.w3.org/2000/svg" width="39.3512mm" height="40.5887mm" viewBox="0 0 111.5468 115.0545">
  <path d="M40.4721,33.8739c2.7358-.5762,7.0566-1.0088,11.4487-1.0088,6.2646,0,10.2969,1.0801,13.3213,3.5283,2.52,1.8721,4.0322,4.7529,4.0322,8.5693,0,4.6797-3.0962,8.7842-8.2085,10.6562v.1445c4.6084,1.1523,10.0088,4.9688,10.0088,12.1689,0,4.1768-1.6562,7.3447-4.1045,9.7207-3.3843,3.0967-8.8569,4.5361-16.7773,4.5361-4.3203,0-7.6328-.2881-9.7207-.5752v-47.7402ZM46.7363,53.747h5.6885c6.625,0,10.5132-3.4561,10.5132-8.1367,0-5.6885-4.3203-7.9199-10.6572-7.9199-2.8799,0-4.5361.2158-5.5444.4316v15.625ZM46.7363,77.0058c1.2241.2158,3.0244.2871,5.2568.2871,6.4805,0,12.457-2.376,12.457-9.4326,0-6.624-5.6885-9.3604-12.5293-9.3604h-5.1846v18.5059Z" fill="#1d1d1b"/>
</svg>