<?xml version="1.0" encoding="UTF-8"?>
<svg id="Ebene_1" data-name="Ebene 1" xmlns="http://www.w3.org/2000/svg" viewBox="0 0 115.0545 111.5468">
  <path d="M65.0873,44.8642c-2.8799-2.5918-7.416-4.0322-13.6094-4.0322-2.1091,0-4.0183.0786-5.7598.2036v5.269c1.0801-.2881,3.168-.5039,5.9043-.5039,6.9121,0,11.4492,3.0967,11.4492,9.5049,0,6.6963-4.6084,10.3691-12.1689,10.3691-2.0889,0-3.8164-.1445-5.1846-.5039v5.1123c1.4395.3594,3.168.4316,5.04.4316,6.1211,0,11.5215-1.7998,14.833-5.3281,2.4482-2.5205,3.7451-5.9766,3.7451-10.3691,0-4.3203-1.585-7.8486-4.249-10.1533Z"/>
</svg>