<?xml version="1.0" encoding="UTF-8"?>
<svg id="Ebene_1" data-name="Ebene 1" xmlns="http://www.w3.org/2000/svg" width="39.3512mm" height="40.5887mm" viewBox="0 0 111.5468 115.0545">
  <path d="M40.832,34.0175c3.0244-.5039,6.9844-.9365,12.0244-.9365,6.1934,0,10.7295,1.4404,13.6094,4.0322,2.6641,2.3047,4.249,5.833,4.249,10.1533,0,4.3926-1.2969,7.8486-3.7451,10.3691-3.3115,3.5283-8.7119,5.3281-14.833,5.3281-1.8721,0-3.6006-.0723-5.04-.4316v19.4414h-6.2646v-47.9561ZM47.0966,57.4198c1.3682.3594,3.0957.5039,5.1846.5039,7.5605,0,12.1689-3.6729,12.1689-10.3691,0-6.4082-4.5371-9.5049-11.4492-9.5049-2.7363,0-4.8242.2158-5.9043.5039v18.8662Z" fill="#1d1d1b"/>
</svg>