<?xml version="1.0" encoding="UTF-8"?>
<svg id="Ebene_1" data-name="Ebene 1" xmlns="http://www.w3.org/2000/svg" width="39.3512mm" height="40.5887mm" viewBox="0 0 111.5468 115.0545">
  <path d="M44.2167,38.1938v28.7305c0,10.873,4.8242,15.4814,11.3047,15.4814,7.2002,0,11.8086-4.7529,11.8086-15.4814v-28.7305h6.3369v28.2988c0,14.9053-7.8486,21.0254-18.3613,21.0254-9.9375,0-17.4258-5.6885-17.4258-20.7373v-28.5869h6.3369ZM45.7285,31.1371c0-1.9443,1.584-3.6006,3.6006-3.6006,1.9443,0,3.4561,1.585,3.4561,3.6006s-1.4404,3.6729-3.5283,3.6729-3.5283-1.6562-3.5283-3.6729ZM59.122,31.1371c0-1.9443,1.5117-3.6006,3.5283-3.6006s3.4561,1.585,3.4561,3.6006-1.3682,3.6729-3.4561,3.6729c-2.1602,0-3.5283-1.6562-3.5283-3.6729Z" fill="#1d1d1b"/>
</svg>