<?xml version="1.0" encoding="UTF-8"?>
<svg id="Ebene_1" data-name="Ebene 1" xmlns="http://www.w3.org/2000/svg" viewBox="0 0 115.0545 111.5468">
  <path d="M60.1908,65.416v-.2158c5.1123-1.7285,9.1455-5.9766,9.1455-12.3848,0-3.7441-1.3682-7.0566-3.8164-9.2168-3.0244-2.7363-7.3447-3.9609-14.042-3.9609-1.9257,0-3.8887.0754-5.7598.2122v5.1882c1.0078-.2881,3.168-.5752,6.1924-.5752,6.624.0713,11.1611,2.8076,11.1611,9.0723,0,5.5449-4.249,9.2168-10.9453,9.2168h-6.4082v4.7529h5.9043c3.946.1497,6.4001,1.4119,8.0154,4.4043h6.6704c-1.2883-3.2493-3.2601-5.5042-6.1174-6.4932Z"/>
</svg>