<?xml version="1.0" encoding="UTF-8"?>
<svg id="Ebene_1" data-name="Ebene 1" xmlns="http://www.w3.org/2000/svg" width="39.3512mm" height="40.5887mm" viewBox="0 0 111.5468 115.0545">
  <path d="M39.9682,34.0898c3.168-.6484,7.7041-1.0088,12.0244-1.0088,6.6973,0,11.0176,1.2246,14.042,3.9609,2.4482,2.1602,3.8164,5.4727,3.8164,9.2168,0,6.4082-4.0332,10.6562-9.1455,12.3848v.2158c3.7441,1.2959,5.9766,4.7529,7.1289,9.793,1.584,6.7686,2.7363,11.4492,3.7441,13.3213h-6.4805c-.792-1.3682-1.8721-5.5449-3.2402-11.5928-1.4404-6.6973-4.0322-9.2168-9.7207-9.4326h-5.9043v21.0254h-6.2646v-47.8838ZM46.2329,56.1952h6.4082c6.6963,0,10.9453-3.6719,10.9453-9.2168,0-6.2646-4.5371-9.001-11.1611-9.0723-3.0244,0-5.1846.2871-6.1924.5752v17.7139Z" fill="#1d1d1b"/>
</svg>