<svg xmlns="http://www.w3.org/2000/svg" width="72.2mm" height="489.459mm" viewBox="0 0 204.6614 1387.4433" fill="#1d1d1b">
<g transform="translate(-16.9196 -421.6034) scale(1.8857) translate(95.7425 68.8885)">
  <g data-rolle="struktur" style="display: none;">
    <g transform="matrix(1 0 0 1 -55.773399353027344 -57.52730178833008)" data-zeichen="F">
      <path d="M33.5454,6.2206L66.6882,56.6419L70.4889,59.3178L46.0282,26.0813L50.8418,14.0663L57.5073,86.7589L69.1035,20.6403L53.8096,84.2136L58.8004,71.5003L51.3747,83.7513L40.335,-8.7612Z"></path>
    </g>
    <g transform="matrix(-0.09466779254439413 0.9955089196259226 0.9955089196259226 0.09466779254439413 -89.69722953860852 -62.112791109083034)" data-zeichen="E">
      <path d="M38.8517,120.4281L56.8144,87.9483L39.3563,74.9896L42.7071,11.8932L51.7914,79.5534L52.8582,1.5657L41.1668,21.6676L33.2334,64.924L67.6388,50.5482L67.8645,87.8487L38.7289,86.2106Z"></path>
    </g>
    <g transform="matrix(0.540799106791753 0.8411517854069157 0.8411517854069157 -0.540799106791753 -68.4284517716697 -8.230763180631705)" data-zeichen="E">
      <path d="M41.597,55.7685L67.7797,51.4859L72.4036,60.6164L52.7303,63.9199Z"></path>
    </g>
    <g transform="matrix(-0.1758343908008442 -0.9844197615914138 -0.9844197615914138 0.1758343908008442 30.698761136148313 74.79206122517158)" data-zeichen="R">
      <path d="M61.1552,74.1735L57.4932,76.6095C56.5788,33.3573 54.3969,33.6244 53.3527,65.7583L50.2588,100.8549L59.7944,91.2244L59.1668,46.7813Z"></path>
    </g>
    <g transform="matrix(0.8863828043456057 0.4629530474685523 0.4629530474685523 -0.8863828043456057 -132.36355502332603 65.20399720951923)" data-zeichen="E">
      <path d="M53.5569,55.7527L69.9974,53.2088L71.9996,63.2404L52.15,58.0823Z"></path>
    </g>
    <g transform="matrix(-0.5995600704531202 0.8003297582360971 -0.8003297582360971 -0.5995600704531202 35.49017933422122 41.838468023600925)" data-zeichen="R">
      <path d="M57.9749,46.3484C57.4694,51.3229 57.1307,50.2252 60.6359,52.109L47.0417,59.8567C50.7735,50.538 51.3246,52.1938 48.9151,63.0043C53.1339,60.2929 54.2139,64.4696 53.9005,51.6209L63.3944,74.3521C60.4786,63.9657 59.3262,59.2851 58.8036,49.6327Z"></path>
    </g>
    <g transform="matrix(-0.7090973858124159 0.7051105568873564 0.7051105568873564 0.7090973858124159 18.33376715518746 -102.29745534955842)" data-zeichen="E">
      <path d="M41.3905,54.2791L63.912,55.4891L67.1115,60.6741L44.4596,55.3409Z"></path>
    </g>
    <g transform="matrix(-0.8508466406567394 -0.5254141167528156 0.5254141167528156 -0.8508466406567394 4.492965470300618 114.70230306342866)" data-zeichen="R">
      <path d="M68.1968,80.7203L62.4268,88.3572C65.3031,63.4717 69.3363,59.2236 63.3433,69.2037C69.3363,49.0713 67.9681,45.7588 60.3218,31.3901C62.4955,40.8623 58.1752,39.6377 49.4359,15.4486C49.5522,39.6377 47.5892,39.7131 53.8317,38.6565L38.8093,74.2408C46.7259,44.75 48.8861,44.4629 47.397,54.6852C58.5345,44.5342 63.0716,47.2705 63.8789,40.1356C63.0716,59.0801 58.8226,62.752 50.4579,55.7957L51.4935,82.6702L46.7917,74.8782L42.515,76.4684C55.5684,67.6546 58.0225,68.9168 63.7146,61.9677L71.7347,92.2129C65.0199,68.6599 63.0481,66.405 69.3582,80.5238Z"></path>
    </g>
    <g transform="matrix(0.8483395400579534 0.5294525708448868 0.5294525708448868 -0.8483395400579534 -95.35000080350265 55.684779840153915)" data-zeichen="E">
      <path d="M52.0574,85.0906L56.906,29.5648L42.5924,89.1015L39.9777,50.5849L45.8025,57.5116L43.1416,64.0582L35.8937,-5.3446L39.5695,53.3958L69.587,84.8484L67.2776,112.3088L57.2401,41.7183Z"></path>
    </g>
    <g transform="matrix(-0.603935623249732 -0.7970331002975709 -0.7970331002975709 0.603935623249732 61.141092503520824 30.12618850885159)" data-zeichen="E">
      <path d="M45.2831,54.5613L71.5279,56.8885L61.774,64.8504L43.0288,64.9046Z"></path>
    </g>
  </g>
<path class="glyph-merged" d="M-15.4384,-66.2885l3.69039,30.92537l-10.47999,-15.94357zM1.7339,29.2316l-0.16721,-1.82361c-1.13669,-0.01435 -2.16866,-0.04429 -3.11674,-0.08174l2.67545,-4.73089l-0.01176,-0.12828l-1.58001,0.40476l-1.49742,3.81445l0.87957,-3.65617l-0.55467,0.14209l0.72905,-0.86696l0.73284,-3.04625l0.86554,-1.42798l-0.14406,-1.57106l3.1967,-13.28798l-1.86096,-4.29043l-2.83451,1.2332l1.49876,16.34521l-0.72148,2.99904l-2.5392,4.1892l1.07731,-0.27598l-3.34772,3.981c1.02655,0.05809 2.15491,0.12242 3.43656,0.17304l-7.57307,13.39117c-0.80445,-2.39645 -1.72133,-4.18792 -2.78843,-5.32929l-7.39509,8.794c2.83018,0.12294 6.6443,0.13404 12.20441,-0.9116c-0.26312,0.31375 -0.51269,0.61647 -0.74798,0.90723l-13.14867,9.34986c5.86656,2.38089 4.15673,1.41366 -8.45361,22.05598c3.01924,-14.4123 3.31584,-21.65873 2.4308,-23.49356l-4.39954,8.64279l2.71103,-8.1259c-0.50808,0.79114 -1.06683,2.0403 -1.62864,3.6933c0.81564,-12.6939 1.34583,-17.62791 9.02108,-25.85096l0.39652,-1.18851l-0.71838,-0.95379c-0.69203,0.34623 -2.08658,0.81411 -4.1534,1.39154l-0.25124,1.44717l-5.64404,1.83064l1.70163,-2.18345c-0.90002,0.22259 -1.86654,0.4556 -2.89856,0.69864l-1.76779,2.44641l2.96472,-0.9616l-8.64581,11.09388c4.01371,6.65688 3.54878,7.36412 -0.69481,2.79144l0.28445,-2.26488l-1.08378,1.39066c0.27978,0.31009 0.54628,0.60155 0.79933,0.87423l-0.58079,4.62445c-1.26912,-0.97151 -2.13387,-1.70837 -2.7056,-2.3074l-2.14179,2.74824l4.64474,1.17272l-0.52637,4.1911c-2.03213,-1.2795 -3.87332,-2.34102 -5.7238,-3.30381l-19.66713,25.23591l18.46871,-25.84519c-3.58553,-1.78111 -7.36493,-3.29184 -12.76382,-5.38129l14.07059,3.55259l1.29848,-1.81711l-12.42506,-9.15173l-0.15265,-2.45985l-18.18862,4.92982l7.80377,-11.08041l15.78593,-2.59019l-0.9941,2.28573c10.72523,-1.68261 18.7666,-2.80476 24.29871,-3.43624l2.19163,-3.03297l-25.49624,4.18347l0.76004,-1.74755l24.85598,-2.60168l2.01179,-2.78408l-1.64981,-2.19043l0.29678,-8.2041l-18.2217,-1.84411l7.93486,-14.85499l22.44031,1.82462l-20.83,-4.83932l4.54653,-8.51163l12.91737,0.53966l10.01685,16.57022l0.66102,-2.18324c-0.21697,0.76761 -0.42636,1.51335 -0.62835,2.2373l0.52127,0.86231l-0.29059,7.51574l1.96488,-0.76336l-0.68819,-5.76699l-0.30912,0.13449l-0.67697,-1.11987l0.21254,-5.497l-3.76117,-31.51858l2.21942,3.37648l4.597,-11.47435l1.9436,21.19649l-1.40434,-1.90817l1.42866,2.17348l0.65277,7.11897l4.30607,0.42508l-4.95884,-7.54406l-0.02433,-0.2653l5.80724,7.89071l4.97665,0.49128l5.53421,-23.00448l-4.06016,23.14999l3.93067,0.38803l-1.06072,-4.53627l15.11675,-16.73816l-1.4276,2.91697l-11.50156,18.4687l12.18454,1.20283l-16.64263,7.24065l4.84612,6.58476l-3.8007,-2.6759l-2.23047,-3.39329l-1.16189,0.5055l-0.47508,2.70876l6.80703,2.62002l0.90653,2.11449l6.42551,-7.64101l-5.28514,10.30091l5.81366,13.56037l-10.18074,1.04836l-1.4331,-3.30401l-1.4945,2.91282l-4.53587,1.16199l-0.04828,4.69788l4.47433,0.89402c-2.47401,0.10073 -4.59431,0.12722 -6.44396,0.11167zM-4.67021,23.94877l-1.47386,-12.35096c-0.18825,0.22654 -0.37453,0.44984 -0.55882,0.66993l-5.57446,11.8709l1.29498,1.42718zM-6.82416,12.41243c-3.35016,3.9941 -6.03795,6.91996 -7.96617,8.95669l1.28139,1.4122c0.1519,-0.07909 0.30758,-0.15985 0.46706,-0.24224c-0.12744,0.11366 -0.25389,0.22662 -0.37935,0.33891l0.81336,0.89639zM-12.83617,14.22095c0.0404,-0.27753 0.08214,-0.56647 0.12515,-0.8668l-2.80849,-0.28423l-1.82844,5.48047l2.40009,2.64511zM-19.29746,12.68759l-3.71101,-0.37557l2.21691,2.44323zM0.84455,19.53247l-0.50547,1.28761l0.56223,-0.66859zM5.59133,7.23749l-1.62585,9.27018l3.72528,-4.42998zM5.11154,-2.72429l-1.11561,0.48536l0.91419,0.35187zM-74.05412,-18.14379l-2.15636,0.99411l-5.68995,-1.32192zM-93.14253,-9.34376l16.93205,-7.80591l39.9764,9.28751l-1.61032,3.0147zM-72.02411,-19.07965l43.81317,-3.80278l-3.47661,6.50863l-42.36656,-1.76998zM-43.41625,33.83318l-15.31385,4.15065l17.56845,4.0596l7.39246,-10.34505c-2.77999,0.64677 -6.00141,1.36066 -9.64706,2.13479zM-39.48864,59.14295c-0.45656,-0.30494 -0.9015,-0.59864 -1.33651,-0.8821c1.62087,-0.80772 1.55804,-0.48605 4.46189,2.188zM-42.56907,59.12471l0.23033,-1.83397c0.49237,0.31001 0.99595,0.63282 1.51359,0.97012c-0.4322,0.21538 -0.98412,0.51106 -1.74392,0.86385zM-38.14016,54.02681l-3.67222,-0.92717l0.20265,-1.61356c0.92655,0.70928 2.06863,1.54363 3.46957,2.54074zM-28.77038,46.99018c0.95539,-1.2162 1.8174,-1.95184 2.72991,-2.38535l0.87202,-2.61375c-1.13128,1.45902 -2.33021,3.12334 -3.60193,4.99911zM10.47936,31.14381c-21.34949,20.1029 -24.03006,20.07826 -18.32958,13.03395zM-17.1007,34.41001c-0.41128,0.18234 -0.83692,0.41552 -1.27767,0.70041l-4.54143,8.92153c0.40276,-0.00053 0.8291,0.01313 1.28492,0.03366z" fill="none" stroke="#1d1d1b" stroke-width="1.2" stroke-linejoin="round" style=""></path></g>
<g transform="translate(-40.8576 -232.6458) scale(1.8857) translate(68.0399 111.0742)">
  <g data-rolle="struktur" style="display: none;">
    <g transform="matrix(1 0 0 1 -55.75380325317383 -57.53385925292969)" data-zeichen="P">
      <path d="M51.3682,74.7554C43.8564,33.5136 47.8164,33.081 59.6959,28.1835C59.0498,33.081 63.5859,34.5214 67.0523,44.0883C69.1299,39.4179 70.7148,42.9462 59.0813,33.2612C70.7148,51.6591 69.4179,55.1151 59.9539,44.991C63.6582,61.1639 58.2578,62.9637 40.997,53.1448C50.2646,62.9637 48.5361,62.8914 50.504,27.0813L45.9445,111.9008L46.7061,88.2566L35.0288,39.5532ZM44.4121,70.6664C48.4648,57.7792 50.1923,57.9237 47.4169,64.3626C59.8417,57.9237 64.4501,54.2508 59.0184,79.9095C64.4501,41.1464 59.913,38.0497 61.3678,80.0355C50.2646,38.0497 48.1767,38.2655 55.0515,73.5047L36.6041,36.4125Z"></path>
    </g>
    <g transform="matrix(0.43138807554546427 0.90216646372894 -0.90216646372894 0.43138807554546427 47.40164739608805 -99.81380115232686)" data-zeichen="I">
      <path d="M53.6882,32.4073L58.4005,56.1643L58.2203,62.7006L50.7868,73.3257Z"></path>
    </g>
    <g transform="matrix(-0.09145107380865149 0.9958095707007664 -0.9958095707007664 -0.09145107380865149 76.32008967568522 -60.00616630228748)" data-zeichen="E">
      <path d="M42.5229,53.4358L65.2473,56.9851L70.5539,56.3553L45.7909,62.2422Z"></path>
    </g>
    <g transform="matrix(0.25146384015161494 -0.9678666938665691 0.9678666938665691 0.25146384015161494 -32.8056403589174 49.68070521985488)" data-zeichen="A">
      <path d="M68.03,53.5927C64.2326,44.6376 65.0246,41.6864 64.7415,72.9037L61.5383,6.9503L67.9999,21.7571L60.8006,26.9195L40.0514,56.2317L47.4588,51.4594L55.9147,103.2798L56.1622,77.1683L61.2714,56.8988Z"></path>
    </g>
    <g transform="matrix(-0.9891058747747226 -0.14720587109939184 -0.14720587109939184 0.9891058747747226 78.74285209840032 -81.3122437946115)" data-zeichen="N">
      <path d="M59.319,72.0942L52.6658,54.6698L38.7013,37.8986C46.4452,43.5604 48.4359,46.878 44.6932,20.9855L62.6024,70.1058L62.667,50.0203L58.6259,43.1659C64.5958,61.5928 61.7872,56.4795 53.7306,45.2343Z"></path>
    </g>
    <g transform="matrix(-0.751944992630227 -0.6592258551197214 -0.6592258551197214 0.751944992630227 73.70000308967039 -13.627639334814305)" data-zeichen="E">
      <path d="M48.8864,33.5382L46.9368,29.9382L43.0284,79.6717L46.8662,80.0325L48.9516,54.5263L51.1913,40.8561L31.605,6.1421L33.22,100.7149L69.5746,66.0733L59.3214,53.821L54.2067,58.4688Z"></path>
    </g>
    <g transform="matrix(-0.8941213381730164 -0.4478247789299899 -0.4478247789299899 0.8941213381730164 42.716686038023454 -9.076380868659449)" data-zeichen="I">
      <path d="M52.3086,40.6415L57.9392,41.2151L57.3907,53.5621L54.2338,61.9601Z"></path>
    </g>
    <g transform="matrix(0.8733613800895415 0.4870727869303433 0.4870727869303433 -0.8733613800895415 -94.2105464236408 46.48842418423047)" data-zeichen="E">
      <path d="M42.3335,50.9381L68.0871,53.9931L62.6512,56.9878L46.6642,56.1104Z"></path>
    </g>
    <g transform="matrix(0.1962634949642156 0.9805511922099893 0.9805511922099893 -0.1962634949642156 -57.27713196586667 -75.91350600714748)" data-zeichen="S">
      <path d="M64.5296,30.4855L51.0431,38.4699C61.4623,51.0468 64.0541,53.6396 54.0988,82.9899C64.0541,63.0722 60.31,66.456 54.3243,68.8183C49.5815,66.456 45.477,65.0165 43.4101,56.75L39.4917,85.8883C43.6762,70.2723 48.7885,71.6405 43.9829,70.0364C64.9184,71.6405 70.4624,65.16 63.9316,41.7672C70.4624,50.5428 66.2866,46.5828 50.1632,30.574Z"></path>
    </g>
    <g transform="matrix(0.20714377669540146 -0.9783105109199051 -0.9783105109199051 -0.20714377669540146 32.63434989218658 54.45325661417812)" data-zeichen="S">
      <path d="M50.2177,44.8828C48.8969,53.2065 51.4164,49.2465 51.9514,73.5857C62.434,49.2465 65.6742,50.6869 74.7815,44.0111L70.2678,44.7427C66.8265,45.2143 63.226,44.0619 67.1224,34.1772C48.8246,44.0619 42.5599,49.6781 36.9164,60.9866C42.5599,64.0795 47.4564,68.184 59.8493,68.8948L52.9342,58.5062C51.849,63.2875 48.8969,61.0551 56.192,40.2133Z"></path>
    </g>
    <g transform="matrix(-0.9805047308731314 0.19649547764619987 0.19649547764619987 0.9805047308731314 24.447115823966563 -106.49792236351367)" data-zeichen="E">
      <path d="M41.3801,43.4918L37.9047,68.8171L55.4211,68.804L57.3469,55.6169L38.3162,30.3502L45.9716,76.1382L43.2275,1.8784L32.3695,95.3765L67.9022,53.9201L65.3515,40.4374L56.5242,107.8412Z"></path>
    </g>
    <g transform="matrix(-0.9992092933883153 0.0397591248196373 -0.0397591248196373 -0.9992092933883153 15.500951140645977 77.62389621946355)" data-zeichen="T">
      <path d="M36.3065,49.8577L41.2671,55.399L59.8815,61.0174L60.8964,54.7424L78.8278,54.7138L67.7387,51.448L27.727,55.0539Z"></path>
    </g>
    <g transform="matrix(0.44286157076613564 -0.8965900005791672 0.8965900005791672 0.44286157076613564 -77.43049553726544 -9.08450926840083)" data-zeichen="N">
      <path d="M55.4818,19.0334L50.5743,4.7394L53.1435,86.9609L61.5025,114.8175L60.2384,75.6915C55.5622,51.2368 55.4186,45.4047 59.5345,60.0704L51.9302,3.0744C56.2419,41.2899 57.3368,43.4135 58.3665,7.1536L63.9548,11.5849L62.3628,72.3826Z"></path>
    </g>
    <g transform="matrix(0.9861184278703067 -0.16604350699318163 0.16604350699318163 0.9861184278703067 -89.74379193340823 -61.789428745538245)" data-zeichen="E">
      <path d="M45.6372,57.4596L67.2645,57.5994L58.2774,60.0563L49.8705,64.7358Z"></path>
    </g>
    <g transform="matrix(-0.6593333815230956 0.7518507112514559 -0.7518507112514559 -0.6593333815230956 95.78440295872271 15.47198571413415)" data-zeichen="L">
      <path d="M61.3499,32.5968L55.2074,38.7258L52.2874,110.1398L61.342,69.4952L58.5264,48.2531Z"></path>
    </g>
    <g transform="matrix(-0.846829583085567 -0.5318643221829463 -0.5318643221829463 0.846829583085567 62.34765261085517 4.299908132302612)" data-zeichen="N">
      <path d="M56.5208,69.8856L50.9139,43.2272L52.7572,58.9284C52.8212,61.1274 52.9657,67.0317 53.4589,36.9606L51.6663,79.2513L52.8212,120.9594L56.5115,37.6866L60.0387,44.8581Z"></path>
    </g>
    <g transform="matrix(0.9901371453155992 0.14010151129190598 -0.14010151129190598 0.9901371453155992 -71.8656397742501 -114.1669646910544)" data-zeichen="A">
      <path d="M52.3562,-1.6588L39.5656,30.1899L43.994,27.3695L44.4418,41.0415C46.3039,41.6142 47.0236,44.4951 47.794,34.6901L57.0238,45.6926L54.672,89.5907L58.467,68.0092L60.8511,104.3527L54.0941,57.9428Z"></path>
    </g>
    <g transform="matrix(0.9522814475899998 0.305221304262816 -0.305221304262816 0.9522814475899998 -54.71341409286286 -100.89438022531598)" data-zeichen="E">
      <path d="M53.0532,56.0762L67.4666,50.3724L66.7865,63.4476L42.2791,60.7653Z"></path>
    </g>
    <g transform="matrix(0.7341068573191187 0.6790339623590613 0.6790339623590613 -0.7341068573191187 -93.293239233202 31.787070849884067)" data-zeichen="A">
      <path d="M49.5192,52.0786L53.8482,57.0787L64.2455,59.4446L60.9136,53.2356L44.1928,59.1661Z"></path>
    </g>
    <g transform="matrix(-0.7355337308328656 0.6774881038122261 0.6774881038122261 0.7355337308328656 -35.73732188457503 -36.58881280898765)" data-zeichen="L">
      <path d="M52.1305,59.46L37.9146,63.3257L61.3424,59.3155L71.5833,50.5978L54.0102,51.9008Z"></path>
    </g>
    <g transform="matrix(0.9570942157700525 0.2897769178859975 0.2897769178859975 -0.9570942157700525 -69.59784179331186 59.26131396470005)" data-zeichen="T">
      <path d="M50.5124,-2.7272L61.0772,45.7257L59.573,82.5912L54.9686,87.0014Z"></path>
    </g>
  </g>
<path class="glyph-merged" d="M9.39527,-41.06182l2.20415,-2.72316c-1.32544,-0.36999 -2.87094,-0.61327 -4.71045,-0.70065l7.31316,-2.51491l0.19922,-0.24613c-0.03565,0.07177 -0.0711,0.14317 -0.10634,0.21419l7.6715,-2.63814l9.48084,-17.46384c-2.2394,7.46901 -3.59304,12.4464 -4.16511,15.63583l7.40929,-2.54797c-3.39269,1.67819 -5.86253,3.22353 -7.68798,4.54981c-0.42698,5.01046 2.52826,2.78411 7.88071,-0.02678l-13.00934,11.61233c0.26248,2.09994 0.3159,3.98233 0.14236,5.65832c3.56421,-1.74685 7.72252,-4.02226 12.69905,-6.90183c-7.31911,5.69273 -11.1425,8.26315 -13.02995,8.86721c-0.05747,0.23847 -0.1208,0.47189 -0.19006,0.7003l19.82897,-7.81076l-15.66633,11.70921l3.6501,1.65853l16.57667,-5.81371l-8.57434,9.44982l15.43941,7.01536l-18.90812,-3.19248l-13.51244,14.89211l16.7582,3.49597l0.58389,2.86932l18.3334,10.04207l25.21022,6.80564l-52.2816,-4.84677l2.75626,8.36944l-17.15837,-20.34567l-5.72297,6.30731l21.459,20.42833l0.55814,8.6593l-9.90957,-12.44557l-14.81813,-9.88195l-0.567,2.19115c0.02498,0.82507 0.05235,1.66912 0.08226,2.53221c-0.12554,-0.47473 -0.24993,-0.94406 -0.37317,-1.40801l-3.13178,12.10264l-24.15204,43.31256l12.66017,-35.38233l0.26406,-8.19771l-2.84086,0.97889l-5.71385,6.29726l-0.51163,-5.68638l-5.37073,9.41424l-23.16105,34.7054l23.47193,-41.32806l-17.42623,11.28835l-13.43867,0.52593l13.80838,-10.94717l6.50385,4.28657l10.81404,-5.6139l4.30249,-7.57559l0.02208,-0.02286l-0.00124,-0.01383l-0.02084,0.03669l-4.0044,4.14537l2.5668,-5.73001l-0.17416,-0.07173l-2.46629,1.63116l-3.82373,-3.9439l0.51212,-0.06677l-0.96028,-0.39547l0.44816,0.46224l-27.64684,3.60457l-11.21018,-2.82232l17.91608,-0.74151l0.76461,-6.31039l15.15529,3.92417l-0.82363,-0.3392l6.30155,-2.40792l5.01116,2.44486l0.43962,-4.29625l1.25066,2.38182l-1.89076,-21.01446c-0.84564,-2.80926 -1.5487,-5.94192 -1.63621,-9.96017c-0.45817,-0.11764 -0.9305,-0.23741 -1.41753,-0.35934l-1.32311,1.05847l-0.54251,7.21429l-0.02713,-6.75859l-3.55481,2.84379l-5.3827,-6.47228l8.91715,-1.44227l-0.05221,-13.00716l-0.79125,-0.35258l-3.15903,9.70697l2.00876,-10.21952l-4.72278,-2.10445l5.24012,-0.52748l1.13721,-5.78551l-4.91491,-3.84931l-0.03556,-3.28937l-19.21196,-8.75412l7.10499,0.91495c-2.45139,-0.87167 -5.11728,-1.82832 -7.99733,-2.868l8.77576,2.96825l7.10578,0.91505l4.16445,1.42883l-0.02141,-1.98096c-3.48295,-1.94085 -7.98743,-4.36607 -13.51682,-7.29536l6.4479,-3.04796l12.88897,6.79172l1.22267,-10.92872l2.80296,4.49633l-1.52352,7.75085l6.76254,3.56345l4.89561,-10.19294l-5.89733,-36.3476l9.40953,29.03501l1.00061,-2.08332l0.18445,5.74004l7.38782,22.79662l8.28924,4.36794zM-8.50483,30.10014l-0.00494,0.09184l2.51994,1.45189l2.54954,-7.12538zM-8.64817,32.76663l-0.39896,7.42168l2.97291,-8.30861zM-24.94588,-34.20506l-0.42681,-1.25422l0.66539,0.52112l1.20382,-3.69905l-0.32965,4.38369l3.67205,2.87592l2.57237,-0.1717l-2.41013,-6.75325l-5.74162,-2.61622l-0.54557,2.77556l0.91333,2.68394l-0.99816,-0.78175l0.02187,5.44743l0.3028,-0.03048zM-22.80453,-14.70996c0.09605,-1.15194 0.23898,-2.36888 0.43578,-3.65911l1.89349,1.93387l-1.02386,-1.39934l1.04845,0.9981l-0.27434,-1.14422l0.73437,1.58215l1.1075,1.0543l0.33696,-0.0545l-3.32348,-9.76647l-2.5611,-1.14122l-0.90281,12.00549zM-24.03751,-31.53571l-0.0386,0.51332l0.20622,-0.02076zM-27.50398,-41.72235l1.12439,3.30416l-0.01123,-2.79694zM18.65185,-20.29257l0.49409,-0.17329l-0.40415,-0.18415zM-7.93613,-17.40798c0.19498,-1.43343 0.49293,-2.65013 0.89008,-3.69807l-1.64628,-1.28935l0.08823,-2.64446l-0.79279,2.09265l0.70456,0.5518l-0.18021,5.40107c0.32323,-0.13749 0.63507,-0.27532 0.93641,-0.41365zM-5.89573,-18.43648c0.01462,-0.00811 0.02922,-0.01623 0.04378,-0.02435c0.02504,-0.53702 0.05079,-1.08676 0.07737,-1.64941l-0.02992,-0.02344zM18.60308,-34.99074l-2.83822,5.04453c0.22312,0.06207 0.44796,0.12453 0.67452,0.18737c1.1256,-0.44399 2.31869,-0.95826 3.5916,-1.547c-0.01555,-1.10167 0.47871,-2.87751 0.83363,-4.84643c-0.13194,-0.17012 -0.26217,-0.33951 -0.3912,-0.50796zM7.69909,-20.7451c0.74433,0.58056 1.3899,1.07373 1.94708,1.49696l0.70774,-1.9217l-1.54472,-0.25632c-0.47414,0.05352 -0.96211,0.09942 -1.46408,0.13781c0.11663,0.1764 0.23471,0.35733 0.35398,0.54325c-0.21313,-0.16624 -0.43436,-0.33964 -0.66393,-0.52062c-0.1076,0.00749 -0.21583,0.01464 -0.3247,0.02145l1.09854,3.38977c0.47714,0.0193 0.99706,0.01662 1.56289,-0.01026c-0.56657,-1.09163 -1.13197,-2.03729 -1.6728,-2.88034zM10.34868,-18.71535l-0.1827,-1.27962l-0.45001,0.79983c0.22546,0.17117 0.43612,0.33069 0.63271,0.47979zM12.68378,-20.78323l-1.89717,-0.31481l-0.54876,0.97535zM36.87957,0.79026c-11.1658,-2.98109 -7.8619,-2.41851 -0.70753,-3.47691zM54.03558,5.3522l-16.94711,-3.53538l-0.2089,-1.02656c3.85163,1.02832 9.42501,2.47831 17.15601,4.56194zM-33.52218,22.03623l0.93818,-8.92257l5.03887,-11.28535l5.29131,2.00865zM20.02939,-46.5316c0.02663,0.09475 0.05302,0.1892 0.07917,0.28335l0.04057,-0.07473c-0.03868,-0.06711 -0.07856,-0.13664 -0.11974,-0.20862zM12.5566,-43.48305c-2.17621,4.51876 -3.12383,6.86197 -3.04989,7.60068l0.41864,0.2206c0.86873,-0.33085 3.04103,-2.59509 6.18486,-5.87692c-0.98957,-0.77892 -2.13535,-1.44234 -3.5536,-1.94436zM17.08959,-40.68726l-3.71498,6.84304l1.37942,0.72687l2.6677,-7.24351c-0.10904,-0.11031 -0.21968,-0.21914 -0.33215,-0.3264zM-23.93125,-46.32945c1.87939,1.34808 1.55519,1.6937 -0.96182,1.09968l-0.00103,0.00524l5.34679,1.80846l0.58109,-1.20987l-4.96503,-1.70351c-0.19515,-0.13998 -0.41406,-0.29077 -0.65674,-0.45243l-0.04182,0.21276zM-30.40751,-50.25476l0.65624,1.92845l3.3365,1.14476l-0.00303,-0.75512c-1.08859,-0.66019 -2.41837,-1.43213 -3.98972,-2.31809zM2.79357,-35.85967c-0.29872,-0.05596 -0.58937,-0.10982 -0.87196,-0.1616l0.7376,2.27601c1.58588,0.48813 3.39829,1.02908 5.43522,1.62146l0.44602,-3.06457l-7.14317,-2.45083l0.47581,1.4682zM13.23071,-33.57914l-1.3761,2.5348c0.62824,0.17824 1.27321,0.36027 1.93486,0.54607l0.94467,-2.56503zM-24.60882,-65.43223l-4.79434,-7.69076c-2.1365,9.60036 -2.44548,6.64704 -4.20898,5.81911l1.47208,-13.59989l-4.77987,2.17216l17.1265,-29.7426z" fill="none" stroke="#1d1d1b" stroke-width="1.2" stroke-linejoin="round" style=""></path></g>
<g transform="translate(177.1407 94.9025) scale(1.8854) translate(7.2846 7.5358)">
  <g data-rolle="struktur" style="display: none;">
    <g transform="matrix(1 0 0 1 -55.773345947265625 -78.08641052246094)" data-zeichen=".">
      <path d="M51.4887,78.0865c0-2.6641,1.8008-4.5361,4.3203-4.5361s4.249,1.8721,4.249,4.5361c0,2.5918-1.6562,4.5361-4.3203,4.5361-2.5205,0-4.249-1.9443-4.249-4.5361Z"></path>
    </g>
  </g>
<path class="glyph-merged" d="M-4.28465,0.00009c0,-2.6641 1.8008,-4.5361 4.3203,-4.5361c2.5195,0 4.249,1.8721 4.249,4.5361c0,2.5918 -1.6562,4.5361 -4.3203,4.5361c-2.5205,0 -4.249,-1.9443 -4.249,-4.5361z" fill="none" stroke="#1d1d1b" stroke-width="1.2" stroke-linejoin="round" style=""></path></g>
<g transform="translate(13.6172 124.3089) scale(1.8856) translate(53.3972 62.2789)">
  <g data-rolle="struktur" style="display: none;">
    <g transform="matrix(1 0 0 1 -55.85651397705078 -57.52725601196289)" data-zeichen="1">
      <path d="M62.762,79.4453L54.6548,13.7991L51.5121,80.114L50.0068,48.3862L52.1297,33.4843L67.6351,2.1774L58.3204,103.3016L57.7932,89.636L54.8207,25.2259Z"></path>
    </g>
    <g transform="matrix(0.3718623677315694 -0.9282878753194351 0.9282878753194351 0.3718623677315694 -83.80980777442257 15.144172986419036)" data-zeichen="6">
      <path d="M57.7177,41.7221c-5.1846,0-9.0732,2.4482-11.3057,5.4004h-6.1509c-.3512,1.9717-.5454,4.0608-.5454,6.2646,0,12.1689,6.5527,19.9453,16.5615,19.9453,9.7207,0,15.5537-7.9209,15.5537-16.4893,0-9.1445-5.833-15.1211-14.1133-15.1211ZM56.2773,68.436c-6.625,0-10.1533-5.6885-10.2969-13.3926,0-1.1523.2881-2.0889.7197-2.8086,1.7285-3.3848,5.2568-5.7607,9.0732-5.7607,5.832,0,9.6484,4.0322,9.6484,10.7295s-3.6719,11.2324-9.1445,11.2324Z"></path>
    </g>
    <g transform="matrix(0.5206330678359947 -0.853780538941759 0.853780538941759 0.5206330678359947 -112.13329907328006 9.326177744470115)" data-zeichen="1">
      <path d="M60.9542,41.7861L55.5112,52.2479L46.1408,43.704L46.6449,57.6588L52.8679,42.0588L58.4482,68.2762L51.9341,64.8338L65.7904,61.5145L58.5594,41.1005Z"></path>
    </g>
    <g transform="matrix(-0.7203911927902897 0.6935679702452987 0.6935679702452987 0.7203911927902897 1.43158843465838 -112.88422787727443)" data-zeichen="1">
      <path d="M51.7587,44.3449L58.8648,17.1831L59.6854,52.7157L51.0265,72.825Z"></path>
    </g>
    <g transform="matrix(-0.5373775613682996 0.843341779196228 0.843341779196228 0.5373775613682996 2.571885172838968 -93.22661385521548)" data-zeichen="6">
      <path d="M56.525,39.415C66.3015,51.6586 67.9578,51.5863 78.1452,49.4514L67.3293,61.8541C68.1023,46.474 66.5183,46.5463 55.7913,36.16C58.741,47.5541 53.5565,49.9311 55.5164,57.5364C46.1623,57.2528 43.411,62.3061 44.1112,68.9155L54.7855,52.3083C49.3085,60.8754 54.5653,53.603 56.5539,33.1878Z"></path>
    </g>
  </g>
<path class="glyph-merged" d="M5.52776,12.51162l0.0923,-1.00201l1.28542,10.40843zM-0.71648,-30.12111l-0.24817,-1.6944l-0.0497,-0.02088l0.0978,2.11925l-0.41843,0.84484c0.159,0.10002 0.31621,0.20232 0.47158,0.30685l-0.05315,-1.15169l0.20007,-0.40396l0.27021,1.84486c0.34781,0.24841 0.68561,0.5083 1.01261,0.77905c0.08424,0.04248 0.16827,0.08474 0.25211,0.1268l-0.48142,-3.89818l-0.40162,-0.16875zM0.83032,-27.27425l-0.00095,-0.00771l-0.03012,-0.01899c0.01037,0.00889 0.02072,0.01779 0.03107,0.0267zM11.77859,-55.34986l-2.27652,24.71489l5.67958,5.60358l-5.96488,-2.50624l-0.35667,3.87216c9.55137,4.00607 14.45415,4.64177 12.0319,4.7367l2.94326,-0.01159c-0.88146,0.91234 -1.742,2.05475 -2.57378,3.45182c-3.97858,-4.25996 -7.64318,-3.65345 -12.54869,-6.57769l-0.60664,6.58589c0.47079,2.14658 0.61775,3.83752 0.43721,5.31208c-0.30212,-0.32785 -0.57912,-0.65935 -0.83455,-0.99836l-0.42177,4.57893c0.67824,-1.1346 1.09616,-2.27244 1.25632,-3.58057c1.95783,2.12451 4.97099,4.09563 10.01143,6.96227l-11.74254,1.77277l-1.19218,12.94284l-1.54734,-12.52926l-0.51543,0.07781l1.97047,13.45346l-3.06388,33.26272l-0.5272,-13.6656l-1.62585,-35.22994c-1.07205,0.84599 -2.25552,1.53366 -3.53442,2.05698l-1.12083,23.65095l-1.08808,-22.93397c-4.06742,1.00096 -8.88733,0.54454 -14.04994,-1.52355c-1.82158,-0.72971 -3.50149,-1.56853 -5.04772,-2.49137l-5.21069,3.10261l1.73889,-5.38264l3.22802,1.13416l1.96626,-4.90842c-1.91031,-3.17021 -2.73692,-7.69035 -0.80896,-12.50315l-0.00013,0.00006c3.07913,-7.6865 10.79621,-10.87873 19.28494,-7.47824c0.84792,0.33967 1.66435,0.73813 2.442,1.18993l0.13923,-2.9379l-3.25271,-1.36668l-24.05312,-26.16651l23.95773,14.63856l3.78234,3.73173l0.11466,-2.41951l0.35618,2.88405l3.65423,3.60533zM3.40216,-6.44932c-0.17481,0.25569 -0.35563,0.50431 -0.5423,0.7458l0.55499,3.78921c0.16559,-0.17193 0.32719,-0.34068 0.48481,-0.50658zM-5.84971,-9.14106l1.98263,-13.91723c-0.76207,-0.46915 -1.60148,-0.89052 -2.51345,-1.25584c-6.21702,-2.49047 -11.37924,-0.44718 -13.54794,4.96659c-1.41918,3.54272 -0.5257,7.7015 1.97361,10.56473c0.50759,0.66828 1.26989,1.284 2.33956,1.7125c3.60442,1.36651 7.05558,1.7591 9.9132,1.04027zM-2.23686,-21.88532l-0.69581,14.68237c1.16712,-0.74108 2.15541,-1.75941 2.9134,-3.07108l-0.45008,-9.75263c-0.49264,-0.66013 -1.08375,-1.28305 -1.76752,-1.85867zM-44.72237,-20.96011l1.43442,2.37426l-3.26659,-0.68657zM-43.28795,-18.58585l17.92719,3.76794l-2.64121,8.17574l-11.38712,-4.00083l0.76499,-0.22322zM-45.01409,-9.00168l6.39363,8.52242l-12.17679,-6.83494zM-48.69954,-13.91421l9.31045,3.2712l-5.625,1.64133zM36.98684,-18.99216l-13.15159,0.05179c4.19195,-4.33884 8.85693,-3.47437 13.15159,-0.05179z" fill="none" stroke="#1d1d1b" stroke-width="1.2" stroke-linejoin="round" style=""></path></g>
<g transform="translate(177.1407 333.9945) scale(1.8854) translate(7.2846 7.5358)">
  <g data-rolle="struktur" style="display: none;">
    <g transform="matrix(1 0 0 1 -55.773345947265625 -78.08641052246094)" data-zeichen=".">
      <path d="M51.4887,78.0865c0-2.6641,1.8008-4.5361,4.3203-4.5361s4.249,1.8721,4.249,4.5361c0,2.5918-1.6562,4.5361-4.3203,4.5361-2.5205,0-4.249-1.9443-4.249-4.5361Z"></path>
    </g>
  </g>
<path class="glyph-merged" d="M-4.28465,0.00009c0,-2.6641 1.8008,-4.5361 4.3203,-4.5361c2.5195,0 4.249,1.8721 4.249,4.5361c0,2.5918 -1.6562,4.5361 -4.3203,4.5361c-2.5205,0 -4.249,-1.9443 -4.249,-4.5361z" fill="none" stroke="#1d1d1b" stroke-width="1.2" stroke-linejoin="round" style=""></path></g>
<g transform="translate(17.8484 349.7827) scale(1.8856) translate(23.2255 61.6762)">
  <g data-rolle="struktur" style="display: none;">
    <g transform="matrix(1 0 0 1 -55.85651397705078 -57.52725601196289)" data-zeichen="1">
      <path d="M57.653,61.0114L52.3529,44.3104L46.7101,17.1707L42.3625,35.8993L58.5044,19.4676L64.6639,27.6597L66.9377,49.208L58.7861,65.9502L58.7196,53.8968Z"></path>
    </g>
    <g transform="matrix(0.4525516425072872 0.8917381963692912 -0.8917381963692912 0.4525516425072872 52.79405564706928 -96.81553870426568)" data-zeichen="2">
      <path d="M47.0249,47.8863L53.3262,90.7958C65.0517,63.8383 71.3163,56.853 63.8279,85.9261C71.3163,41.516 67.0683,34.6039 62.9054,27.8508C51.5868,34.6039 46.9784,36.6195 34.976,46.4309L55.7166,28.2361C47.914,42.0199 51.4423,39.8598 54.3081,15.2755C62.6757,39.8598 64.9794,44.2524 74.6866,38.2686C64.9081,56.0609 59.5077,62.1098 46.3211,49.8792L39.4696,93.5804L52.674,38.7205L50.2608,103.3584Z"></path>
    </g>
    <g transform="matrix(0.9663785737876701 0.25712341807798955 -0.25712341807798955 0.9663785737876701 -29.38570907848446 -37.03869407303446)" data-zeichen="3">
      <path d="M58.8855,58.9317C65.7099,66.4555 68.5907,62.352 60.2654,69.7185C68.5907,51.8383 64.4139,46.3666 59.1781,41.9655C50.1571,46.3666 45.4041,48.1664 51.0917,58.7301L40.7612,60.3141C46.6287,53.1351 50.2283,51.4789 55.4122,59.6699C59.8054,51.4789 62.1814,54.7914 67.6555,62.6803C62.1814,64.0794 56.3494,66.4554 58.1542,72.2526L44.8473,81.0546L46.5615,87.8768L66.9986,82.5989L68.7772,78.1419Z"></path>
    </g>
    <g transform="matrix(-0.7788288413098029 0.6272365071837177 -0.6272365071837177 -0.7788288413098029 95.46396883246425 26.878599979791147)" data-zeichen="1">
      <path d="M51.3662,54.911L58.7433,22.4055L60.0486,55.898L51.3528,69.9273Z"></path>
    </g>
    <g transform="matrix(-0.1299893400033272 0.9915153914516402 -0.9915153914516402 -0.1299893400033272 66.77129575652428 7.671699822185407)" data-zeichen="2">
      <path d="M41.8145,57.5647L47.0618,54.3307L33.4991,60.2756L36.2948,62.4442L61.0736,56.8073L75.3743,58.7671L51.2817,51.4346Z"></path>
    </g>
    <g transform="matrix(0.9967227316399757 -0.08089373419582652 0.08089373419582652 0.9967227316399757 -69.62248265364543 12.975186067605328)" data-zeichen="1">
      <path d="M60.3488,51.6823L55.1708,42.8141L45.3367,47.0847L48.7489,49.6995L61.8771,52.36L62.5361,69.4488L59.6212,64.95L57.8625,68.2515L60.186,60.5037Z"></path>
    </g>
    <g transform="matrix(0.9983588915196593 0.057267126029138665 -0.057267126029138665 0.9983588915196593 -39.893390018252944 -90.96089616367317)" data-zeichen="3">
      <path d="M48.9284,60.0465L52.5225,65.2528L56.0154,69.2754L56.1425,65.2573C57.8612,47.0146 63.7655,49.8232 74.4614,66.0517C63.9101,60.2637 61.3896,65.4482 48.1667,65.8389C48.8602,65.4482 44.6844,63.6484 53.9663,76.9335L36.4093,56.0156C43.4599,68.9043 48.0683,70.5606 45.7672,84.3435C64.5585,70.5606 70.3905,64.0079 75.0459,56.0605C70.3905,49.9669 65.7098,45.6466 61.4288,28.4135Z"></path>
    </g>
  </g>
<path class="glyph-merged" d="M1.79649,3.48414l-3.73725,-11.77635c-0.68737,0.03737 -1.38693,0.0772 -2.0984,0.11947l1.74481,-1.23365l-0.67236,-2.11866l-13.66225,6.304l13.21709,-7.70675l-0.09174,-0.28906l-1.63666,-7.8717l-7.65285,1.81953l7.52302,-2.44397l-1.42195,-6.83904l1.40861,-1.4339c-0.47608,-0.92451 -0.96648,-1.90937 -1.46825,-2.96624l1.89151,2.53537l7.50807,-7.64286l4.59725,6.11432l12.5623,-27.13084c2.93867,15.60035 6.78729,20.91547 10.64176,26.40435l0.92401,-0.53878l-0.87028,0.61532c0.43909,0.62548 0.8782,1.25385 1.31599,1.90056c-0.21817,0.32782 -0.43833,0.65298 -0.66146,0.97609l10.94575,-2.60244l-13.77147,6.35439c-0.15254,0.1849 -0.30737,0.36994 -0.46469,0.55523c-0.00072,0.01417 -0.00142,0.02833 -0.0021,0.04247c0.8935,1.3975 1.82591,2.93854 2.79826,4.61559c-0.93938,-0.58768 -1.81611,-1.07859 -2.6441,-1.48587c0.83877,4.99696 4.6783,7.25054 11.4814,8.34778c-4.19148,2.06534 -9.54619,4.32834 -16.47659,6.85684c0.06892,-1.14929 -4.25136,-1.71305 -11.985,-1.68509l0.04226,0.40048l-3.11063,6.38879c5.70987,-1.81773 10.69343,-3.51349 15.05338,-5.10418c-0.07086,1.18175 -4.78236,2.98258 -15.19535,5.39577l-4.899,10.06182l-0.0665,-12.0534zM21.40982,-27.40106l-8.51024,2.02338c-0.15042,0.77004 -0.29366,1.5895 -0.42983,2.45927c0.58438,-0.08009 1.1443,-0.16548 1.68427,-0.25187l7.2558,-4.23078l2.63157,-0.62568l-5.99168,4.23634c1.87633,-0.25136 3.62158,-0.33864 5.53018,0.01629l4.0957,-1.88983c-0.64748,-1.00412 -1.2743,-1.93165 -1.88089,-2.77967l-1.75331,0.41686l1.35895,-0.96083c-0.12919,-0.17575 -0.25744,-0.34775 -0.38476,-0.51598zM-6.69206,-28.55203l-6.80196,6.92408l4.3476,-18.7286zM47.16572,-18.24931c-0.82589,-2.84985 1.08549,-6.33049 5.97924,-11.95894c1.02766,0.66046 2.11475,1.35508 3.28142,2.09178c-1.87238,3.06251 -3.7659,6.15529 -9.26066,9.86715zM27.2183,-44.61372l20.84247,8.35051c3.42871,-1.00404 8.65504,-2.6147 15.68877,-5.21077c-4.43424,4.5446 -7.95615,8.2197 -10.60457,11.26573c-2.50049,-1.60703 -4.6491,-3.01182 -6.73606,-4.3285c-3.82589,-0.05428 -4.29054,-0.01204 -1.36866,-0.85566c-4.76003,-2.94593 -9.53091,-5.55968 -17.82194,-9.22132zM52.46803,-12.89613c-5.11581,-0.1684 -9.44004,-0.42644 -12.96751,-0.99537c3.15577,-1.555 5.65216,-2.99795 7.6652,-4.35782c0.55521,1.91583 2.34747,3.54659 5.30231,5.35318zM12.36725,35.05247c1.15368,2.23427 2.25703,3.71783 3.11349,4.76096c0.97047,-1.45296 1.76946,-2.80734 2.41753,-4.07493c0.61952,1.43298 1.25497,3.1832 1.98027,5.19151c-1.11781,-0.01097 -2.25899,0.01141 -3.36858,0.10135c1.15407,1.38738 0.95651,1.60732 -2.15127,3.12008l-0.45797,-2.09248c0.19084,-0.25871 0.37665,-0.51453 0.55751,-0.76751c-0.23508,0.04241 -0.46683,0.08931 -0.69461,0.14108zM14.3587,44.15144l2.62829,12.00874l-2.8648,3.84983l-8.69526,-0.06361l-6.72198,14.82098l3.80211,-13.92461l-0.08595,-0.91836l-7.69539,-0.0563l0.00652,0.10411l-0.92733,-0.11084l-0.78976,-0.00578l0.00123,-0.08848l-10.02933,-1.1988l-3.61254,-2.33021l9.45641,-5.05212l4.22064,6.04567l0.06118,-4.40965l8.37992,-2.81749l-1.35368,-14.46305l2.51361,-2.49008l3.8931,13.4l0.76084,1.5984l0.92891,-0.31232c-0.16041,-3.83839 2.28162,-5.56701 5.5282,-6.30494l0.1371,0.62643c-0.88079,1.19404 -1.86885,2.44974 -2.97351,3.77245c1.40806,-0.70523 2.53961,-1.24583 3.43148,-1.67997zM17.89827,35.7385c-2.16642,-5.011 -4.13819,-6.14269 -9.07735,-0.86571c-1.28783,-4.1021 -2.77257,-6.25196 -4.68202,-6.90066c-0.21304,-5.91555 3.24664,-7.27701 9.30186,-8.53441l-1.83279,-14.81018l9.40833,11.70353l14.64314,29.94341l-15.45948,-17.73504c-0.18793,2.06635 -0.88336,4.42485 -2.30169,7.19905zM4.88733,32.85368l-10.39046,-1.12547c4.18241,-3.02099 7.24646,-4.56993 9.64203,-3.75608c0.0492,1.36606 0.29425,2.97498 0.74843,4.88155zM-3.71257,60.15812l2.03922,16.97949l-3.26927,-4.24826l-1.48587,3.43295l1.68914,-7.91037l-0.52842,-8.4397zM13.43454,-27.78948l10.27949,-3.33945c-4.7995,-5.62079 -8.14141,-5.12323 -10.27949,3.33945z" fill="none" stroke="#1d1d1b" stroke-width="1.2" stroke-linejoin="round" style=""></path></g>
<g transform="translate(29.4463 540.9063) scale(1.8857) translate(29.462 96.2739)">
  <g data-rolle="struktur" style="display: none;">
    <g transform="matrix(1 0 0 1 -55.773399353027344 -57.52730178833008)" data-zeichen="F">
      <path d="M48.6001,39.01L69.2879,55.7344L75.7442,75.8404L45.4402,72.6034L45.6675,35.4983L76.1991,41.4794L65.606,101.2111L43.366,55.2959L45.6304,115.8148L39.1977,70.308L35.0976,42.1354Z"></path>
    </g>
    <g transform="matrix(0.015124807241912156 -0.9998856135608187 0.9998856135608187 0.015124807241912156 -74.0692720281813 77.62877790539665)" data-zeichen="E">
      <path d="M43.2329,58.0102L63.0444,54.6879L63.2803,60.6667L47.2796,59.2802Z"></path>
    </g>
    <g transform="matrix(0.9400210182831269 0.34111652728349773 0.34111652728349773 -0.9400210182831269 -54.81219419991626 -6.955162277118269)" data-zeichen="R">
      <path d="M58.4775,79.8802L59.2667,-2.8041C56.5788,33.3573 54.3969,33.6244 50.3424,49.4922L52.9796,104.0826L60.658,87.8433L56.7866,46.654Z"></path>
    </g>
    <g transform="matrix(0.5210616911665681 0.8535190179478346 -0.8535190179478346 0.5210616911665681 31.64875418673495 -122.27756820970707)" data-zeichen="E">
      <path d="M48.7236,95.5733L46.2923,54.8382L45.273,88.7776L54.788,63.0322L57.6563,60.3817L39.4723,8.121L37.197,62.8709L47.2037,53.5661L71.453,48.1611L64.6555,35.4737L49.4113,41.3028Z"></path>
    </g>
    <g transform="matrix(0.541171582652061 0.8409121940665765 0.8409121940665765 -0.541171582652061 -96.38412520412749 -22.02552191653965)" data-zeichen="E">
      <path d="M49.9798,51.2127L62.2493,52.7092L63.9977,56.8802L46.6231,63.7915Z"></path>
    </g>
    <g transform="matrix(-0.6801981220795987 -0.7330283178154766 -0.7330283178154766 0.6801981220795987 63.38642234861707 20.84128311778788)" data-zeichen="R">
      <path d="M61.9583,51.2585C57.4694,51.3229 57.1307,50.2252 52.6294,62.1499L49.7044,59.9372C50.7735,50.538 51.3246,52.1938 49.3165,44.0082C53.1339,60.2929 54.2139,64.4696 51.5937,68.5836L65.3146,61.5826C60.4786,63.9657 59.3262,59.2851 57.9111,59.0371Z"></path>
    </g>
    <g transform="matrix(0.8215437212044325 0.570145520152157 -0.570145520152157 0.8215437212044325 -19.227446098286997 -56.81209837241375)" data-zeichen="E">
      <path d="M49.6556,59.5492L71.9015,54.634L69.8523,59.8986L44.0481,56.7489Z"></path>
    </g>
    <g transform="matrix(0.7187519741106404 -0.6952665673769 0.6952665673769 0.7187519741106404 -83.44458402431732 6.049391699333981)" data-zeichen="E">
      <path d="M39.0925,50.5644L70.1596,51.3742L65.0756,63.8799L43.3545,59.7895Z"></path>
    </g>
    <g transform="matrix(0.9996973537160371 0.024600832773562044 -0.024600832773562044 0.9996973537160371 -36.6262145410791 -70.61612418208486)" data-zeichen="E">
      <path d="M41.4275,91.0977L39.8535,15.5996L53.222,31.492L39.0794,64.1317L47.2243,67.1125L40.7641,60.5529L47.1141,-10.8785L40.1496,58.8512L75.5207,124.946L62.081,114.1882L42.3732,76.958Z"></path>
    </g>
    <g transform="matrix(-0.7122312366271851 0.7019449163378211 -0.7019449163378211 -0.7122312366271851 103.3625165106962 -75.0193676816118)" data-zeichen="R">
      <path d="M54.4572,48.3745L59.9201,64.6653C65.3031,63.4717 69.3363,59.2236 72.501,43.3845C69.3363,49.0713 67.9681,45.7588 70.1979,17.9204C62.4955,40.8623 58.1752,39.6377 53.6904,61.0626C49.5522,39.6377 47.5892,39.7131 45.3813,38.6066L42.5244,68.1019C46.7259,44.75 48.8861,44.4629 57.377,43.9081C58.5345,44.5342 63.0716,47.2705 61.7259,53.4009C63.0716,59.0801 58.8226,62.752 59.0483,39.5241L49.0188,35.4648L52.4497,76.0644L47.4396,59.0096C55.5684,67.6546 58.0225,68.9168 66.5275,56.6215L71.1346,94.4514C65.0199,68.6599 63.0481,66.405 63.8831,53.0158Z"></path>
    </g>
  </g>
<path class="glyph-merged" d="M19.9708,18.3131l-3.42369,-0.36571l19.25074,38.20254l-13.17098,-11.08517l-9.61638,-19.30026l-3.17789,17.9193l-5.61838,-11.59932l-0.20587,0.13871l-10.54856,-9.40488l7.81966,3.20726l-4.95937,-10.23878l-0.65493,-0.06996c-0.54391,0.30976 -1.07118,0.61016 -1.58232,0.90178c0.45404,-0.27336 0.96664,-0.57035 1.55572,-0.90462l-1.33163,-0.14224l-5.02075,3.30853l-0.42988,-0.16635l0.62284,0.55531c1.36769,-0.79976 2.89572,-1.67618 4.60369,-2.65063c-1.91477,1.15281 -2.78808,1.88533 -3.96416,3.22083l3.34111,2.97887l-4.35302,-1.7854c-0.19228,0.232 -0.39645,0.4798 -0.6158,0.74593l1.36602,36.50866l-3.88917,-27.51312l-0.04859,0.4768l-1.33106,4.02703l-1.60913,-10.57367l-0.94868,-0.16786c0.12667,-0.2545 0.25,-0.50308 0.37005,-0.74591c0.12809,-0.09725 0.25965,-0.19534 0.39478,-0.29438l-0.05896,-0.38745c-0.10896,0.22211 -0.22088,0.44934 -0.33581,0.68183c-2.62774,1.99508 -3.79479,3.636 -4.38165,5.8813l-4.201,-14.81988c1.54256,5.16591 5.75743,2.82691 6.90177,3.69553l0.92737,-2.59676l-0.00434,-0.02849l-1.8336,-0.70954l3.12668,-2.87064l0.30185,-0.84521l-1.41683,-9.73532l-0.19342,0.03418l-7.89833,-9.50771l5.78725,-6.36118l-0.19196,-1.31897l1.76323,-0.40813l1.4026,-1.5417l0.22783,1.1643l7.15054,-1.65512l0.02571,-4.19645l12.80763,2.509l0.08434,-22.44144l-12.95462,2.54633l12.97397,-7.69649l0.01054,-2.80415l-15.9301,11.07962l-7.42045,1.45855l23.35346,-13.31153l0.0126,-3.3517l1.83768,2.29704l2.69624,-1.53686l0.20295,-1.62631l-10.19916,-2.86264l11.34172,-6.29297l1.19943,-9.61133l-23.51175,-18.68414c12.69371,7.95633 19.16731,11.48673 23.98647,14.88012l0.35621,-2.85437l-0.32703,2.87492c1.16054,0.81819 2.2254,1.62891 3.25861,2.49232c-0.21494,1.28572 -0.1981,2.71887 0.11445,4.37205l-3.80953,-3.02733l-1.07513,9.45139l5.77676,-3.20524c-0.41232,-1.16205 -0.70512,-2.2298 -0.8921,-3.21881l2.44712,1.94466c-0.30415,-1.74079 -0.53554,-3.28732 -0.68755,-4.66045c-0.6226,-0.58093 -1.24239,-1.12844 -1.87401,-1.65626c0.25333,-1.5153 0.82861,-2.82581 1.62126,-4.05037l0.19898,0.10085c0.58218,-3.57522 2.7936,-4.67233 7.13957,-4.87989l4.88449,4.1845l2.73255,-6.52896c-1.36421,-2.17469 -3.01263,-4.66269 -4.97813,-7.53499l11.42519,14.08334l8.58811,-4.76512l-6.26689,7.62638l4.9229,6.06825c-1.46297,0.47437 -2.53656,1.20852 -7.48219,-1.28878l7.09682,6.07979l-9.99273,4.149c-1.01446,-1.04953 -1.96695,-2.01101 -2.86001,-2.89058c2.54137,6.83876 3.59445,12.8137 10.08353,26.10381c-2.60216,-3.10072 -4.89648,-5.78141 -6.91223,-8.07957l-6.10026,10.39119l-6.95036,-7.20512l-9.03576,25.6612l8.63806,1.69218l-4.08752,23.04843zM31.43722,-76.6723l3.07917,-1.70848c-0.82928,-1.93973 -2.10559,-4.2759 -3.91457,-7.19351zM31.68251,-67.80257l-0.95077,2.01006c0.40707,-0.07571 0.73085,-0.16226 0.94402,-0.22409c2.11065,-2.37075 3.62001,-4.09658 3.98742,-6.34521c-0.05388,-0.02857 -0.10818,-0.05748 -0.16289,-0.08674zM7.9218,-18.4974c0.13288,-1.04832 0.24144,-2.04478 0.33422,-3.01685l-1.30802,2.82609zM13.12236,-45.21614l-1.63713,1.99227l0.5274,0.65923zM6.3975,-42.6713l-0.36505,0.07175l-2.89093,23.16569l0.65766,0.12883l2.65613,-23.34986zM11.98898,-52.55953l-1.46388,-1.51754l-2.68477,-0.75355l-0.15561,1.36793l1.27972,-0.72944l-1.29956,0.90386l-0.40181,3.53225zM-10.25441,2.21352l-2.15299,-4.44493l0.37252,9.9561l1.75659,-1.61274zM-24.53688,-30.89145l11.42273,-7.94468l2.94559,-0.57898zM6.58243,-49.35222l0.31611,-0.18752l0.43941,-3.52112l-2.3917,1.66346zM22.25997,-80.82236c1.32197,2.05441 2.44736,3.90644 3.41835,5.60592l1.07738,-2.57422c-1.37051,-0.90439 -2.8647,-1.91136 -4.49573,-3.0317zM35.69776,-72.60165c0.00423,-0.03378 0.0082,-0.06769 0.01192,-0.10172l-0.05398,0.06569zM12.6132,-92.37801l15.53988,8.63015c-2.13001,-0.08106 -3.9624,-0.12098 -5.52044,-0.04658z" fill="none" stroke="#1d1d1b" stroke-width="1.2" stroke-linejoin="round" style=""></path></g>
<g transform="translate(-3.1183 749.1089) scale(1.8857) translate(82.7402 67.7574)">
  <g data-rolle="struktur" style="display: none;">
    <g transform="matrix(1 0 0 1 -55.773399353027344 -57.52730178833008)" data-zeichen="T">
      <path d="M63.4974,21.0583L37.8186,59.2423L49.0116,68.3504L73.1028,-7.6301L82.3361,15.9061L71.7736,54.1382L58.0557,108.3021L57.5163,89.965L42.965,13.9196Z"></path>
    </g>
    <g transform="matrix(-0.9135708812212588 -0.40667953597963674 -0.40667953597963674 0.9135708812212588 56.198366770793534 -5.160109344720773)" data-zeichen="E">
      <path d="M45.6125,51.159L42.642,104.4839L41.8163,21.0336L44.1699,61.1877L51.7153,72.0632L57.2559,22.7422L46.8681,75.318L44.1425,111.0235L66.6849,51.4549L62.1033,72.1171L55.1602,101.9219Z"></path>
    </g>
    <g transform="matrix(-0.8181628936348945 -0.5749865037363714 0.5749865037363714 -0.8181628936348945 -32.71213421310316 138.52761613109743)" data-zeichen="H">
      <path d="M48.3494,74.554L61.2233,4.6306L46.4781,18.9392L47.1724,38.4105L55.6581,88.8111L58.6681,54.9592L66.8408,53.0186L63.6809,16.2438L52.5785,83.2794Z"></path>
    </g>
    <g transform="matrix(-0.39806797612617906 -0.9173559213210584 -0.9173559213210584 0.39806797612617906 37.775198158646816 76.42258599447538)" data-zeichen="E">
      <path d="M42.438,50.2613L67.924,58.5243L63.5069,55.9619L40.4056,55.4482Z"></path>
    </g>
    <g transform="matrix(-0.03021798631257102 0.9995433323789485 0.9995433323789485 0.03021798631257102 -43.96278907365529 -91.65736382321538)" data-zeichen="E">
      <path d="M39.2135,59.2101L72.3975,52.5763L63.8346,60.6069L40.3795,63.8078Z"></path>
    </g>
    <g transform="matrix(-0.9919185173713342 -0.12687653406305766 0.12687653406305766 -0.9919185173713342 27.903271010789375 102.39854524002129)" data-zeichen="H">
      <path d="M56.2001,16.2261L54.2376,46.5366L49.3187,27.6008L42.564,84.0985L60.6657,46.3151L52.4811,93.3736L65.7974,104.5747L65.4239,70.0475L57.8774,27.486Z"></path>
    </g>
  </g>
<path class="glyph-merged" d="M7.724,-36.469l-14.92089,22.18715l-5.61151,-29.32585zM-7.19689,-14.28185l1.48145,7.74207l0.3577,-1.12852l-0.31162,1.36937l1.63208,8.52926l-2.72452,8.59277l-2.36579,-1.92512l-4.62006,20.30244l10.10103,-15.6211l-4.28883,17.06584l6.81448,-13.17407l-2.91632,-15.24076l21.36668,-67.38773l9.2333,23.5362l-10.5625,38.2321l-13.7179,54.1639l-0.5394,-18.3371l-2.50105,-13.07055l-9.6477,21.1081l-7.10911,28.28817l-1.27039,-9.95474l-5.29155,11.57732l-1.70703,8.78711l-0.20813,-10.07474l-3.28786,9.21752l1.01613,-17.79376l-0.91092,0.9063l-1.45631,-3.16169l-5.01292,7.25352l2.29009,-11.91118l-6.15278,6.03981l4.84358,-10.13579l-0.75786,-1.64533l-40.05263,40.75413l18.5597,-31.90468l7.80242,3.11146l12.42347,-14.71168l-0.58761,-1.27571l0.85068,0.96419l6.1679,-7.30393l0.39101,-2.03371l1.84688,-9.08252l-0.08544,-1.76893l4.01021,-34.29555l7.97685,8.66208zM-27.91017,54.32974l-0.04907,0.071l0.04228,0.04792l0.00679,-0.11892l1.15981,-1.67821l-0.48756,-10.09384zM-10.305,7.93988l-2.78884,-2.26937l-13.30201,43.09017l6.18273,-9.56151zM-32.4154,44.80963l0.93659,-0.953l0.32392,-1.68479l-1.26052,2.63778l-2.11084,2.14781l0.70345,0.79732zM-39.50663,59.64887l-9.7147,20.3292l-10.62768,16.32991l-20.29123,3.22848zM-42.95078,37.40875l4.10894,3.03204l1.5663,3.40049zM-19.7172,51.50679l-1.51989,4.26101l-2.63311,13.55415l4.81094,-12.65955z" fill="none" stroke="#1d1d1b" stroke-width="1.2" stroke-linejoin="round" style=""></path></g>
<g transform="translate(-90.6773 978.01) scale(1.8686) translate(115.6186 99.3647)">
  <g data-rolle="struktur" style="display: none;">
    <g transform="matrix(1 0 0 1 -55.58369541168213 -57.52735137939453)" data-zeichen="W">
      <path d="M17.7166,69.025L30.227,58.7669L15.5254,64.4492L54.4126,89.2348C39.9682,63.8637 41.2641,69.9126 49.96,35.2848L64.7995,46.492C43.0649,69.768 44.5766,64.0082 44.1788,81.1641L36.3353,60.947L69.2467,16.0331L78.6526,85.5663C66.5386,63.6479 67.8345,69.4087 68.4435,101.206L49.4472,68.2408C69.7066,69.1919 71.0748,63.7915 60.9441,101.6504L86.5706,33.6399L70.6529,9.6422L66.9999,120.0906L52.2914,76.9202L44.5249,87.3814C57.4655,50.3267 56.4577,45.5748 55.2666,36.581L39.1195,48.8162C54.8014,45.5025 53.7214,50.2545 60.3523,34.352L65.3679,63.1586L55.3325,65.2861Z"></path>
    </g>
    <g transform="matrix(-0.10277737040381382 0.9947043842935837 -0.9947043842935837 -0.10277737040381382 96.55896891472325 -35.40315563338576)" data-zeichen="D">
      <path d="M66.4842,49.2687C61.4622,34.954 55.0535,32.8652 43.3607,57.0052C43.5816,32.8652 41.2178,32.9724 41.7946,44.4516L30.8377,28.7277C40.6521,38.1219 43.1004,37.8339 36.9886,4.4625C59.5896,37.8339 66.0706,45.1064 57.0374,10.7714C65.9983,69.6611 58.7258,77.1494 46.5617,100.017C42.8846,77.1494 40.5804,77.0771 37.4756,118.2366L41.5964,98.2588C40.5887,82.1516 42.2857,82.1894 33.9385,65.603C53.5413,82.1894 61.0301,79.7412 54.7963,117.2508C70.1028,70.7411 72.5511,64.2607 68.1442,15.0601C72.5511,48.4912 70.0306,42.874 56.7493,6.9192Z"></path>
    </g>
    <g transform="matrix(-0.975003765590403 -0.2221883369678398 -0.2221883369678398 0.975003765590403 43.48130010920915 -66.8922509451223)" data-zeichen="R">
      <path d="M59.3233,39.9829L56.7378,22.2673C56.5788,33.3573 54.3969,33.6244 52.736,45.3536L53.8814,113.8453L57.1558,42.8698L57.1489,21.6949Z"></path>
    </g>
    <g transform="matrix(0.13937285853392142 0.9902399740992501 0.9902399740992501 -0.13937285853392142 -112.65666261409166 -54.97118748212745)" data-zeichen="O">
      <path d="M68.098,17.9672C66.6826,42.6305 58.1133,32.4772 37.5932,28.3252L44.5721,82.8393C55.108,37.7838 60.0576,47.7607 59.0479,47.9902C60.0576,68.1999 54.5716,77.2375 53.1002,63.1946L39.5491,116.0741C56.9194,82.2392 66.6826,73.4113 65.2469,71.2819Z"></path>
    </g>
    <g transform="matrix(-0.8354431818673963 -0.5495768279970332 0.5495768279970332 -0.8354431818673963 -49.61850395890434 58.753172699458084)" data-zeichen="D">
      <path d="M58.4601,95.2916L58.3798,72.672C56.66,33.2407 54.5593,33.4936 52.9969,15.3128L54.2764,74.0839C54.5156,81.7362 56.5978,81.8969 59.6419,81.3111L57.2276,107.5434Z"></path>
    </g>
    <g transform="matrix(-0.5048346726589865 0.8632160524928241 -0.8632160524928241 -0.5048346726589865 8.979338848877866 -68.63653140899459)" data-zeichen="L">
      <path d="M59.1758,37.8797L53.0836,70.4287L52.703,110.5072L61.3156,66.246L61.3461,54.8918Z"></path>
    </g>
    <g transform="matrix(-0.7702412406112157 -0.6377526411248293 -0.6377526411248293 0.7702412406112157 9.953939150943008 -78.15911244414141)" data-zeichen="O">
      <path d="M59.7058,50.1558C56.8179,77.4731 51.2017,68.184 57.123,42.2618C51.2017,47.1587 56.3863,37.5815 65.2564,70.2393C66.852,37.5815 66.9458,37.5883 58.7947,24.5259L62.9926,70.9183C54.0816,32.4692 44.5044,42.5503 38.5797,14.7986C44.5044,72.6489 53.5054,82.5854 72.5279,36.2901C66.5641,82.5854 66.803,82.5759 69.6906,81.2911L59.5822,89.8346C66.9207,77.455 66.8063,77.4731 73.4289,43.5744Z"></path>
    </g>
    <g transform="matrix(0.304408968596227 -0.9525414320848103 -0.9525414320848103 -0.304408968596227 55.58537106095697 96.99553149845751)" data-zeichen="L">
      <path d="M40.2688,55.0936L52.5148,60.0496L58.8417,64.0417L66.2543,57.2842L42.9033,56.966Z"></path>
    </g>
    <g transform="matrix(0.31319073018810234 -0.9496902476724941 -0.9496902476724941 -0.31319073018810234 38.215859952541635 112.5796969861878)" data-zeichen="R">
      <path d="M66.5982,73.7023L62.6034,66.3108C65.3031,63.4717 69.3363,59.2236 78.1537,37.0907C69.3363,49.0713 67.9681,45.7588 74.4988,70.4332C62.4955,40.8623 58.1752,39.6377 60.1843,54.8479C49.5522,39.6377 47.5892,39.7131 52.9563,26.6707L52.6093,49.3481C46.7259,44.75 48.8861,44.4629 55.0434,30.5421C58.5345,44.5342 63.0716,47.2705 60.3992,54.9395C63.0716,59.0801 58.8226,62.752 44.85,47.1729L43.9053,85.8099L45.6999,61.9635L53.9753,68.4159C55.5684,67.6546 58.0225,68.9168 61.7113,99.0164L59.8698,77.0062C65.0199,68.6599 63.0481,66.405 54.0442,38.3465Z"></path>
    </g>
    <g transform="matrix(-0.9997845104839566 -0.02075891606889108 0.02075891606889108 -0.9997845104839566 79.77832466255148 34.466187223951025)" data-zeichen="R">
      <path d="M58.4648,40.6545C57.4694,51.3229 57.1307,50.2252 61.1307,52.5269L52.3383,53.9412C50.7735,50.538 51.3246,52.1938 49.5839,58.3255C53.1339,60.2929 54.2139,64.4696 52.8255,55.5047L57.687,69.8509C60.4786,63.9657 59.3262,59.2851 54.0243,48.5759Z"></path>
    </g>
  </g>
<path class="glyph-merged" d="M-37.86709,11.49765l2.18151,-1.78876l2.13354,1.35986zM-35.68559,9.70889l-4.37271,-2.78704l11.01025,-4.25556l1.09772,-6.1032c-2.80932,2.47089 -4.22419,3.53196 -5.0265,3.14104l-47.60158,9.31545l-4.90043,7.81474c1.59835,-2.95285 2.83847,-5.3943 3.92412,-7.62368l-3.81909,0.74738c1.41058,-0.28176 2.70089,-0.57109 3.87877,-0.87004c2.62973,-5.40943 4.36597,-9.59431 8.15006,-16.87552c-1.75435,-3.78447 -4.05876,-8.34162 -6.02347,-13.90513l13.77126,-0.17216c2.02332,-3.52545 4.37693,-7.5443 7.14452,-12.17952l2.4018,-3.6795l-13.32292,-5.66903l-9.78573,-5.75832l-11.48913,-10.10472c-1.20732,3.65696 -1.7432,6.97354 -2.58234,12.29241l-2.33727,-13.02722c0.60459,1.2185 0.98194,1.94215 3.20322,-0.77476l-20.65352,-18.16483l23.61875,14.11564c1.00006,-1.45225 2.1855,-3.22776 3.59706,-5.38447c-1.14625,2.24024 -2.07201,4.14167 -2.83396,5.84053l10.02242,5.98985l23.01566,19.95211l1.96911,-3.01662c2.0892,1.1277 2.82041,2.86228 -0.61904,8.4645l-6.92836,11.04869l36.63333,-0.45796l2.7726,-15.41534l3.95573,-17.33243l1.02945,-2.66222c-2.30904,10.84812 -0.24103,11.59334 -1.22774,23.39838l-3.56057,14.50076l27.79355,-11.44721l7.44356,-10.15816l0.96008,7.09743l-1.00827,30.48508c1.4775,-0.26569 3.07989,-0.66215 4.96528,-1.23283l-3.95701,-29.25224l0.44612,-13.48833l8.07918,12.18026c0.12531,-0.28524 0.26044,-0.57237 0.40541,-0.86228l0.88865,2.81322l4.6872,7.06647c0.58527,0.56161 1.34529,1.26412 2.28625,1.81143c-1.52824,4.98683 -1.46003,7.00914 -2.20326,5.69737l-4.50366,11.95232c0.97022,-0.35496 2.00275,-0.741 3.1063,-1.16053c-1.55742,1.49694 -2.97204,2.92244 -4.27869,4.27195l-3.54466,9.40722l-0.67237,-4.97048c-2.18721,2.31354 -4.10991,4.30599 -6.04127,5.94156l-0.24227,7.32488c1.06556,0.49895 2.15962,0.97423 3.29297,1.42513l3.66293,-9.72109l1.55971,11.53018c7.35943,2.19329 16.5634,3.53412 29.70871,3.88541c-1.61577,2.13787 -5.32877,3.71216 -10.54223,4.95738l43.12576,-5.33078c-21.74538,5.57297 -32.76063,8.54398 -31.38432,9.85888c-10.35795,-0.54444 -18.42508,-1.47636 -26.00465,-3.11529c-4.36979,1.47486 -7.03763,2.66745 -9.44493,3.08576l-2.02614,6.65133l-0.49144,-6.51961c-0.6184,-0.04895 -1.25326,-0.16069 -1.92916,-0.3436c0.04135,2.13823 0.097,4.50251 0.15571,7.09151c1.86571,2.44264 2.10578,3.74339 0.96896,4.01684c-0.30171,-0.23012 -0.59895,-0.44849 -0.8946,-0.65467c0.00491,0.22964 0.0098,0.46081 0.01468,0.69351c0.35074,0.03032 0.64478,0.01771 0.87992,-0.03885c2.94335,2.24497 6.31131,5.60817 12.76151,9.6797c-2.00003,0.19641 -3.75256,0.40108 -5.29387,0.59223l8.31684,2.60235c-7.10638,0.5114 -10.44763,0.29472 -13.44726,-1.96082c-1.87845,0.20955 -3.22807,0.2807 -4.26151,0.08588l-0.3474,10.50359l-8.47698,-24.88049c-0.40213,-0.28772 -0.7922,-0.56485 -1.171,-0.83165c0.17343,-0.15994 0.37403,-0.25825 0.59326,-0.29921l0.26159,0.20291l-0.07625,-0.2238c-0.06308,0.00267 -0.12491,0.0096 -0.18534,0.02089l-6.19244,-4.80341c0.49364,-0.21785 1.03893,-0.44423 1.66365,-0.676l-6.64955,-4.23823l2.73609,-3.68541c1.26127,2.21577 2.7362,4.75142 4.43951,7.73405c0.60404,-0.21145 1.27878,-0.42659 2.0446,-0.64315l-2.66744,-7.8291c-0.64424,-0.55889 -1.30874,-1.13123 -1.99379,-1.71716l-1.82288,2.45535c-0.6042,-1.06146 -1.15937,-2.04951 -1.66713,-2.97812c0.52311,-1.56915 1.01437,-3.06566 1.47553,-4.49415c-1.47891,-0.64045 -3.00455,-1.30806 -4.58355,-2.00402c0.71142,1.91608 1.73682,3.99041 3.10802,6.49818c-0.63461,1.90361 -1.31609,3.91414 -2.04754,6.03982l-19.97235,-12.72981l-2.74362,11.17365l16.3459,6.94993c6.50166,-1.55193 9.27993,-0.84819 17.93374,5.2468c-1.40726,1.29779 -1.02649,6.65365 5.69459,18.36087l-36.98905,-11.20358l23.20875,5.76416l-3.536,-9.8799c1.16051,-1.21044 0.83092,-3.73004 -22.70252,-15.05666l-1.79235,7.29954l1.35104,-7.51166c-1.11309,-0.53435 -2.27712,-1.08803 -3.49433,-1.6618l3.52375,1.49822l2.1008,-11.68023l-2.68495,-1.71131l3.04722,-0.30288l1.11922,-6.22274zM22.82422,26.23013l0.1102,0.81464c0.82729,-0.06095 1.68058,-0.12051 2.56083,-0.17856c-0.89513,-0.2017 -1.78447,-0.41355 -2.67103,-0.63609zM21.93779,26.00383c-1.12646,-0.29239 -2.25004,-0.60237 -3.37697,-0.93106l-0.72935,2.39429c1.46539,-0.13599 3.03033,-0.26715 4.70309,-0.39258c-0.20286,-0.36517 -0.40175,-0.72206 -0.59677,-1.07066zM13.06875,23.66578l-0.40126,1.06491l0.05008,-1.51418c-0.07378,-0.02525 -0.14761,-0.05059 -0.22151,-0.07601c-0.00414,0.64362 -0.00367,1.32477 0.00067,2.04337l0.17076,-0.45318l-0.10896,3.29448c0.51468,-0.06211 1.04519,-0.12358 1.59216,-0.18434zM-3.29229,19.39285l-0.85625,1.15334c0.55117,0.35828 1.08546,0.70498 1.60366,1.04037zM-16.45693,-8.71666l9.1454,-6.92977c-0.39869,1.53311 -0.77565,2.96891 -1.1297,4.31764l-1.06046,1.4472c-1.87181,0.24063 -4.14012,0.57464 -6.94535,1.16682c1.89373,0.36064 3.66882,0.7071 5.32823,1.04005l1.61712,-2.20687c0.24116,-0.031 0.47573,-0.06045 0.70403,-0.08871c0.11608,-0.44285 0.2349,-0.89554 0.35643,-1.35849l5.70324,-7.78317l-4.57354,3.46553c0.51537,-1.98178 1.06704,-4.12616 1.65246,-6.45531c-6.55547,5.03135 -11.54624,9.21531 -15.36093,12.53093c1.59154,0.29324 3.11212,0.57786 4.56308,0.85416zM-2.28928,-19.72431l7.79169,-10.63325c-4.10565,2.93279 -7.7734,5.65746 -11.05144,8.17139zM-25.35669,1.23955l-1.75965,1.44285l-1.94973,7.94046l9.27942,-0.92234c-1.89625,-0.84811 -3.86565,-1.7304 -5.91608,-2.64828c3.18522,0.87347 6.0812,1.61297 8.72629,2.22351l-2.27195,-5.8561l7.08431,-9.66789l-9.29493,-2.94032c-1.30399,1.13739 -2.46563,2.1682 -3.50159,3.09154l-1.94881,7.93671zM-6.13649,10.71345c0.48137,0.0226 0.95207,0.04161 1.41221,0.0577c0.28117,-0.91422 0.54785,-1.7961 0.80067,-2.64738l-5.20192,0.51705c-0.44718,0.68174 -0.79958,1.33712 -1.07844,2.00997c1.56418,0.26502 3.02066,0.46782 4.38301,0.6102zM-12.01258,8.92779l-4.52141,0.44941c1.67736,0.38206 3.25255,0.71127 4.73565,0.98894c-0.09141,-0.47745 -0.16264,-0.95526 -0.21424,-1.43836zM-11.40489,23.63675c0.1092,-4.70955 0.07451,-7.6922 0.41631,-10.02269c-1.67087,-0.73674 -3.40148,-1.50513 -5.19961,-2.30656zM5.36041,44.12305l1.33898,-3.55353c-0.08227,-0.11187 -0.16525,-0.2246 -0.24896,-0.3382c-0.01375,-0.01008 -0.02748,-0.02014 -0.04121,-0.0302c-0.33448,1.25282 -0.6842,2.55936 -1.04881,3.92193zM-11.05879,29.85405c0.32635,-0.93449 0.64383,-1.84843 0.95266,-2.74242l-0.81443,-0.86247l0.87727,0.68049c0.08325,-0.24116 0.16586,-0.48086 0.24784,-0.71912l0.97858,0.62372l-0.49312,0.66422l5.47902,4.25002c-0.48082,0.2122 -0.91264,0.41631 -1.3211,0.60945l-4.34757,-4.60402zM-0.31709,-20.94635l-1.79217,1.35799l2.17619,1.64352c-0.11144,-0.98145 -0.24651,-1.96321 -0.38401,-3.00151zM35.39915,1.86908c23.98946,2.70078 24.12577,0.33848 12.64808,-0.26758l16.76675,-9.28282c-10.35315,8.79692 -10.3183,11.26185 23.50453,8.61224c-19.98174,10.71813 -31.22241,17.21021 -30.98624,19.86735c-2.11395,-0.00837 -4.1357,-0.03864 -6.07193,-0.09039c2.95715,-3.91269 -1.11048,-9.71311 -15.86119,-18.83881zM57.33227,20.79827c6.58715,0.02608 14.06964,-0.16055 22.65019,-0.57313c-15.34512,2.38674 -22.46657,2.63906 -22.65019,0.57313zM74.57494,30.83234c-13.966,0.39263 -21.1417,0.29127 -22.11539,-0.63897c6.3667,0.33465 13.59891,0.52291 22.11539,0.63897zM-17.05945,-58.43746l-0.75581,3.31165l-5.42762,14.03609zM-56.90517,-3.18813c20.15318,-1.81684 28.33797,-8.50889 14.22706,-8.00873l17.41344,-7.172l0.71167,-3.95684c-42.98531,16.66617 -32.43862,20.16829 -32.35218,19.13757zM-38.32555,-62.54419l-8.36287,10.47733l0.59988,-0.919zM-54.75923,-41.95544l8.0708,-10.11142l-6.9411,10.63359c-0.34395,-0.18565 -0.7247,-0.35486 -1.12971,-0.52217zM-80.44797,8.81157c10.68709,-2.93674 11.17463,-6.82417 8.46649,-13.50155zM-68.02093,-77.60458c-0.50773,0.76449 -0.98706,1.49946 -1.43887,2.20513c-1.5129,0.76602 -3.26149,1.72426 -5.27917,2.92782c0.01376,-0.1324 0.0282,-0.26593 0.04332,-0.40061l-0.92548,0.93213c-2.6872,1.63492 -5.82485,3.68583 -9.48341,6.26476c5.09573,-6.80484 8.86137,-11.84408 11.90087,-15.66129c0.34779,-1.54602 0.74756,-3.18143 1.19933,-4.90709l1.0121,2.19502c7.00536,-8.34806 10.18503,-9.44275 20.01862,-12.71602l-17.67399,17.801zM-60.99713,-82.03768c0.79094,4.15221 1.78665,2.78746 -2.08186,3.96462c0.68486,-1.25145 1.38041,-2.57341 2.08186,-3.96462zM-75.62112,-71.94012c0.29962,-0.18229 0.59364,-0.35941 0.88216,-0.53152c-0.08949,0.86097 -0.1503,1.67368 -0.18244,2.43848c-2.66643,1.75041 -5.60445,3.83252 -8.8725,6.32454zM-29.19958,-91.36493c-25.70322,25.28321 -40.57153,35.62651 -44.61558,28.44748c2.04557,-1.64714 5.60381,-6.13721 9.64021,-13.19611c13.79218,-6.36169 18.6589,-2.3541 34.97537,-15.25137zM-72.00433,-86.24374l-1.48065,-3.2112c1.38272,-2.18403 2.85748,-4.51657 4.43083,-7.0069c-1.15234,3.70272 -2.13575,7.10708 -2.95019,10.21811zM-74.39372,-91.42579l0.90874,1.97085c-5.36427,8.47298 -9.34311,14.71084 -12.31776,19.2558c2.52793,-4.94058 6.12827,-11.52902 11.40903,-21.22665zM-63.07898,-78.07306c-0.36867,0.67367 -0.73424,1.3269 -1.09597,1.9595c-2.16775,0.99988 -4.55599,2.25592 -7.24383,3.87401c0.58512,-0.97911 1.23691,-2.0321 1.959,-3.15991c2.93007,-1.48357 4.97611,-2.24616 6.38081,-2.6736zM-71.41879,-72.23955c-1.56989,2.627 -2.65978,4.72223 -3.33941,6.30416c-0.17459,-1.16715 -0.22899,-2.53207 -0.1632,-4.09777c1.22277,-0.80271 2.38843,-1.53566 3.50261,-2.2064zM-73.81517,-62.91745c-1.90527,1.53417 -2.49825,0.60201 -0.94303,-3.01794c0.18271,1.2214 0.49705,2.22622 0.94303,3.01794zM14.38304,38.78739l0.60078,-1.97222l0.38079,5.05167zM12.78175,48.71208c-0.28274,-0.34368 -0.57239,-0.70701 -0.87135,-1.09092l-0.02679,0.80989zM7.18907,39.26993l0.40855,-1.08425c-0.20487,-0.03323 -0.4142,-0.06183 -0.62849,-0.08574c-0.08393,0.3157 -0.16894,0.63508 -0.25503,0.95818c0.16063,0.07246 0.31896,0.14306 0.47498,0.21181z" fill="none" stroke="#1d1d1b" stroke-width="1.2" stroke-linejoin="round" style=""></path></g>
<g transform="translate(0 1236.7517) scale(1.8853) translate(69.5608 -20.7537)">
  <g data-rolle="struktur" style="display: none;">
    <g transform="matrix(1 0 0 1 -119.38193112770881 11.831420183895744)" data-zeichen="!">
      <path d="M56.6739,69.8515L54.4211,86.2399L57.874,84.5982L62.5531,25.6687L52.4211,19.1669Z"></path>
    </g>
    <g transform="matrix(1 0 0 1 -100.23222145680015 -29.309187306494906)" data-zeichen="!">
      <path d="M53.0676,55.908C53.3247,53.0629 51.5249,54.935 48.3775,56.8694C51.5249,60.0472 53.2534,61.9916 57.1438,69.4902C58.3657,61.9916 60.0219,60.0473 63.2475,63.6007C60.0219,54.9349 58.3657,53.0629 54.7936,57.6652Z"></path>
    </g>
  </g>
<path class="glyph-merged" d="M-66.96083,30.99832l10.132,6.5018l-4.6791,58.9295l-3.4529,1.6417l2.2528,-16.3884zM-45.43862,28.35601c3.5721,-4.6023 5.2283,-2.7303 8.4539,5.9355c-3.2256,-3.5534 -4.8818,-1.6091 -6.1037,5.8895c-3.8904,-7.4986 -5.6189,-9.443 -8.7663,-12.6208c3.1474,-1.9344 4.9472,-3.8065 4.6901,-0.9614z" fill="none" stroke="#1d1d1b" stroke-width="1.2" stroke-linejoin="round" style=""></path></g>
</svg>