<svg xmlns="http://www.w3.org/2000/svg" width="72.2mm" height="632.169mm" viewBox="0 0 204.6614 1791.974" fill="#1d1d1b">
<g transform="translate(15.3252 -16.6682) scale(1.6285) translate(48.3944 71.0508)">
  <g data-rolle="struktur" style="">
    <g transform="matrix(1 0 0 1 -55.81448173522949 -57.51894950866699)" data-zeichen="J">
      <path d="M106.004,35.3222L106.1433,24.4383C106.1798,21.5877 105.476,21.3914 104.0319,23.8493L85.746,54.9727C66.4662,78.2294 60.1293,82.1894 62.8667,80.0873C49.473,82.1894 46.6644,81.6855 51.9696,84.5079L59.141,70.2286C47.3128,76.4287 49.1848,76.8613 102.7666,68.2362C56.8889,76.8613 60.2014,74.3408 38.2612,62.63L47.3259,37.0111C49.0304,32.1939 52.3993,30.2258 57.4327,31.1067L101.737,38.8609C104.5451,39.3524 105.9675,38.1728 106.004,35.3222Z" style="paint-order: stroke;" stroke="#1d1d1b" stroke-width="0.92" stroke-linejoin="round" stroke-linecap="round"></path>
    </g>
    <g transform="matrix(-0.22071761035298681 -0.9753377550777306 -0.9753377550777306 0.22071761035298681 64.83165618627807 15.468034356084976)" data-zeichen="A">
      <path d="M90.0661,44.1504L87.5531,42.0053C86.8949,41.4435 86.7994,40.7984 87.2667,40.0701L91.1285,34.0509C91.9864,32.7136 91.6408,32.2214 90.0917,32.5742L34.1038,45.3257C46.3039,41.6142 47.0236,44.4951 11.1653,49.8323L9.3238,59.7501C8.9775,61.615 9.6785,62.1794 11.4266,61.4433L22.8244,56.6444C25.4606,55.5344 27.6634,56.1031 29.4327,58.3506L53.4855,88.9028C54.7338,90.4884 54.3578,91.414 52.3573,91.6796L44.719,92.6935C42.7185,92.9591 42.2904,92.2607 43.4345,90.5984L81.3451,35.5181C82.5466,33.7725 83.7271,33.7865 84.8866,35.5602L90.3431,43.9066C90.8166,44.6309 90.7243,44.7122 90.0661,44.1504Z" style="paint-order: stroke;" stroke="#1d1d1b" stroke-width="0.92" stroke-linejoin="round" stroke-linecap="round"></path>
    </g>
    <g transform="matrix(-0.9633421790410386 -0.2682756904388909 -0.2682756904388909 0.9633421790410386 86.52813438868955 -49.99062848171769)" data-zeichen="A">
      <path d="M77.8567,33.8723C64.2326,44.6376 65.0246,41.6864 22.3961,41.9702L27.6751,40.7533C28.6678,40.5245 29.6729,40.3869 30.6905,40.3406L72.9282,38.4176C78.1761,38.1787 78.2356,38.6277 73.1068,39.7646L51.8369,44.4797C47.833,45.3672 46.6779,47.6785 48.3714,51.4136L55.2531,66.5912C56.6696,69.7153 59.088,71.4065 62.5085,71.6649L75.5684,72.6516C78.9889,72.91 78.986,73.1219 75.5598,73.2874L37.1276,75.1431C35.5334,75.2201 34.0381,74.8721 32.6418,74.099L27.3103,71.1474C25.914,70.3743 25.9547,69.6863 27.4325,69.0834L96.5541,40.883C99.8322,39.5456 99.7395,38.5099 96.276,37.7759L77.8567,33.8723Z" style="paint-order: stroke;" stroke="#1d1d1b" stroke-width="0.92" stroke-linejoin="round" stroke-linecap="round"></path>
    </g>
    <g transform="matrix(0.1975381487241265 -0.9802952003343915 -0.9802952003343915 -0.1975381487241265 49.46166275811179 33.69653954641335)" data-zeichen="A">
      <path d="M33.1168,45.4763L84.2647,50.5052C95.4536,51.6053 95.4331,51.8843 84.2034,51.3423L26.8285,48.5731C25.264,48.4976 24.1384,49.1637 23.4517,50.5716L20.8299,55.947C20.1432,57.3549 20.5657,57.8948 22.0974,57.5667L71.3266,47.0211C81.0093,44.947 80.8995,43.9182 70.9971,43.9348L33.1881,43.998C23.2857,44.0146 23.2619,44.5074 33.1168,45.4763Z" style="paint-order: stroke;" stroke="#1d1d1b" stroke-width="0.92" stroke-linejoin="round" stroke-linecap="round"></path>
    </g>
  </g>
<path class="glyph-merged" d="M10.65172,7.82085c3.9143,22.5883 -3.7385,11.7046 -14.6895,16.8496c-1.57134,3.81212 -2.53642,6.92805 -3.09643,9.37729c-0.54721,-2.74222 -1.63348,-6.26876 -3.59987,-10.52959l0.9355,-5.1123c6.665,7.8542 -6.4662,-24.8872 5.2568,0.9365c7.8083,-11.4919 21.664,2.9078 8.9287,-12.0254l0,-25.17856c-1.92893,-0.30663 -3.29088,-1.45539 0,-2.14006v-1.28077l-11.28285,-1.19315c-0.03362,-0.00357 -0.06726,-0.0059 -0.10107,-0.00717l-4.96067,-0.18044c-0.03381,-0.00127 -0.06746,-0.0036 -0.10107,-0.00717l-15.91645,-1.67507c-0.04441,-0.00461 -0.0715,-0.02873 -0.08137,-0.07232l-1.44842,-6.40046c-0.00987,-0.0436 0.00738,-0.06298 0.05182,-0.05827l30.09865,3.21161l2.72967,-13.54615c0.00668,-0.03313 0.02514,-0.04227 0.05548,-0.02728l4.4529,2.19374c0.03034,0.01499 0.04213,0.03899 0.03545,0.07212l-2.38371,11.82932l6.15407,0.65666c0.34812,-1.14052 0.71246,-2.39075 1.09301,-3.75903l-0.07032,-0.01958c-0.00048,-0.00013 -0.00062,-0.00038 -0.00049,-0.00086l1.47772,-5.30628c0.00644,-0.02312 0.02122,-0.03146 0.04434,-0.02502l3.40069,0.94704c0.02312,0.00644 0.03538,0.02169 0.03671,0.04562l0.49307,8.809l3.30784,0.35296l0.86499,3.82235c0.00583,0.02575 -0.00413,0.04154 -0.02988,0.04736l-3.85773,0.873l2.08068,37.1724c0.00242,0.04313 -0.01724,0.05893 -0.05886,0.04735l-6.11809,-1.70379c-0.04162,-0.01159 -0.06348,-0.03896 -0.06548,-0.08208l-0.75439,-15.94281c-0.0016,-0.03377 -0.00218,-0.06746 -0.00179,-0.10129l0.06397,-4.96328c0.00039,-0.03384 -0.00029,-0.06755 -0.00211,-0.10128l-0.77599,-14.14748c-0.773,-0.00566 -1.49388,-0.00272 -2.16551,0.00791zM-7.13422,34.04774c1.78886,8.96441 -2.18292,9.54706 0,0z" fill="none" stroke="#1d1d1b" stroke-width="3.0149999999999997" stroke-linejoin="round" style="display: none;"></path></g>
<g transform="translate(8.6306 132.0569) scale(1.6285) translate(47.3922 35.1766)">
  <g data-rolle="struktur" style="">
    <g transform="matrix(1 0 0 1 -55.77340316772461 -57.52729606628418)" data-zeichen="I">
      <path d="M28.5919,42.4401L42.857,78.6325C43.3903,79.9857 44.2475,80.2378 45.4284,79.3887L49.9374,76.1466C51.1183,75.2975 52.1031,74.2619 52.8916,73.0397L82.6226,26.9593C84.4715,24.0936 84.4729,24.0945 82.6266,26.9618L75.577,37.9098C73.7307,40.7771 71.1369,41.8697 67.7955,41.1876L35.2249,34.5388C28.1581,33.0962 25.9471,35.73 28.5919,42.4401Z" style="paint-order: stroke;" stroke="#1d1d1b" stroke-width="0.92" stroke-linejoin="round" stroke-linecap="round"></path>
    </g>
    <g transform="matrix(0.9686021834685827 0.24861578827559197 0.24861578827559197 -0.9686021834685827 -52.66830546829344 44.02843594482001)" data-zeichen="S">
      <path d="M102.3854,60.1469C48.8969,53.2065 51.4164,49.2465 49.0358,44.7661C62.434,49.2465 65.6742,50.6869 65.2247,40.6972L71.6057,53.2159C66.8265,45.2143 63.226,44.0619 101.8908,33.399C48.8246,44.0619 42.5599,49.6781 -0.4826,51.364C42.5599,64.0795 47.4564,68.184 104.1969,62.5209L27.666,67.6883C51.849,63.2875 48.8969,61.0551 43.6519,63.4911L102.3854,60.1469Z" style="paint-order: stroke;" stroke="#1d1d1b" stroke-width="0.92" stroke-linejoin="round" stroke-linecap="round"></path>
    </g>
    <g transform="matrix(0.1268091252866283 -0.9919271373160633 -0.9919271373160633 -0.1268091252866283 42.131321884702245 99.07844852177548)" data-zeichen="S">
      <path d="M69.3923,35.4248L4.859,46.3578C61.4623,51.0468 64.0541,53.6396 54.1935,51.4046C64.0541,63.0722 60.31,66.456 96.3669,71.803C49.5815,66.456 45.477,65.0165 93.2269,73.5119L35.2623,78.4214C43.6762,70.2723 48.7885,71.6405 23.4091,69.6907C64.9184,71.6405 70.4624,65.16 64.8742,58.4585C70.4624,50.5428 66.2866,46.5828 16.4001,49.2441L69.603,36.4543C79.6069,34.0494 79.5367,33.7062 69.3923,35.4248Z" style="paint-order: stroke;" stroke="#1d1d1b" stroke-width="0.92" stroke-linejoin="round" stroke-linecap="round"></path>
    </g>
  </g>
<path class="glyph-merged" d="M3.1323,-24.2035l0,22.62824c5.3934,-1.16945 13.30068,-3.78021 15.48786,-9.39223l1.79728,5.74037c0.46284,1.17128 0.9193,2.03837 1.33922,2.66797c-2.11666,-0.31043 -6.12343,0.29233 -13.0118,3.99969c13.91447,1.97834 -1.02756,2.76995 1.25282,6.17014c-2.75889,-1.64887 -5.53767,-0.65093 -6.86539,-6.51605v23.10887c0,0.0417 -0.0209,0.0626 -0.0626,0.0626h-6.1394c-0.0417,0 -0.0626,-0.0209 -0.0626,-0.0626v-48.407c0,-0.0417 0.0209,-0.0626 0.0626,-0.0626h6.1394c0.0417,0 0.0626,0.0209 0.0626,0.0626zM15.79418,10.75817c-1.20317,-6.05917 -3.31365,-2.53481 9.50015,0.06007l0.40323,5.38152c9.96852,16.62874 -9.71481,9.63651 -10.98333,-0.36612c-0.9225,-3.58675 -2.0101,-5.65537 -3.15144,-6.92589c0.94663,0.55624 2.31753,1.16979 4.23138,1.85043zM11.5628,8.90775c-0.80251,-0.47156 -1.30011,-0.90192 -1.56512,-1.29707c0.52582,0.31426 1.05092,0.72467 1.56512,1.29707zM21.75665,-2.55914c3.23471,0.4744 2.05517,3.08149 0,0zM6.43257,35.96441l-5.47375,2.49401c1.39037,-1.43951 2.48347,-2.71624 3.31862,-3.84679c0.60372,0.39734 1.31627,0.84522 2.15524,1.35279zM-7.86269,27.69228c0.13539,0.15452 0.27225,0.31183 0.4106,0.47196c-2.87792,0.50425 -2.38208,0.07995 -0.4106,-0.47196zM-16.95295,37.18456c1.85201,4.8724 3.68988,7.17433 5.21607,8.0871c-0.95521,0.79937 -2.11341,1.92067 -3.49815,3.45734l-5.41523,0.9046c-11.35458,6.57693 -4.28535,-19.55418 -1.5002,-12.67738c1.52629,-1.07187 2.87654,-2.19268 4.07186,-3.33796c0.4364,1.66433 0.86963,2.98758 1.12564,3.5663zM-6.13953,21.87158c2.56398,1.95364 4.32126,3.45177 5.5101,4.61854c-2.69514,0.1471 -5.52085,0.72277 -7.23326,1.20215c-1.26008,-1.43814 -2.39272,-2.63479 -3.40921,-3.61619c4.39792,-9.61991 1.32255,-15.9028 5.13237,-2.20451zM-0.62943,26.49012c5.30653,-0.28963 10.1069,1.08217 4.90686,8.1215c-7.17262,-4.72066 1.01689,-2.3077 -4.90686,-8.1215zM-18.07859,33.61826c-1.80903,-6.89923 -3.67261,-19.65957 6.80669,-9.54217c-1.38218,3.02334 -3.5025,6.37629 -6.80669,9.54217zM-11.73688,45.27166c5.90655,-4.94294 4.0514,2.42303 0,0z" fill="none" stroke="#1d1d1b" stroke-width="3.0149999999999997" stroke-linejoin="round" style="display: none;"></path></g>
<g transform="translate(-18.9226 315.9853) scale(1.6286) translate(91.7122 69.1717)">
  <g data-rolle="struktur" style="">
    <g transform="matrix(1 0 0 1 -55.773345947265625 -57.52725601196289)" data-zeichen="N">
      <path d="M3.3611,87.8621L76.5281,23.5775C78.2124,22.0976 77.9455,21.5211 75.7274,21.8478L67.2581,23.0955C65.04,23.4222 63.712,24.6851 63.2743,26.884L56.1084,62.8805C63.5502,63.5034 66.3588,68.6167 109.4376,60.5544L30.6408,79.3043C68.2308,67.0317 68.0863,61.1274 62.5815,41.5281L108.6066,31.4265C109.974,31.1264 110.1054,30.5463 109.0008,29.6862L104.7833,26.4024C103.6787,25.5423 103.0962,25.8116 103.0358,27.2102L100.4253,87.6732C100.2832,90.9644 101.0887,91.2154 102.8417,88.4263L109.5351,77.7768C111.2881,74.9877 110.6929,72.8534 107.7495,71.374L53.8801,44.2984C48.8607,51.7669 45.6205,46.222 43.5803,41.761L73.3713,28.6177C43.3169,47.1585 43.4604,52.9905 24.4158,47.7803L80.3189,66.6619C88.4349,69.4031 88.2098,70.7461 79.6435,70.6908L44.0091,70.4611C37.394,70.4184 31.2866,72.1582 25.6869,75.6803L4.3062,89.1284C-1.2935,92.6505 -1.6085,92.2284 3.3611,87.8621Z" style="paint-order: stroke;" stroke="#1d1d1b" stroke-width="0.92" stroke-linejoin="round" stroke-linecap="round"></path>
    </g>
    <g transform="matrix(-0.9976172132159853 -0.06899199877646142 -0.06899199877646142 0.9976172132159853 77.02953439736068 -61.774097382816436)" data-zeichen="I">
      <path d="M81.9459,46.8032L48.4992,53.828C45.9445,54.3645 45.1973,55.8255 46.2574,58.211L50.4503,67.646C51.4136,69.8135 50.7852,71.3151 48.5653,72.1506L40.0893,75.3408C37.8694,76.1763 37.7878,76.0033 39.8445,74.8218L83.1444,49.9468C89.3551,46.3789 88.9556,45.331 81.9459,46.8032Z" style="paint-order: stroke;" stroke="#1d1d1b" stroke-width="0.92" stroke-linejoin="round" stroke-linecap="round"></path>
    </g>
    <g transform="matrix(-0.2902539998857924 -0.95694964107329 0.95694964107329 -0.2902539998857924 -24.042452224541652 78.35887291739314)" data-zeichen="I">
      <path d="M40.6146,38.6937L49.4507,50.4192C51.5915,53.2601 52.3691,56.4348 51.7836,59.9435L49.5478,73.3404C48.9622,76.8491 46.9062,78.3697 43.3798,77.9023L17.0958,74.4184C11.1589,73.6315 9.9766,70.8347 13.5491,66.0281L33.8487,38.7161C36.094,35.6951 38.3493,35.6876 40.6146,38.6937Z" style="paint-order: stroke;" stroke="#1d1d1b" stroke-width="0.92" stroke-linejoin="round" stroke-linecap="round"></path>
    </g>
    <g transform="matrix(0.8577412809470818 0.514081603404809 -0.514081603404809 0.8577412809470818 -53.3354448181575 -104.26064054503126)" data-zeichen="C">
      <path d="M68.2261,63.8593C43.962,57.4193 51.5225,50.1468 16.87,57.2136C66.9322,50.1468 70.3165,51.0101 28.0394,39.6081L115.7264,39.8458C72.5485,46.1858 68.732,44.8899 115.5082,57.3234C47.7063,44.8899 37.4398,55.0903 59.9223,75.0911L77.6492,80.8608C80.9825,81.9457 80.9749,81.9694 77.6266,80.9319L14.3547,61.3255C4.7362,58.345 4.9355,57.3684 14.9527,58.3957L68.2261,63.8593Z" style="paint-order: stroke;" stroke="#1d1d1b" stroke-width="0.92" stroke-linejoin="round" stroke-linecap="round"></path>
    </g>
    <g transform="matrix(-0.7612461926484304 0.6484629782634231 0.6484629782634231 0.7612461926484304 16.777572992143902 -75.572801372796)" data-zeichen="E">
      <path d="M28.6039,56.4994L53.9191,60.0146C56.1912,60.3301 56.2719,60.9369 54.1611,61.8351L46.1017,65.2644C43.9909,66.1626 43.5674,65.6545 44.8312,63.7401L51.2991,53.9427C52.8717,51.5605 52.2487,50.5949 49.4301,51.046L28.5819,54.3824C23.8668,55.137 23.8741,55.8427 28.6039,56.4994Z" style="paint-order: stroke;" stroke="#1d1d1b" stroke-width="0.92" stroke-linejoin="round" stroke-linecap="round"></path>
    </g>
    <g transform="matrix(-0.3589695404981662 0.933349274920453 0.933349274920453 0.3589695404981662 -73.01322724459115 -63.157024921754186)" data-zeichen="E">
      <path d="M50.1029,62.3213L52.2318,59.9977C52.7894,59.3892 53.4615,59.2099 54.2481,59.4598L79.2928,67.4183C84.2239,68.9852 84.171,69.1773 79.1339,67.9944L20.0633,54.1229C12.0976,52.2523 12.0287,50.1261 19.8568,47.7443L50.0783,38.5488C57.6846,36.2345 57.5215,34.81 49.5889,34.2755L11.231,31.6908C8.6782,31.5188 6.3867,32.2113 4.3564,33.7684L-3.3956,39.7135C-5.4259,41.2706 -5.2976,42.6229 -3.0108,43.7705L49.6715,70.2085C51.3692,71.0604 51.3239,71.8066 49.5357,72.447L42.7079,74.8922C40.9197,75.5326 40.9613,76.0151 42.8328,76.3398L52.6355,78.0404C55.0066,78.4517 55.1772,78.0111 53.1473,76.7185L34.6604,64.9466C32.441,63.5333 32.6465,62.8566 35.277,62.9163L48.0288,63.206C48.8539,63.2247 49.5453,62.9298 50.1029,62.3213Z" style="paint-order: stroke;" stroke="#1d1d1b" stroke-width="0.92" stroke-linejoin="round" stroke-linecap="round"></path>
    </g>
    <g transform="matrix(-0.6460262405715801 -0.7633152012720242 -0.7633152012720242 0.6460262405715801 99.14814114367043 19.1920476624825)" data-zeichen="E">
      <path d="M91.0977,46.4123L70.3488,61.5733C68.1958,63.1465 68.2722,63.2634 70.578,61.9241L81.9735,55.3051C82.5515,54.9694 83.1727,54.8382 83.8371,54.9115L86.3737,55.1916C87.0381,55.2649 87.5337,55.0101 87.8605,54.427L91.9364,47.1559C92.795,45.6242 92.5154,45.3764 91.0977,46.4123Z" style="paint-order: stroke;" stroke="#1d1d1b" stroke-width="0.92" stroke-linejoin="round" stroke-linecap="round"></path>
    </g>
    <g transform="matrix(-0.982464798939611 0.18644816664303723 -0.18644816664303723 -0.982464798939611 70.25013653995344 56.80301987224589)" data-zeichen="C">
      <path d="M80.2668,74.6806C50.8414,64.6561 44.0006,57.0233 37.2705,50.871L69.611,45.2946C37.38,45.215 37.376,45.2855 82.7391,47.3944C37.376,61.2714 47.6729,69.912 100.4159,62.881C67.2583,69.912 71.8667,68.7606 75.1681,67.4915L68.7641,59.9107C70.355,63.8641 66.4663,64.6561 62.1348,77.0115L80.2668,74.6806Z" style="paint-order: stroke;" stroke="#1d1d1b" stroke-width="0.92" stroke-linejoin="round" stroke-linecap="round"></path>
    </g>
  </g>
<path class="glyph-merged" d="M-11.44485,-24.26606c0.0456,0 0.0806,0.0193 0.105,0.0578l1.76986,2.79415c-0.85483,0.872 -1.85676,2.43433 -3.03106,4.85295l-0.2158,0.0713c-1.99122,-1.05384 -3.79217,-1.75614 -5.4004,-2.16091l0,-2.71301c-2.37831,-3.73009 -8.15152,-14.34858 -6.94625,-7.54841c-5.31758,-4.58038 -10.50549,-6.85473 -15.06582,-7.57052c5.74222,-0.0313 12.04012,0.9224 17.5832,2.95052c-0.95207,-5.81439 -3.7367,-9.80035 8.77152,7.77563l-1.62171,1.4905zM12.31295,-3.96046v-20.2467c0,-0.0393 0.0197,-0.059 0.059,-0.059h5.7863c0.0393,0 0.059,0.0197 0.059,0.059v3.86841l3.10233,0.21455c0.0416,0.00288 0.06101,0.02517 0.05813,0.06677l-1.31217,18.97378l0.82115,0.96396c0.02276,0.02672 0.02079,0.05139 -0.00593,0.07415l-0.94253,0.80289l-0.19115,2.76394l5.71434,-1.73323c0.0399,-0.0121 0.06597,0.00183 0.07807,0.04174l1.78199,5.8751c0.0121,0.0399 -0.00183,0.06597 -0.04174,0.07807l-3.04342,0.9231c4.72423,3.58879 6.85841,7.32755 2.36715,9.80575l0.31109,0.36757c0.56459,0.23127 0.78658,0.41639 0.32171,0.46519l-3.87599,3.28042c-0.02633,0.02229 -0.05072,0.02026 -0.073,-0.00608l-2.07968,-2.45725l-2.60319,0.49402c-0.12867,-0.02064 -0.25773,-0.04347 -0.38716,-0.06843v3.61536c0,0.0423 -0.0211,0.0634 -0.0634,0.0634h-6.2091c-0.0423,0 -0.0746,-0.0179 -0.097,-0.0537l-6.1788,-9.87456l-1.49083,0.45219c-0.0399,0.0121 -0.06597,-0.00183 -0.07807,-0.04174l-1.09398,-3.6068c-2.38998,-2.22846 -4.50536,-4.47675 -6.12351,-6.29732c0.78367,-0.3877 1.4992,-0.76124 2.1469,-1.11715l-1.05141,-1.6803c-0.60878,0.31686 -1.26569,0.67331 -1.97055,1.07157c-0.03242,0.22438 -0.06314,0.43133 -0.09226,0.62143c0.29827,0.34569 0.62144,0.7153 0.96732,1.10445c-0.0789,0.03903 -0.15848,0.07821 -0.23876,0.11752c-0.27214,-0.37193 -0.52464,-0.71537 -0.75809,-1.0315c-0.37876,2.41321 -0.47012,1.78512 -0.49064,-0.46224c-2.15583,1.24332 -4.72688,2.85481 -7.70802,4.89153l0,15.84762c0,0.0393 -0.0197,0.059 -0.059,0.059h-5.8453v-2.04086l-3.35438,8.72165c-0.0126,0.03276 -0.03522,0.04281 -0.06798,0.03021l-4.80834,-1.8493c-0.03276,-0.0126 -0.04281,-0.03522 -0.03021,-0.06798l7.46994,-19.42244c0.03924,-0.10202 0.00787,-0.17258 -0.09414,-0.21181l-40.1889,-15.4568c-0.03276,-0.0126 -0.04281,-0.03522 -0.03021,-0.06798l2.20727,-5.73907c0.01497,-0.03892 0.04198,-0.05093 0.0809,-0.03596l38.72322,14.89309c0.03043,-0.03247 0.06137,-0.06492 0.09283,-0.09733v-1.637c0.39296,0.20819 0.79781,0.40864 1.21457,0.60065c2.33212,-1.66265 6.2795,-2.95064 12.3933,-2.48053c-0.00184,-4.03118 -0.04505,-9.36671 -0.47518,-13.73737l8.41132,13.27929c1.09813,0.26756 2.29239,0.61544 3.54518,1.03051c1.37421,-1.09146 3.16259,-2.3825 5.44101,-3.93749zM-5.08455,-14.33277l-4.48543,-7.08134c2.68648,-2.74045 3.92013,1.33713 4.48543,7.08134zM-18.21725,1.28448c-13.40532,-7.10204 -12.97428,-23.20072 0,-19.93525zM-51.69775,-21.47751l-5.67825,-3.40322c-2.53897,-4.87957 0.63709,-8.33021 6.42064,-10.13983c-5.87827,3.06936 -7.43266,9.5457 -0.74229,13.54288zM-40.22932,-36.4827c-3.99026,0.02175 -7.71219,0.51913 -10.72604,1.46214c2.75832,-1.44027 6.46871,-2.13037 10.72604,-1.46214c0,0 0,0 0,0zM-5.68592,1.83074c0.27625,0.36218 0.63402,0.8365 1.07937,1.43515c-0.00032,-0.04515 -0.00061,-0.09089 -0.00089,-0.1372c-0.43104,-0.50827 -0.79359,-0.94706 -1.07848,-1.29795zM2.92579,-1.14858c-10.25481,-11.79539 -8.463,-10.15977 -1.59326,-0.31874c0.5001,0.0827 1.03297,0.18957 1.59326,0.31874zM2.43492,0.11995c0.21084,0.30514 0.42554,0.61677 0.64393,0.93476c1.01177,-0.92558 0.78887,-1.32912 -0.64393,-0.93476z" fill="none" stroke="#1d1d1b" stroke-width="3.0149999999999997" stroke-linejoin="round" style="display: none;"></path></g>
<g transform="translate(-29.9274 500.3329) scale(1.6285) translate(85.9714 34.3921)">
  <g data-rolle="struktur" style="">
    <g transform="matrix(1 0 0 1 -56.10154342651367 -57.53116989135742)" data-zeichen="S">
      <path d="M31.5723,65.2993C45.477,75.9252 49.5815,77.3647 13.4921,65.4858C60.31,77.3647 64.0541,73.9809 118.5042,75.9909C64.0541,64.5483 61.4623,61.9555 34.4909,46.134C46.9887,56.6274 42.0922,52.5229 24.4685,46.1575C42.0922,38.1216 48.3568,32.5053 95.4166,34.0495C62.7583,32.5053 66.3588,33.6576 114.2271,25.5991L45.2695,36.0646C65.2065,39.1303 61.9663,37.6899 14.5641,45.4175C50.9487,37.6899 48.4292,41.6499 37.8039,50.5507C48.4292,49.4985 51.3813,51.731 24.9874,66.1702C66.2866,57.4917 70.4624,61.4517 79.3051,55.0126C70.4624,76.0689 64.9185,82.5494 75.7812,91.9905C48.7885,82.5494 43.6762,81.1812 42.5502,73.0615L0.4106,81.8769C-6.0293,83.2241 -6.2556,82.5338 -0.2685,79.8061L31.5723,65.2993Z" style="paint-order: stroke;" stroke="#1d1d1b" stroke-width="0.92" stroke-linejoin="round" stroke-linecap="round"></path>
    </g>
    <g transform="matrix(-0.7900460785107327 -0.6130474645815063 -0.6130474645815063 0.7900460785107327 67.78751898283502 27.217608677176123)" data-zeichen="O">
      <path d="M101.4433,85.0167C56.8179,77.4731 51.2017,68.184 74.5022,53.6246C51.2017,47.1587 56.3863,37.5815 120.5484,45.3836C66.852,37.5815 66.9458,37.5883 110.7386,25.1161L22.2213,20.8052C54.0816,32.4692 44.5044,42.5503 73.5543,58.7005C44.5044,72.6489 53.5054,82.5854 28.8799,91.1051C66.5641,82.5854 66.803,82.5759 38.526,74.8277L96.8825,73.1208C66.9207,77.455 66.8063,77.4731 117.0061,91.1425L101.4433,85.0167Z" style="paint-order: stroke;" stroke="#1d1d1b" stroke-width="0.92" stroke-linejoin="round" stroke-linecap="round"></path>
    </g>
    <g transform="matrix(-0.6286923471375101 -0.7776541214773626 0.7776541214773626 -0.6286923471375101 9.416143377246811 109.85611458230142)" data-zeichen="O">
      <path d="M80.0043,67.4495C66.6826,42.6305 58.1133,32.4772 -1.8482,33.7645L-7.121,37.1681C55.108,37.7838 60.0576,47.7607 97.1016,53.4837C60.0576,68.1999 54.5716,77.2375 16.3511,73.3171L53.8434,74.0993C56.9194,82.2392 66.6826,73.4113 58.7761,51.0096L80.0043,67.4495Z" style="paint-order: stroke;" stroke="#1d1d1b" stroke-width="0.92" stroke-linejoin="round" stroke-linecap="round"></path>
    </g>
  </g>
<path class="glyph-merged" d="M-13.43314,16.66573l-0.03982,0.13217c-0.01109,0.0074 -0.02217,0.01482 -0.03325,0.02227c0.02429,-0.05136 0.04865,-0.1029 0.07307,-0.15464zM-13.47297,16.7979c1.65241,-1.10253 3.49636,-1.6666 5.45197,-1.24378l1.23161,-1.5872c-0.32249,0.52038 -0.65128,1.06857 -0.98624,1.64531c0.49951,0.12863 1.00603,0.32225 1.51824,0.58824c0.27994,-1.37685 0.66632,-2.85109 1.17309,-4.43093l-1.70508,2.19737c0.55093,-0.889 1.08351,-1.69683 1.59718,-2.42718c-3.1844,-2.79375 -7.29761,-12.26237 -8.81713,-23.3888c-4.616,-7.8753 -1.0715,-47.8153 15.6973,-13.1768c0.08663,0.22076 0.17169,0.43809 0.25522,0.65203c-0.66701,2.17638 -3.1094,8.52144 -9.61552,11.80507c0.8371,11.89662 0.92713,22.92629 2.88522,23.54314c0.94148,-1.28898 1.81638,-2.3106 2.62116,-3.08896c0.33754,-0.70527 0.70095,-1.5391 1.09265,-2.51031c-0.00208,0.57151 -0.017,1.10487 -0.04397,1.6012c0.6717,-0.51082 1.28442,-0.83052 1.83551,-0.97711c-0.39909,-0.72002 -0.78303,-1.47935 -1.147,-2.27888c0.71333,-1.88999 1.51105,-4.18536 2.40482,-6.92868c3.4268,-5.76409 6.69859,-7.98965 9.50491,-8.03121c0.72814,3.2861 1.63675,2.76395 2.33179,0.48862c7.18874,3.20604 9.80841,21.10565 0.5481,21.80039c-1.74299,0.28219 -3.2213,0.89583 -4.47862,1.74824c6.27301,4.3259 2.96519,5.3945 -1.96827,1.7007c-0.26959,0.29116 -0.52541,0.59534 -0.76827,0.91082c0.09098,-0.42625 0.18232,-0.85718 0.27404,-1.29276c-1.04069,-0.82934 -2.13966,-1.86449 -3.22654,-3.11875c0.17981,4.54979 -1.39169,11.62949 -5.03243,19.07249c4.62738,12.29904 1.10151,-5.71923 7.98494,-14.66098c-1.91923,8.99221 -3.67183,15.89948 -5.14551,20.35796c1.68204,0.95519 3.13915,1.65573 3.85108,2.4081c2.26597,-2.1724 5.19696,-4.94189 8.43587,-8.71293c1.46947,5.10675 1.45532,12.42578 -4.88806,21.37033c-6.7685,-3.24097 -8.8875,-5.04621 -8.06312,-7.3481c-1.16863,0.65998 -2.57231,1.40091 -4.24082,2.24034c-29.89001,25.86126 -18.4754,28.50323 -30.38125,9.12779c-3.03192,7.42803 -6.42516,13.0596 -2.51192,-3.50176l2.65467,-3.42112c0.02803,-0.04961 0.05586,-0.09875 0.08347,-0.14741c0.01419,-0.00503 0.0284,-0.01006 0.04263,-0.01511l0.35632,-0.45919c-0.04526,0.03325 -0.11129,0.0731 -0.19596,0.11882c4.24364,-7.38581 3.31335,-2.79502 1.20613,3.14034c2.81972,11.57805 6.74976,25.29897 23.54333,-9.06228c1.94357,-2.40979 3.64029,-4.90215 5.10186,-7.39743c-2.16836,-2.36775 -5.84291,-6.29892 -11.81844,-12.0009c-0.83177,0.71941 -1.61963,1.39027 -2.36235,2.01313c-3.67327,6.68028 -4.53364,5.88541 -3.51559,2.8616c-6.7491,5.2993 -7.06873,4.21206 0.98487,-2.36742c1.32067,-2.7206 3.50804,-5.97575 6.2109,-7.79379c-0.84195,1.77999 -1.60608,3.33397 -2.29617,4.68312c0.38413,-0.29803 0.77994,-0.6033 1.18752,-0.91577zM-0.42876,3.72031c-0.22297,0.59077 -0.4377,1.14194 -0.64455,1.65479c0.00375,-1.03048 -0.03423,-2.18502 -0.11864,-3.47027c0.24249,0.62682 0.49751,1.23186 0.76318,1.81548zM2.87584,-21.96377c13.19093,-19.16076 13.06522,4.24548 10.93692,11.21281c-0.73241,-0.32664 -1.51225,-0.50076 -2.33179,-0.48862c-0.30546,-1.37855 -0.57916,-3.4273 -0.79201,-6.29799l1.7285,-5.1123c-6.8992,9.76832 -3.78383,15.69113 -9.54162,0.6861zM1.47216,-19.84127c0.20165,-2.18235 0.39324,-3.59388 0.52095,-4.40461c0.31562,0.80916 0.60919,1.56925 0.88273,2.28211c-0.4521,0.65671 -0.91984,1.36341 -1.40368,2.1225zM2.14502,-25.10556c-0.01624,0.07605 -0.07137,0.3484 -0.15191,0.85967c-0.01658,-0.04252 -0.03323,-0.08517 -0.04993,-0.12796c0.12207,-0.3983 0.18468,-0.65697 0.20185,-0.73172zM2.14502,-25.10556c0.00648,-0.03034 0.00676,-0.02944 0,0zM-2.25187,32.78332c0.38794,0.35685 0.78604,0.68767 1.18818,0.99608c-0.17837,-0.63227 -0.36957,-1.35614 -0.55715,-2.16732c-0.20465,0.38994 -0.41498,0.78045 -0.63104,1.17124c-0.11974,-0.11014 -0.23851,-0.22276 -0.35613,-0.33797c0.00127,0.32883 0.00398,0.64845 0.00812,0.95891c0.11761,-0.20703 0.23361,-0.41402 0.34801,-0.62094zM-39.31986,50.0078c2.54037,-0.93917 5.56037,-2.09353 6.46294,-2.58089c-0.06639,0.11555 -0.13405,0.23403 -0.20299,0.35548c-2.68046,0.94989 -4.73027,1.67917 -6.25996,2.22541zM-39.31986,50.0078c-3.70456,1.36956 -6.38916,2.2815 0,0zM45.42694,23.05157l-3.97941,3.21714c-17.03255,-6.84966 -7.25996,-30.13579 -25.21478,0.84735c-0.65865,0.82294 -1.3081,1.604 -1.94561,2.34626c-1.93747,-6.73315 -6.45408,-9.62048 -2.44352,-7.31709c20.49735,-33.53063 46.06272,-14.66845 33.58333,0.90634zM9.39907,50.83265c0.33824,0.16196 0.68809,0.3275 1.04976,0.49688l-3.98244,3.2196c1.10129,-1.26758 2.07486,-2.50689 2.93268,-3.71647z" fill="none" stroke="#1d1d1b" stroke-width="3.0149999999999997" stroke-linejoin="round" style="display: none;"></path></g>
<g transform="translate(-52.7126 670.8397) scale(1.6285) translate(66.0543 75.7698)">
  <g data-rolle="struktur" style="">
    <g transform="matrix(1 0 0 1 -56.10154342651367 -57.53116989135742)" data-zeichen="S">
      <path d="M72.2945,66.6256C45.477,75.9252 49.5815,77.3647 94.6554,67.8792C60.31,77.3647 64.0541,73.9809 43.2507,67.506C64.0541,64.5483 61.4623,61.9555 10.6902,49.1396C46.9887,56.6274 42.0922,52.5229 16.8987,45.3913C42.0922,38.1216 48.3568,32.5053 101.2357,40.4186C62.7583,32.5053 66.3588,33.6576 73.4847,43.0002L99.2958,30.6478C65.2065,39.1303 61.9663,37.6899 95.965,41.1919C50.9487,37.6899 48.4292,41.6499 16.9291,45.6959C48.4292,49.4985 51.3813,51.731 101.5859,47.2724C66.2866,57.4917 70.4624,61.4517 36.4348,62.7929C70.4624,76.0689 64.9185,82.5494 32.7777,68.8624C48.7885,82.5494 43.6762,81.1812 65.0379,70.3881L37.7237,62.8125C32.5877,61.388 32.6586,61.0472 37.9365,61.79L72.2945,66.6256Z" style="paint-order: stroke;" stroke="#1d1d1b" stroke-width="0.92" stroke-linejoin="round" stroke-linecap="round"></path>
    </g>
    <g transform="matrix(-0.6986615864797253 -0.715452295808486 0.715452295808486 -0.6986615864797253 -20.010158335992088 117.14622122072346)" data-zeichen="T">
      <path d="M81.509,37.0743L61.9483,26.3532C56.8252,23.5453 54.4529,25.0563 54.8312,30.8861L58.5648,88.4158C58.7659,91.5141 60.3579,92.6329 63.341,91.7722L74.731,88.4858C77.7141,87.6251 79.5356,85.6779 80.1957,82.6441L87.3307,49.8489C88.5726,44.1404 86.6321,39.8822 81.509,37.0743Z" style="paint-order: stroke;" stroke="#1d1d1b" stroke-width="0.92" stroke-linejoin="round" stroke-linecap="round"></path>
    </g>
    <g transform="matrix(-0.9461088435402939 -0.3238488168495413 -0.3238488168495413 0.9461088435402939 78.77669780422038 -1.895564735292396)" data-zeichen="T">
      <path d="M37.635,62.9745L37.2506,55.998C37.1499,54.1709 38.0091,53.357 39.8282,53.5563L55.8456,55.3114C59.3705,55.6977 62.8899,56.128 66.404,56.6025L85.6358,59.1993C86.8492,59.3631 86.9433,59.7797 85.9182,60.4492L82.0041,63.0055C80.979,63.675 79.9655,63.6577 78.9638,62.9537L55.3722,46.374C50.6537,43.0579 45.5446,42.2682 40.0451,44.005L6.7508,54.5193C1.0973,56.3047 1.1684,57.822 6.964,59.0713L35.1027,65.1368C36.8916,65.5224 37.7357,64.8016 37.635,62.9745Z" style="paint-order: stroke;" stroke="#1d1d1b" stroke-width="0.92" stroke-linejoin="round" stroke-linecap="round"></path>
    </g>
    <g transform="matrix(0.16790570674730648 -0.9858030602720239 -0.9858030602720239 -0.16790570674730648 78.30706811071249 84.29594877588379)" data-zeichen="E">
      <path d="M71.0636,82.9259L32.2552,59.6048C23.2289,54.1806 23.8407,52.6762 34.0907,55.0916L94.1949,69.255C98.2081,70.2007 100.2287,68.6121 100.2568,64.489L100.364,48.7466C100.3921,44.6235 98.346,42.4842 94.2258,42.3285L23.311,39.6497C15.6849,39.3616 15.605,38.4279 23.0713,36.8486L60.2034,28.994C61.92,28.6309 63.4336,27.866 64.7442,26.6993L69.7481,22.2449C71.0587,21.0782 71.0148,21.0248 69.6164,22.0846L7.1218,69.4488C-5.0237,78.6538 -3.5012,82.645 11.6893,81.4225L95.6568,74.665C104.7623,73.9322 104.7716,73.0978 95.6848,72.1619L53.5092,67.8178C49.4094,67.3955 46.199,68.8873 43.8779,72.2931L35.0158,85.2969C32.6947,88.7027 33.5933,90.323 37.7114,90.1579L69.5396,88.8816C76.6859,88.595 77.1939,86.6098 71.0636,82.9259Z" style="paint-order: stroke;" stroke="#1d1d1b" stroke-width="0.92" stroke-linejoin="round" stroke-linecap="round"></path>
    </g>
    <g transform="matrix(0.5494558493549049 -0.8355227522992298 0.8355227522992298 0.5494558493549049 -98.39381446256306 47.87941988143399)" data-zeichen="S">
      <path d="M36.8788,38.403L13.6173,44.2645C61.4623,51.0468 64.0541,53.6396 25.4909,48.8712C64.0541,63.0722 60.31,66.456 108.4575,72.5345C49.5815,66.456 45.477,65.0165 38.3917,51.6218L86.9243,62.0585C43.6762,70.2723 48.7885,71.6405 7.8171,73.2085C64.9184,71.6405 70.4624,65.16 113.8572,61.611C70.4624,50.5428 66.2866,46.5828 92.2353,41.4576L50.1744,37.3995C45.6846,36.9663 41.2527,37.3008 36.8788,38.403Z" style="paint-order: stroke;" stroke="#1d1d1b" stroke-width="0.92" stroke-linejoin="round" stroke-linecap="round"></path>
    </g>
    <g transform="matrix(-0.28817753281092706 0.9575769992971881 0.9575769992971881 0.28817753281092706 32.1460116558706 -25.838503722987102)" data-zeichen="H">
      <path d="M9.1617,48.5438L61.2947,33.2365C69.5461,30.8138 69.4597,30.4669 61.0356,32.1958L27.9042,38.9956C20.1244,40.5923 14.7365,45.0682 11.7405,52.4234L-2.5218,87.4373C-3.6357,90.1721 -2.7197,91.6409 0.2263,91.8436L11.4746,92.6179C14.4206,92.8206 16.8652,91.8103 18.8085,89.5868L47.0344,57.2906C52.8899,50.5907 60.1644,48.1895 68.8578,50.0872L102.4804,57.4268C111.2546,59.3421 111.1553,60.1091 102.1826,59.7277L37.0685,56.9599C35.1217,56.8772 33.4373,56.1697 32.0154,54.8374L26.586,49.7507C25.1641,48.4184 23.484,47.8522 21.5457,48.052L9.3129,49.313C6.466,49.6065 6.4156,49.3501 9.1617,48.5438Z" style="paint-order: stroke;" stroke="#1d1d1b" stroke-width="0.92" stroke-linejoin="round" stroke-linecap="round"></path>
    </g>
    <g transform="matrix(0.24169084782618042 -0.970353303738933 -0.970353303738933 -0.24169084782618042 30.89467243791681 121.34811897995264)" data-zeichen="H">
      <path d="M49.6015,27.7771L73.489,48.7995C78.6392,53.332 77.8319,55.0268 71.0672,53.8839L11.2325,43.7754C5.902,42.8749 5.5131,43.8821 10.066,46.7971L27.4498,57.9269C32.0027,60.8419 36.9519,61.8959 42.2974,61.0889L79.0134,55.5461C87.2513,54.3025 87.3725,54.8511 79.3768,57.1919L41.0257,68.4193C38.2448,69.2334 36.9844,71.0835 37.2445,73.9695L38.2376,84.9886C38.4977,87.8746 39.7779,88.4364 42.078,86.6741L92.6078,47.9588C101.1773,41.393 100.0669,38.2807 89.2766,38.622L36.5549,40.2892C33.4464,40.3875 32.9341,39.2823 35.0178,36.9735L42.9739,28.1583C45.0576,25.8495 47.2668,25.7224 49.6015,27.7771Z" style="paint-order: stroke;" stroke="#1d1d1b" stroke-width="0.92" stroke-linejoin="round" stroke-linecap="round"></path>
    </g>
    <g transform="matrix(0.9370725983996726 0.34913456621836514 0.34913456621836514 -0.9370725983996726 -102.4989912299644 69.99015323973478)" data-zeichen="E">
      <path d="M74.4599,50.8951L97.3695,58.3395C100.3804,59.3179 100.3075,59.6855 97.151,59.4422L83.3146,58.3758C81.3477,58.2242 79.9354,59.0367 79.0778,60.8133L75.8035,67.5969C74.9459,69.3735 74.3081,69.2978 73.89,67.3698L70.9966,54.0263C70.3346,50.9734 71.489,49.9297 74.4599,50.8951Z" style="paint-order: stroke;" stroke="#1d1d1b" stroke-width="0.92" stroke-linejoin="round" stroke-linecap="round"></path>
    </g>
    <g transform="matrix(0.617629425572142 -0.786469257293269 0.786469257293269 0.617629425572142 -102.11304044955313 -14.063057172102518)" data-zeichen="I">
      <path d="M89.1641,51.3713L85.358,44.7358C84.3612,42.9979 83.1469,42.8296 81.715,44.2309L70.7455,54.9659C68.279,57.3797 65.3214,58.524 61.8726,58.3987L38.8367,57.562C33.5324,57.3693 33.5302,57.1269 38.8299,56.8348L87.6587,54.1435C89.6591,54.0332 90.1609,53.1092 89.1641,51.3713Z" style="paint-order: stroke;" stroke="#1d1d1b" stroke-width="0.92" stroke-linejoin="round" stroke-linecap="round"></path>
    </g>
    <g transform="matrix(-0.6386436993509588 -0.7695025830231645 -0.7695025830231645 0.6386436993509588 82.9063388823869 -25.47890520504633)" data-zeichen="E">
      <path d="M53.8671,55.2122L44.7764,61.0312C42.3955,62.5552 42.6152,63.2208 45.4355,63.0279L97.3554,59.4769C107.9136,58.7548 107.9166,57.9907 97.3645,57.1848L36.8468,52.5627C32.9869,52.2679 32.9916,52.1796 36.8609,52.2978L53.2001,52.7968C56.0257,52.8831 56.248,53.6882 53.8671,55.2122Z" style="paint-order: stroke;" stroke="#1d1d1b" stroke-width="0.92" stroke-linejoin="round" stroke-linecap="round"></path>
    </g>
    <g transform="matrix(0.593313835611309 0.804971237046515 -0.804971237046515 0.593313835611309 14.393751010946481 -52.439352981070975)" data-zeichen="S">
      <path d="M39.8638,44.8301C48.8969,53.2065 51.4164,49.2465 45.1647,44.8424C62.434,49.2465 65.6742,50.6869 12.815,45.1485L22.2705,39.8259C66.8265,45.2143 63.226,44.0619 62.7814,45.6045C48.8246,44.0619 42.5599,49.6781 94.8725,66.5556C42.5599,64.0795 47.4564,68.184 1.6197,72.4777L34.69,63.8399C51.849,63.2875 48.8969,61.0551 35.1565,58.0544L39.8638,44.8301Z" style="paint-order: stroke;" stroke="#1d1d1b" stroke-width="0.92" stroke-linejoin="round" stroke-linecap="round"></path>
    </g>
    <g transform="matrix(-0.2355540579257751 -0.971861248221525 -0.971861248221525 0.2355540579257751 42.40439409823965 63.73005307891433)" data-zeichen="I">
      <path d="M68.0154,39.901L30.7964,47.0951C28.1495,47.6067 26.6004,49.1915 26.1493,51.8494L24.4266,61.9977C23.9755,64.6556 25.0904,66.1258 27.7715,66.4083L56.6835,69.4547C61.594,69.9721 64.8734,67.9035 66.5217,63.249L72.815,45.4772C74.4633,40.8227 72.8634,38.9639 68.0154,39.901Z" style="paint-order: stroke;" stroke="#1d1d1b" stroke-width="0.92" stroke-linejoin="round" stroke-linecap="round"></path>
    </g>
  </g>
<path class="glyph-merged" d="M-13.43314,16.66553c0.55956,0.44036 1.02705,0.83936 1.41558,1.20038c-0.79776,0.98595 -1.65317,2.12627 -2.56991,3.43656l0.07494,0.30919c0.94753,-0.3072 1.95322,-0.61399 3.02073,-0.91713c0.38628,-0.28854 0.75211,-0.56051 1.09833,-0.81618c-0.19865,-0.47752 -0.67659,-1.13203 -1.62409,-2.01243c8.38796,-10.3667 10.40142,-3.66689 10.29482,1.9809c1.96599,-2.07186 5.44803,-4.08901 9.02194,-5.79042l0.59007,-3.46443c-2.23072,-2.10814 -4.99555,-4.74527 -8.37964,-8.00919c-6.28176,12.09546 -14.21216,10.21862 -7.18197,-15.15154c1.36722,-1.34642 2.48287,-2.57154 3.38364,-3.68329c2.36576,4.77366 3.82971,10.93085 3.09676,18.15689c0.23686,0.22872 0.47081,0.4545 0.70187,0.67735c-0.0001,0.00019 0.0001,-0.00019 0,0c0.86815,-1.67169 1.70481,-3.61025 2.46613,-5.79055c2.95084,-1.39214 5.06397,-2.6616 6.54263,-3.75614c-0.28162,2.12142 -0.00516,5.13441 1.49859,9.21096l4.44377,0.75688c0.0346,0.00589 0.04891,0.02608 0.04302,0.06069l-1.08487,6.36943c0.29764,0.52686 0.61129,1.06547 0.94166,1.61598c0.11773,-0.03679 0.23313,-0.07292 0.34622,-0.1084c-0.52371,0.19565 -1.0772,0.40723 -1.65251,0.63328l-0.5654,3.31958c0.16461,0.15181 0.32269,0.29728 0.47437,0.43657c-0.15646,-0.12929 -0.31712,-0.26105 -0.48149,-0.39475l-0.57559,3.37941c0.09846,0.06997 0.1418,0.21534 0.11247,0.44482c0.33806,0.64197 0.65174,1.25347 0.94189,1.8355c0.17531,0.00098 0.35171,0.00202 0.52919,0.00313c-0.04389,0.27579 -0.08777,0.54451 -0.13161,0.80632c0.53201,1.10031 0.97284,2.08629 1.32909,2.96573l33.53272,5.71142l0.09939,-0.33026c0.01202,-0.03993 0.03805,-0.05392 0.07798,-0.0419l3.08045,0.92705l2.11358,0.35999c0.0346,0.00589 0.04891,0.02608 0.04302,0.06069l-0.037,0.21721l41.15338,12.38488c0.03993,0.01202 0.05392,0.03805 0.0419,0.07798l-1.76924,5.87895c-0.01202,0.03993 -0.03805,0.05392 -0.07798,0.0419l-21.61596,-6.5052c-0.07517,-0.02262 -0.124,0.00362 -0.14663,0.07879l-3.34303,11.10847c-0.01052,0.03495 -0.03319,0.04713 -0.06814,0.03662l-5.13577,-1.54558c-0.03495,-0.01052 -0.04713,-0.03319 -0.03662,-0.06814l3.34303,-11.10847c0.02262,-0.07517 -0.00362,-0.124 -0.07879,-0.14663l-15.82371,-4.76206l-33.39195,-5.68744l-2.89225,0.92369l10.34162,3.53989c0.03359,0.0115 0.04466,0.0341 0.03317,0.06769l-1.69098,4.94011c-0.0115,0.03359 -0.0341,0.04466 -0.06769,0.03317l-24.30746,-8.32033c-0.53493,0.51307 -1.1854,1.02475 -1.96599,1.53196l-5.20943,0.42022c-0.2609,2.58467 -0.32218,5.39078 -0.04669,8.37272c-5.8736,0.71154 -2.7189,0.07868 -2.24762,1.47254l25.62291,6.38203c0.04105,0.01022 0.05642,0.0358 0.0462,0.07684l-1.50092,6.02599c-0.01022,0.04105 -0.0358,0.05642 -0.07684,0.0462l-19.52855,-4.86408c-0.07569,-0.01885 -0.12296,0.00957 -0.14181,0.08525l-2.78645,11.1872c-0.00882,0.03542 -0.03088,0.04868 -0.0663,0.03986l-5.2043,-1.29626c-0.03542,-0.00882 -0.04868,-0.03088 -0.03986,-0.0663l2.78645,-11.1872c0.01885,-0.07569 -0.00957,-0.12296 -0.08525,-0.14181l-3.56773,-0.88863c-0.74901,0.54309 -1.6112,1.1334 -2.60135,1.7752l-2.55915,-3.06055l-2.82577,-0.70383l-7.08148,6.91529c-0.03026,0.02955 -0.0601,0.0292 -0.08965,-0.00106l-4.33806,-4.44231c-0.02955,-0.03026 -0.0292,-0.0601 0.00106,-0.08965l4.28249,-4.18198l-3.12462,-0.77827c-0.04105,-0.01022 -0.05642,-0.0358 -0.0462,-0.07684l1.50092,-6.02599c0.01022,-0.04105 0.0358,-0.05642 0.07684,-0.0462l6.92144,1.72396l0.35412,-0.34581l-14.88718,-5.54666c-0.03289,-0.01225 -0.04318,-0.03476 -0.03093,-0.06765l1.7986,-4.82742c0.01225,-0.03289 0.03476,-0.04318 0.06765,-0.03093l17.21,6.4121l6.73062,-6.57267c-0.73181,-1.35814 -0.81159,-2.56339 -0.47523,-3.64883c-0.75096,-0.78797 -1.41255,-1.39311 -1.99732,-1.84185l-4.38066,1.06176c-1.18503,3.43409 -1.06175,9.27737 -6.23626,3.62541l-0.53833,-1.16029c0.76076,-0.28558 1.83046,-0.87051 3.34433,-1.63371l-3.68763,0.89379l0.3433,0.73992c-0.89413,0.33565 -1.36151,0.25781 -1.62172,-0.43007l-7.79695,1.88978c-0.04053,0.00982 -0.06576,-0.00557 -0.07558,-0.04609l-1.44616,-5.96665c-0.00982,-0.04053 0.00557,-0.06576 0.04609,-0.07558l23.46161,-5.68649c0.04053,-0.00982 0.06576,0.00557 0.07558,0.04609l0.87748,3.62034l1.26258,-4.19012zM5.52015,29.1635l5.41772,1.85446c-0.18308,-0.14767 -0.35691,-0.2965 -0.52183,-0.44632c-0.07734,-0.01393 -0.13849,-0.07413 -0.18109,-0.16829c-0.18253,-0.17358 -0.35337,-0.34839 -0.51304,-0.52419zM-5.63774,19.92097c-0.03127,0.09203 -0.06328,0.1859 -0.09598,0.28159c0.17958,0.02435 0.36756,0.04707 0.56395,0.06827l0.08352,-0.08156c-0.12202,-0.09544 -0.24207,-0.18785 -0.3596,-0.27711c-0.06465,0.00287 -0.12862,0.00581 -0.1919,0.00881zM-1.73252,20.20954c-0.00302,0.08629 -0.00652,0.17224 -0.01049,0.25777c0.11801,0.00431 0.2339,0.00861 0.34771,0.01289c-0.11255,-0.09023 -0.22496,-0.18046 -0.33721,-0.27066zM-1.92062,22.4121l1.72603,1.76751c0.02955,0.03026 0.0292,0.0601 -0.00106,0.08965l-0.56494,0.55168c0.45292,0.79352 0.77315,1.63054 0.88087,2.49421l4.67813,1.6013c-0.01283,-0.04302 -0.0142,-0.09416 -0.00411,-0.15341l0.52854,-3.10315c-2.15765,-1.56793 -4.4558,-3.36622 -6.6991,-5.16443c-0.12412,-0.00364 -0.24663,-0.00745 -0.36754,-0.01144c-0.03207,0.68004 -0.09363,1.33389 -0.17682,1.92807zM-1.91906,20.05954c-0.09369,-0.07538 -0.18725,-0.15072 -0.28068,-0.22601c-0.48825,0.00368 -0.95113,0.01024 -1.38988,0.01939c0.42014,0.16948 0.87785,0.35353 1.3754,0.55263c0.0934,-0.11544 0.19187,-0.23079 0.29516,-0.346zM-2.89481,21.41449c0.1693,-0.31643 0.38185,-0.63312 0.63265,-0.94914c-0.58886,-0.02307 -1.13655,-0.05123 -1.6432,-0.08569zM-11.72149,-25.40786c-0.4637,2.20115 -0.83446,4.47798 -1.13171,6.54335l1.85851,1.45953c0.0328,0.02576 0.03632,0.0551 0.01057,0.0879l-2.49047,3.17128c-0.30198,2.42834 -0.45166,3.61623 -0.53475,2.29674c-0.19553,-0.30226 -0.38482,-0.59976 -0.568,-0.89253l-0.19866,0.25296c-0.02576,0.0328 -0.0551,0.03632 -0.0879,0.01057l-18.98607,-14.91013c-0.0328,-0.02576 -0.03632,-0.0551 -0.01057,-0.0879l3.79187,-4.82845c0.02576,-0.0328 0.0551,-0.03632 0.0879,-0.01057l10.78024,8.46593c-0.19962,-4.20808 3.41802,-4.45438 7.47903,-1.55868zM12.41746,-22.64987l-1.7285,5.1123c-3.97581,-1.8127 -7.0872,-4.31825 -9.45426,-6.92012c-0.26043,0.31834 -0.51388,0.61394 -0.76037,0.88779c0.32214,1.15297 0.65507,2.39429 0.99784,3.72863c-1.10095,-0.39158 -2.04345,-0.77534 -2.84564,-1.14735c-0.4684,1.2754 -1.37953,2.8412 -2.91522,4.73656c-2.0751,-4.18717 -4.84403,-7.30989 -7.43279,-9.15581c1.32924,-6.30983 3.42218,-11.99767 6.73645,-10.29899c-0.21407,-1.55434 0.52692,-1.45575 1.9386,1.70825c0.55108,0.67425 1.12997,1.5322 1.73808,2.59489c0.32464,-0.08929 0.66556,-0.14956 1.02273,-0.17694l-4.68066,-5.63973c-0.02203,-0.02655 -0.01977,-0.05091 0.00678,-0.07294l3.90984,-3.24495c0.02655,-0.02203 0.05091,-0.01977 0.07294,0.00678l11.9823,14.43748c0.02203,0.02655 0.01977,0.05091 -0.00678,0.07294l-0.81454,0.67602c0.72087,0.80571 1.46529,1.70179 2.23321,2.69517zM12.96353,15.33045c3.2618,2.69537 4.70024,4.3161 0,0zM8.51869,-6.96451c0.82586,-6.221 6.45094,-4.77514 0,0zM14.70707,10.94103c4.98504,-1.86233 7.27203,-2.2815 0,0zM-13.25164,39.35787c0.62703,-1.43385 1.19703,-2.76954 1.71305,-4.01188l-2.64909,2.58691c0.28236,0.42452 0.59288,0.89911 0.93603,1.42496z" fill="none" stroke="#1d1d1b" stroke-width="3.0149999999999997" stroke-linejoin="round" style="display: none;"></path></g>
<g transform="translate(-7.0602 919.9023) scale(1.6285) translate(74.8457 67.3516)">
  <g data-rolle="struktur" style="">
    <g transform="matrix(1 0 0 1 -55.97625160217285 -57.52730369567871)" data-zeichen="A">
      <path d="M73.0617,75.6988L87.3713,85.2547C89.6476,86.7748 89.4888,87.0975 86.8951,86.2231L76.9919,82.8841C74.3982,82.0096 72.4642,80.3611 71.19,77.9386L50.4012,38.4157C47.4038,32.7172 49.074,29.2999 55.4117,28.1638L79.6102,23.8262C85.9479,22.6901 86.8228,24.3808 82.2348,28.8983L31.1941,79.1543C26.1862,84.0852 27.0958,85.7165 33.9229,84.0483L66.5104,76.0854C68.9905,75.4794 70.2389,73.8999 70.2558,71.3469L70.3201,61.5993C70.337,59.0463 69.1062,58.0762 66.6278,58.689L9.3479,72.8524C-1.3059,75.4867 -1.1551,76.4781 9.8002,75.8264L62.0619,72.7175C66.0624,72.4795 69.729,73.4733 73.0617,75.6988ZM79.4948,54.9409L64.211,45.7159C57.0693,44.4945 56.3496,41.6137 43.9008,40.466L13.7799,30.654C54.7652,41.686 53.9732,44.6381 25.3377,45.9866L78.1882,50.4505C82.9755,50.8548 87.6566,51.7906 92.2315,53.2579L109.6992,58.8602C114.2741,60.3275 114.173,60.8046 109.3961,60.2915L88.812,58.0805C85.4744,57.722 82.3687,56.6755 79.4948,54.9409Z" style="paint-order: stroke;" stroke="#1d1d1b" stroke-width="0.92" stroke-linejoin="round" stroke-linecap="round"></path>
    </g>
    <g transform="matrix(-0.8254065879876564 -0.5645387183414219 -0.5645387183414219 0.8254065879876564 62.38388808224535 7.722344977529474)" data-zeichen="S">
      <path d="M99.2085,50.505L68.2087,48.7817C61.4623,51.0468 64.0541,53.6396 102.9773,60.8761C64.0541,63.0722 60.31,66.456 9.7697,73.7051C49.5815,66.456 45.477,65.0165 66.4891,64.9139L57.8296,68.9882C43.6762,70.2723 48.7885,71.6405 76.6511,77.5499C64.9184,71.6405 70.4624,65.16 16.3039,56.6105C70.4624,50.5428 66.2866,46.5828 110.0189,39.3557L103.941,48.183C102.7981,49.8429 101.2206,50.6169 99.2085,50.505Z" style="paint-order: stroke;" stroke="#1d1d1b" stroke-width="0.92" stroke-linejoin="round" stroke-linecap="round"></path>
    </g>
    <g transform="matrix(0.8878222539651625 -0.4601865332277973 0.4601865332277973 0.8878222539651625 -83.66735596272568 30.05920521508208)" data-zeichen="U">
      <path d="M94.3412,64.3275L88.7816,35.8494C87.6013,29.8036 83.9317,26.8364 77.7728,26.9479L20.0578,27.9926C7.4683,28.2205 7.0621,30.5618 18.8393,35.0166L89.9911,61.9304C46.8887,76.5008 54.377,82.1893 17.2021,70.6349C64.431,82.1893 64.5423,82.1781 49.5471,79.1495L19.2131,82.2763C58.0499,77.077 53.2257,72.4686 98.0137,51.2432L95.7086,64.3151C95.2752,66.773 94.8194,66.7772 94.3412,64.3275Z" style="paint-order: stroke;" stroke="#1d1d1b" stroke-width="0.92" stroke-linejoin="round" stroke-linecap="round"></path>
    </g>
    <g transform="matrix(0.40328832872235565 -0.9150729609797948 0.9150729609797948 0.40328832872235565 -101.13659260420405 28.837073142193862)" data-zeichen="U">
      <path d="M97.8228,35.7449L109.4909,56.5916C58.5092,72.3306 53.9008,77.0835 56.7894,90.5227L34.2387,78.4935C57.1655,82.0486 64.8461,75.9107 59.0411,49.3274L25.5955,31.8059C23.3741,30.6422 23.516,30.0031 26.0212,29.8887L35.5864,29.4519C38.0916,29.3375 40.598,29.2936 43.1057,29.3202L87.794,29.7937C92.2859,29.8413 95.6288,31.825 97.8228,35.7449Z" style="paint-order: stroke;" stroke="#1d1d1b" stroke-width="0.92" stroke-linejoin="round" stroke-linecap="round"></path>
    </g>
    <g transform="matrix(-0.94205277754992 -0.3354646990526439 0.3354646990526439 -0.94205277754992 27.0629476630071 49.437916812318605)" data-zeichen="S">
      <path d="M34.3403,61.8807C48.8969,53.2065 51.4164,49.2465 37.5893,42.9949C62.434,49.2465 65.6742,50.6869 78.8924,57.6048L106.3422,58.9749C66.8265,45.2143 63.226,44.0619 48.0697,53.8313C48.8246,44.0619 42.5599,49.6781 90.9325,52.3508C42.5599,64.0795 47.4564,68.184 40.8533,83.3582L29.5578,58.5856C51.849,63.2875 48.8969,61.0551 9.8124,59.1665L34.3403,61.8807Z" style="paint-order: stroke;" stroke="#1d1d1b" stroke-width="0.92" stroke-linejoin="round" stroke-linecap="round"></path>
    </g>
  </g>
<path class="glyph-merged" d="M-8.98755,9.00049l-1.153,3.49196l-0.03966,0.877c0.52478,0.38317 1.02557,0.75438 1.4941,1.11006c1.47836,-1.94231 1.37403,-1.32003 0.33764,0.25796c3.53718,2.72077 4.97689,4.43874 0.35646,3.45345c-0.57003,-0.56735 -1.12092,-1.11722 -1.65321,-1.65022c-0.258,0.33227 -0.53522,0.67599 -0.82883,1.02413c0.97062,0.27246 1.7936,0.47928 2.48204,0.62609c0.30904,0.30758 0.6237,0.6203 0.94408,0.93824l-3.52399,-1.44884c-0.60089,0.70572 -1.26746,1.42632 -1.97619,2.10363l-1.45964,4.42064c-0.0135,0.041 -0.0419,0.0615 -0.0851,0.0615h-6.3509c-0.0432,0 -0.0579,-0.0205 -0.044,-0.0614l0.41228,-1.21344c-1.21875,-0.3957 -2.33962,-1.4431 -3.25375,-3.41133c-2.03967,-10.47589 -4.56111,-5.87883 3.70522,12.56598c0.06795,1.89654 -0.05748,3.50419 -0.23584,4.82751c-0.09723,-0.01295 -0.19493,-0.02593 -0.2931,-0.03893l0.23445,0.45231c0.02004,-0.13457 0.03965,-0.27236 0.05866,-0.41338c2.73216,0.36396 5.0948,0.70885 7.1215,1.03309c-2.46634,1.28909 -4.1929,2.2404 -5.38308,2.84733l10.0544,19.39761l0.00009,-0.00005c0.15927,3.99964 0.37541,6.43002 0.66699,7.74987c-2.31201,-1.91285 -4.49271,-3.64756 -6.35921,-4.96116l-12.00972,-23.16995c-7.15008,-0.66801 -19.58545,-23.36672 -2.56528,-24.32397c8.75711,-6.17203 -0.61869,1.52119 11.58107,-2.33352l0.98879,-2.91025c-1.00384,-1.04986 -1.89265,-1.99853 -2.67694,-2.8574c0.94548,0.69702 1.93465,1.40808 2.92866,2.11652l4.10249,-12.07462c-2.71575,0.80219 -3.5297,-1.53723 -2.13326,-7.22353c1.17784,1.98533 2.24936,3.40651 3.1368,4.26987l1.67759,-4.93756c-0.5243,-1.66214 -1.29961,-3.67036 -2.36572,-6.02143c-4.41914,0.19216 0.75504,-2.57336 5.96626,-4.57582l1.08484,-3.19295c0.0162,-0.0477 0.0495,-0.0716 0.0999,-0.0716l2.52042,0c-0.70135,-2.19289 -2.1194,-4.8386 -4.56641,-7.99764l4.69975,-3.75425c22.4851,1.66738 23.81182,0.57207 7.46072,17.25669c-0.09405,0.11088 -0.18781,0.22122 -0.28128,0.33101c9.26359,2.90222 13.24768,15.90216 4.84032,15.22992l9.35127,27.40307c0.0144,0.0423 -0.0007,0.0634 -0.0454,0.0634h-6.5628c-0.0447,0 -0.0742,-0.0211 -0.0885,-0.0634l-5.1108,-15.0495c-0.0345,-0.1018 -0.1055,-0.1527 -0.213,-0.1527zM-3.37489,-18.52692c-0.22197,-0.03727 -0.44173,-0.06941 -0.65769,-0.09693c-0.09887,0.04698 -0.19525,0.09362 -0.28917,0.1399c0.29414,-0.01156 0.60945,-0.02578 0.94686,-0.04297zM-10.3344,16.7785c0.13183,-0.19139 0.25843,-0.37385 0.37992,-0.54766c-0.11412,-0.11442 -0.22736,-0.22805 -0.33974,-0.34089zM6.92555,4.10399l-3.34678,-9.83724c-1.7376,-0.94113 -3.68873,-2.17007 -5.86692,-3.73202c-0.41413,0.41361 -0.81835,0.80951 -1.21254,1.18762l-4.14386,12.24313c-0.0313,0.0923 0.0018,0.1385 0.0993,0.1385zM-8.56341,35.87271l-0.85642,2.69953c-0.98805,-0.18078 -2.09174,-0.36947 -3.31851,-0.56574c1.20663,-0.63067 2.59033,-1.3422 4.17492,-2.13379zM-9.41983,38.57224c11.52351,2.10838 7.31756,3.13946 -0.80381,2.5337zM-6.19698,69.00224c2.25484,-2.47472 6.6779,-19.18259 15.29095,-0.20838l2.46005,4.4686c-15.46396,-19.93225 5.60416,26.22545 -0.29912,0.16957c11.42826,21.32198 -4.52151,6.38467 -17.45188,-4.42979zM-7.39994,68.00128c0.39741,0.3288 0.79871,0.66287 1.20296,1.00096c-0.50041,0.5492 -0.89403,0.39741 -1.20296,-1.00096zM-47.43503,-11.5044l2.50446,-5.68269c0.01706,-0.03871 0.04488,-0.04951 0.08358,-0.03245l25.83745,11.38701c-1.02995,3.3182 -3.72741,3.65954 -4.47448,4.95304l-23.91856,-10.54132c-0.03871,-0.01706 -0.04951,-0.04488 -0.03245,-0.08358zM-21.1701,0.14029c-1.05697,-0.1401 -1.88215,-0.18449 -2.50318,-0.14501c-0.02525,-0.34482 0.04629,-0.62723 0.18926,-0.87477zM-18.44122,7.44502c-5.17369,-3.81411 -9.03923,-7.20775 -5.23205,-7.44974c0.091,1.24279 1.43929,3.29628 5.23205,7.44974zM-18.59197,-20.58169c-0.98564,0.7009 -2.21901,1.72121 -3.75592,3.13005l3.34333,-4.23621c0.13751,0.37491 0.27507,0.74363 0.41259,1.10616zM-13.0372,-11.61396c-0.19271,0.66193 -0.36131,1.28764 -0.50613,1.87735c-0.33525,-0.56509 -0.67912,-1.17589 -1.02981,-1.83255c0.37222,0.14873 0.87255,0.14822 1.53594,-0.04481zM-15.53571,-13.45455c0.32552,0.66571 0.64681,1.29414 0.96258,1.8854c-0.6434,-0.25709 -0.90407,-0.96007 -0.96258,-1.8854zM-15.53571,-13.45455c-0.9919,-2.02854 -2.023,-4.40324 -3.05626,-7.12714c6.00488,-4.27012 2.81523,3.31519 3.05626,7.12714zM-7.06077,-15.31411l0.65417,-1.92536c-1.20895,0.93204 -1.22887,1.61221 -0.65417,1.92536z" fill="none" stroke="#1d1d1b" stroke-width="3.0149999999999997" stroke-linejoin="round" style="display: none;"></path></g>
<g transform="translate(0 1178.7455) scale(1.6283) translate(97.105 56.5493)">
  <g data-rolle="struktur" style="">
    <g transform="matrix(1 0 0 1 -65.32729510694169 -75.45179239855452)" data-zeichen="!">
      <path d="M27.8444,47.674L38.7436,73.572C40.404,77.5174 43.0124,78.299 46.5689,75.9169L61.4005,65.9827C64.122,64.1598 66.0742,61.721 67.2569,58.6663L71.7729,47.0031C72.9556,43.9484 71.9126,42.3158 68.6437,42.1051L36.5949,40.0396C35.2059,39.9501 33.9631,40.3339 32.8665,41.1911L28.6794,44.4639C27.5828,45.3211 27.3045,46.3911 27.8444,47.674Z" style="paint-order: stroke;" stroke="#1d1d1b" stroke-width="0.92" stroke-linejoin="round" stroke-linecap="round"></path>
    </g>
    <g transform="matrix(1 0 0 1 -102.24016729342064 -96.90401853499918)" data-zeichen="!">
      <path d="M20.0513,65.2531C53.3247,53.0629 51.5249,54.935 7.5952,54.9546C51.5249,60.0472 53.2534,61.9916 62.3248,69.6026C58.3657,61.9916 60.0219,60.0473 9.3259,49.1861C60.0219,54.9349 58.3657,53.0629 68.3536,42.8147L20.0513,65.2531Z" style="paint-order: stroke;" stroke="#1d1d1b" stroke-width="0.92" stroke-linejoin="round" stroke-linecap="round"></path>
    </g>
  </g>
<path class="glyph-merged" d="M-11.18749,-36.96019h6.7749c0.0461,0 0.0684,0.023 0.0671,0.0691l-1.0054,34.4455c-0.0009,0.0326 -0.0177,0.0489 -0.0504,0.0489h-4.7985c-0.0327,0 -0.0495,-0.0163 -0.0504,-0.0489l-1.0044,-34.4455c-0.0013,-0.0461 0.021,-0.0691 0.0671,-0.0691zM-42.21827,-39.37632c1.02265,-2.53117 -4.04849,3.3342 -4.51701,4.42412c-1.55992,-0.21349 -2.01829,0.05466 -2.13067,0.18475c0.05612,-0.24774 0.0212,-1.30708 -1.84932,-4.60887c4.5553,-3.9141 6.7215,-1.9372 4.248,-4.4648c5.2282,-5.323 9.8489,4.4529 4.249,4.4648zM-46.46727,-34.91242c-0.28578,0.19895 -0.35347,0.15904 -0.26801,-0.03978c0.08595,0.01176 0.17524,0.02499 0.26801,0.03978zM-48.86594,-34.76745c-0.02237,0.09876 -0.05921,0.06855 0,0z" fill="none" stroke="#1d1d1b" stroke-width="3.0149999999999997" stroke-linejoin="round" style="display: none;"></path></g>
<g transform="translate(0 1277.6187) scale(1.6285) translate(24.2449 41.9502)">
  <g data-rolle="struktur" style="">
    <g transform="matrix(1 0 0 1 -48.895943502516516 -9.348711572344726)" data-zeichen="!">
      <path d="M32.0788,50.0922L47.8273,81.3226C48.7588,83.1697 50.2569,84.1569 52.3217,84.2841L60.2054,84.7698C62.2702,84.897 63.6334,83.9806 64.2951,82.0205L76.4166,46.1133C78.5973,39.6533 76.2854,36.6383 69.4808,37.0684L35.3087,39.2282C33.9647,39.3131 33.137,40.0107 32.8256,41.3208L31.6364,46.3233C31.325,47.6334 31.4725,48.8897 32.0788,50.0922Z" style="paint-order: stroke;" stroke="#1d1d1b" stroke-width="0.92" stroke-linejoin="round" stroke-linecap="round"></path>
    </g>
    <g transform="matrix(1 0 0 1 -25.541751194918547 -84.86314876406841)" data-zeichen="!">
      <path d="M95.7894,50.9078C53.3247,53.0629 51.5249,54.935 93.1073,69.0155C51.5249,60.0472 53.2534,61.9916 3.7569,73.848C58.3657,61.9916 60.0219,60.0473 102.3555,49.7895C60.0219,54.9349 58.3657,53.0629 21.2094,45.3729L95.7894,50.9078Z" style="paint-order: stroke;" stroke="#1d1d1b" stroke-width="0.92" stroke-linejoin="round" stroke-linecap="round"></path>
    </g>
  </g>
<path class="glyph-merged" d="M5.24386,29.14289h6.7749c0.0461,0 0.0684,0.023 0.0671,0.0691l-1.0054,34.4455c-0.0009,0.0326 -0.0177,0.0489 -0.0504,0.0489h-4.7985c-0.0327,0 -0.0495,-0.0163 -0.0504,-0.0489l-1.0044,-34.4455c-0.0013,-0.0461 0.021,-0.0691 0.0671,-0.0691zM34.48015,-27.33545c-2.31585,0.87889 -3.89517,2.75338 -4.72913,4.18298c-1.71562,-0.89414 -1.35381,0.56941 -3.76787,-4.18298c-1.6888,-4.1294 6.6046,-1.8414 4.248,-4.4648c0.1994,-1.6196 6.3182,-2.4709 4.249,4.4648zM30.23115,-22.87155c-1.39387,2.65019 -1.54775,1.54919 -0.48013,-0.28092c0.14437,0.07524 0.30345,0.16718 0.48013,0.28092z" fill="none" stroke="#1d1d1b" stroke-width="3.0149999999999997" stroke-linejoin="round" style="display: none;"></path></g>
<g transform="translate(0 1473.354) scale(1.5499) translate(130.7166 86.0193)">
  <g data-rolle="struktur" style="">
    <g transform="matrix(1 0 0 1 -121.70946915431483 -116.54612528058765)" data-zeichen="?">
      <path d="M22.0082,50.5651C66.9345,44.8539 63.1904,39.7416 90.1213,32.9868C51.0937,39.7416 46.9892,40.8939 7.5813,53.2855L-6.5471,60.063C48.1405,45.7904 51.0214,44.9262 62.6962,41.845C58.1503,44.9985 60.454,47.4467 76.3021,61.2528C60.454,54.3588 58.6542,57.1674 52.7246,65.4291C51.8134,65.3041 50.5175,69.5522 14.9243,87.1154L79.2487,64.4541C82.5949,63.2752 85.7467,63.6657 88.704,65.6256L99.9957,73.1085C102.953,75.0684 102.6618,76.1666 99.1219,76.4031L50.3468,79.6625C56.4218,69.7679 57.5741,66.6 101.0414,76.3292C64.1982,58.7513 66.9345,55.223 112.3535,50.7549L22.0082,50.5651Z" style="paint-order: stroke;" stroke="#1d1d1b" stroke-width="0.92" stroke-linejoin="round" stroke-linecap="round"></path>
    </g>
    <g transform="matrix(1 0 0 1 -0.2633635261361178 -112.61368418637898)" data-zeichen="?">
      <path d="M25.4363,42.8188C53.2895,53.0268 51.4887,54.8989 82.1395,60.3015C51.4887,60.0834 53.2172,62.0278 12.4623,51.8515C58.4018,62.0278 60.058,60.0835 26.7673,69.5936C60.058,54.8989 58.3295,53.0268 10.6546,61.3241L25.4363,42.8188Z" style="paint-order: stroke;" stroke="#1d1d1b" stroke-width="0.92" stroke-linejoin="round" stroke-linecap="round"></path>
    </g>
  </g>
<path class="glyph-merged" d="M-54.77497,-66.21953c-0.801,-1.60071 -1.49878,-2.99178 -2.10691,-4.19697c3.34899,-6.57366 6.74181,-5.5107 2.10691,4.19697zM-58.04619,-72.71042c1.032,-2.00053 1.17474,-2.09914 0.11744,0.22979c0.31557,0.61809 0.6634,1.30415 1.04687,2.06413c-1.77409,3.48233 -3.53589,9.10767 -4.08549,16.72617c-2.23765,-4.84667 -4.01316,8.11347 -4.43957,12.4571h-5.19003c-0.0125,0 -0.0193,-0.0062 -0.0202,-0.0187l-0.1431,-1.8534c4.13261,-8.00472 3.55464,-11.7893 2.76158,-13.24877c0.38723,0.2317 0.93898,0.50237 1.70322,0.79177c1.78055,-3.83655 3.37911,-7.21145 4.72097,-9.99834c-5.55585,-2.43997 -7.77084,-9.79879 -6.52177,-6.05926c-3.5757,-1.75051 -6.70826,-2.10733 -8.8041,-1.78786l-0.1969,-0.51684c3.1233,-9.2054 10.9429,-1.658 10.2969,-2.8799c9.88336,8.51042 2.29234,-8.5369 8.75418,4.09411zM-75.36877,-69.38753c-5.68202,-0.88256 -5.16316,-3.46669 -1.5316,-4.02026zM-65.28812,-41.23323c0.05926,-0.48015 0.13114,-1.09841 0.21625,-1.8721l0.0716,1.8534c0.0005,0.0125 -0.0055,0.0187 -0.018,0.0187zM-67.9987,-56.3541c-1.41194,-0.84484 -0.63666,-1.17165 0,0zM-65.40694,-41.23323h0.11882c-0.25014,2.0269 -0.27517,1.59269 -0.11882,0zM55.54564,-59.58689c-0.00606,0.24229 -0.07806,0.40282 -0.20091,0.50179c0.01752,-0.15753 0.08153,-0.32399 0.20091,-0.50179zM55.34473,-59.0851c-0.16413,1.4755 3.7503,2.1668 4.44991,4.03531c-3.50873,-1.83251 -4.39395,3.00729 -4.47181,4.5683c-1.51761,0.3579 -7.55322,1.08885 -4.09749,-4.5683c-3.08652,-7.93788 2.92394,-3.07222 4.11939,-4.03531zM55.4657,-50.51761c0.00286,-0.02197 0.00574,-0.04473 0.00864,-0.06828c0.26259,-0.03531 0.22408,0.00464 -0.00864,0.06828zM55.32282,-50.48149c0.05343,-0.0126 0.10126,-0.02474 0.14288,-0.03612c-0.09546,0.73299 -0.17069,0.59379 -0.14288,0.03612z" fill="none" stroke="#1d1d1b" stroke-width="3.0149999999999997" stroke-linejoin="round" style="display: none;"></path></g>
<g transform="translate(-43.6454 1563.5038) scale(1.6286) translate(79.8586 55.4697)">
  <g data-rolle="struktur" style="">
    <g transform="matrix(1 0 0 1 -55.7734489440918 -57.54725646972656)" data-zeichen="2">
      <path d="M81.5225,90.7466L33.7352,82.6469C32.36,82.4138 30.9778,82.2348 29.5886,82.1098L22.2004,81.4448C57.7539,61.2352 63.1543,55.1864 110.5666,35.1511C63.2256,43.3778 60.9219,38.9853 54.7723,25.2237C49.6885,38.9853 46.1602,41.1455 -8.3559,44.2034L29.3623,47.1355C45.2246,35.7451 49.833,33.7294 40.9807,22.9179C65.3145,33.7294 69.5625,40.6415 79.1253,53.1614C69.5625,55.9784 63.2979,62.9638 27.8989,65.6856L57.286,86.9726C59.4083,88.5099 61.7315,88.926 64.2554,88.2208L73.8923,85.5282C76.4162,84.823 78.877,83.9415 81.2747,82.8837L109.6332,70.3724C115.6419,67.7215 115.4209,67.0126 108.9702,68.2455L57.1426,78.1515C51.3269,79.263 51.3788,79.8878 57.2981,80.0257L86.2597,80.7006C87.9386,80.7397 88.4281,81.5226 87.7282,83.0491L85.0559,88.8777C84.356,90.4042 83.1782,91.0272 81.5225,90.7466Z" style="paint-order: stroke;" stroke="#1d1d1b" stroke-width="0.92" stroke-linejoin="round" stroke-linecap="round"></path>
    </g>
    <g transform="matrix(-0.7417313433801764 -0.670697110659826 -0.670697110659826 0.7417313433801764 74.39709867084268 30.6122646621942)" data-zeichen="4">
      <path d="M20.3036,73.7968L14.8542,68.5336C14.0971,67.8024 14.1868,67.1965 15.1231,66.7158L20.1027,64.1594C63.9457,51.3709 65.098,49.3543 14.1158,55.6864L61.4914,40.1048C68.4455,37.8176 75.4575,37.6238 82.5274,39.5234L109.5213,46.7765C116.5912,48.6761 116.5411,48.8872 109.3712,47.4097L60.6512,37.3705C54.8711,36.1794 54.2206,37.5051 58.6999,41.3476L79.6572,59.3252C81.5668,60.9633 81.6402,62.6799 79.8773,64.475L73.1465,71.3291C71.3836,73.1242 71.717,74.3485 74.1466,75.0021L95.8903,80.8512C100.6641,82.1354 100.5936,82.5114 95.6788,81.9793L44.9081,76.4819C36.0109,75.5186 35.9698,74.2651 44.7849,72.7216L78.4426,66.8281C87.2577,65.2846 87.2464,65.2171 78.4087,66.6257L24.7109,75.1842C23.0109,75.4551 21.5418,74.9927 20.3036,73.7968Z" style="paint-order: stroke;" stroke="#1d1d1b" stroke-width="0.92" stroke-linejoin="round" stroke-linecap="round"></path>
    </g>
    <g transform="matrix(0.9626085906630587 -0.2708961077270764 -0.2708961077270764 -0.9626085906630587 -65.33916981233887 102.4117184762711)" data-zeichen="3">
      <path d="M90.4803,65.0032C65.7099,66.4555 68.5907,62.352 81.3533,55.3262C68.5907,51.8383 64.4139,46.3666 96.4647,60.2227C50.1571,46.3666 45.4041,48.1664 95.4519,56.5855L35.7717,67.2319C46.6287,53.1351 50.2283,51.4789 65.5074,64.866C59.8054,51.4789 62.1814,54.7914 9.2631,64.094C62.1814,64.0794 56.3494,66.4554 83.1588,58.0238L61.419,64.7196C57.3311,65.9786 53.1982,66.15 49.0201,65.2337L20.1605,58.9046C13.5555,57.4561 13.4774,57.7488 19.9262,59.7829L72.0828,76.2343C75.9177,77.4439 79.6951,77.2849 83.4148,75.7573L100.5544,68.7186C102.3162,67.9951 102.2645,67.4404 100.3994,67.0547L90.4803,65.0032Z" style="paint-order: stroke;" stroke="#1d1d1b" stroke-width="0.92" stroke-linejoin="round" stroke-linecap="round"></path>
    </g>
    <g transform="matrix(-0.10186116208509395 0.9947986246767102 -0.9947986246767102 -0.10186116208509395 53.0109552392362 -16.967836350091137)" data-zeichen="6">
      <path d="M103.8583,50.3859C66.3015,51.6586 67.9578,51.5863 62.855,44.0401L96.5277,53.4282C68.1023,46.474 66.5183,46.5463 51.3438,59.0376C58.741,47.5541 53.5565,49.9311 18.2347,63.721C46.1623,57.2528 43.411,62.3061 13.6445,70.1506L41.5225,57.1893C49.3085,60.8754 54.5653,53.603 45.78,61.3246L103.8583,50.3859Z" style="paint-order: stroke;" stroke="#1d1d1b" stroke-width="0.92" stroke-linejoin="round" stroke-linecap="round"></path>
    </g>
    <g transform="matrix(-0.1159344632966592 -0.9932568651764334 0.9932568651764334 -0.1159344632966592 -45.683216874428794 87.62649580945849)" data-zeichen="4">
      <path d="M16.7362,22.9481L32.9146,28.3268C37.1518,29.7355 37.3074,31.5035 33.3814,33.6307L10.4105,46.077C52.8574,42.6937 52.7852,45.142 6.1314,49.117L33.9105,78.5607C35.5611,80.3102 35.6241,82.1152 34.0995,83.9756L28.2784,91.0789C26.7538,92.9393 26.8813,93.0605 28.661,91.4424L86.2776,39.0562C96.1315,30.0969 94.4087,25.2666 81.1092,24.5652L17.069,21.1878C12.6099,20.9526 12.499,21.5394 16.7362,22.9481Z" style="paint-order: stroke;" stroke="#1d1d1b" stroke-width="0.92" stroke-linejoin="round" stroke-linecap="round"></path>
    </g>
    <g transform="matrix(0.44256158905224635 -0.8967381110979675 -0.8967381110979675 -0.44256158905224635 30.809953548536818 44.01398241861099)" data-zeichen="6">
      <path d="M57.7177,41.7221c-5.1846,0-9.0732,2.4482-11.3057,5.4004h-6.1509c-.3512,1.9717-.5454,4.0608-.5454,6.2646,0,12.1689,6.5527,19.9453,16.5615,19.9453,9.7207,0,15.5537-7.9209,15.5537-16.4893,0-9.1445-5.833-15.1211-14.1133-15.1211ZM56.2773,68.436c-6.625,0-10.1533-5.6885-10.2969-13.3926,0-1.1523.2881-2.0889.7197-2.8086,1.7285-3.3848,5.2568-5.7607,9.0732-5.7607,5.832,0,9.6484,4.0322,9.6484,10.7295s-3.6719,11.2324-9.1445,11.2324Z" style="paint-order: stroke;" stroke="#1d1d1b" stroke-width="0.92" stroke-linejoin="round" stroke-linecap="round"></path>
    </g>
    <g transform="matrix(-0.027579857288461903 0.9996196033851817 -0.9996196033851817 -0.027579857288461903 78.60570008169486 -22.170791416345633)" data-zeichen="3">
      <path d="M27.9912,36.0038L7.2562,40.5451C1.8256,41.7344 1.8679,42.6782 7.3832,43.3765L46.1875,48.2894C54.6119,49.356 54.5797,49.7798 46.0908,49.5609L0.9455,48.3967C57.8612,47.0146 63.7655,49.8232 45.9023,62.4036C63.9101,60.2637 61.3896,65.4482 104.4667,62.0441C48.8602,65.4482 44.6844,63.6484 45.4725,70.464L65.6681,72.5359C43.4599,68.9043 48.0683,70.5606 105.4414,69.1838C64.5585,70.5606 70.3905,64.0079 84.253,65.116C70.3905,49.9669 65.7098,45.6466 105.274,32.0531L44.472,33.9586C38.9154,34.1327 33.4218,34.8145 27.9912,36.0038Z" style="paint-order: stroke;" stroke="#1d1d1b" stroke-width="0.92" stroke-linejoin="round" stroke-linecap="round"></path>
    </g>
  </g>
  <g data-rolle="akzent" style="">
    <g transform="matrix(-0.8719217410839787 0.4896452567166184 -0.4896452567166184 -0.8719217410839787 129.19715992908894 81.69369850029278)" data-zeichen="4">
      <path d="M14.3224,64.0326L46.6212,52.949C53.8373,50.4728 53.9398,50.7388 46.9288,53.7469L20.1596,65.2326C13.1486,68.2407 13.4094,69.1399 20.9419,67.93L74.8027,59.279C87.055,57.3111 87.0286,57.1301 74.7237,58.736L14.9104,66.5423C6.4098,67.6517 6.2138,66.8151 14.3224,64.0326Z" style="paint-order: stroke;" stroke="#1d1d1b" stroke-width="0.92" stroke-linejoin="round" stroke-linecap="round"></path>
    </g>
  </g>
<path class="glyph-merged" d="M-9.97265,15.06494c1.0222,1.76528 2.84611,3.34641 4.94138,3.85831l0.3636,-0.40211h-1.41588c-0.0009,0 -0.0014,-0.0005 -0.0014,-0.0014v-0.1408c0,-0.0009 0.0004,-0.0017 0.0011,-0.0024l3.744,-3.4551c8.58045,-13.89335 9.95346,-20.54547 9.57512,-23.57838c0.07028,-0.24777 0.14255,-0.50127 0.21688,-0.76052c-0.46837,18.52124 -4.45011,25.96195 -8.57979,27.9386h-0.59112l-0.0324,0.2574c0.20793,-0.07247 0.41591,-0.15803 0.62352,-0.2574h11.04961c0.06189,-0.4615 0.1225,-0.93153 0.18169,-1.41007l3.67079,1.41007h1.11441c0.0351,0 0.0526,0.0175 0.0526,0.0526l0,0.39569l0.00919,0.00353c0.32673,0.97934 0.66643,1.73164 1.00806,2.29786l1.77205,-0.20684c1.88957,-1.89301 2.40878,-1.24653 2.14856,-0.25078l7.94893,-0.92781c0.03963,-0.00463 0.0617,0.01283 0.06633,0.05246l0.67903,5.81751c0.00463,0.03963 -0.01283,0.0617 -0.05246,0.06633l-15.78413,1.84235c-0.29075,0.44431 -0.59191,0.91187 -0.90375,1.4037c2.52494,-3.23808 11.97271,27.3973 8.65824,11.02017c11.54404,14.92226 1.3723,-11.22472 9.69046,-11.83394l0.09662,-3.50177c0.00046,-0.01679 0.00909,-0.02496 0.02589,-0.0245l2.46916,0.06813c0.01679,0.00046 0.02496,0.00909 0.0245,0.02589l-0.32302,11.70764c-15.06723,20.71447 -9.09012,19.26477 -10.94221,13.03243c0.11089,6.66208 -24.83771,4.43378 -14.93166,-20.37382c-3.58894,10.77043 -0.94746,10.20007 1.60997,-0.99567l-3.94256,0.46018c0.39733,4.25906 -2.9146,11.30901 -4.43344,13.91912c9.15297,17.35148 -5.4854,10.25187 -0.11079,4.62015l-4.98787,-0.51073l-0.76163,6.05054c-0.0035,0.02758 -0.01453,0.05171 -0.03325,0.0724l-2.7453,3.03605c-0.01871,0.02069 -0.03835,0.02168 -0.05904,0.00297l-7.96543,-7.20259c-2.15807,1.12258 -5.07413,-0.50355 -7.93842,-5.81424c-2.15337,-2.47721 -3.45611,-4.36703 -4.2504,-5.73484c1.92889,0.42195 3.54049,1.23084 4.7643,2.10251c0.31319,0.09954 0.61901,0.19739 0.91758,0.29352l1.67284,-1.85002c0.0222,-0.02455 0.04565,-0.02573 0.0702,-0.00353l4.29169,3.88068c1.65336,0.57633 2.8185,0.99394 3.58349,1.22822c-0.09888,0.59924 -0.22152,1.16039 -0.36594,1.68118l3.8305,3.46366l0.09531,-0.1054c0.0006,-0.00067 0.00098,-0.00154 0.00115,-0.00247l0.37426,-3.34378c-3.13657,1.05029 -4.09798,-0.56052 -3.42489,-1.54971c-0.14488,-0.03554 -0.31452,-0.08351 -0.51038,-0.14349c0.07236,-0.43856 0.132,-0.89751 0.17814,-1.37597c0.37931,0.46069 0.66688,0.81586 0.83662,1.07281c0.64136,-0.34818 1.70007,-0.37116 3.09981,0.3945l1.01507,-9.06903c-0.2815,-1.30079 -0.44278,-2.53313 -0.53938,-3.68024c-1.0506,0.1388 -1.98413,0.22388 -2.72718,0.23228l-2.52776,0.29504c0.9026,4.17772 1.12481,7.83048 0.84283,10.75464c-1.61166,-1.95747 -4.87945,-5.81993 -7.80119,-12.14649c-2.32712,-4.39526 -4.07005,-7.55698 -5.70157,-8.94213l0.66558,-0.18731c-1.47621,-1.20352 10.56578,-6.64006 13.55226,-2.25791zM-12.85672,23.88851c-0.08476,0.25192 -0.17784,0.51131 -0.27951,0.77832l1.25366,-0.14633c-0.47251,-0.18871 -0.81787,-0.39738 -0.97415,-0.63199zM-11.77345,-14.60106l-2.0156,-4.4648c0.72952,-3.41473 1.60095,-6.26058 2.55768,-8.60677c-1.03737,-3.59084 -0.68333,-7.44266 1.18749,-11.23341c4.30201,-8.71692 13.98644,-10.44211 21.67005,-6.65006c8.20022,4.047 10.9782,11.92269 7.31366,19.34795l-0.00005,-0.00013c-1.55109,3.1429 -3.84334,5.25957 -6.28891,6.51608c-0.57331,3.81132 -1.38364,7.60831 -1.4125,9.6266c-2.3698,0.06403 -3.79361,-0.1238 -4.59829,-0.34653c0.25515,0.36201 0.49124,0.92204 0.59518,1.75519c-3.96196,13.96761 -1.6136,9.73381 -8.03802,-7.25682c-0.56174,-0.30964 -1.10311,-0.63035 -1.62386,-0.96146c-9.25046,26.06203 -17.29794,32.17671 -9.34684,2.27416zM-0.54005,-23.81786c11.28578,-10.76449 13.81229,-7.76731 13.75131,-1.70008c0.22351,-0.33441 0.42651,-0.68463 0.60672,-1.04977c2.58102,-5.22978 0.65418,-10.43658 -5.35154,-13.40055c-6.00569,-2.96395 -11.69749,-1.67831 -14.11948,3.2291l-0.00004,0.00009c-0.224,0.45389 -0.41023,0.90626 -0.56009,1.35629c6.84605,-5.83076 13.48027,3.82527 5.67312,11.56493zM11.23838,-10.0656c0.75159,-0.02031 1.59834,-0.06595 2.55067,-0.14385c-1.97226,2.33441 -2.57659,1.95639 -2.55067,0.14385zM-26.1991,20.19004c-0.00004,-0.00002 -0.00008,-0.00003 -0.00012,-0.00005l0.00007,0.00027zM-37.5251,42.67724l0.34587,-4.88474c2.06667,-0.77277 3.98465,-1.0512 5.71803,-1.00054c-0.94925,1.449 -2.72017,3.45861 -6.0639,5.88528zM-33.53535,24.42475l-3.37491,0.94976c-0.01434,0.00404 -0.02347,-0.00108 -0.02751,-0.01543l-0.59267,-2.106c-0.00404,-0.01434 0.00108,-0.02347 0.01543,-0.02751l5.71088,-1.60715c-0.54374,0.7322 -1.1168,1.66303 -1.73123,2.80631zM-31.4612,36.79196c2.12364,-3.24167 0.13488,-3.67758 2.4443,0.29935c-0.76618,-0.1676 -1.58241,-0.27416 -2.4443,-0.29935zM-31.80412,21.61843c1.75831,-2.36773 3.21005,-2.6585 4.76269,-1.34031zM56.42905,59.42984l-5.62677,3.15983c-0.02886,0.01621 -0.05146,0.00986 -0.06767,-0.019l-2.38428,-4.24574c-0.01621,-0.02886 -0.00986,-0.05146 0.019,-0.06767l5.62677,-3.15983c0.02886,-0.01621 0.05146,-0.00986 0.06767,0.019l2.38428,4.24574c0.01621,0.02886 0.00986,0.05146 -0.019,0.06767z" fill="none" stroke="#1d1d1b" stroke-width="3.0149999999999997" stroke-linejoin="round" style="display: none;"></path></g>
</svg>