<svg xmlns="http://www.w3.org/2000/svg" width="72.2mm" height="318.165mm" viewBox="0 0 204.6614 901.8844" fill="#1d1d1b">
<g transform="translate(64.3516 62.716) scale(0.3509) translate(81.0678 125.985)">
  <g data-rolle="struktur" style="display: none;">
    <g transform="matrix(1 0 0 1 -55.77334785461426 -57.52729606628418)" data-zeichen="H">
      <path d="M-21.4975,27.9807L-18.2575,43.2869C-16.883,49.7804 -12.9135,52.5366 -6.349,51.5556L64.3402,40.9917C75.5618,39.3147 86.8272,38.0185 98.1364,37.1031L124.7939,34.9455C136.1031,34.0301 136.0996,33.1604 124.7833,32.3364L79.6709,29.0515C70.7283,28.4004 64.9094,32.3506 62.2143,40.9022L55.4258,62.4422C53.0211,70.0721 47.8233,74.075 39.8322,74.4507L20.996,75.3362C13.0049,75.7119 12.9265,75.0897 20.7606,73.4696L59.077,65.5456C68.2501,63.6485 77.4414,61.8439 86.6509,60.1317L108.3588,56.0958C117.5683,54.3836 118.1153,55.8666 109.9999,60.5449L58.4042,90.2882C50.8279,94.6557 50.8597,94.7117 58.4995,90.4564L76.5077,80.4258C84.1475,76.1705 84.4247,71.48 77.3393,66.3544L29.9188,32.05C14.8692,21.163 16.4879,17.3478 34.7748,20.6045L88.1004,30.1011C109.0371,33.8296 108.9507,34.4062 87.841,31.8309L-13.6765,19.4462C-20.265,18.6424 -22.872,21.4872 -21.4975,27.9807Z" style=""></path>
    </g>
    <g transform="matrix(0.6057809160376968 -0.7956314987257159 -0.7956314987257159 -0.6057809160376968 12.420385680267287 115.01809463819035)" data-zeichen="L">
      <path d="M17.9191,21.9808L-5.2936,29.7209C-15.1415,33.0046 -18.996,39.7256 -16.8573,49.8838L-10.1848,81.5756C-7.6692,93.5239 -0.6723,97.4159 10.8058,93.2516L44.1132,81.1678C51.4235,78.5156 57.6259,74.2517 62.7203,68.3762L74.7286,54.5267C79.823,48.6512 79.0021,43.7705 72.266,39.8847L46.1789,24.8359C37.1869,19.6488 27.767,18.6971 17.9191,21.9808Z" style=""></path>
    </g>
    <g transform="matrix(-0.7784176526071606 -0.627746730863298 -0.627746730863298 0.7784176526071606 108.99175237379322 39.029138207032204)" data-zeichen="L">
      <path d="M78.3013,72.6725L58.112,76.8793C51.8643,78.1811 47.3913,75.9403 44.6932,70.1568L37.3195,54.3511C35.2973,50.0164 34.2252,50.2398 34.1031,55.0215L33.6922,71.1151C33.6522,72.6817 32.8542,73.3718 31.2982,73.1855L27.6304,72.7462C26.0744,72.5599 26.0795,72.4401 27.6457,72.387L78.0612,70.6756C85.8852,70.41 85.9652,71.0756 78.3013,72.6725Z" style=""></path>
    </g>
    <g transform="matrix(-0.691123130424407 0.7227370328081771 0.7227370328081771 0.691123130424407 3.6811113569013116 -125.20674795241982)" data-zeichen="A">
      <path d="M2.0319,13.5719L9.9225,15.118C13.27,15.7739 13.2931,16.5315 9.9919,17.3907L-16.1275,24.189C-22.781,25.9207 -22.6826,26.4945 -15.8323,25.9102L10.5903,23.6567C46.3039,41.6142 -19.3962,60.4411 80.1245,66.199L-7.3174,51.8853C-12.0842,51.105 -15.77,52.7488 -18.3747,56.8165L-24.5146,66.4049C-27.1193,70.4726 -26.0088,72.403 -21.183,72.1959L118.8049,66.1893C135.5194,65.4721 136.1798,68.3893 120.7861,74.941L78.322,93.0141C67.0476,97.8126 58.064,95.08 51.3713,84.8163L32.188,55.3977C27.7669,48.6177 22.892,42.1813 17.5635,36.0886L0.3791,16.4396C-1.8665,13.8719 -1.3156,12.916 2.0319,13.5719Z" style=""></path>
    </g>
    <g transform="matrix(0.9075715730344711 -0.4198974158288374 -0.4198974158288374 -0.9075715730344711 1.2906981913343678 93.55129211683888)" data-zeichen="O">
      <path d="M94.0233,76.7549C66.6826,42.6305 107.3072,47.2902 63.158,22.759L69.324,52.1304C55.108,37.7838 -13.2262,62.5222 17.9416,72.0552C60.0576,68.1999 113.1632,91.5431 134.9967,83.9516L-41.5989,63.5079C56.9194,82.2392 102.0105,90.9659 46.4052,74.3677L94.0233,76.7549Z" style=""></path>
    </g>
    <g transform="matrix(0.23850517571635246 -0.971141226164615 0.971141226164615 0.23850517571635246 -106.02326415861211 68.31535328400422)" data-zeichen="O">
      <path d="M63.6374,86.5397C56.8179,77.4731 -15.7909,72.6391 62.5787,47.5828C51.2017,47.1587 40.4784,54.9327 97.2166,47.4299C66.852,37.5815 8.8074,47.6873 154.7317,46.364L105.2263,50.5098C54.0816,32.4692 90.9155,21.2594 -21.6727,38.2318C44.5044,72.6489 141.5987,71.3778 86.6703,69.9563C66.5641,82.5854 89.4119,68.145 143.6609,60.6035L95.5064,80.7219C66.9207,77.455 94.0731,76.0752 23.876,60.6095L63.6374,86.5397Z" style=""></path>
    </g>
    <g transform="matrix(0.9886917015332399 0.14996239301673892 -0.14996239301673892 0.9886917015332399 -33.26381668344847 -29.42483101356345)" data-zeichen="L">
      <path d="M-7.7387,74.2264L107.4832,68.0648C116.3047,67.5931 116.9574,65.0361 109.4413,60.394L91.7248,49.4517C84.2087,44.8096 76.6725,44.7767 69.1162,49.3532L40.7124,66.5559C31.0529,72.4062 31.2334,72.7273 41.2537,67.5194L64.8732,55.2436C74.8935,50.0357 74.4049,48.7146 63.4073,51.2804L-8.6127,68.083C-31.5614,73.437 -31.2701,75.4848 -7.7387,74.2264Z" style=""></path>
    </g>
    <g transform="matrix(0.21179642458237707 -0.977313805557929 0.977313805557929 0.21179642458237707 -37.271603018790756 80.65032077274788)" data-zeichen="A">
      <path d="M-17.3483,62.2626C64.2326,44.6376 47.3059,20.4727 135.0444,21.9147L143.3045,18.2626C145.446,17.3157 145.347,16.7928 143.0076,16.6937L56.6013,13.0355C50.6949,12.7854 45.2294,14.2178 40.2049,17.3326L28.3612,24.6746C23.3367,27.7894 22.1674,31.9799 24.8535,37.2461L37.5003,62.0407C41.8237,70.5169 39.2552,75.2648 29.7949,76.2843L5.0631,78.9495C-5.0279,80.037 -5.5329,78.3142 3.548,73.7813L26.0818,62.533C35.4553,57.854 45.3712,55.8245 55.8293,56.4445L113.4773,59.8621C132.4902,60.9892 132.737,59.3282 114.2177,54.8791L10.6606,30.0001C3.5964,28.303 -1.5609,30.7032 -4.8112,37.2007L-17.3483,62.2626Z" style=""></path>
    </g>
    <g transform="matrix(-0.5034246905591042 -0.8640391084525457 0.8640391084525457 -0.5034246905591042 -17.675363086464216 42.12710593969675)" data-zeichen="L">
      <path d="M128.5854,50.2061L50.4238,51.6149C40.9943,51.7849 34.3875,56.1892 30.6035,64.8279L18.6497,92.1174C16.8886,96.138 18.1863,97.88 22.5428,97.3435L32.8116,96.0788C37.1681,95.5423 41.2171,94.1263 44.9585,91.8308L131.8131,38.5424C134.0219,37.1872 134.8786,37.7814 134.3831,40.325L133.2151,46.3206C132.7196,48.8642 131.1764,50.1594 128.5854,50.2061Z" style=""></path>
    </g>
  </g>
  <g data-rolle="akzent" style="display: none;">
    <g transform="matrix(0.4852831737674998 -0.8743570444950636 -0.8743570444950636 -0.4852831737674998 131.22531783919368 72.26560322790337)" data-zeichen="A">
      <path d="M88.2291,61.0843L6.6654,75.6146C-7.6253,78.1604 -7.5225,79.0574 6.9737,78.3055L52.2061,75.9596C59.3271,75.5903 59.495,74.3096 52.7097,72.1176L32.6061,65.6231C28.5606,64.3162 24.6682,62.6515 20.9287,60.629L12.1144,55.8617C8.3749,53.8392 8.6303,52.879 12.8804,52.9812L87.7483,54.7817C108.8114,55.2882 108.9716,57.3891 88.2291,61.0843Z" style=""></path>
    </g>
  </g>
<path class="glyph-merged" d="M-69.44985,-38.0811l34.16242,4.16767c0.40186,0.61121 0.96345,1.2902 1.68479,2.03696c0.14855,-0.58634 0.29825,-1.17854 0.44912,-1.77663l-2.13391,-0.26033c-1.66476,-2.53206 -0.58809,-3.90102 3.23002,-4.10686c2.32023,-9.29005 4.89928,-19.90011 7.75263,-31.97564l-6.28439,-10.3525l48.99884,26.31983l3.96337,-5.78347l-0.89985,-3.84458c-1.28093,-5.47271 -2.29087,-10.98906 -3.02986,-16.54898c4.89032,3.48931 10.33219,5.70914 7.90736,14.58925l19.88706,-29.01979c2.73049,-3.98443 6.46587,-5.51222 11.20592,-4.58345l11.17332,2.18923c4.74005,0.92877 5.36772,3.06551 1.88282,6.41017l-43.1365,41.40108l11.6735,6.27045c3.86692,2.0771 7.12876,4.86275 9.78549,8.35685l6.26232,8.23596c0.04075,0.05359 0.08067,0.10683 0.11977,0.15972l5.54742,0.40394c10.6492,-7.37222 20.09347,-12.76947 27.80699,-13.53334l-22.74661,13.90182l3.19776,0.23285c11.3163,0.824 11.3198,1.6937 0.0106,2.6091l-9.05803,0.73314l-16.28321,9.95165l-0.63331,2.26515l11.34839,-5.95755c-1.43877,5.82521 -2.02269,10.45022 -2.03619,14.20017l0.22725,-0.04225c9.2095,-1.7122 9.7565,-0.2292 1.6411,4.4491l-1.45621,0.83946c2.6274,15.07337 16.47611,11.36859 2.34179,33.69855l10.77093,9.14269c6.73497,5.71674 5.70619,8.14694 -3.08629,7.29042l-35.19137,-3.42805c-0.14574,2.51157 -0.12476,5.02506 0.06293,7.54048l-6.59962,1.7433l-0.00752,0.05866l7.41293,6.40506c-3.02681,1.10839 -5.80427,1.07057 -8.33237,-0.11342c-0.54877,2.66363 -1.36236,5.16487 -2.44076,7.50374c1.33185,10.01894 2.21285,22.00588 2.2032,37.09357l-21.83803,-17.5607c-0.1182,-0.09505 -0.23448,-0.19053 -0.34884,-0.28645l-12.15058,8.2806c-8.57828,5.8461 -16.26071,4.8414 -23.04731,-3.01386l-19.31717,-22.35915c-5.31098,7.90595 -11.07241,15.57254 -17.2661,22.62859c2.43976,-26.67596 4.42183,-44.94813 6.41351,-57.88498c-2.73845,-0.74625 -2.6249,-1.46623 0.34062,-2.15991c5.39103,-33.35463 11.04686,-28.99943 26.19836,-47.54781l-21.011,3.13992c-6.5645,0.981 -10.534,-1.7752 -11.9085,-8.2687l-3.24,-15.3062c-1.3745,-6.4935 1.2325,-9.3383 7.821,-8.5345zM-29.30977,-37.99725c2.22111,0.1251 4.99152,0.48325 8.31123,1.07445l6.49436,1.15656c0.24654,-5.03607 0.61233,-10.44852 1.13678,-16.21215l-10.88221,-17.92668zM-9.489,-34.8731l7.29368,1.29891l-9.54695,-15.72705zM22.90396,-57.54379c-0.75736,1.39557 -1.63479,2.89522 -2.64338,4.5094l4.23074,2.27255zM31.22092,-4.28294c1.06161,-0.75887 2.11761,-1.51991 3.16765,-2.2814l5.97523,-12.39534l-10.65817,1.22785c-1.50323,5.88963 -5.81322,10.36147 -12.92994,13.4155l-8.39718,3.60353l2.29261,1.6585c23.67593,-16.33344 27.50538,-17.50015 4.32572,3.12927l0.81555,0.58998l5.44368,-2.85776l-5.09211,3.11209l0.54587,0.39489c-0.58681,0.11538 -1.17354,0.23113 -1.7602,0.34726l-9.36338,5.72252c0.01536,0.27563 0.03167,0.5498 0.04892,0.82255c3.79781,-2.09594 7.56158,-4.36584 11.27848,-6.7449l-0.20381,-0.14744c0.20832,-0.04096 0.41665,-0.08187 0.62499,-0.12274c3.07566,-1.97727 6.11883,-4.02774 9.12223,-6.1146l6.97804,-3.66325l0.71737,-1.48815zM45.26654,-17.57403l-1.06014,3.79177c3.09365,-2.29154 6.12126,-4.53658 9.07312,-6.68609c-0.23743,0.04117 -0.48762,0.07691 -0.75057,0.10721l-6.70672,0.77263c-0.17555,0.64586 -0.36079,1.31735 -0.55569,2.01448zM42.31777,17.13025c-1.25009,3.45148 -4.66487,6.48182 -9.27034,8.99957l-0.59321,2.12172c4.51108,-0.90478 8.78877,-0.31481 12.83308,1.76985zM-25.85455,-25.4773l10.90676,7.89005c-0.0026,-4.1651 0.06743,-8.77928 0.25526,-13.81369l-15.36605,-1.87459l-0.64374,4.05925c1.35733,1.13661 2.97325,2.38294 4.84777,3.73899zM-25.43634,30.75034c2.60306,-1.67588 5.30297,-3.05733 8.09975,-4.14433c0.19345,-0.54986 0.481,-1.13093 0.86926,-1.74382l-10.18697,6.22587c-0.12941,0.23007 -0.26002,0.46296 -0.39185,0.69872zM-10.93996,16.10952c-1.52369,0.45747 -3.19075,0.72876 -5.00118,0.81388l-2.02157,0.09503c-1.3494,1.89877 -2.9558,4.33261 -4.92072,7.58423c4.2044,-2.99682 8.189,-5.83105 11.94348,-8.49315zM-34.77735,17.8089c-6.53305,0.30715 -7.77747,-0.05267 -3.73336,-1.07946c-0.41533,-1.41789 2.22482,-4.86007 7.92044,-10.32654l15.28924,-14.67414c0.15798,-0.43861 0.30786,-0.85727 0.44961,-1.25526c-0.02607,-1.11955 -0.04798,-2.28647 -0.0643,-3.49983l-22.4388,3.35329c-2.80491,23.97089 -5.30569,34.06374 -6.85483,36.92776c0.30078,3.15859 0.63165,6.03586 0.99018,8.65058l5.06702,-0.39947c2.24908,-1.60821 4.4504,-3.18159 6.60282,-4.71909c2.21504,-4.68465 4.23972,-9.18671 6.06957,-13.41491zM-3.85033,-21.54614l4.74943,-6.9305l-0.67013,-1.10393l-9.06411,-1.10578l2.20147,14.09648l7.70601,-7.39599l0.77043,-2.94676c-0.10276,-0.16226 -0.20457,-0.32647 -0.30542,-0.49261l-0.1887,-0.31085c-1.6367,1.9775 -3.36822,4.03943 -5.19897,6.18996zM-10.37203,7.3337c-1.04078,1.67017 -2.01522,2.76566 -3.24567,4.18401l5.71676,-1.18225l1.19627,-4.57556zM-25.63434,13.8833c-0.18317,0.0786 -0.36439,0.15592 -0.54367,0.23194l2.29317,-0.47424c0.0877,-0.2077 0.17489,-0.41462 0.26157,-0.62073zM45.82287,57.90979c4.29521,-2.10478 4.98951,-1.25787 2.08286,2.54094l-4.18132,5.46468c-0.02231,0.56568 -0.06626,1.15658 -0.13185,1.77268l-1.13991,10.70717c0.56644,0.51911 0.55647,0.61266 -0.02987,0.2806l-1.46359,13.74745c-1.07441,10.0924 -2.86508,10.22106 -5.37185,0.38612l-6.22054,-24.40494c-0.1421,-0.5575 -0.27604,-1.11491 -0.40183,-1.67222l-0.49084,-0.42411c0.12175,-0.04458 0.24389,-0.09102 0.36645,-0.13931c-0.58099,-2.69142 -0.97174,-5.38066 -1.17224,-8.06771l3.63573,-0.96038c5.72582,-1.51249 9.47468,-0.72164 11.24656,2.37251zM15.30061,-113.57097l0.33276,3.72193l-6.289,3.88292c-2.90251,1.79209 -3.43409,1.2518 -1.5946,-1.62087l4.33595,-6.77137c1.83949,-2.87267 2.9111,-2.61018 3.21488,0.78739zM32.30949,-120.14511c5.84995,-3.61191 6.19665,-3.14423 1.03996,1.40291l-17.15842,15.13044l-0.55765,-6.23728zM16.19102,-103.61175l1.43411,16.04046c0.22026,2.46365 0.493,4.91887 0.81821,7.36566c-4.74639,-3.38661 -8.97322,-7.96908 -4.98386,-20.99742zM12.17994,6.57186l1.1043,-0.57972c-0.19299,0.03845 -0.38596,0.07693 -0.57893,0.11546c-0.17379,0.15368 -0.34892,0.30844 -0.52537,0.46426zM21.25608,1.80716l9.96484,-6.09011c-1.57594,1.12653 -3.16425,2.2483 -4.76385,3.35975zM-39.0284,-94.2507l8.43924,13.90227l-20.14204,-10.81934c-2.28291,-1.22625 -2.20078,-2.26561 0.24643,-3.11799l5.76843,-2.00914c2.44722,-0.85238 4.34321,-0.17103 5.68793,2.04419zM125.90932,-31.04238l-34.75785,66.33503c-1.97314,3.7657 -2.93664,3.52304 -2.89031,-0.7281l0.10911,-10.02034c0.04633,-4.25114 0.4797,-8.46234 1.30022,-12.63377l2.17319,-11.04836l28.78825,-35.3834c13.29691,-16.34313 15.0561,-15.18353 5.2774,3.47894zM68.34576,29.74317c-9.16097,11.25974 -9.89539,10.73456 -2.20319,-1.57541l24.00168,-38.41084c3.7786,-6.04708 4.97987,-5.57238 3.60367,1.42413l-1.90424,9.68103z" fill="none" stroke="#1d1d1b" stroke-width="2.883" stroke-linejoin="round" style=""></path></g>
<g transform="translate(64.4323 337.4603) scale(0.3714) translate(99.7234 63.0009)">
  <g data-rolle="struktur" style="display: none;">
    <g transform="matrix(1 0 0 1 -55.75372505187988 -57.52792739868164)" data-zeichen="D">
      <path d="M93.1207,18.3074C39.6796,33.2977 13.5752,44.6548 92.4223,40.9507C58.1855,32.8651 39.6129,41.9951 108.0562,56.3135C73.1625,42.8739 55.6177,68.4514 40.796,51.4068C75.683,64.2606 27.5023,91.0151 50.2016,68.489C64.162,79.741 92.1153,73.8011 -40.5282,85.6923C42.7762,82.1893 7.6513,68.0683 6.8582,89.0812L113.2228,29.4301C117.7629,26.884 117.5211,24.9292 112.4975,23.5659L93.1207,18.3074ZM38.8717,98.5046C43.7124,77.0771 -36.4568,95.4532 116.3752,93.206C61.8579,77.1494 133.7008,63.278 93.7235,35.2741C69.2026,45.1064 147.9992,54.239 97.9939,23.9118C46.2324,37.8339 115.4427,36.1569 93.5086,54.5537L-15.2167,57.7538C-31.7128,58.2393 -32.6031,62.2175 -17.8877,69.6884L38.8717,98.5046Z" style=""></path>
    </g>
    <g transform="matrix(-0.5079657004414234 -0.8613772966447711 -0.8613772966447711 0.5079657004414234 112.26443127943203 23.851786035261355)" data-zeichen="U">
      <path d="M65.4091,42.65L20.2807,54.0547C58.5092,72.3306 77.6313,57.7897 -38.1662,91.7556L108.3216,62.7514C57.1655,82.0486 71.805,86.8341 58.422,53.1704L41.2625,47.095C36.8137,45.5199 32.2926,44.1908 27.6992,43.1077L12.7414,39.5809C7.0771,38.2454 7.1547,37.6012 12.9741,37.6483L64.8579,38.0683C76.9253,38.166 77.109,39.6933 65.4091,42.65Z" style=""></path>
    </g>
    <g transform="matrix(0.7314385251186424 0.6819073866532502 -0.6819073866532502 0.7314385251186424 48.75655525004292 -77.49883726435621)" data-zeichen="U">
      <path d="M-0.7862,39.9734L9.3598,39.7355C13.6642,39.6346 13.7162,40.057 9.5157,41.0026L-23.4278,48.4188C-29.0117,49.6758 -30.5817,52.8921 -28.1376,58.0677L-18.7106,78.0307C46.8887,76.5008 73.6702,96.6189 123.7993,66.9194C64.431,82.1893 25.5197,103.7358 66.9182,72.3088L114.2817,58.5816C58.0499,77.077 35.3515,53.1598 112.2525,44.0014L-0.7878,40.3341C-5.0911,40.1945 -5.0906,40.0743 -0.7862,39.9734Z" style=""></path>
    </g>
  </g>
<path class="glyph-merged" d="M56.74377,-33.96203c5.0236,1.3633 5.2654,3.3181 0.7253,5.8642l-4.05041,2.27154c7.998,6.79338 6.7299,10.47227 2.18297,12.03644l45.25584,45.02112c-20.5112,-15.01265 -34.25877,-21.54606 -41.57286,-22.67158l13.96004,23.24054c0.35228,0.58647 0.65602,1.10945 0.91122,1.56892c2.33888,1.5014 4.86774,3.01374 7.58466,4.51922l-7.0888,-3.58545c1.22691,2.45292 0.24239,2.01275 -2.95357,-1.32055l-0.3227,-0.33656l-19.16822,-9.69512l3.19382,10.88969c-6.76484,-4.5493 -12.12408,-9.10645 -16.15763,-12.66681c-0.09622,4.93879 4.79554,9.62056 21.37806,14.50449c-2.50479,0.03683 -4.94699,0.06812 -7.328,0.09414c11.46448,5.32041 25.51588,12.00138 40.38183,20.09602c-19.81256,-4.33716 -33.43992,-11.16031 -44.85513,-20.05267c-5.04481,0.04251 -9.80048,0.06053 -14.2817,0.05688c3.85103,13.80539 9.95424,35.31796 18.07691,67.46355l-23.66929,-67.47988c-23.14521,-0.11801 -38.33519,-0.84389 -47.94541,-1.72626c1.79745,1.60706 2.79808,3.8333 2.11729,6.84683l-25.62183,-13.00796l-6.39167,3.58456c0.09422,-2.49632 0.67297,-4.49678 1.48013,-6.0781l-2.5878,-1.3138c1.21822,-0.1015 2.41229,-0.20071 3.58262,-0.2977c0.43619,-0.59065 0.90064,-1.09776 1.36798,-1.52894c-1.45815,0.43381 -3.35787,0.90978 -5.78895,1.40101l-22.79988,-11.57528c-14.7154,-7.4709 -13.8251,-11.4491 2.671,-11.9346l61.68257,-1.8155c1.41722,0.69641 2.8713,1.1288 4.37296,1.35696c-0.47219,-0.48531 -1.0054,-0.96544 -1.60437,-1.43844l14.69307,-0.43246c-0.26201,-1.5712 -0.50651,-3.44577 -0.77752,-5.66798c-2.48624,-2.73638 -5.0908,-5.53563 -7.84663,-8.3943c-14.61507,-0.8848 -15.63609,-3.71082 -7.75682,-7.78694c-3.11115,-3.01944 -6.41006,-6.09742 -9.93164,-9.23028l6.71765,-21.03005c1.74157,-5.45228 5.08315,-6.73421 10.02458,-3.84593l29.1533,17.03992c0.4105,0.23993 0.77871,0.44917 1.10464,0.62771l2.80178,2.78724c1.86284,-0.53364 3.76535,-1.0726 5.70382,-1.61635zM61.0622,21.88956c-2.1987,-2.29309 -4.47677,-4.50133 -6.83422,-6.62473c2.06423,3.7181 6.69017,8.61896 13.78922,13.87848zM-14.95773,-6.12113c3.67427,1.35375 6.42715,2.86169 8.43847,4.45002l-2.76859,0.08149c-1.95048,-0.95845 -3.83113,-2.417 -5.66987,-4.5315zM-5.55213,10.96107c0.68631,0.55316 1.40644,1.06478 2.13965,1.539c-4.39629,7.93645 -15.44567,11.66549 -2.13965,-1.539zM-56.03138,24.66604c-8.49163,1.35651 -21.30997,2.70187 -40.25055,3.49833c15.52305,-1.39161 28.84662,-2.53901 40.25055,-3.49833zM-33.25491,22.78174c55.06588,-4.49486 40.95301,-3.09554 29.84243,-10.28167c1.21514,-2.19365 1.922,-4.70873 1.46579,-7.27652zM-50.0032,24.16137c-1.94713,0.16224 -3.95597,0.33035 -6.02819,0.50467c1.95111,-0.31168 3.67379,-0.62395 5.18984,-0.93029zM20.92334,-48.79687l7.5834,6.74462c2.86193,2.54541 2.98014,3.09905 0.35463,1.66083l-8.18516,-8.14271c-3.0524,-3.03656 -2.97007,-3.12414 0.24713,-0.26274zM92.39936,43.27952c-3.82479,-1.76618 -7.37886,-3.57366 -10.65884,-5.39114z" fill="none" stroke="#1d1d1b" stroke-width="2.883" stroke-linejoin="round" style=""></path></g>
<g transform="translate(68.9599 571.8158) scale(0.3714) translate(92.4873 118.1365)">
  <g data-rolle="struktur" style="display: none;">
    <g transform="matrix(1 0 0 1 -55.75372505187988 -57.52792739868164)" data-zeichen="D">
      <path d="M-20.4159,37.7175C39.6796,33.2977 42.335,37.3829 36.226,20.019C58.1855,32.8651 -10.7474,33.3389 115.344,60.201C73.1625,42.8739 84.3142,65.6729 26.6471,39.7875C75.683,64.2606 66.227,56.845 90.7752,83.945C64.162,79.741 89.1508,68.5772 -33.2921,60.9943C42.7762,82.1893 -31.0991,100.6519 -21.7693,101.3919L28.6996,42.55C36.0792,33.9461 34.1517,30.3976 22.9172,31.9047L-20.4159,37.7175ZM132.3194,64.4229C43.7124,77.0771 21.8442,77.544 133.4319,72.791C61.8579,77.1494 65.5839,77.1612 139.7142,68.8656C69.2026,45.1064 8.9145,33.4632 -15.6918,58.8771C46.2324,37.8339 -5.344,55.643 131.5202,41.6736L74.5197,51.7031C59.7418,54.3033 59.81,56.4259 74.7245,58.0708L132.3194,64.4229Z" style=""></path>
    </g>
    <g transform="matrix(0.687971956380533 0.7257372714928881 0.7257372714928881 -0.687971956380533 -80.72907791976515 26.625746411790608)" data-zeichen="A">
      <path d="M-38.4573,49.0829L-35.3506,55.3864C-34.0327,58.0606 -31.8882,59.5213 -28.9171,59.7684L62.8944,67.4063C71.6227,68.1324 80.0698,66.9118 88.2355,63.7444L107.4833,56.2785C115.649,53.1111 115.3594,51.7699 106.6143,52.2548L-12.4396,58.8562C-17.1508,59.1175 -21.4597,57.925 -25.3662,55.2787L-36.7317,47.5797C-39.2,45.9076 -39.7752,46.4087 -38.4573,49.0829Z" style=""></path>
    </g>
    <g transform="matrix(0.9451319952557804 -0.3266887074017519 -0.3266887074017519 -0.9451319952557804 -55.594102803158556 100.22776850381489)" data-zeichen="A">
      <path d="M124.5346,25.777L110.2967,33.3069C104.2564,36.5014 97.9038,37.3455 91.2389,35.8393L34.6897,23.0601C32.803,22.6338 30.9041,22.272 28.9928,21.9748L21.6207,20.8283C46.3039,41.6142 35.1919,30.4156 -4.2142,59.1716L121.9784,67.0781C124.0543,67.2082 125.8748,66.5881 127.4398,65.218L131.1288,61.9884C132.6938,60.6183 132.7394,60.6672 131.2657,62.1351L120.5674,72.7913C118.5543,74.7964 117.415,74.3846 117.1494,71.5557L116.5233,64.8876C116.2577,62.0587 114.7686,60.2216 112.056,59.3762L34.9556,35.3471C13.9117,28.7886 14.4042,25.1266 36.4331,24.3612L123.3517,21.3412C130.1806,21.1039 130.5749,22.5825 124.5346,25.777Z" style=""></path>
    </g>
    <g transform="matrix(-0.12474394900999071 -0.9921889674781679 -0.9921889674781679 0.12474394900999071 91.45129877658078 22.97334108805991)" data-zeichen="A">
      <path d="M-4.4149,50.3605C64.2326,44.6376 84.5073,52.3493 90.6818,59.6418L102.4546,36.98C105.5068,31.1047 103.7225,28.1527 97.1018,28.1238L70.5379,28.008C61.0762,27.9667 51.8181,29.3191 42.7636,32.065L0.3628,44.9235C-3.9753,46.2391 -5.7574,49.1302 -4.9834,53.5969L-3.1588,64.1256C-2.3848,68.5923 0.2684,70.87 4.8008,70.9589L46.8113,71.7826C59.4655,72.0307 59.5164,71.3442 46.964,69.7231L2.7121,64.0082C-13.6421,61.8961 -13.5996,61.4863 2.8397,62.7788L134.1554,73.1031C138.0861,73.4121 140.7361,71.7179 142.1055,68.0206L145.3332,59.3055C146.7026,55.6082 145.4164,53.7154 141.4746,53.6271L-4.4149,50.3605Z" style=""></path>
    </g>
  </g>
<path class="glyph-merged" d="M-32.83653,-25.62323c5.86913,-0.78734 9.19817,-0.19489 9.9871,1.77732c-3.8356,0.90965 -9.95332,1.36239 -19.24195,1.90516l10.16075,9.07668c1.03208,-0.04085 2.07687,-0.06823 3.13411,-0.08241l-1.39963,1.63184l1.58099,1.41231c3.80822,-0.04223 8.42412,0.11536 15.54391,0.07599c16.7749,8.20361 23.21406,11.22074 28.93264,15.95427l1.44843,-0.6045l-0.76772,-5.26945c-10.18801,-1.31155 -11.53846,-2.90745 -4.05143,-4.78767c1.18374,0.10841 2.30705,0.17626 3.38517,0.21463l-0.13671,-0.93838c-1.22293,0.24576 -2.30575,0.48701 -3.24846,0.72375c-5.54128,-0.50749 -12.40668,-1.90381 -22.15918,-5.32533c3.64953,-0.04976 7.88589,-0.15413 12.87539,-0.35202c-7.06413,-1.15106 -13.81571,-1.96434 -20.20783,-2.39391c-2.7704,-1.09711 -5.74024,-2.33469 -8.93326,-3.73c2.69571,-3.40939 3.72396,-5.91304 3.08476,-7.51096c7.22595,-1.7137 6.35229,-5.04904 3.3217,-13.66302c17.67462,10.33949 -23.53281,12.66393 25.45881,27.18367c2.7752,-0.1225 5.76811,-0.27293 9.00314,-0.45701l-0.54425,-3.7356c-1.8247,-12.52441 -1.14991,-12.66055 2.02436,-0.40842l1.03552,3.99695c1.06955,-0.06416 2.16426,-0.13188 3.28492,-0.20334l-18.55064,-89.88232c-0.79692,-3.86145 0.55348,-6.70209 4.05107,-8.52201l8.24439,-4.28964c3.4976,-1.81992 5.53606,-0.77988 6.11538,3.12011l6.92476,46.62039l14.45981,-9.9818c5.44866,-3.76127 8.60019,-2.35915 9.45475,4.20623l3.42858,26.34196c1.22127,9.38264 1.03432,18.73713 -0.56063,28.06344l-0.29178,1.70618c6.66957,-0.60566 13.90255,-1.30261 21.75599,-2.10419l-22.05994,3.88155l-1.99221,11.64939c2.4059,0.83309 5.01856,1.82271 7.87596,2.99646c-2.79116,-0.59462 -5.48676,-1.17631 -8.08989,-1.74549l-0.02964,0.17332c5.15533,1.49417 10.39583,3.08434 15.70972,4.75898l-16.21769,-1.78864l-1.12289,6.56606c6.86037,-0.94365 14.37285,-1.98784 22.48232,-3.13832c3.84505,1.23942 7.72593,2.52041 11.63828,3.83869c-14.24749,1.59438 -25.89432,2.88188 -34.90572,3.89064l-0.21673,1.26734c8.39121,-0.35718 17.98412,-0.77018 28.84016,-1.23258c-11.62198,0.7077 -21.25858,1.30081 -28.93075,1.76234l-1.91397,11.19189c-0.44187,2.58372 -1.51299,4.38523 -3.2134,5.40451l10.06644,1.55923c6.75249,1.04593 6.86286,2.57221 0.33113,4.57886l-27.24031,8.36875l7.28251,17.78368c3.31907,8.10523 2.14648,8.81777 -3.518,2.13753l-14.17903,-16.72167l-42.15356,12.95038l34.82449,-21.59373l-9.94924,-11.73338l-33.18842,24.44902c-0.13988,0.10305 -0.27856,0.20549 -0.41603,0.30732c-3.13592,-3.08405 -16.79946,-1.5665 -44.3878,-10.02828l66.83043,-27.89145l-6.4968,-7.66184c-7.38437,-1.11811 -16.30759,-2.22382 -27.18569,-3.2951l12.2656,-14.30052l-1.71651,-2.02432c-6.8068,0.87712 -14.5824,3.48492 -36.23479,10.84288c7.86589,-8.12406 19.37807,-12.4613 33.70489,-13.82645l-7.8537,-9.26206c-7.98273,0.45395 -18.02678,1.00602 -30.57529,1.92891l28.89253,-3.87571c-2.92988,-3.14702 -6.52503,-5.18955 -10.78541,-6.12751l-13.4066,-2.95167c-2.91163,-0.64098 -2.94368,-1.40317 -0.09624,-2.28649l6.71201,-2.08198c2.84744,-0.88333 5.38288,-0.3319 7.60625,1.65434l12.7799,11.41639zM20.98336,-6.21499l0.73952,-0.13012l-0.05615,-0.27206c-1.10109,-0.24577 -2.19639,-0.4852 -3.28574,-0.71813l0.12505,0.48269c0.80912,0.21029 1.63479,0.42281 2.47731,0.63762l-2.21131,0.38909l0.39966,1.54264c1.0113,-0.01185 1.99287,-0.04185 2.9605,-0.07854l-0.34004,-1.64759c-0.27131,-0.06876 -0.54091,-0.1373 -0.80881,-0.2056zM11.45833,-8.74244c1.25988,0.34946 2.56889,0.70555 3.92876,1.06853l-0.04328,-0.29705c-1.30414,-0.26694 -2.59939,-0.52418 -3.88548,-0.77148zM23.99637,14.16418c-0.0146,0.002 -0.0292,0.004 -0.04379,0.006l0.85933,3.31689c0.59292,-0.02294 1.1979,-0.04655 1.81503,-0.07083l-0.09233,-0.44735c-0.90171,-1.00359 -1.74311,-1.93513 -2.53824,-2.80471c0.62302,-0.0853 1.25827,-0.17214 1.90561,-0.26052l-0.48512,-2.35054l-1.79896,1.32525l0.3152,1.21664c0.02106,0.02301 0.04215,0.04607 0.06327,0.06917zM16.9716,17.77451c0.68014,-0.02311 1.3842,-0.04766 2.11239,-0.07363l-0.19505,-1.33881zM15.47545,18.87668l-6.50773,4.79407l2.49203,2.22615c3.35185,2.99425 6.28072,6.28743 8.78659,9.87953c1.64853,-0.91204 3.33424,-1.64135 5.05713,-2.18791c-2.7399,-0.93839 -4.35843,-3.11399 -4.85568,-6.5268l-0.8825,-6.05728c-1.24229,-0.68035 -2.5549,-1.39229 -4.08984,-2.12777zM-3.04168,12.94265l0.81975,0.73229l0.85071,-0.35504c-0.54226,-0.12566 -1.09889,-0.25142 -1.67046,-0.37725zM-25.93419,-16.33494c-0.0328,0.04148 -0.06584,0.08309 -0.09913,0.12484c-0.99817,-0.49589 -2.0223,-1.00579 -3.07331,-1.53033c1.08141,0.48542 2.13862,0.95372 3.17244,1.40548zM-45.75983,6.83113l-10.41747,12.14577c-3.71961,-4.82216 -13.3661,-10.07654 -32.86853,-15.51053c17.13376,1.0611 31.38064,2.19231 43.286,3.36476zM-75.73509,41.77941l-1.78793,2.08456c-1.70255,-0.13504 -0.6343,-0.86026 1.78793,-2.08456zM-27.05413,-14.97793c0.36276,-0.42294 0.70303,-0.83367 1.02081,-1.23217c2.50819,1.24608 4.85246,2.40378 7.04728,3.4835c-3.37666,-0.18664 -6.6492,-0.26227 -9.81047,-0.21987zM76.56567,6.89497c-1.43202,0.20451 -2.8466,0.40584 -4.24348,0.60401c-1.72122,-0.55482 -3.43526,-1.10132 -5.14174,-1.6391zM-13.07124,-9.82634c-1.84264,-0.90113 -3.81,-1.86483 -5.91481,-2.90027c0.65777,0.03636 1.3195,0.07693 1.98512,0.12166c2.61521,1.03565 5.0527,1.94612 7.33243,2.74593c-1.19524,0.0163 -2.32754,0.02673 -3.40274,0.03268zM-56.1773,18.9769c8.14102,10.55415 -12.10954,19.03784 -19.55779,22.80251zM-30.34123,67.10019c-1.64391,1.01927 -3.32043,1.98157 -5.02977,2.88686l-6.59306,3.49198c1.26019,-2.11138 2.38462,-3.97934 3.36602,-5.63506c2.53297,-0.53202 5.6928,-1.3797 9.47949,-2.54304l3.32777,-1.02235zM-34.51997,55.70781c1.76142,1.73229 0.20139,4.91637 -4.07807,12.13617c-11.45013,2.40495 -10.09078,-1.64045 4.07807,-12.13617zM30.11904,-46.58661l5.11321,34.42424c0.98253,-0.07625 1.98073,-0.15491 2.99494,-0.23605c-2.23472,-16.07067 -5.08773,-26.89966 -8.10815,-34.18819zM28.80864,27.9871l-0.63883,-3.09529c-0.55224,-0.16957 -1.0755,-0.34463 -1.57549,-0.52489l1.01044,3.90015c0.43187,1.66694 0.82302,3.15878 1.17344,4.47555c0.32118,-0.05515 0.64359,-0.1043 0.96722,-0.14745c-0.27002,-1.35439 -0.58228,-2.89041 -0.93678,-4.60806zM21.28282,3.86532l2.34535,-0.97882l-0.38648,-1.87259l-2.77696,-0.30627zM38.63907,-9.32159l-2.90884,0.51182l0.2256,1.51881l3.12002,1.50956c-0.14242,-1.20589 -0.28806,-2.38577 -0.43678,-3.54019zM39.99626,2.86176l-2.57457,-0.28395l1.42062,9.56424c0.63518,-0.08654 1.27775,-0.17413 1.92766,-0.26278c-0.24018,-3.13774 -0.49858,-6.14168 -0.77371,-9.01751zM39.54732,16.88845c0.52033,-0.0218 1.04639,-0.04388 1.5782,-0.06624c-0.01567,-0.23224 -0.03143,-0.4638 -0.04729,-0.69467c-0.55414,0.0631 -1.09298,0.12464 -1.61651,0.18463zM41.16919,17.47514c-0.5208,0.03032 -1.02801,0.05968 -1.52164,0.08808l2.34789,15.80695l0.02847,0.00441c-0.23779,-5.6261 -0.52443,-10.91937 -0.85472,-15.89944z" fill="none" stroke="#1d1d1b" stroke-width="2.883" stroke-linejoin="round" style=""></path></g>
<g transform="translate(64.3516 826.2634) scale(0.2848) translate(145.6832 96.5846)">
  <g data-rolle="struktur" style="display: none;">
    <g transform="matrix(1 0 0 1 -55.783607482910156 -57.54241180419922)" data-zeichen="O">
      <path d="M162.8753,66.3517C77.9516,73.729 29.0406,69.8318 77.8093,71.0935C42.5961,82.5854 107.8848,51.109 79.8034,54.9109C33.5951,42.5502 31.2722,40.6054 87.4825,46.1962C69.3822,32.4692 122.7734,62.4493 14.9077,66.1994L162.8753,66.3517ZM-40.8935,39.6792C40.2924,68.184 -4.987,89.5097 53.0365,80.8153C65.7103,77.4731 84.5132,55.0228 74.6794,48.5633C71.3265,47.6626 48.8895,55.1368 -24.424,41.4245C45.4769,37.5815 79.2992,68.5686 38.2368,36.5912L-40.8935,39.6792Z" style=""></path>
    </g>
    <g transform="matrix(0.9922490747069406 -0.12426493368291923 -0.12426493368291923 -0.9922490747069406 -23.137666882405235 42.22518985823911)" data-zeichen="B">
      <path d="M145.3467,33.1814L142.3985,31.9305C141.1477,31.3998 139.8558,31.2658 138.5227,31.5286L9.2591,57.0099C-15.8755,61.9646 -15.9497,61.6139 9.0364,55.9579L92.364,37.0955C101.0623,35.1265 101.0232,34.9344 92.2468,36.5192L63.524,41.7058C60.1047,42.3233 56.6737,42.8665 53.2309,43.3356L41.5663,44.9249C40.4899,45.0716 40.4217,44.8727 41.3618,44.3283L43.5777,43.045C44.5178,42.5006 45.5249,42.1477 46.5992,41.9862L135.2385,28.6609C55.6296,47.0961 50.7954,47.2341 48.3507,63.9934C61.3181,63.5131 84.8415,85.6192 -20.4571,45.5165C46.6287,65.8891 1.9439,59.3234 99.1382,68.1374L56.943,83.5729C44.6735,70.7597 12.1931,48.8974 94.7306,92.6136C54.9812,70.7856 85.1233,56.1161 20.4882,61.9698C66.2863,63.8735 52.4272,60.0653 -21.0721,60.4011C67.9426,49.3286 104.332,35.9511 -11.522,45.8081L145.1905,34.129C146.5454,34.028 146.5975,33.7121 145.3467,33.1814Z" style=""></path>
    </g>
    <g transform="matrix(0.8593228979655521 0.5114334336275693 0.5114334336275693 -0.8593228979655521 -64.80042193934585 -23.18052667718529)" data-zeichen="N">
      <path d="M20.06,21.7839L38.7047,31.7399C46.6146,35.9637 49.4099,42.4065 47.0906,51.0684L37.4288,87.1511C36.4888,90.6616 34.2044,92.5147 30.5755,92.7104L22.0216,93.1719C18.3927,93.3676 17.5672,91.9411 19.5451,88.8923L51.8317,39.1231C55.5622,51.2368 50.7756,42.8052 75.3386,44.9051L56.9002,32.2792C56.2419,41.2899 11.045,42.1394 138.4717,45.3584L94.2336,33.6742C90.9107,32.7965 87.5353,32.4806 84.1073,32.7263L76.0269,33.3056C72.5989,33.5513 69.2348,33.1945 65.9346,32.235L21.1108,19.2032C12.5003,16.6999 12.1501,17.5601 20.06,21.7839Z" style=""></path>
    </g>
    <g transform="matrix(-0.9545807404780092 0.29795236181050094 0.29795236181050094 0.9545807404780092 36.873882638030274 -26.194105425854442)" data-zeichen="E">
      <path d="M-26.3215,55.1107L99.6247,40.2103C110.4903,38.9248 111.7568,41.8276 103.4242,48.9185L79.9684,68.879C74.1789,73.8058 72.3451,72.6192 74.467,65.3193L79.4688,48.1122C81.5907,40.8123 79.0777,35.8682 71.9297,33.2801L36.6717,20.5141C35.1956,19.9796 33.6736,19.6719 32.1057,19.5909L28.4101,19.3999C26.8422,19.3189 26.8406,19.214 28.4053,19.0851L89.2895,14.0695C105.6828,12.719 107.1899,16.8282 93.8108,26.3971L49.9995,57.7315C33.438,69.5765 35.2056,77.1357 55.3021,80.409L119.17,90.8119C143.5437,94.7819 143.7959,93.6008 119.9267,87.2685L6.0818,57.0666C3.0326,56.2577 1.738,57.4137 2.198,60.5346L3.2824,67.8912C3.7424,71.0121 2.4933,72.0247 -0.465,70.9289L-27.033,61.0877C-35.0715,58.1102 -34.8343,56.1178 -26.3215,55.1107Z" style=""></path>
    </g>
    <g transform="matrix(0.4055697797700769 -0.9140640862309662 -0.9140640862309662 -0.4055697797700769 60.41241189511075 64.5394314380489)" data-zeichen="B">
      <path d="M50.3818,61.2309L0.4086,25.1338C56.4702,33.1764 135.8816,11.8278 28.0173,25.4241L49.8052,64.496C54.1297,81.7543 -5.1414,85.1404 141.892,68.9995L52.8029,44.1577C48.2687,42.8934 46.9446,44.4176 48.8307,48.7303L53.2764,58.8962C55.1625,63.2089 54.1976,63.9872 50.3818,61.2309Z" style=""></path>
    </g>
    <g transform="matrix(0.9749207455123655 -0.22255233085639295 0.22255233085639295 0.9749207455123655 -52.46838007151402 -62.909492123663405)" data-zeichen="B">
      <path d="M29.216,66.088C63.9462,67.0053 129.8338,61.5299 -0.2298,59.1394C67.0424,54.4048 43.8537,37.809 1.5052,62.6352C59.9858,47.2037 107.1206,28.8392 68.8596,55.8778C47.9138,46.1236 -18.0383,48.3076 121.2459,38.8921L117.1046,60.0784C45.5126,51.1646 -0.378,40.5224 20.4126,70.1892C56.3856,50.9488 84.1924,47.224 146.1976,68.9654C60.7059,63.5494 101.2892,76.1336 83.24,81.4702L42.4472,65.1134C33.9519,61.707 34.2251,59.293 43.2668,57.8713L72.851,53.2196C76.3785,52.6649 77.4364,54.0276 76.0247,57.3075L72.6972,65.0386C71.2855,68.3185 72.361,70.0798 75.9235,70.3223L128.0075,73.8682C142.8962,74.8818 142.9008,74.8173 128.0215,73.6748L29.216,66.088Z" style=""></path>
    </g>
    <g transform="matrix(-0.3747153734549309 0.9271398971549718 0.9271398971549718 0.3747153734549309 -13.569190392224115 -42.665389223507006)" data-zeichen="N">
      <path d="M138.2987,39.9001L120.7154,47.6435C117.6516,48.9928 114.4489,49.5661 111.1073,49.3635L98.2183,48.5819C52.8212,61.1274 -14.8355,75.2934 -2.5499,54.1475L8.4805,75.7218C11.3402,81.3151 9.8105,85.1638 3.8914,87.2679L-20.6049,95.9757C-29.2577,99.0515 -29.0004,100.3207 -19.8329,99.7834L60.8271,95.0557C68.7222,94.593 73.4072,90.4767 74.8821,82.7068L78.3587,64.392C79.8336,56.6221 84.4067,51.7756 92.0779,49.8523L137.7822,38.3936C143.8766,36.8657 144.0488,37.3678 138.2987,39.9001Z" style=""></path>
    </g>
    <g transform="matrix(0.9138581029323353 -0.4060337026712355 0.4060337026712355 0.9138581029323353 -71.85737374417076 -57.96088247885925)" data-zeichen="N">
      <path d="M99.6451,44.9078L88.8848,28.7127C86.853,25.6547 84.5791,25.4626 82.0631,28.1365L72.3586,38.45C46.4452,43.5604 -4.5398,64.8747 11.8114,54.7354L26.9704,79.5841C30.9001,86.0256 30.6786,86.1716 26.3061,80.0221L15.9993,65.527C11.6268,59.3775 13.2061,56.5348 20.7374,56.9988L144.1418,64.602C64.5958,61.5928 143.3769,48.1918 27.2425,37.4028L95.5009,51.0829C101.8436,52.3541 103.225,50.2957 99.6451,44.9078Z" style=""></path>
    </g>
  </g>
  <g data-rolle="akzent" style="display: none;">
    <g transform="matrix(0.9520021333356836 -0.306091388517069 0.306091388517069 0.9520021333356836 -152.83797620135363 -34.61869917849139)" data-zeichen="E">
      <path d="M63.8474,61.547L78.6937,67.6785C82.1218,69.0943 85.6145,70.3272 89.1718,71.3772L97.8048,73.9255C101.1967,74.9267 103.8598,73.9469 105.794,70.9861L110.3532,64.007C112.2874,61.0462 111.4866,59.5278 107.9508,59.4518L64.4823,58.5174C58.8768,58.3969 58.6652,59.4068 63.8474,61.547Z" style=""></path>
    </g>
  </g>
  <g data-rolle="akzent" style="display: none;">
    <g transform="matrix(0.8133626659492362 0.5817569712860785 0.5817569712860785 -0.8133626659492362 -185.6206954291198 105.27888723536432)" data-zeichen="E">
      <path d="M9.826,72.0983L63.3091,75.6891C74.0554,76.4106 74.3646,74.9393 64.2365,71.2751L34.725,60.5984C28.3557,58.2941 22.4651,59.1785 17.0533,63.2517L-1.0445,76.8732C-2.8953,78.2662 -2.8706,78.3003 -0.9704,76.9755L3.5088,73.8527C5.409,72.5279 7.5147,71.9431 9.826,72.0983Z" style=""></path>
    </g>
  </g>
<path class="glyph-merged" d="M107.09169,8.80929c-13.45129,1.16851 -25.99908,2.05416 -37.39832,2.72226l-4.50945,9.51353l13.23633,-2.47412c8.42622,-1.57505 9.24629,0.25618 2.46005,5.49354l-22.42909,17.31022c-1.42729,1.10155 -2.52687,1.37941 -3.29874,0.8336l-3.38456,7.14036c-3.3874,7.14648 -8.95933,9.94769 -16.71578,8.40363l-13.77218,-2.74157c-0.19867,3.7023 -4.61145,7.71212 -13.23832,12.02944l-16.24583,8.13028l-1.23171,3.67343c-1.06431,3.17405 -2.79594,5.92857 -5.19498,8.26354l-13.76795,13.40061c-4.50245,4.38226 -4.90344,4.03446 -1.2032,-1.04338l15.58297,-21.38413l-35.80681,17.91965c-22.0838,11.05189 -22.67645,9.99958 -1.7781,-3.157l49.56626,-31.20436l0.18559,-0.25468c0.94623,-1.29848 1.9564,-2.43321 3.03052,-3.40417c-0.7736,1.03956 -1.54418,2.0696 -2.31045,3.0887l11.60281,-7.30453c-3.49999,0.37443 -6.59744,1.77971 -9.29237,4.21584c3.06004,-4.11204 6.16742,-8.37294 9.24283,-12.69422c-1.25032,-0.49887 -2.60854,-0.98987 -4.07466,-1.47299l-22.79032,-7.50991l37.9327,-7.09034c2.88612,-4.35047 5.64174,-8.65206 8.18676,-12.81542l-0.66549,-3.15394c-4.26132,0.10241 -8.06181,0.16613 -11.35949,0.20233c1.36007,0.0303 2.81774,0.06533 4.37499,0.10562c-11.92806,3.89275 -12.32417,2.85515 -8.72375,-0.07148c-0.41675,0.00187 -0.82201,0.00325 -1.21565,0.00418c0.04699,-0.04787 0.09388,-0.09583 0.14067,-0.14387c0.39457,0.0064 0.8019,0.01334 1.22209,0.02083c1.59922,-1.28444 3.92368,-2.91297 6.36803,-4.64129l8.24038,0.00848l-1.1141,-5.28c-2.08566,1.69226 -4.66667,3.53241 -7.12628,5.27152l-3.60159,-0.00371c-1.20028,1.58543 -2.54798,3.14519 -3.98853,4.62417c-13.32971,-0.21637 -12.09871,0.17213 -0.14067,0.14387c-4.60831,4.69481 -10.14096,8.55166 -14.8334,9.7891c-6.88095,1.03106 -12.30911,1.63994 -16.66769,1.86472l-2.45815,1.86845c-2.41694,1.83713 -4.01632,3.81268 -4.79815,5.92665l-18.13994,-5.9775c-15.62251,-5.14795 -15.40821,-9.51956 0.64291,-13.11482l0.79049,-0.17706c-1.8377,-2.27142 -4.08947,-4.82493 -7.23638,-7.6127c-2.19914,-0.04053 -4.39633,-0.14944 -6.59158,-0.32671l-16.01051,-1.29288c-5.58856,-0.45125 -5.69624,-1.47744 -0.32291,-3.07852l11.70152,-3.48668c-7.92217,-4.85455 -18.96253,-10.15452 -34.83962,-15.72905l69.7947,-2.72369c1.53951,-1.41459 3.16307,-2.91012 4.84692,-4.45701l-14.80278,-3.84161c-8.67947,-2.25255 -8.54047,-3.17085 0.41688,-2.75507l20.55996,0.9544c3.81827,-3.46442 7.78282,-7.00339 11.66423,-10.3312l-27.5776,6.17597c12.40593,-4.18671 22.58045,-7.34596 30.97279,-9.6975l-1.74037,-45.03281c-0.1404,-3.63147 1.29853,-4.4351 4.31684,-2.41099l7.11454,4.77133c3.01831,2.02411 4.03361,4.78484 3.04599,8.28224l-9.04081,32.0156c2.45072,-1.9627 4.80178,-3.7538 6.98594,-5.28954l4.68091,-13.36543c1.21357,-3.46515 3.36959,-4.21287 6.46802,-2.24328l13.89758,8.83442c5.65137,-9.63371 12.2633,-20.93193 19.96292,-34.16571l-5.69036,38.78737c3.1554,-2.19109 6.53462,-4.55007 10.15086,-7.08656c-4.32402,3.13136 -7.69918,6.0439 -10.39481,8.74938l-0.88765,6.05052c3.6453,0.34516 9.17056,-0.46775 19.81022,-4.02077l-9.13017,3.40097c4.88597,-1.47696 10.09516,-3.04648 15.64465,-4.71418l0.67455,21.47885c3.87361,0.10956 7.9145,0.31016 12.13948,0.6019c1.04693,-0.803 1.53982,-0.76791 1.47865,0.10527c5.28004,0.38709 10.84482,0.9137 16.72614,1.58001c-6.96121,1.13172 -13.06214,2.1922 -18.40641,3.19065c-0.19308,0.42716 -0.40276,0.87941 -0.62902,1.35676l-2.26482,4.77805l4.62808,-0.68904c14.76041,-2.19758 14.77028,-2.13367 0.02939,0.19167l-4.77905,0.75387l-4.81837,10.16525l5.53607,0.3884l-5.85972,0.2944l-0.81766,1.725c8.49971,0.88842 18.25364,1.87811 29.46145,3.03632l-30.54406,-0.75237l-4.56196,9.62431c1.63344,0.91601 3.30129,1.8519 5.00425,2.80804l-5.5788,-1.59592l-0.80915,1.70705zM-11.79288,-20.35132c0.99445,-0.4893 1.93818,-0.92221 2.82591,-1.30105l-0.61109,-0.15859l-5.01541,1.86823c0.95629,-0.13824 1.88981,-0.27446 2.80059,-0.40859zM50.90983,-13.94179l-3.51038,0.52263l0.429,0.49502l2.6974,-0.4255c-0.51627,0.98077 -0.4347,1.92203 -0.19698,2.86302l16.44132,1.15351c2.07496,-3.26098 3.8385,-5.79077 5.11415,-7.38573l-21.35849,3.3692c0.10302,-0.19571 0.22984,-0.39298 0.38398,-0.59215l21.29499,-3.17045c1.56236,-1.87969 2.25706,-2.11698 1.68454,-0.2508l2.02345,-0.30126l5.58496,-6.29586c-21.27206,4.22207 -28.48123,7.29625 -30.58794,10.01837zM43.09962,-12.77898l-0.09023,0.61503l1.03278,-0.16292c0.06339,-0.20869 0.12439,-0.41527 0.18297,-0.61969zM73.777,-17.0174c-0.2721,0.79717 -0.72813,1.89798 -1.38959,3.32724l3.20567,-3.61372zM24.01979,-2.63151c-0.80947,-0.21653 -1.60547,-0.42987 -2.38792,-0.64002c0.02315,-0.56565 -0.00523,-1.11026 -0.08922,-1.62971l-5.01307,0.25186c1.6308,0.44312 3.33187,0.90234 5.10229,1.37784c-0.03019,0.73768 -0.148,1.51115 -0.3444,2.31126c1.15626,-0.56595 2.1608,-1.13796 3.03107,-1.71081c0.21991,-0.02848 0.43386,-0.0547 0.64195,-0.07871l-0.17735,-0.23597c-0.15044,0.1049 -0.30527,0.20981 -0.4646,0.31468c-0.09838,0.01274 -0.19796,0.02593 -0.29874,0.03957zM27.16609,-4.99756c-0.47298,0.49743 -1.03153,0.99974 -1.68754,1.50335l0.14215,0.67367c7.34893,-0.72334 6.55899,1.61919 2.9536,4.87907l5.01683,6.6751l0.61303,0.00063c1.31604,-2.31427 2.5427,-4.56195 3.66392,-6.72514c-0.6497,-0.35635 -1.38105,-0.9789 -2.19404,-1.86763l-4.18435,-4.57399l-3.43286,-0.54313zM-7.32636,-13.06493l-3.15055,-0.30983c0.3108,0.4071 1.36654,0.94783 3.14109,1.62735c0.46126,-0.09037 0.91829,-0.17972 1.37111,-0.26806c-0.43064,-0.33272 -0.88444,-0.68234 -1.36165,-1.04946zM-0.73057,-7.78736c1.71436,-0.03591 3.29772,-0.09188 4.7578,-0.16071c0.11679,-0.02823 0.2336,-0.05652 0.35042,-0.08486c-2.79067,-0.80464 -5.20341,-1.52835 -7.22746,-2.17328c-0.13941,0.09861 -0.27878,0.19757 -0.4181,0.29689c1.11537,0.88628 1.95791,1.58541 2.53734,2.12196zM14.41376,-5.22606c0.62508,-0.06639 1.23286,-0.13295 1.82347,-0.19967c-0.50468,-0.112 -0.99933,-0.27054 -1.48396,-0.47562l-2.35819,-0.99799c-0.83526,-0.35345 -0.94324,-0.55529 -0.32399,-0.60543l-0.64299,-0.10173c-0.78807,0.30229 -1.53568,0.63063 -2.22268,0.94205c1.63865,0.45777 3.37525,0.93714 5.20834,1.43839zM-27.44584,-10.3937c-0.17516,0.08432 -0.35184,0.16926 -0.53005,0.25484c0.01129,0.04297 0.02152,0.08702 0.03068,0.13217c0.16687,-0.13003 0.33334,-0.25904 0.49938,-0.38702zM-80.20761,-16.11791c15.37309,2.87533 28.50916,4.81909 39.70132,6.10385c0.2839,-0.59666 0.8296,-1.49156 1.66728,-2.72225l1.80271,1.24633c-0.81295,0.67898 -1.50863,1.23069 -2.0703,1.6343c0.78717,0.08778 1.56451,0.17226 2.33211,0.25354l1.51235,-0.45063c0.01,-0.06179 0.02249,-0.12335 0.03749,-0.18469l0.17539,0.12126l3.17837,-0.94706c1.5411,-0.4592 2.63518,-0.46144 3.28223,-0.00671c0.89362,-0.45415 1.77416,-0.90001 2.64179,-1.33769c-1.84401,-0.35878 -3.7761,-0.71044 -5.79325,-1.04738c-2.04165,0.99398 -3.20316,2.0665 -3.48454,3.21757l-1.81164,-1.25251c0.80623,-0.67337 1.72781,-1.4719 2.7484,-2.37526c-2.84927,-0.44159 -5.85475,-0.84987 -9.00877,-1.20551c-2.69903,-0.01451 -5.4519,-0.0208 -8.2555,-0.01846c1.2468,-0.15036 2.47618,-0.29976 3.68814,-0.44815c-9.61032,-0.88026 -20.45515,-1.23414 -32.34357,-0.58054zM116.95917,-8.76052l-2.76991,1.60756c-1.17516,0.68202 -2.44039,0.97552 -3.79582,0.88041l-25.68647,-1.80214l31.97945,-1.60668c1.35695,-0.06815 1.4479,0.23883 0.27274,0.92084zM57.37933,-6.70171l-3.98473,0.2002l0.06314,0.07286c0.12262,0.14148 0.24526,0.27877 0.36793,0.41187l10.03041,0.54279c0.17201,0.00931 0.34071,0.01836 0.50609,0.02717c0.10887,-0.18007 0.21717,-0.35864 0.3249,-0.53569c-0.25385,-0.02533 -0.51596,-0.05129 -0.78631,-0.07788zM-26.97781,38.27185c0.37051,1.64437 1.14633,3.35735 2.32744,5.13894l9.90152,14.93527c4.20055,6.33612 2.80359,8.01521 -4.19091,5.03718l-28.33774,-12.0652c-10.06689,-4.28612 -9.72281,-7.43443 1.0323,-9.44475zM-16.44377,36.30284l-10.53404,1.96901c-0.42097,-1.86829 -0.31873,-3.648 0.30671,-5.33914zM-24.36583,-8.93833c0.03894,0.15098 0.08293,0.30343 0.13199,0.45738c0.14318,0.01027 0.28593,0.02041 0.42825,0.03043c2.88049,-0.58718 5.63929,-1.14474 8.28025,-1.67373c-1.45883,-0.35464 -3.0118,-0.71811 -4.65592,-1.08283c-1.38145,0.75176 -2.77673,1.50845 -4.18457,2.26875c-0.10621,-0.41177 -0.17492,-0.81255 -0.20678,-1.20278c-1.07051,0.38737 -2.18063,0.78029 -3.33121,1.1784c-0.0054,0.06438 -0.01205,0.13003 -0.01994,0.19694c0.96026,0.07926 1.90254,0.15311 2.82712,0.22182c0.24397,-0.13156 0.48758,-0.26303 0.73081,-0.39438zM63.38616,-4.10537l-7.66312,-0.18876c2.54399,1.86013 5.09836,1.92305 7.66312,0.18876zM86.09838,-57.45025c-7.36263,2.94327 -13.33154,5.15448 -18.22056,6.78712zM-135.68491,52.35316l45.59013,28.19354c9.16038,5.66489 8.55593,7.04147 -1.81356,4.1297l-30.2148,-8.48449c-6.52109,-1.83115 -10.79778,-5.97739 -12.82993,-12.43873l-6.79567,-21.60774c-0.69498,-2.20973 -0.65506,-2.2231 0.11978,-0.0401l1.8265,5.14577c0.77484,2.183 2.14733,3.88366 4.11754,5.10204z" fill="none" stroke="#1d1d1b" stroke-width="2.883" stroke-linejoin="round" style=""></path></g>
</svg>