<svg xmlns="http://www.w3.org/2000/svg" width="72.2mm" height="397.507mm" viewBox="0 0 204.6614 1126.7909" fill="#1d1d1b">
<g transform="translate(26.3256 22.1721) scale(0.4705) translate(133.9635 153.5363)">
  <g data-rolle="struktur" style="">
    <g transform="matrix(1 0 0 1 -55.77334785461426 -57.52729606628418)" data-zeichen="H">
      <path d="M68.5258,73.1873L81.9587,34.949C82.0039,34.8203 82.0104,34.6896 81.9782,34.557L68.9679,-19.0303C68.951,-19.0998 68.9454,-19.0989 68.951,-19.0276L70.6236,2.1637C70.6292,2.235 70.6326,2.3065 70.6338,2.378L71.9973,83.2756C72.0004,83.4598 72.0629,83.6211 72.1846,83.7594L108.4043,124.9165C108.4811,125.0038 108.4694,125.0181 108.3691,124.9592L78.5847,107.4716C78.4844,107.4127 78.4105,107.3302 78.363,107.2241L32.4581,4.6793C32.4329,4.623 32.4455,4.577 32.4959,4.5413L47.4672,-6.0502C47.5176,-6.0859 47.5422,-6.0728 47.5409,-6.0111L45.0248,117.9493C45.0225,118.0646 45.0011,118.1764 44.9608,118.2845L32.9863,150.3945C32.946,150.5026 32.921,150.4992 32.9114,150.3842L23.7082,40.2479C23.6863,39.985 23.6198,39.9732 23.5088,40.2125L-9.4583,111.2804C-9.5693,111.5197 -9.5064,111.5813 -9.2695,111.4652L68.2742,73.4705C68.3967,73.4104 68.4806,73.316 68.5258,73.1873Z" style="paint-order: stroke;" stroke="#1d1d1b" stroke-width="0.24" stroke-linejoin="round" stroke-linecap="round"></path>
    </g>
    <g transform="matrix(0.6057809160376968 -0.7956314987257159 -0.7956314987257159 -0.6057809160376968 12.420385680267287 115.01809463819035)" data-zeichen="L">
      <path d="M74.5302,-44.9545L81.4029,21.5406C81.426,21.7645 81.405,21.9841 81.3399,22.1996L42.848,149.5891C42.7272,149.9889 42.6758,149.9802 42.6937,149.563L48.0341,25.2902C48.0419,25.1093 48.1356,25.0302 48.3153,25.0527L101.6715,31.752C101.8512,31.7745 101.9106,31.7005 101.8499,31.5299L74.6088,-44.9722C74.5333,-45.1843 74.5071,-45.1784 74.5302,-44.9545Z" style="paint-order: stroke;" stroke="#1d1d1b" stroke-width="0.24" stroke-linejoin="round" stroke-linecap="round"></path>
    </g>
    <g transform="matrix(-0.7784176526071606 -0.627746730863298 -0.627746730863298 0.7784176526071606 108.99175237379322 39.029138207032204)" data-zeichen="L">
      <path d="M74.1637,99.0186L47.054,137.4277C46.9627,137.557 46.9426,137.5468 46.9935,137.3969L84.2655,27.7121C84.3082,27.5863 84.3546,27.4619 84.4047,27.3388L99.2869,-9.2451C99.3297,-9.3503 99.3281,-9.351 99.2821,-9.2472L85.6162,21.5912C85.5702,21.695 85.539,21.8031 85.5226,21.9155L74.3349,98.5896C74.312,98.7463 74.255,98.8893 74.1637,99.0186Z" style="paint-order: stroke;" stroke="#1d1d1b" stroke-width="0.24" stroke-linejoin="round" stroke-linecap="round"></path>
    </g>
    <g transform="matrix(-0.691123130424407 0.7227370328081771 0.7227370328081771 0.691123130424407 3.6811113569013116 -125.20674795241982)" data-zeichen="A">
      <path d="M60.1178,-12.7023L32.1454,52.8528C32.1039,52.95 32.0326,53.0138 31.9315,53.0443L1.886,62.0962C1.7849,62.1267 1.7492,62.0912 1.779,61.9899L30.7944,-36.626C46.3039,41.6142 47.0236,44.4951 -1.1717,34.4134L27.4979,51.828C27.594,51.8863 27.6852,51.9514 27.7717,52.0231L97.7261,110.0416C97.824,110.1227 97.8901,110.1021 97.9246,109.9798L108.1558,73.6405C108.1903,73.5182 108.2065,73.5205 108.2046,73.6476L107.2108,138.996C107.2075,139.2155 107.1372,139.2396 106.9999,139.0682L27.1995,39.3983C27.0707,39.2374 27.0617,39.0701 27.1725,38.8963L60.0729,-12.726C60.1837,-12.8998 60.1987,-12.8919 60.1178,-12.7023Z" style="paint-order: stroke;" stroke="#1d1d1b" stroke-width="0.24" stroke-linejoin="round" stroke-linecap="round"></path>
    </g>
    <g transform="matrix(0.9075715730344711 -0.4198974158288374 -0.4198974158288374 -0.9075715730344711 1.2906981913343678 93.55129211683888)" data-zeichen="O">
      <path d="M75.9074,120.9454C66.6826,42.6305 58.1133,32.4772 33.189,-17.2797L20.9328,121.0777C55.108,37.7838 60.0576,47.7607 10.7313,21.0926C60.0576,68.1999 54.5716,77.2375 96.2593,51.4395L58.5399,140.8991C56.9194,82.2392 66.6826,73.4113 47.4311,44.6285L75.9074,120.9454Z" style="paint-order: stroke;" stroke="#1d1d1b" stroke-width="0.24" stroke-linejoin="round" stroke-linecap="round"></path>
    </g>
    <g transform="matrix(0.23850517571635246 -0.971141226164615 0.971141226164615 0.23850517571635246 -106.02326415861211 68.31535328400422)" data-zeichen="O">
      <path d="M29.8036,46.3317C56.8179,77.4731 51.2017,68.184 28.1651,122.4719C51.2017,47.1587 56.3863,37.5815 18.1342,98.9282C66.852,37.5815 66.9458,37.5883 87.9847,117.7612L88.5328,-31.0152C54.0816,32.4692 44.5044,42.5503 32.5456,125.2899C44.5044,72.6489 53.5054,82.5854 75.5995,129.2777C66.5641,82.5854 66.803,82.5759 32.6818,27.8459L121.5197,39.5621C66.9207,77.455 66.8063,77.4731 104.6495,159.816L29.8036,46.3317Z" style="paint-order: stroke;" stroke="#1d1d1b" stroke-width="0.24" stroke-linejoin="round" stroke-linecap="round"></path>
    </g>
    <g transform="matrix(0.9886917015332399 0.14996239301673892 -0.14996239301673892 0.9886917015332399 -33.26381668344847 -29.42483101356345)" data-zeichen="L">
      <path d="M35.9935,23.0233L95.6409,6.822C95.8411,6.7676 95.8548,6.7978 95.6819,6.9125L19.7809,57.2952C19.5661,57.4378 19.5724,57.5699 19.7997,57.6914L87.3241,93.7896C87.5514,93.9111 87.5852,93.8708 87.4253,93.6685L18.7517,6.7642C18.7026,6.7021 18.7068,6.6983 18.7641,6.7529L35.7929,22.9725C35.8502,23.0271 35.9171,23.044 35.9935,23.0233Z" style="paint-order: stroke;" stroke="#1d1d1b" stroke-width="0.24" stroke-linejoin="round" stroke-linecap="round"></path>
    </g>
    <g transform="matrix(0.21179642458237707 -0.977313805557929 0.977313805557929 0.21179642458237707 -37.271603018790756 80.65032077274788)" data-zeichen="A">
      <path d="M38.7818,12.8156C64.2326,44.6376 65.0246,41.6864 61.9008,103.8924L99.4352,24.671C99.5609,24.4056 99.5115,24.3675 99.2868,24.5566L18.824,92.2854C18.5533,92.5133 18.4982,92.4695 18.6586,92.1542L73.5606,-15.7682C73.7453,-16.1313 73.8071,-16.1115 73.7458,-15.7087L51.5775,130.0792C51.5162,130.4823 51.4802,130.48 51.4694,130.0725L48.259,8.6123C48.2557,8.4869 48.2044,8.4625 48.1051,8.5392L18.6217,31.3184C18.5224,31.3951 18.507,31.3808 18.5755,31.2757L52.3855,-20.6298C52.4991,-20.8042 52.5882,-20.7925 52.6528,-20.5946L85.8759,81.1846C85.9622,81.4489 85.9266,81.4665 85.7692,81.2373L38.7818,12.8156Z" style="paint-order: stroke;" stroke="#1d1d1b" stroke-width="0.24" stroke-linejoin="round" stroke-linecap="round"></path>
    </g>
    <g transform="matrix(-0.5034246905591042 -0.8640391084525457 0.8640391084525457 -0.5034246905591042 -17.675363086464216 42.12710593969675)" data-zeichen="L">
      <path d="M10.2497,91.5381L54.1257,73.083C54.2128,73.0464 54.2547,72.9809 54.2515,72.8865L53.2981,44.8521C53.2949,44.7577 53.2831,44.7566 53.2627,44.8488L33.8944,132.5125C33.8384,132.766 33.8771,132.7814 34.0105,132.5587L73.6606,66.3702C73.7783,66.1737 73.7309,66.118 73.5182,66.2032L10.2513,91.5419C10.1028,91.6014 10.1023,91.6001 10.2497,91.5381Z" style="paint-order: stroke;" stroke="#1d1d1b" stroke-width="0.24" stroke-linejoin="round" stroke-linecap="round"></path>
    </g>
  </g>
  <g data-rolle="akzent" style="">
    <g transform="matrix(0.4852831737674998 -0.8743570444950636 -0.8743570444950636 -0.4852831737674998 131.22531783919368 72.26560322790337)" data-zeichen="A">
      <path d="M26.8988,101.8608L81.4071,-14.7263C81.4497,-14.8174 81.4207,-14.8614 81.3201,-14.8583L51.4471,-13.9366C51.3465,-13.9335 51.3448,-13.9189 51.442,-13.8929L88.0837,-4.0814C88.207,-4.0484 88.2048,-4.0337 88.0773,-4.0374L50.1638,-5.1365C50.0361,-5.1402 49.9588,-5.0797 49.9317,-4.9549L26.7824,101.8215C26.7047,102.1798 26.7435,102.1929 26.8988,101.8608Z" style="paint-order: stroke;" stroke="#1d1d1b" stroke-width="0.24" stroke-linejoin="round" stroke-linecap="round"></path>
    </g>
  </g>
<path class="glyph-merged" d="M-69.44985,-38.0811l34.16242,4.16767c0.40186,0.61121 0.96345,1.2902 1.68479,2.03696c0.14855,-0.58634 0.29825,-1.17854 0.44912,-1.77663l-2.13391,-0.26033c-1.66476,-2.53206 -0.58809,-3.90102 3.23002,-4.10686c2.32023,-9.29005 4.89928,-19.90011 7.75263,-31.97564l-6.28439,-10.3525l48.99884,26.31983l3.96337,-5.78347l-0.89985,-3.84458c-1.28093,-5.47271 -2.29087,-10.98906 -3.02986,-16.54898c4.89032,3.48931 10.33219,5.70914 7.90736,14.58925l19.88706,-29.01979c2.73049,-3.98443 6.46587,-5.51222 11.20592,-4.58345l11.17332,2.18923c4.74005,0.92877 5.36772,3.06551 1.88282,6.41017l-43.1365,41.40108l11.6735,6.27045c3.86692,2.0771 7.12876,4.86275 9.78549,8.35685l6.26232,8.23596c0.04075,0.05359 0.08067,0.10683 0.11977,0.15972l5.54742,0.40394c10.6492,-7.37222 20.09347,-12.76947 27.80699,-13.53334l-22.74661,13.90182l3.19776,0.23285c11.3163,0.824 11.3198,1.6937 0.0106,2.6091l-9.05803,0.73314l-16.28321,9.95165l-0.63331,2.26515l11.34839,-5.95755c-1.43877,5.82521 -2.02269,10.45022 -2.03619,14.20017l0.22725,-0.04225c9.2095,-1.7122 9.7565,-0.2292 1.6411,4.4491l-1.45621,0.83946c2.6274,15.07337 16.47611,11.36859 2.34179,33.69855l10.77093,9.14269c6.73497,5.71674 5.70619,8.14694 -3.08629,7.29042l-35.19137,-3.42805c-0.14574,2.51157 -0.12476,5.02506 0.06293,7.54048l-6.59962,1.7433l-0.00752,0.05866l7.41293,6.40506c-3.02681,1.10839 -5.80427,1.07057 -8.33237,-0.11342c-0.54877,2.66363 -1.36236,5.16487 -2.44076,7.50374c1.33185,10.01894 2.21285,22.00588 2.2032,37.09357l-21.83803,-17.5607c-0.1182,-0.09505 -0.23448,-0.19053 -0.34884,-0.28645l-12.15058,8.2806c-8.57828,5.8461 -16.26071,4.8414 -23.04731,-3.01386l-19.31717,-22.35915c-5.31098,7.90595 -11.07241,15.57254 -17.2661,22.62859c2.43976,-26.67596 4.42183,-44.94813 6.41351,-57.88498c-2.73845,-0.74625 -2.6249,-1.46623 0.34062,-2.15991c5.39103,-33.35463 11.04686,-28.99943 26.19836,-47.54781l-21.011,3.13992c-6.5645,0.981 -10.534,-1.7752 -11.9085,-8.2687l-3.24,-15.3062c-1.3745,-6.4935 1.2325,-9.3383 7.821,-8.5345zM-29.30977,-37.99725c2.22111,0.1251 4.99152,0.48325 8.31123,1.07445l6.49436,1.15656c0.24654,-5.03607 0.61233,-10.44852 1.13678,-16.21215l-10.88221,-17.92668zM-9.489,-34.8731l7.29368,1.29891l-9.54695,-15.72705zM22.90396,-57.54379c-0.75736,1.39557 -1.63479,2.89522 -2.64338,4.5094l4.23074,2.27255zM31.22092,-4.28294c1.06161,-0.75887 2.11761,-1.51991 3.16765,-2.2814l5.97523,-12.39534l-10.65817,1.22785c-1.50323,5.88963 -5.81322,10.36147 -12.92994,13.4155l-8.39718,3.60353l2.29261,1.6585c23.67593,-16.33344 27.50538,-17.50015 4.32572,3.12927l0.81555,0.58998l5.44368,-2.85776l-5.09211,3.11209l0.54587,0.39489c-0.58681,0.11538 -1.17354,0.23113 -1.7602,0.34726l-9.36338,5.72252c0.01536,0.27563 0.03167,0.5498 0.04892,0.82255c3.79781,-2.09594 7.56158,-4.36584 11.27848,-6.7449l-0.20381,-0.14744c0.20832,-0.04096 0.41665,-0.08187 0.62499,-0.12274c3.07566,-1.97727 6.11883,-4.02774 9.12223,-6.1146l6.97804,-3.66325l0.71737,-1.48815zM45.26654,-17.57403l-1.06014,3.79177c3.09365,-2.29154 6.12126,-4.53658 9.07312,-6.68609c-0.23743,0.04117 -0.48762,0.07691 -0.75057,0.10721l-6.70672,0.77263c-0.17555,0.64586 -0.36079,1.31735 -0.55569,2.01448zM42.31777,17.13025c-1.25009,3.45148 -4.66487,6.48182 -9.27034,8.99957l-0.59321,2.12172c4.51108,-0.90478 8.78877,-0.31481 12.83308,1.76985zM-25.85455,-25.4773l10.90676,7.89005c-0.0026,-4.1651 0.06743,-8.77928 0.25526,-13.81369l-15.36605,-1.87459l-0.64374,4.05925c1.35733,1.13661 2.97325,2.38294 4.84777,3.73899zM-25.43634,30.75034c2.60306,-1.67588 5.30297,-3.05733 8.09975,-4.14433c0.19345,-0.54986 0.481,-1.13093 0.86926,-1.74382l-10.18697,6.22587c-0.12941,0.23007 -0.26002,0.46296 -0.39185,0.69872zM-10.93996,16.10952c-1.52369,0.45747 -3.19075,0.72876 -5.00118,0.81388l-2.02157,0.09503c-1.3494,1.89877 -2.9558,4.33261 -4.92072,7.58423c4.2044,-2.99682 8.189,-5.83105 11.94348,-8.49315zM-34.77735,17.8089c-6.53305,0.30715 -7.77747,-0.05267 -3.73336,-1.07946c-0.41533,-1.41789 2.22482,-4.86007 7.92044,-10.32654l15.28924,-14.67414c0.15798,-0.43861 0.30786,-0.85727 0.44961,-1.25526c-0.02607,-1.11955 -0.04798,-2.28647 -0.0643,-3.49983l-22.4388,3.35329c-2.80491,23.97089 -5.30569,34.06374 -6.85483,36.92776c0.30078,3.15859 0.63165,6.03586 0.99018,8.65058l5.06702,-0.39947c2.24908,-1.60821 4.4504,-3.18159 6.60282,-4.71909c2.21504,-4.68465 4.23972,-9.18671 6.06957,-13.41491zM-3.85033,-21.54614l4.74943,-6.9305l-0.67013,-1.10393l-9.06411,-1.10578l2.20147,14.09648l7.70601,-7.39599l0.77043,-2.94676c-0.10276,-0.16226 -0.20457,-0.32647 -0.30542,-0.49261l-0.1887,-0.31085c-1.6367,1.9775 -3.36822,4.03943 -5.19897,6.18996zM-10.37203,7.3337c-1.04078,1.67017 -2.01522,2.76566 -3.24567,4.18401l5.71676,-1.18225l1.19627,-4.57556zM-25.63434,13.8833c-0.18317,0.0786 -0.36439,0.15592 -0.54367,0.23194l2.29317,-0.47424c0.0877,-0.2077 0.17489,-0.41462 0.26157,-0.62073zM45.82287,57.90979c4.29521,-2.10478 4.98951,-1.25787 2.08286,2.54094l-4.18132,5.46468c-0.02231,0.56568 -0.06626,1.15658 -0.13185,1.77268l-1.13991,10.70717c0.56644,0.51911 0.55647,0.61266 -0.02987,0.2806l-1.46359,13.74745c-1.07441,10.0924 -2.86508,10.22106 -5.37185,0.38612l-6.22054,-24.40494c-0.1421,-0.5575 -0.27604,-1.11491 -0.40183,-1.67222l-0.49084,-0.42411c0.12175,-0.04458 0.24389,-0.09102 0.36645,-0.13931c-0.58099,-2.69142 -0.97174,-5.38066 -1.17224,-8.06771l3.63573,-0.96038c5.72582,-1.51249 9.47468,-0.72164 11.24656,2.37251zM15.30061,-113.57097l0.33276,3.72193l-6.289,3.88292c-2.90251,1.79209 -3.43409,1.2518 -1.5946,-1.62087l4.33595,-6.77137c1.83949,-2.87267 2.9111,-2.61018 3.21488,0.78739zM32.30949,-120.14511c5.84995,-3.61191 6.19665,-3.14423 1.03996,1.40291l-17.15842,15.13044l-0.55765,-6.23728zM16.19102,-103.61175l1.43411,16.04046c0.22026,2.46365 0.493,4.91887 0.81821,7.36566c-4.74639,-3.38661 -8.97322,-7.96908 -4.98386,-20.99742zM12.17994,6.57186l1.1043,-0.57972c-0.19299,0.03845 -0.38596,0.07693 -0.57893,0.11546c-0.17379,0.15368 -0.34892,0.30844 -0.52537,0.46426zM21.25608,1.80716l9.96484,-6.09011c-1.57594,1.12653 -3.16425,2.2483 -4.76385,3.35975zM-39.0284,-94.2507l8.43924,13.90227l-20.14204,-10.81934c-2.28291,-1.22625 -2.20078,-2.26561 0.24643,-3.11799l5.76843,-2.00914c2.44722,-0.85238 4.34321,-0.17103 5.68793,2.04419zM125.90932,-31.04238l-34.75785,66.33503c-1.97314,3.7657 -2.93664,3.52304 -2.89031,-0.7281l0.10911,-10.02034c0.04633,-4.25114 0.4797,-8.46234 1.30022,-12.63377l2.17319,-11.04836l28.78825,-35.3834c13.29691,-16.34313 15.0561,-15.18353 5.2774,3.47894zM68.34576,29.74317c-9.16097,11.25974 -9.89539,10.73456 -2.20319,-1.57541l24.00168,-38.41084c3.7786,-6.04708 4.97987,-5.57238 3.60367,1.42413l-1.90424,9.68103z" fill="none" stroke="#1d1d1b" stroke-width="2.883" stroke-linejoin="round" style="display: none;"></path></g>
<g transform="translate(26.3256 343.0124) scale(0.7078) translate(67.9976 96.7662)">
  <g data-rolle="struktur" style="">
    <g transform="matrix(1 0 0 1 -55.75372505187988 -57.52792739868164)" data-zeichen="D">
      <path d="M-10.1239,41.3514C39.6796,33.2977 44.2162,32.8651 60.8056,6.9187C58.1855,32.8651 64.5942,34.954 23.4379,49.7849C73.1625,42.8739 75.683,48.491 89.2425,115.9373C75.683,64.2606 73.2348,70.7411 118.3225,118.1747C64.162,79.741 56.6732,82.1893 69.1736,167.6432C42.7762,82.1893 39.0316,81.9735 -7.9774,162.6131L85.8519,73.8867C86.0979,73.654 86.0603,73.4841 85.7392,73.3768L-10.1239,41.3514ZM18.3976,29.2461C43.7124,77.0771 46.0166,77.1494 14.5461,102.8383C61.8579,77.1494 69.1303,69.6611 36.1643,-2.0676C69.2026,45.1064 62.7216,37.8339 81.8559,-15.0798C46.2324,37.8339 43.7841,38.122 66.1641,73.6616L96.2158,137.959C96.3165,138.1744 96.2976,138.1854 96.1593,137.992L18.3976,29.2461Z" style="paint-order: stroke;" stroke="#1d1d1b" stroke-width="0.24" stroke-linejoin="round" stroke-linecap="round"></path>
    </g>
    <g transform="matrix(-0.5079657004414234 -0.8613772966447711 -0.8613772966447711 0.5079657004414234 112.26443127943203 23.851786035261355)" data-zeichen="U">
      <path d="M23.9163,-31.8789L57.3142,48.2533C58.5092,72.3306 53.9008,77.0835 96.0436,121.3416L59.0216,118.5146C57.1655,82.0486 64.8461,75.9107 88.0568,126.796L89.6794,87.0075C89.6849,86.8742 89.6218,86.7966 89.4903,86.7745L14.2779,74.1422C14.0253,74.0998 13.9108,73.9511 13.9344,73.696L23.7083,-31.8472C23.7351,-32.1368 23.8044,-32.1474 23.9163,-31.8789Z" style="paint-order: stroke;" stroke="#1d1d1b" stroke-width="0.24" stroke-linejoin="round" stroke-linecap="round"></path>
    </g>
    <g transform="matrix(0.7314385251186424 0.6819073866532502 -0.6819073866532502 0.7314385251186424 48.75655525004292 -77.49883726435621)" data-zeichen="U">
      <path d="M103.1227,32.8184L80.1099,-29.7871C80.0324,-29.9979 79.9877,-29.9912 79.9757,-29.7669L72.3422,112.6619C72.3261,112.9624 72.3079,112.9626 72.2877,112.6623L66.2626,23.0359C46.8887,76.5008 54.377,82.1893 24.8971,80.2417C64.431,82.1893 64.5423,82.1781 65.6522,119.3725L13.207,126.6269C58.0499,77.077 53.2257,72.4686 7.0416,20.8295L102.9047,33.0919C103.1275,33.1204 103.2002,33.0292 103.1227,32.8184Z" style="paint-order: stroke;" stroke="#1d1d1b" stroke-width="0.24" stroke-linejoin="round" stroke-linecap="round"></path>
    </g>
  </g>
<path class="glyph-merged" d="M56.74377,-33.96203c5.0236,1.3633 5.2654,3.3181 0.7253,5.8642l-4.05041,2.27154c7.998,6.79338 6.7299,10.47227 2.18297,12.03644l45.25584,45.02112c-20.5112,-15.01265 -34.25877,-21.54606 -41.57286,-22.67158l13.96004,23.24054c0.35228,0.58647 0.65602,1.10945 0.91122,1.56892c2.33888,1.5014 4.86774,3.01374 7.58466,4.51922l-7.0888,-3.58545c1.22691,2.45292 0.24239,2.01275 -2.95357,-1.32055l-0.3227,-0.33656l-19.16822,-9.69512l3.19382,10.88969c-6.76484,-4.5493 -12.12408,-9.10645 -16.15763,-12.66681c-0.09622,4.93879 4.79554,9.62056 21.37806,14.50449c-2.50479,0.03683 -4.94699,0.06812 -7.328,0.09414c11.46448,5.32041 25.51588,12.00138 40.38183,20.09602c-19.81256,-4.33716 -33.43992,-11.16031 -44.85513,-20.05267c-5.04481,0.04251 -9.80048,0.06053 -14.2817,0.05688c3.85103,13.80539 9.95424,35.31796 18.07691,67.46355l-23.66929,-67.47988c-23.14521,-0.11801 -38.33519,-0.84389 -47.94541,-1.72626c1.79745,1.60706 2.79808,3.8333 2.11729,6.84683l-25.62183,-13.00796l-6.39167,3.58456c0.09422,-2.49632 0.67297,-4.49678 1.48013,-6.0781l-2.5878,-1.3138c1.21822,-0.1015 2.41229,-0.20071 3.58262,-0.2977c0.43619,-0.59065 0.90064,-1.09776 1.36798,-1.52894c-1.45815,0.43381 -3.35787,0.90978 -5.78895,1.40101l-22.79988,-11.57528c-14.7154,-7.4709 -13.8251,-11.4491 2.671,-11.9346l61.68257,-1.8155c1.41722,0.69641 2.8713,1.1288 4.37296,1.35696c-0.47219,-0.48531 -1.0054,-0.96544 -1.60437,-1.43844l14.69307,-0.43246c-0.26201,-1.5712 -0.50651,-3.44577 -0.77752,-5.66798c-2.48624,-2.73638 -5.0908,-5.53563 -7.84663,-8.3943c-14.61507,-0.8848 -15.63609,-3.71082 -7.75682,-7.78694c-3.11115,-3.01944 -6.41006,-6.09742 -9.93164,-9.23028l6.71765,-21.03005c1.74157,-5.45228 5.08315,-6.73421 10.02458,-3.84593l29.1533,17.03992c0.4105,0.23993 0.77871,0.44917 1.10464,0.62771l2.80178,2.78724c1.86284,-0.53364 3.76535,-1.0726 5.70382,-1.61635zM61.0622,21.88956c-2.1987,-2.29309 -4.47677,-4.50133 -6.83422,-6.62473c2.06423,3.7181 6.69017,8.61896 13.78922,13.87848zM-14.95773,-6.12113c3.67427,1.35375 6.42715,2.86169 8.43847,4.45002l-2.76859,0.08149c-1.95048,-0.95845 -3.83113,-2.417 -5.66987,-4.5315zM-5.55213,10.96107c0.68631,0.55316 1.40644,1.06478 2.13965,1.539c-4.39629,7.93645 -15.44567,11.66549 -2.13965,-1.539zM-56.03138,24.66604c-8.49163,1.35651 -21.30997,2.70187 -40.25055,3.49833c15.52305,-1.39161 28.84662,-2.53901 40.25055,-3.49833zM-33.25491,22.78174c55.06588,-4.49486 40.95301,-3.09554 29.84243,-10.28167c1.21514,-2.19365 1.922,-4.70873 1.46579,-7.27652zM-50.0032,24.16137c-1.94713,0.16224 -3.95597,0.33035 -6.02819,0.50467c1.95111,-0.31168 3.67379,-0.62395 5.18984,-0.93029zM20.92334,-48.79687l7.5834,6.74462c2.86193,2.54541 2.98014,3.09905 0.35463,1.66083l-8.18516,-8.14271c-3.0524,-3.03656 -2.97007,-3.12414 0.24713,-0.26274zM92.39936,43.27952c-3.82479,-1.76618 -7.37886,-3.57366 -10.65884,-5.39114z" fill="none" stroke="#1d1d1b" stroke-width="2.883" stroke-linejoin="round" style="display: none;"></path></g>
<g transform="translate(40.1036 607.5378) scale(0.7429) translate(87.1002 103.9595)">
  <g data-rolle="struktur" style="">
    <g transform="matrix(1 0 0 1 -55.75372505187988 -57.52792739868164)" data-zeichen="D">
      <path d="M42.2102,-23.78C39.6796,33.2977 44.2162,32.8651 -3.5907,63.1947C58.1855,32.8651 64.5942,34.954 120.6143,42.0593C73.1625,42.8739 75.683,48.491 72.9533,81.3357C75.683,64.2606 73.2348,70.7411 111.2934,-4.3827C64.162,79.741 56.6732,82.1893 19.1691,53.101C42.7762,82.1893 39.0316,81.9735 17.7666,144.2978L4.1307,-44.1653C4.1203,-44.3093 4.1786,-44.347 4.3056,-44.2783L42.2102,-23.78ZM66.8975,119.5494C43.7124,77.0771 46.0166,77.1494 50.8557,145.9496C61.8579,77.1494 69.1303,69.6611 75.5006,3.4996C69.2026,45.1064 62.7216,37.8339 53.5059,-0.63C46.2324,37.8339 43.7841,38.122 47.4484,67.9458L20.306,27.5076C20.2151,27.3721 20.2065,27.3772 20.2802,27.5227L66.8975,119.5494Z" style="paint-order: stroke;" stroke="#1d1d1b" stroke-width="0.24" stroke-linejoin="round" stroke-linecap="round"></path>
    </g>
    <g transform="matrix(0.687971956380533 0.7257372714928881 0.7257372714928881 -0.687971956380533 -80.72907791976515 26.625746411790608)" data-zeichen="A">
      <path d="M65.1824,80.7647L55.2077,27.7653C55.1741,27.5868 55.1922,27.5814 55.262,27.749L76.3819,78.4467C76.453,78.6174 76.4523,78.6177 76.3798,78.4476L53.3696,24.4823C53.3144,24.3528 53.2207,24.3122 53.0885,24.3604L13.8165,38.6805C13.6843,38.7287 13.6726,38.7974 13.7815,38.8866L65.0221,80.8598C65.1626,80.9749 65.216,80.9432 65.1824,80.7647Z" style="paint-order: stroke;" stroke="#1d1d1b" stroke-width="0.24" stroke-linejoin="round" stroke-linecap="round"></path>
    </g>
    <g transform="matrix(0.9451319952557804 -0.3266887074017519 -0.3266887074017519 -0.9451319952557804 -55.594102803158556 100.22776850381489)" data-zeichen="A">
      <path d="M34.7324,3.4603L47.6485,114.1249C47.6872,114.4568 47.7624,114.4653 47.8739,114.1503L81.0063,20.5852C81.1162,20.275 81.067,20.2473 80.8587,20.502L18.6864,96.5462C46.3039,41.6142 47.0236,44.4951 22.7126,44.0117L44.0842,143.6648C44.1558,143.9987 44.1807,143.9952 44.1588,143.6545L34.9795,0.7669C34.9547,0.3804 34.9269,0.3802 34.8961,0.7663L25.7408,115.5549C25.7169,115.8549 25.7352,115.8575 25.7958,115.5627L43.8852,27.6109C43.8907,27.5841 43.8889,27.5578 43.8798,27.532L41.1677,19.8653C41.1586,19.8395 41.149,19.8138 41.139,19.7883L34.7544,3.4549C34.7329,3.4 34.7256,3.4018 34.7324,3.4603Z" style="paint-order: stroke;" stroke="#1d1d1b" stroke-width="0.24" stroke-linejoin="round" stroke-linecap="round"></path>
    </g>
    <g transform="matrix(-0.12474394900999071 -0.9921889674781679 -0.9921889674781679 0.12474394900999071 91.45129877658078 22.97334108805991)" data-zeichen="A">
      <path d="M32.1497,117.1671C64.2326,44.6376 65.0246,41.6864 114.4813,66.3013L30.6352,12.0086C30.4233,11.8714 30.3815,11.9115 30.5098,12.1289L68.6764,76.7677C68.7769,76.9378 68.7294,77.0081 68.5341,76.9785L10.5136,68.1846C10.3183,68.155 10.3095,68.097 10.4872,68.0107L66.1737,40.9623C66.3371,40.8829 66.4075,40.9333 66.3849,41.1136L59.6697,94.6622C59.6478,94.8369 59.587,94.9968 59.4874,95.1419L29.9142,138.2538C29.8146,138.3989 29.7884,138.3867 29.8355,138.2171L64.7051,12.8046C64.8087,12.4321 64.8485,12.4388 64.8245,12.8247L57.6645,127.8798C57.6588,127.972 57.6134,128 57.5284,127.9638L32.1497,117.1671Z" style="paint-order: stroke;" stroke="#1d1d1b" stroke-width="0.24" stroke-linejoin="round" stroke-linecap="round"></path>
    </g>
  </g>
<path class="glyph-merged" d="M-32.83653,-25.62323c5.86913,-0.78734 9.19817,-0.19489 9.9871,1.77732c-3.8356,0.90965 -9.95332,1.36239 -19.24195,1.90516l10.16075,9.07668c1.03208,-0.04085 2.07687,-0.06823 3.13411,-0.08241l-1.39963,1.63184l1.58099,1.41231c3.80822,-0.04223 8.42412,0.11536 15.54391,0.07599c16.7749,8.20361 23.21406,11.22074 28.93264,15.95427l1.44843,-0.6045l-0.76772,-5.26945c-10.18801,-1.31155 -11.53846,-2.90745 -4.05143,-4.78767c1.18374,0.10841 2.30705,0.17626 3.38517,0.21463l-0.13671,-0.93838c-1.22293,0.24576 -2.30575,0.48701 -3.24846,0.72375c-5.54128,-0.50749 -12.40668,-1.90381 -22.15918,-5.32533c3.64953,-0.04976 7.88589,-0.15413 12.87539,-0.35202c-7.06413,-1.15106 -13.81571,-1.96434 -20.20783,-2.39391c-2.7704,-1.09711 -5.74024,-2.33469 -8.93326,-3.73c2.69571,-3.40939 3.72396,-5.91304 3.08476,-7.51096c7.22595,-1.7137 6.35229,-5.04904 3.3217,-13.66302c17.67462,10.33949 -23.53281,12.66393 25.45881,27.18367c2.7752,-0.1225 5.76811,-0.27293 9.00314,-0.45701l-0.54425,-3.7356c-1.8247,-12.52441 -1.14991,-12.66055 2.02436,-0.40842l1.03552,3.99695c1.06955,-0.06416 2.16426,-0.13188 3.28492,-0.20334l-18.55064,-89.88232c-0.79692,-3.86145 0.55348,-6.70209 4.05107,-8.52201l8.24439,-4.28964c3.4976,-1.81992 5.53606,-0.77988 6.11538,3.12011l6.92476,46.62039l14.45981,-9.9818c5.44866,-3.76127 8.60019,-2.35915 9.45475,4.20623l3.42858,26.34196c1.22127,9.38264 1.03432,18.73713 -0.56063,28.06344l-0.29178,1.70618c6.66957,-0.60566 13.90255,-1.30261 21.75599,-2.10419l-22.05994,3.88155l-1.99221,11.64939c2.4059,0.83309 5.01856,1.82271 7.87596,2.99646c-2.79116,-0.59462 -5.48676,-1.17631 -8.08989,-1.74549l-0.02964,0.17332c5.15533,1.49417 10.39583,3.08434 15.70972,4.75898l-16.21769,-1.78864l-1.12289,6.56606c6.86037,-0.94365 14.37285,-1.98784 22.48232,-3.13832c3.84505,1.23942 7.72593,2.52041 11.63828,3.83869c-14.24749,1.59438 -25.89432,2.88188 -34.90572,3.89064l-0.21673,1.26734c8.39121,-0.35718 17.98412,-0.77018 28.84016,-1.23258c-11.62198,0.7077 -21.25858,1.30081 -28.93075,1.76234l-1.91397,11.19189c-0.44187,2.58372 -1.51299,4.38523 -3.2134,5.40451l10.06644,1.55923c6.75249,1.04593 6.86286,2.57221 0.33113,4.57886l-27.24031,8.36875l7.28251,17.78368c3.31907,8.10523 2.14648,8.81777 -3.518,2.13753l-14.17903,-16.72167l-42.15356,12.95038l34.82449,-21.59373l-9.94924,-11.73338l-33.18842,24.44902c-0.13988,0.10305 -0.27856,0.20549 -0.41603,0.30732c-3.13592,-3.08405 -16.79946,-1.5665 -44.3878,-10.02828l66.83043,-27.89145l-6.4968,-7.66184c-7.38437,-1.11811 -16.30759,-2.22382 -27.18569,-3.2951l12.2656,-14.30052l-1.71651,-2.02432c-6.8068,0.87712 -14.5824,3.48492 -36.23479,10.84288c7.86589,-8.12406 19.37807,-12.4613 33.70489,-13.82645l-7.8537,-9.26206c-7.98273,0.45395 -18.02678,1.00602 -30.57529,1.92891l28.89253,-3.87571c-2.92988,-3.14702 -6.52503,-5.18955 -10.78541,-6.12751l-13.4066,-2.95167c-2.91163,-0.64098 -2.94368,-1.40317 -0.09624,-2.28649l6.71201,-2.08198c2.84744,-0.88333 5.38288,-0.3319 7.60625,1.65434l12.7799,11.41639zM20.98336,-6.21499l0.73952,-0.13012l-0.05615,-0.27206c-1.10109,-0.24577 -2.19639,-0.4852 -3.28574,-0.71813l0.12505,0.48269c0.80912,0.21029 1.63479,0.42281 2.47731,0.63762l-2.21131,0.38909l0.39966,1.54264c1.0113,-0.01185 1.99287,-0.04185 2.9605,-0.07854l-0.34004,-1.64759c-0.27131,-0.06876 -0.54091,-0.1373 -0.80881,-0.2056zM11.45833,-8.74244c1.25988,0.34946 2.56889,0.70555 3.92876,1.06853l-0.04328,-0.29705c-1.30414,-0.26694 -2.59939,-0.52418 -3.88548,-0.77148zM23.99637,14.16418c-0.0146,0.002 -0.0292,0.004 -0.04379,0.006l0.85933,3.31689c0.59292,-0.02294 1.1979,-0.04655 1.81503,-0.07083l-0.09233,-0.44735c-0.90171,-1.00359 -1.74311,-1.93513 -2.53824,-2.80471c0.62302,-0.0853 1.25827,-0.17214 1.90561,-0.26052l-0.48512,-2.35054l-1.79896,1.32525l0.3152,1.21664c0.02106,0.02301 0.04215,0.04607 0.06327,0.06917zM16.9716,17.77451c0.68014,-0.02311 1.3842,-0.04766 2.11239,-0.07363l-0.19505,-1.33881zM15.47545,18.87668l-6.50773,4.79407l2.49203,2.22615c3.35185,2.99425 6.28072,6.28743 8.78659,9.87953c1.64853,-0.91204 3.33424,-1.64135 5.05713,-2.18791c-2.7399,-0.93839 -4.35843,-3.11399 -4.85568,-6.5268l-0.8825,-6.05728c-1.24229,-0.68035 -2.5549,-1.39229 -4.08984,-2.12777zM-3.04168,12.94265l0.81975,0.73229l0.85071,-0.35504c-0.54226,-0.12566 -1.09889,-0.25142 -1.67046,-0.37725zM-25.93419,-16.33494c-0.0328,0.04148 -0.06584,0.08309 -0.09913,0.12484c-0.99817,-0.49589 -2.0223,-1.00579 -3.07331,-1.53033c1.08141,0.48542 2.13862,0.95372 3.17244,1.40548zM-45.75983,6.83113l-10.41747,12.14577c-3.71961,-4.82216 -13.3661,-10.07654 -32.86853,-15.51053c17.13376,1.0611 31.38064,2.19231 43.286,3.36476zM-75.73509,41.77941l-1.78793,2.08456c-1.70255,-0.13504 -0.6343,-0.86026 1.78793,-2.08456zM-27.05413,-14.97793c0.36276,-0.42294 0.70303,-0.83367 1.02081,-1.23217c2.50819,1.24608 4.85246,2.40378 7.04728,3.4835c-3.37666,-0.18664 -6.6492,-0.26227 -9.81047,-0.21987zM76.56567,6.89497c-1.43202,0.20451 -2.8466,0.40584 -4.24348,0.60401c-1.72122,-0.55482 -3.43526,-1.10132 -5.14174,-1.6391zM-13.07124,-9.82634c-1.84264,-0.90113 -3.81,-1.86483 -5.91481,-2.90027c0.65777,0.03636 1.3195,0.07693 1.98512,0.12166c2.61521,1.03565 5.0527,1.94612 7.33243,2.74593c-1.19524,0.0163 -2.32754,0.02673 -3.40274,0.03268zM-56.1773,18.9769c8.14102,10.55415 -12.10954,19.03784 -19.55779,22.80251zM-30.34123,67.10019c-1.64391,1.01927 -3.32043,1.98157 -5.02977,2.88686l-6.59306,3.49198c1.26019,-2.11138 2.38462,-3.97934 3.36602,-5.63506c2.53297,-0.53202 5.6928,-1.3797 9.47949,-2.54304l3.32777,-1.02235zM-34.51997,55.70781c1.76142,1.73229 0.20139,4.91637 -4.07807,12.13617c-11.45013,2.40495 -10.09078,-1.64045 4.07807,-12.13617zM30.11904,-46.58661l5.11321,34.42424c0.98253,-0.07625 1.98073,-0.15491 2.99494,-0.23605c-2.23472,-16.07067 -5.08773,-26.89966 -8.10815,-34.18819zM28.80864,27.9871l-0.63883,-3.09529c-0.55224,-0.16957 -1.0755,-0.34463 -1.57549,-0.52489l1.01044,3.90015c0.43187,1.66694 0.82302,3.15878 1.17344,4.47555c0.32118,-0.05515 0.64359,-0.1043 0.96722,-0.14745c-0.27002,-1.35439 -0.58228,-2.89041 -0.93678,-4.60806zM21.28282,3.86532l2.34535,-0.97882l-0.38648,-1.87259l-2.77696,-0.30627zM38.63907,-9.32159l-2.90884,0.51182l0.2256,1.51881l3.12002,1.50956c-0.14242,-1.20589 -0.28806,-2.38577 -0.43678,-3.54019zM39.99626,2.86176l-2.57457,-0.28395l1.42062,9.56424c0.63518,-0.08654 1.27775,-0.17413 1.92766,-0.26278c-0.24018,-3.13774 -0.49858,-6.14168 -0.77371,-9.01751zM39.54732,16.88845c0.52033,-0.0218 1.04639,-0.04388 1.5782,-0.06624c-0.01567,-0.23224 -0.03143,-0.4638 -0.04729,-0.69467c-0.55414,0.0631 -1.09298,0.12464 -1.61651,0.18463zM41.16919,17.47514c-0.5208,0.03032 -1.02801,0.05968 -1.52164,0.08808l2.34789,15.80695l0.02847,0.00441c-0.23779,-5.6261 -0.52443,-10.91937 -0.85472,-15.89944z" fill="none" stroke="#1d1d1b" stroke-width="2.883" stroke-linejoin="round" style="display: none;"></path></g>
<g transform="translate(26.3256 880.8845) scale(0.498) translate(204.2611 141.0982)">
  <g data-rolle="struktur" style="">
    <g transform="matrix(1 0 0 1 -55.783607482910156 -57.54241180419922)" data-zeichen="O">
      <path d="M87.5857,82.24C77.9516,73.729 67.7983,82.5854 52.5739,117.8972C42.5961,82.5854 33.5951,72.6489 78.061,141.6489C33.5951,42.5502 43.1722,32.4692 34.1167,84.0163C69.3822,32.4692 77.9516,42.6225 53.9754,114.9777L87.5857,82.24ZM86.1594,-22.5045C40.2924,68.184 45.9086,77.4731 25.9532,129.7218C65.7103,77.4731 71.3265,68.3286 42.3714,69.9516C71.3265,47.6626 66.2865,37.5815 40.0001,98.5715C45.4769,37.5815 40.2924,47.1586 -10.3043,139.4969L86.1594,-22.5045Z" style="paint-order: stroke;" stroke="#1d1d1b" stroke-width="0.24" stroke-linejoin="round" stroke-linecap="round"></path>
    </g>
    <g transform="matrix(0.9922490747069406 -0.12426493368291923 -0.12426493368291923 -0.9922490747069406 -23.137666882405235 42.22518985823911)" data-zeichen="B">
      <path d="M90.5801,-24.015L34.7261,106.2365C34.5689,106.603 34.4395,106.5935 34.338,106.2078L4.1561,-8.4633C4.0772,-8.7631 4.0479,-8.7583 4.0684,-8.449L10.1704,83.7701C10.1755,83.8469 10.1665,83.8486 10.1435,83.7751L3.3213,61.9552C3.2983,61.8817 3.2739,61.8087 3.2481,61.7362L-8.2265,29.4484C-8.2651,29.3399 -8.2476,29.2413 -8.174,29.1527L24.4292,-10.12C24.5381,-10.2512 24.6515,-10.2552 24.7693,-10.1319L59.9425,26.6724C55.6296,47.0961 61.3181,49.8324 8.9443,142.1955C61.3181,63.5131 55.3415,65.8891 17.5849,144.9689C46.6287,65.8891 44.8284,65.8178 82.2562,-17.436L34.3125,95.2953C44.6735,70.7597 45.8204,70.7856 38.7995,19.849C54.9812,70.7856 60.4539,69.3461 94.5541,28.6475C66.2863,63.8735 67.9426,60.7056 22.0719,136.8272C67.9426,49.3286 62.5422,45.5122 61.4806,109.4068L90.7037,-23.9753C90.8016,-24.4222 90.7604,-24.4354 90.5801,-24.015Z" style="paint-order: stroke;" stroke="#1d1d1b" stroke-width="0.24" stroke-linejoin="round" stroke-linecap="round"></path>
    </g>
    <g transform="matrix(0.8593228979655521 0.5114334336275693 0.5114334336275693 -0.8593228979655521 -64.80042193934585 -23.18052667718529)" data-zeichen="N">
      <path d="M105.9087,63.8824L39.6647,17.1571C39.4421,17.0001 39.3502,17.0564 39.389,17.326L57.2875,141.6836C57.3002,141.7715 57.2789,141.7807 57.2236,141.7112L40.8046,121.0863C40.7493,121.0168 40.759,120.9581 40.8336,120.91L102.2178,81.3658C55.5622,51.2368 55.4186,45.4047 26.6068,69.4456L67.4603,72.7961C56.2419,41.2899 57.3368,43.4135 11.8531,63.503L66.2459,-23.9384C66.4281,-24.2313 66.5563,-24.2094 66.6306,-23.8725L96.4433,111.3116C96.4781,111.4695 96.5115,111.4692 96.5436,111.3108L106.0587,64.2597C106.0908,64.1013 106.0408,63.9755 105.9087,63.8824Z" style="paint-order: stroke;" stroke="#1d1d1b" stroke-width="0.24" stroke-linejoin="round" stroke-linecap="round"></path>
    </g>
    <g transform="matrix(-0.9545807404780092 0.29795236181050094 0.29795236181050094 0.9545807404780092 36.873882638030274 -26.194105425854442)" data-zeichen="E">
      <path d="M90.4948,70.9856L50.4227,98.957C50.2934,99.0472 50.1943,99.1632 50.1252,99.3049L29.6109,141.4152C29.5493,141.5417 29.5768,141.5656 29.6934,141.487L64.4249,118.0803C64.4792,118.0437 64.4919,117.9961 64.4628,117.9374L55.8376,100.5063C55.8085,100.4476 55.7813,100.3881 55.756,100.3277L-1.4666,-36.1659C-1.6423,-36.5849 -1.6271,-36.5919 -1.421,-36.187L59.9117,84.3133C60.037,84.5594 60.1592,84.5579 60.2785,84.3088L95.7035,10.3228C95.8228,10.0737 95.8063,10.0644 95.6542,10.2949L49.3766,80.4262C49.3191,80.5134 49.332,80.5885 49.4154,80.6514L74.1763,99.3522C74.2597,99.4151 74.2723,99.49 74.2141,99.5767L35.027,157.9708C34.8954,158.1669 34.8932,158.1654 35.0203,157.9665L90.5642,71.0523C90.6528,70.9137 90.6297,70.8915 90.4948,70.9856Z" style="paint-order: stroke;" stroke="#1d1d1b" stroke-width="0.24" stroke-linejoin="round" stroke-linecap="round"></path>
    </g>
    <g transform="matrix(0.4055697797700769 -0.9140640862309662 -0.9140640862309662 -0.4055697797700769 60.41241189511075 64.5394314380489)" data-zeichen="B">
      <path d="M76.3158,126.248L23.8252,112.5309C56.4702,33.1764 54.2714,33.4662 71.7403,118.145L37.5114,92.071C54.1297,81.7543 56.2509,81.9574 65.5671,84.2819L9.512,127.3554C9.334,127.4922 9.3572,127.5585 9.5817,127.5544L76.307,126.3219C76.4887,126.3186 76.4917,126.2939 76.3158,126.248Z" style="paint-order: stroke;" stroke="#1d1d1b" stroke-width="0.24" stroke-linejoin="round" stroke-linecap="round"></path>
    </g>
    <g transform="matrix(0.9749207455123655 -0.22255233085639295 0.22255233085639295 0.9749207455123655 -52.46838007151402 -62.909492123663405)" data-zeichen="B">
      <path d="M92.1622,31.9145C63.9462,67.0053 67.0424,62.9008 63.5676,130.9877C67.0424,54.4048 65.5302,51.5239 95.8482,53.2697C59.9858,47.2037 55.9536,46.1236 50.2949,99.4531C47.9138,46.1236 46.1562,46.1968 -5.3335,1.0459L35.3139,58.3657C45.5126,51.1646 47.1689,50.9488 10.1733,102.9179C56.3856,50.9488 60.7059,53.1802 14.0958,12.1834C60.7059,63.5494 56.8177,67.0054 95.3288,42.0586L43.1849,-16.4279C43.0962,-16.5274 43.0004,-16.5347 42.8976,-16.4498L12.3718,8.7848C12.269,8.8697 12.2824,8.9281 12.4119,8.9599L103.4792,31.3193C103.6823,31.3692 103.6794,31.3886 103.4706,31.3775L41.4005,28.0806C41.2302,28.0715 41.2301,28.0734 41.4002,28.0862L92.1622,31.9145Z" style="paint-order: stroke;" stroke="#1d1d1b" stroke-width="0.24" stroke-linejoin="round" stroke-linecap="round"></path>
    </g>
    <g transform="matrix(-0.3747153734549309 0.9271398971549718 0.9271398971549718 0.3747153734549309 -13.569190392224115 -42.665389223507006)" data-zeichen="N">
      <path d="M109.6733,63.8394L104.6038,36.0149C104.5867,35.9212 104.5326,35.8882 104.4415,35.9157L48.2814,52.8731C52.8212,61.1274 52.9657,67.0317 50.8964,22.3048L81.04,78.4894C81.1153,78.6299 81.1432,78.621 81.1237,78.4628L75.3139,31.3983C75.3015,31.298 75.2712,31.2035 75.2229,31.1148L60.8856,4.7674C60.8373,4.6787 60.8507,4.6681 60.9258,4.7356L94.9328,35.3393C95.0123,35.4108 95.0764,35.4942 95.1252,35.5893L109.6337,63.8528C109.6772,63.9375 109.6904,63.9331 109.6733,63.8394Z" style="paint-order: stroke;" stroke="#1d1d1b" stroke-width="0.24" stroke-linejoin="round" stroke-linecap="round"></path>
    </g>
    <g transform="matrix(0.9138581029323353 -0.4060337026712355 0.4060337026712355 0.9138581029323353 -71.85737374417076 -57.96088247885925)" data-zeichen="N">
      <path d="M48.3716,35.4874L105.9307,-38.2185C106.1243,-38.4664 106.1497,-38.4503 106.0068,-38.17L49.6376,72.4039C46.4452,43.5604 48.4359,46.878 46.203,77.3748L31.6818,4.6841C31.6331,4.4406 31.7319,4.3029 31.9782,4.2711L111.4849,-6.0007C111.6874,-6.0268 111.7672,-5.9401 111.7244,-5.7405L98.9532,53.8349C64.5958,61.5928 61.7872,56.4795 91.2592,-28.9507L48.3478,35.4703C48.2041,35.6861 48.212,35.6918 48.3716,35.4874Z" style="paint-order: stroke;" stroke="#1d1d1b" stroke-width="0.24" stroke-linejoin="round" stroke-linecap="round"></path>
    </g>
  </g>
  <g data-rolle="akzent" style="">
    <g transform="matrix(0.9520021333356836 -0.306091388517069 0.306091388517069 0.9520021333356836 -152.83797620135363 -34.61869917849139)" data-zeichen="E">
      <path d="M5.8973,29.2222L75.7957,46.2489C75.9177,46.2786 76.0408,46.2844 76.165,46.2661L113.0568,40.8348C113.181,40.8165 113.1947,40.8474 113.0979,40.9274L50.7015,92.4914C50.5015,92.6567 50.3267,92.6333 50.1772,92.4213L5.754,29.4326C5.6147,29.2351 5.6625,29.165 5.8973,29.2222Z" style="paint-order: stroke;" stroke="#1d1d1b" stroke-width="0.24" stroke-linejoin="round" stroke-linecap="round"></path>
    </g>
  </g>
  <g data-rolle="akzent" style="">
    <g transform="matrix(0.8133626659492362 0.5817569712860785 0.5817569712860785 -0.8133626659492362 -185.6206954291198 105.27888723536432)" data-zeichen="E">
      <path d="M35.2448,13.0416L111.8037,90.5759C111.9145,90.6882 111.9401,90.6713 111.8804,90.5253L94.1677,47.1535C94.108,47.0075 94.0133,46.8897 93.8834,46.8002L-4.8631,-21.2889C-5.008,-21.3888 -5.0135,-21.3815 -4.8797,-21.2672L34.8586,12.6823C34.9924,12.7966 35.1211,12.9164 35.2448,13.0416Z" style="paint-order: stroke;" stroke="#1d1d1b" stroke-width="0.24" stroke-linejoin="round" stroke-linecap="round"></path>
    </g>
  </g>
<path class="glyph-merged" d="M107.09169,8.80929c-13.45129,1.16851 -25.99908,2.05416 -37.39832,2.72226l-4.50945,9.51353l13.23633,-2.47412c8.42622,-1.57505 9.24629,0.25618 2.46005,5.49354l-22.42909,17.31022c-1.42729,1.10155 -2.52687,1.37941 -3.29874,0.8336l-3.38456,7.14036c-3.3874,7.14648 -8.95933,9.94769 -16.71578,8.40363l-13.77218,-2.74157c-0.19867,3.7023 -4.61145,7.71212 -13.23832,12.02944l-16.24583,8.13028l-1.23171,3.67343c-1.06431,3.17405 -2.79594,5.92857 -5.19498,8.26354l-13.76795,13.40061c-4.50245,4.38226 -4.90344,4.03446 -1.2032,-1.04338l15.58297,-21.38413l-35.80681,17.91965c-22.0838,11.05189 -22.67645,9.99958 -1.7781,-3.157l49.56626,-31.20436l0.18559,-0.25468c0.94623,-1.29848 1.9564,-2.43321 3.03052,-3.40417c-0.7736,1.03956 -1.54418,2.0696 -2.31045,3.0887l11.60281,-7.30453c-3.49999,0.37443 -6.59744,1.77971 -9.29237,4.21584c3.06004,-4.11204 6.16742,-8.37294 9.24283,-12.69422c-1.25032,-0.49887 -2.60854,-0.98987 -4.07466,-1.47299l-22.79032,-7.50991l37.9327,-7.09034c2.88612,-4.35047 5.64174,-8.65206 8.18676,-12.81542l-0.66549,-3.15394c-4.26132,0.10241 -8.06181,0.16613 -11.35949,0.20233c1.36007,0.0303 2.81774,0.06533 4.37499,0.10562c-11.92806,3.89275 -12.32417,2.85515 -8.72375,-0.07148c-0.41675,0.00187 -0.82201,0.00325 -1.21565,0.00418c0.04699,-0.04787 0.09388,-0.09583 0.14067,-0.14387c0.39457,0.0064 0.8019,0.01334 1.22209,0.02083c1.59922,-1.28444 3.92368,-2.91297 6.36803,-4.64129l8.24038,0.00848l-1.1141,-5.28c-2.08566,1.69226 -4.66667,3.53241 -7.12628,5.27152l-3.60159,-0.00371c-1.20028,1.58543 -2.54798,3.14519 -3.98853,4.62417c-13.32971,-0.21637 -12.09871,0.17213 -0.14067,0.14387c-4.60831,4.69481 -10.14096,8.55166 -14.8334,9.7891c-6.88095,1.03106 -12.30911,1.63994 -16.66769,1.86472l-2.45815,1.86845c-2.41694,1.83713 -4.01632,3.81268 -4.79815,5.92665l-18.13994,-5.9775c-15.62251,-5.14795 -15.40821,-9.51956 0.64291,-13.11482l0.79049,-0.17706c-1.8377,-2.27142 -4.08947,-4.82493 -7.23638,-7.6127c-2.19914,-0.04053 -4.39633,-0.14944 -6.59158,-0.32671l-16.01051,-1.29288c-5.58856,-0.45125 -5.69624,-1.47744 -0.32291,-3.07852l11.70152,-3.48668c-7.92217,-4.85455 -18.96253,-10.15452 -34.83962,-15.72905l69.7947,-2.72369c1.53951,-1.41459 3.16307,-2.91012 4.84692,-4.45701l-14.80278,-3.84161c-8.67947,-2.25255 -8.54047,-3.17085 0.41688,-2.75507l20.55996,0.9544c3.81827,-3.46442 7.78282,-7.00339 11.66423,-10.3312l-27.5776,6.17597c12.40593,-4.18671 22.58045,-7.34596 30.97279,-9.6975l-1.74037,-45.03281c-0.1404,-3.63147 1.29853,-4.4351 4.31684,-2.41099l7.11454,4.77133c3.01831,2.02411 4.03361,4.78484 3.04599,8.28224l-9.04081,32.0156c2.45072,-1.9627 4.80178,-3.7538 6.98594,-5.28954l4.68091,-13.36543c1.21357,-3.46515 3.36959,-4.21287 6.46802,-2.24328l13.89758,8.83442c5.65137,-9.63371 12.2633,-20.93193 19.96292,-34.16571l-5.69036,38.78737c3.1554,-2.19109 6.53462,-4.55007 10.15086,-7.08656c-4.32402,3.13136 -7.69918,6.0439 -10.39481,8.74938l-0.88765,6.05052c3.6453,0.34516 9.17056,-0.46775 19.81022,-4.02077l-9.13017,3.40097c4.88597,-1.47696 10.09516,-3.04648 15.64465,-4.71418l0.67455,21.47885c3.87361,0.10956 7.9145,0.31016 12.13948,0.6019c1.04693,-0.803 1.53982,-0.76791 1.47865,0.10527c5.28004,0.38709 10.84482,0.9137 16.72614,1.58001c-6.96121,1.13172 -13.06214,2.1922 -18.40641,3.19065c-0.19308,0.42716 -0.40276,0.87941 -0.62902,1.35676l-2.26482,4.77805l4.62808,-0.68904c14.76041,-2.19758 14.77028,-2.13367 0.02939,0.19167l-4.77905,0.75387l-4.81837,10.16525l5.53607,0.3884l-5.85972,0.2944l-0.81766,1.725c8.49971,0.88842 18.25364,1.87811 29.46145,3.03632l-30.54406,-0.75237l-4.56196,9.62431c1.63344,0.91601 3.30129,1.8519 5.00425,2.80804l-5.5788,-1.59592l-0.80915,1.70705zM-11.79288,-20.35132c0.99445,-0.4893 1.93818,-0.92221 2.82591,-1.30105l-0.61109,-0.15859l-5.01541,1.86823c0.95629,-0.13824 1.88981,-0.27446 2.80059,-0.40859zM50.90983,-13.94179l-3.51038,0.52263l0.429,0.49502l2.6974,-0.4255c-0.51627,0.98077 -0.4347,1.92203 -0.19698,2.86302l16.44132,1.15351c2.07496,-3.26098 3.8385,-5.79077 5.11415,-7.38573l-21.35849,3.3692c0.10302,-0.19571 0.22984,-0.39298 0.38398,-0.59215l21.29499,-3.17045c1.56236,-1.87969 2.25706,-2.11698 1.68454,-0.2508l2.02345,-0.30126l5.58496,-6.29586c-21.27206,4.22207 -28.48123,7.29625 -30.58794,10.01837zM43.09962,-12.77898l-0.09023,0.61503l1.03278,-0.16292c0.06339,-0.20869 0.12439,-0.41527 0.18297,-0.61969zM73.777,-17.0174c-0.2721,0.79717 -0.72813,1.89798 -1.38959,3.32724l3.20567,-3.61372zM24.01979,-2.63151c-0.80947,-0.21653 -1.60547,-0.42987 -2.38792,-0.64002c0.02315,-0.56565 -0.00523,-1.11026 -0.08922,-1.62971l-5.01307,0.25186c1.6308,0.44312 3.33187,0.90234 5.10229,1.37784c-0.03019,0.73768 -0.148,1.51115 -0.3444,2.31126c1.15626,-0.56595 2.1608,-1.13796 3.03107,-1.71081c0.21991,-0.02848 0.43386,-0.0547 0.64195,-0.07871l-0.17735,-0.23597c-0.15044,0.1049 -0.30527,0.20981 -0.4646,0.31468c-0.09838,0.01274 -0.19796,0.02593 -0.29874,0.03957zM27.16609,-4.99756c-0.47298,0.49743 -1.03153,0.99974 -1.68754,1.50335l0.14215,0.67367c7.34893,-0.72334 6.55899,1.61919 2.9536,4.87907l5.01683,6.6751l0.61303,0.00063c1.31604,-2.31427 2.5427,-4.56195 3.66392,-6.72514c-0.6497,-0.35635 -1.38105,-0.9789 -2.19404,-1.86763l-4.18435,-4.57399l-3.43286,-0.54313zM-7.32636,-13.06493l-3.15055,-0.30983c0.3108,0.4071 1.36654,0.94783 3.14109,1.62735c0.46126,-0.09037 0.91829,-0.17972 1.37111,-0.26806c-0.43064,-0.33272 -0.88444,-0.68234 -1.36165,-1.04946zM-0.73057,-7.78736c1.71436,-0.03591 3.29772,-0.09188 4.7578,-0.16071c0.11679,-0.02823 0.2336,-0.05652 0.35042,-0.08486c-2.79067,-0.80464 -5.20341,-1.52835 -7.22746,-2.17328c-0.13941,0.09861 -0.27878,0.19757 -0.4181,0.29689c1.11537,0.88628 1.95791,1.58541 2.53734,2.12196zM14.41376,-5.22606c0.62508,-0.06639 1.23286,-0.13295 1.82347,-0.19967c-0.50468,-0.112 -0.99933,-0.27054 -1.48396,-0.47562l-2.35819,-0.99799c-0.83526,-0.35345 -0.94324,-0.55529 -0.32399,-0.60543l-0.64299,-0.10173c-0.78807,0.30229 -1.53568,0.63063 -2.22268,0.94205c1.63865,0.45777 3.37525,0.93714 5.20834,1.43839zM-27.44584,-10.3937c-0.17516,0.08432 -0.35184,0.16926 -0.53005,0.25484c0.01129,0.04297 0.02152,0.08702 0.03068,0.13217c0.16687,-0.13003 0.33334,-0.25904 0.49938,-0.38702zM-80.20761,-16.11791c15.37309,2.87533 28.50916,4.81909 39.70132,6.10385c0.2839,-0.59666 0.8296,-1.49156 1.66728,-2.72225l1.80271,1.24633c-0.81295,0.67898 -1.50863,1.23069 -2.0703,1.6343c0.78717,0.08778 1.56451,0.17226 2.33211,0.25354l1.51235,-0.45063c0.01,-0.06179 0.02249,-0.12335 0.03749,-0.18469l0.17539,0.12126l3.17837,-0.94706c1.5411,-0.4592 2.63518,-0.46144 3.28223,-0.00671c0.89362,-0.45415 1.77416,-0.90001 2.64179,-1.33769c-1.84401,-0.35878 -3.7761,-0.71044 -5.79325,-1.04738c-2.04165,0.99398 -3.20316,2.0665 -3.48454,3.21757l-1.81164,-1.25251c0.80623,-0.67337 1.72781,-1.4719 2.7484,-2.37526c-2.84927,-0.44159 -5.85475,-0.84987 -9.00877,-1.20551c-2.69903,-0.01451 -5.4519,-0.0208 -8.2555,-0.01846c1.2468,-0.15036 2.47618,-0.29976 3.68814,-0.44815c-9.61032,-0.88026 -20.45515,-1.23414 -32.34357,-0.58054zM116.95917,-8.76052l-2.76991,1.60756c-1.17516,0.68202 -2.44039,0.97552 -3.79582,0.88041l-25.68647,-1.80214l31.97945,-1.60668c1.35695,-0.06815 1.4479,0.23883 0.27274,0.92084zM57.37933,-6.70171l-3.98473,0.2002l0.06314,0.07286c0.12262,0.14148 0.24526,0.27877 0.36793,0.41187l10.03041,0.54279c0.17201,0.00931 0.34071,0.01836 0.50609,0.02717c0.10887,-0.18007 0.21717,-0.35864 0.3249,-0.53569c-0.25385,-0.02533 -0.51596,-0.05129 -0.78631,-0.07788zM-26.97781,38.27185c0.37051,1.64437 1.14633,3.35735 2.32744,5.13894l9.90152,14.93527c4.20055,6.33612 2.80359,8.01521 -4.19091,5.03718l-28.33774,-12.0652c-10.06689,-4.28612 -9.72281,-7.43443 1.0323,-9.44475zM-16.44377,36.30284l-10.53404,1.96901c-0.42097,-1.86829 -0.31873,-3.648 0.30671,-5.33914zM-24.36583,-8.93833c0.03894,0.15098 0.08293,0.30343 0.13199,0.45738c0.14318,0.01027 0.28593,0.02041 0.42825,0.03043c2.88049,-0.58718 5.63929,-1.14474 8.28025,-1.67373c-1.45883,-0.35464 -3.0118,-0.71811 -4.65592,-1.08283c-1.38145,0.75176 -2.77673,1.50845 -4.18457,2.26875c-0.10621,-0.41177 -0.17492,-0.81255 -0.20678,-1.20278c-1.07051,0.38737 -2.18063,0.78029 -3.33121,1.1784c-0.0054,0.06438 -0.01205,0.13003 -0.01994,0.19694c0.96026,0.07926 1.90254,0.15311 2.82712,0.22182c0.24397,-0.13156 0.48758,-0.26303 0.73081,-0.39438zM63.38616,-4.10537l-7.66312,-0.18876c2.54399,1.86013 5.09836,1.92305 7.66312,0.18876zM86.09838,-57.45025c-7.36263,2.94327 -13.33154,5.15448 -18.22056,6.78712zM-135.68491,52.35316l45.59013,28.19354c9.16038,5.66489 8.55593,7.04147 -1.81356,4.1297l-30.2148,-8.48449c-6.52109,-1.83115 -10.79778,-5.97739 -12.82993,-12.43873l-6.79567,-21.60774c-0.69498,-2.20973 -0.65506,-2.2231 0.11978,-0.0401l1.8265,5.14577c0.77484,2.183 2.14733,3.88366 4.11754,5.10204z" fill="none" stroke="#1d1d1b" stroke-width="2.883" stroke-linejoin="round" style="display: none;"></path></g>
</svg>