<svg xmlns="http://www.w3.org/2000/svg" width="72.2mm" height="532.465mm" viewBox="0 0 204.6614 1509.3509" fill="#1d1d1b">
<g transform="translate(22.5367 -43.3046) scale(2.4855) translate(32.3091 46.0514)">
  <g data-rolle="struktur" style="display: none;">
    <g transform="matrix(1 0 0 1 -55.81448173522949 -57.51894950866699)" data-zeichen="J">
      <path d="M58.0056,32.1807L67.1614,36.9968C67.7865,37.3256 67.9864,37.8247 67.761,38.4941L59.0805,64.2749C66.4662,78.2294 60.6184,82.7449 44.9649,86.9749C49.473,82.1894 39.3659,83.7339 39.1029,83.8588L51.8779,71.2179C47.3128,76.4287 38.7606,73.4376 49.6901,71.8632C56.8889,76.8613 56.6803,81.3472 54.8854,61.6316L65.8887,41.3653C66.2342,40.7289 66.1424,40.1635 65.6132,39.6692L57.8421,32.4107C57.326,31.9286 57.3805,31.8519 58.0056,32.1807Z" style=""></path>
    </g>
    <g transform="matrix(-0.22071761035298681 -0.9753377550777306 -0.9753377550777306 0.22071761035298681 64.83165618627807 15.468034356084976)" data-zeichen="A">
      <path d="M46.4916,28.9202L49.7373,25.5958C49.9589,25.3689 50.0322,25.4095 49.9571,25.7177L46.3838,40.3885C46.2484,40.9444 46.2446,40.9435 46.3725,40.3858L48.4371,31.3803C46.3039,41.6142 38.9172,42.0624 50.6806,52.8516L60.8133,67.03C61.3948,67.8437 61.2632,67.9828 60.4185,67.4473L48.0471,59.6039C47.2024,59.0684 47.1063,59.1797 47.7587,59.9377L61.0543,75.3859C61.182,75.5342 61.216,75.7016 61.1564,75.8881L60.2838,78.6192C60.2242,78.8057 60.1891,78.8012 60.1784,78.6057L58.1535,41.4959C58.1037,40.5832 57.7411,39.819 57.0656,39.2033L46.5108,29.5811C46.2764,29.3674 46.27,29.1471 46.4916,28.9202Z" style=""></path>
    </g>
    <g transform="matrix(-0.9633421790410386 -0.2682756904388909 -0.2682756904388909 0.9633421790410386 86.52813438868955 -49.99062848171769)" data-zeichen="A">
      <path d="M62.6525,46.9945C64.2326,44.6376 72.3949,34.1861 58.4946,32.7489L67.1941,44.1649C67.7329,44.8719 68.004,44.781 68.0073,43.8921L68.0724,26.5717C68.0744,26.0315 67.9936,26.0188 67.8299,26.5336L65.4329,34.074C65.2692,34.5888 65.0799,35.094 64.865,35.5896L48.153,74.1223C47.9039,74.6968 48.0887,75.0321 48.7074,75.1284L57.7697,76.5382C58.3884,76.6345 58.4436,76.4999 57.9351,76.1344L47.8575,68.8906C47.434,68.5861 47.2962,68.1838 47.4443,67.6836L49.6126,60.3575C49.7607,59.8573 50.0053,59.4099 50.3465,59.0154L56.2001,52.2467C56.4847,51.9176 56.7977,51.6183 57.1392,51.3486L62.6525,46.9945Z" style=""></path>
    </g>
    <g transform="matrix(0.1975381487241265 -0.9802952003343915 -0.9802952003343915 -0.1975381487241265 49.46166275811179 33.69653954641335)" data-zeichen="A">
      <path d="M52.4355,55.812L51.2682,59.5162C51.1885,59.7691 51.2806,59.9087 51.5445,59.9349L59.5521,60.7291C59.8707,60.7607 60.0621,60.6196 60.1262,60.3059L61.0652,55.711C61.1293,55.3973 61.0013,55.2417 60.6811,55.2442L42.3858,55.3905C41.756,55.3955 41.756,55.399 42.3858,55.4009L52.1573,55.4314C52.4224,55.4322 52.5152,55.5591 52.4355,55.812Z" style=""></path>
    </g>
  </g>
<path class="glyph-merged" d="M3.26602,6.75595c7.3857,13.9545 1.5379,18.47 -14.1156,22.7c4.5081,-4.7855 -5.599,-3.241 -5.862,-3.1161l11.47568,-11.35522c6.28943,4.69892 6.02449,7.99539 4.30682,-10.87198l11.0033,-20.2663c0.3455,-0.6364 0.2537,-1.2018 -0.2755,-1.6961l-0.55901,-0.52214c-1.41667,-0.45601 -3.1124,-1.30266 -5.23606,-2.65514l-0.46821,2.23123c-0.12931,0.6164 -0.13274,0.61571 -0.0102,-0.00205l0.44605,-2.2498c-0.59056,-0.37676 -1.21413,-0.79252 -1.87389,-1.24974l-13.89115,-5.83947l12.84853,-2.17961l0.63825,-6.36194c0.03196,-0.31856 0.20809,-0.47832 0.52827,-0.47919l4.68985,-0.01283c0.32018,-0.00087 0.44743,0.15535 0.38173,0.46874l-1.1591,5.52362l4.76068,-0.8076l2.92812,-10.6695c0.143,-0.52093 0.22424,-0.51149 0.24383,0.02835l0.28623,7.90704c0.01306,0.3598 0.03821,0.71855 0.07547,1.07623c1.45479,-0.77797 3.67143,-1.05174 6.96398,-0.49138l-5.33044,4.03566l7.37734,5.14558l-7.31295,3.63653l0.00369,0.02664l6.58915,-3.166c-2.90764,1.46936 -4.75172,3.19404 -6.40453,4.499l0.37527,2.70956l-1.4154,-1.93826c-1.13191,0.76952 -2.26126,1.26071 -3.69068,1.2394zM-3.93658,13.69895c-0.27568,0.31467 -0.56589,0.59943 -0.86548,0.8564zM-6.12438,14.34425c0.28998,0.20133 0.56794,0.40184 0.83427,0.59996c-4.62963,3.42321 -10.75068,0.82851 -0.83427,-0.59996zM-5.29012,14.94421c0.16484,-0.12188 0.32779,-0.2514 0.48805,-0.38886l-0.43383,0.42928c-0.01802,-0.01346 -0.03609,-0.02694 -0.05422,-0.04042zM25.71434,-23.36663l-2.27535,-1.58703l5.28281,-2.627c0.28402,-0.14127 0.3398,-0.07874 0.16741,0.18747l-2.52603,3.89941c-0.17239,0.26622 -0.38867,0.3086 -0.64884,0.12715zM22.71887,-24.45649c0.26291,-0.13286 0.53452,-0.26364 0.81547,-0.39182zM-11.79375,-28.13686l-1.75605,0.29789l-0.73787,-0.73464c-0.70873,-0.70567 -0.60211,-0.86473 0.31987,-0.47717zM-3.90712,-18.23849c0.70873,0.70567 0.62139,0.82397 -0.26191,0.35496l-16.48159,-8.75087l7.10082,-1.20458zM-20.65062,-26.63439l-4.46726,0.75782c-0.19304,0.03271 -0.20518,-0.00053 -0.03643,-0.09982l2.47115,-1.45388c0.16875,-0.09929 0.33952,-0.10308 0.51235,-0.01126zM20.25511,8.49624c0.08584,0.62027 -0.18213,0.8937 -0.80399,0.82049l-9.10831,-1.07307c-0.62185,-0.07321 -0.63892,-0.21769 -0.05101,-0.43337l9.39113,-3.4454zM19.68293,4.36488l-2.99332,-21.61281l1.01834,1.39452c0.25663,0.35143 0.47786,0.72373 0.66374,1.11712l3.82314,8.09095c0.22286,0.47157 0.33846,0.96819 0.34694,1.48979l0.1234,7.63924c0.00848,0.5216 -0.2322,0.87218 -0.72186,1.0519z" fill="none" stroke="#1d1d1b" stroke-width="2.025" stroke-linejoin="round" style=""></path></g>
<g transform="translate(20.7193 85.4908) scale(2.4857) translate(25.3599 29.8546)">
  <g data-rolle="struktur" style="display: none;">
    <g transform="matrix(1 0 0 1 -55.77340316772461 -57.52729606628418)" data-zeichen="I">
      <path d="M58.2799,31.3008L57.7005,82.3218C57.696,82.7195 57.4997,82.8748 57.1117,82.7877L51.4282,81.5123C51.0402,81.4252 50.8478,81.1829 50.8509,80.7852L51.2052,35.6931C51.2088,35.2384 51.4018,34.8879 51.7841,34.6417L57.9107,30.6969C57.9422,30.6766 57.9671,30.6828 57.9854,30.7155L58.2531,31.1954C58.2714,31.2281 58.2803,31.2633 58.2799,31.3008Z" style=""></path>
    </g>
    <g transform="matrix(0.9686021834685827 0.24861578827559197 0.24861578827559197 -0.9686021834685827 -52.66830546829344 44.02843594482001)" data-zeichen="S">
      <path d="M49.8315,60.3496C48.8969,53.2065 57.1235,47.2389 63.705,49.8537C62.434,49.2465 78.8513,49.2256 79.9154,50.67L58.8746,43.0454C66.8265,45.2143 61.0814,43.0081 46.5896,40.1277C48.8246,44.0619 53.6284,52.367 40.5986,55.6967C42.5599,64.0795 44.0332,67.5149 47.9755,72.3162L64.1689,67.5576C51.849,63.2875 46.221,61.4785 59.9541,60.5408L49.8315,60.3496Z" style=""></path>
    </g>
    <g transform="matrix(0.1268091252866283 -0.9919271373160633 -0.9919271373160633 -0.1268091252866283 42.131321884702245 99.07844852177548)" data-zeichen="S">
      <path d="M48.5097,44.0445L56.2189,50.816C61.4623,51.0468 68.1259,49.4986 61.0363,54.4049C64.0541,63.0722 59.5051,66.7322 52.1338,70.8894C49.5815,66.456 43.4183,60.5945 38.4492,66.3234L37.1329,64.5876C43.6762,70.2723 61.261,74.4364 58.6806,67.6519C64.9184,71.6405 74.0991,65.7436 75.1112,53.8309C70.4624,50.5428 56.1583,44.6345 61.6535,46.4246L48.725,43.6176C48.104,43.4828 48.0322,43.6251 48.5097,44.0445Z" style=""></path>
    </g>
  </g>
<path class="glyph-merged" d="M2.5065,-26.2265l-0.26321,23.17819c3.01311,-5.34152 5.29858,-7.93797 9.53654,-11.04142l14.5019,8.63513c-12.9947,1.07311 -18.89574,1.4261 -5.82695,5.74862l-9.85231,-2.33144c-2.68114,6.68647 3.80352,14.51196 10.82846,13.61552c-1.15015,0.22648 9.66627,3.10526 14.12958,3.41112l-20.50097,1.9825c8.24145,-0.12383 2.12824,0.58477 -12.62466,-0.22815c2.97951,-3.08577 9.17174,-9.40242 -0.23966,-15.55865l-0.26811,23.60959c-0.0045,0.3977 -0.2008,0.553 -0.5888,0.4659l-0.08757,-0.01965c1.32487,3.83154 2.4615,7.52731 2.75454,8.00977l1.03935,11.96516c0.05496,0.63308 -0.09529,0.68626 -0.45076,0.15943l-5.73924,-8.50565c0.43597,-5.23034 2.81668,-11.64382 -2.94904,-5.23362c-8.21465,-4.09253 -12.42195,-0.04438 -17.48034,6.74025c3.96451,3.01078 8.83688,9.58494 3.27825,13.80882c-3.98475,-8.01646 -5.13943,-23.04518 0.76331,-19.89223c-2.87685,-6.08312 2.65406,-13.542 12.65341,-14.47088l0.31159,-39.65601c0.0036,-0.4547 0.1966,-0.8052 0.5789,-1.0514l6.1266,-3.9448c0.0315,-0.0203 0.0564,-0.0141 0.0747,0.0186l0.2677,0.4799c0.0183,0.0327 0.0272,0.0679 0.0268,0.1054zM35.5605,14.98922l1.77479,-0.17163c-0.2332,0.19036 -0.87486,0.2333 -1.77479,0.17163zM-18.29651,52.18491c0.33738,0.67873 0.69504,1.3072 1.07043,1.8701l-1.55487,-1.52579c0.16959,-0.1129 0.33099,-0.22771 0.48444,-0.34431zM4.00526,33.25052l-0.10553,-1.21492c0.20433,1.07543 0.22479,1.41126 0.10553,1.21492z" fill="none" stroke="#1d1d1b" stroke-width="2.025" stroke-linejoin="round" style=""></path></g>
<g transform="translate(-32.3204 228.8174) scale(2.4855) translate(63.9391 41.2517)">
  <g data-rolle="struktur" style="display: none;">
    <g transform="matrix(1 0 0 1 -55.773345947265625 -57.52725601196289)" data-zeichen="N">
      <path d="M51.0786,73.0742L46.5075,38.2498C46.3706,37.2069 45.8032,36.5195 44.8051,36.1876L30.1859,31.3263C29.1878,30.9944 29.1078,31.1462 29.9459,31.7818L61.1469,55.4458C63.5502,63.5034 61.0603,68.2689 81.1981,69.0313L86.436,81.2132C68.2308,67.0317 72.9861,53.5578 55.7427,50.5712L70.9917,31.7793C71.4401,31.2267 71.3542,31.125 70.7341,31.4741L61.6508,36.5877C61.0307,36.9368 60.905,37.4157 61.2737,38.0244L85.2431,77.5932C85.6906,78.3319 85.5981,78.9953 84.9657,79.5835L75.7033,88.1994C75.0709,88.7876 74.6007,88.6783 74.2927,87.8714L61.5084,54.3807C48.8607,51.7669 54.4884,49.8005 52.4369,41.8234L57.4829,48.957C43.3169,47.1585 58.3292,45.4056 27.7227,64.9615L26.301,88.5144C26.2461,89.4235 26.5786,89.599 27.2984,89.0411L38.0064,80.7406C38.616,80.2681 39.2695,79.8672 39.967,79.5379L50.183,74.7152C50.8805,74.3859 51.179,73.8389 51.0786,73.0742Z" style=""></path>
    </g>
    <g transform="matrix(-0.9976172132159853 -0.06899199877646142 -0.06899199877646142 0.9976172132159853 77.02953439736068 -61.774097382816436)" data-zeichen="I">
      <path d="M53.5813,48.9422L59.983,45.8848C60.4201,45.6761 60.6364,45.8139 60.6319,46.2982L60.3939,71.9046C60.3882,72.5247 60.0773,72.7989 59.4613,72.7271L50.4383,71.676C49.8223,71.6042 49.5612,71.2618 49.6549,70.6487L52.8159,49.9735C52.8891,49.4947 53.1442,49.1509 53.5813,48.9422Z" style=""></path>
    </g>
    <g transform="matrix(-0.2902539998857924 -0.95694964107329 0.95694964107329 -0.2902539998857924 -24.042452224541652 78.35887291739314)" data-zeichen="I">
      <path d="M53.9004,48.0755L56.2702,43.3964C56.432,43.0769 56.5396,43.0942 56.593,43.4483L60.1878,67.2786C60.2605,67.7607 60.1075,68.1551 59.7286,68.4619L54.179,72.9552C53.8001,73.262 53.6112,73.1716 53.6121,72.6841L53.6567,49.0918C53.6574,48.7337 53.7386,48.395 53.9004,48.0755Z" style=""></path>
    </g>
    <g transform="matrix(0.8577412809470818 0.514081603404809 -0.514081603404809 0.8577412809470818 -53.3354448181575 -104.26064054503126)" data-zeichen="C">
      <path d="M40.0881,69.0984C43.962,57.4193 52.0085,46.5568 63.5729,47.695C66.9322,50.1468 53.7892,51.2365 78.86,52.8929L59.1583,45.9158C72.5485,46.1858 72.2777,48.3792 52.0067,47.3983C47.7063,44.8899 43.7482,54.832 41.0964,69.4446L54.5779,66.8109C54.7625,66.7748 54.7841,66.8188 54.6426,66.9427L52.5705,68.7584C52.429,68.8823 52.2643,68.9455 52.0762,68.9478L40.0881,69.0984Z" style=""></path>
    </g>
    <g transform="matrix(-0.7612461926484304 0.6484629782634231 0.6484629782634231 0.7612461926484304 16.777572992143902 -75.572801372796)" data-zeichen="E">
      <path d="M43.7213,54.2854L58.912,55.4821C59.1373,55.4998 59.2212,55.618 59.1637,55.8365L58.3003,59.1215C58.2576,59.2838 58.1525,59.3678 57.9848,59.3735L55.5289,59.4574C55.3612,59.4631 55.1999,59.4339 55.0449,59.3697L43.6358,54.6417C42.9148,54.3429 42.9433,54.2241 43.7213,54.2854Z" style=""></path>
    </g>
    <g transform="matrix(-0.3589695404981662 0.933349274920453 0.933349274920453 0.3589695404981662 -73.01322724459115 -63.157024921754186)" data-zeichen="E">
      <path d="M43.4998,77.7437L48.7292,60.3148C48.8547,59.8966 48.8557,59.8969 48.7322,60.3158L46.9243,66.4504C46.8008,66.8693 46.7569,66.8611 46.7925,66.4259L47.9019,52.8532C47.9739,51.9722 48.0015,51.0898 47.9848,50.206L47.6322,31.6217C47.623,31.1353 47.4851,31.0956 47.2185,31.5025L43.3138,37.4627C43.0472,37.8696 43.1479,38.0068 43.6159,37.8741L52.0279,35.4894C52.5924,35.3294 52.7946,35.5316 52.6345,36.096L40.9524,77.287C40.5043,78.8669 41.1011,79.6353 42.7428,79.5922L68.0747,78.927C68.8591,78.9064 69.618,79.0355 70.3515,79.3144L81.0947,83.3994C81.8282,83.6783 81.8579,83.6168 81.1838,83.2151L57.5087,69.1039C56.6802,68.6101 55.8925,68.6682 55.1455,69.2783L44.2046,78.2143C43.4576,78.8244 43.2227,78.6675 43.4998,77.7437Z" style=""></path>
    </g>
    <g transform="matrix(-0.6460262405715801 -0.7633152012720242 -0.7633152012720242 0.6460262405715801 99.14814114367043 19.1920476624825)" data-zeichen="E">
      <path d="M38.3966,55.5959L66.405,54.6941C66.7842,54.6819 67.107,54.8108 67.3735,55.0809L71.2766,59.0371C71.5431,59.3072 71.4868,59.4516 71.1079,59.4705L47.4939,60.6458C46.9046,60.6751 46.3521,60.5463 45.8366,60.2592L38.2853,56.055C37.7698,55.7679 37.8069,55.6149 38.3966,55.5959Z" style=""></path>
    </g>
    <g transform="matrix(-0.982464798939611 0.18644816664303723 -0.18644816664303723 -0.982464798939611 70.25013653995344 56.80301987224589)" data-zeichen="C">
      <path d="M64.856,61.3559C50.8414,64.6561 34.9683,60.7576 44.1598,46.739L20.9513,44.6633C37.38,45.215 21.4163,41.4519 51.8628,43.9183C37.376,61.2714 63.3305,66.7875 46.759,69.7136C67.2583,69.912 56.8604,71.9399 69.5809,65.14L67.0317,66.0524C70.355,63.8641 67.9045,61.9802 79.8041,66.1011L64.856,61.3559Z" style=""></path>
    </g>
  </g>
<path class="glyph-merged" d="M-5.59035,17.18794l-10.216,4.8227c-0.6975,0.3293 -1.351,0.7302 -1.9606,1.2027l-5.5052,4.26746l-0.51136,1.23204c-0.3008,0.72472 -0.45273,1.47939 -0.45572,2.26411l-0.04375,11.49355c-0.00299,0.78473 -0.07106,0.79037 -0.204,0.017l-2.13461,-12.41032l-1.85336,1.43666c-0.7198,0.5579 -1.0523,0.3824 -0.9974,-0.5267l0.78121,-12.94204l-0.46789,-2.72022c-0.14538,-0.84531 0.10503,-1.50383 0.75133,-1.97559l0.35704,-5.91504c1.47419,-0.94193 2.84255,-1.83442 4.11343,-2.67986l-3.56643,-0.27038c-0.00445,-0.02262 -0.10716,-0.06342 -0.3081,-0.12241l-13.06631,-3.83673c-0.0313,-0.00919 -0.06259,-0.01844 -0.09385,-0.02775l20.54701,1.87107c7.76539,-5.3965 10.96526,-8.50431 12.6622,-10.19407l1.35192,10.29941c4.38582,-4.07621 1.66624,-2.88263 11.81502,-4.45137c-0.01014,-0.03448 -0.02037,-0.06901 -0.03069,-0.10361l-2.16014,-1.63833c0.7472,0.18933 1.58422,0.3795 2.52164,0.57323l0.40236,1.05405c1.06077,-0.1678 2.25111,-0.36426 3.59015,-0.59708c-2.29657,-2.01332 -5.28824,-3.49226 -9.75821,-4.26647l1.35075,-1.66458c-1.88006,-0.24775 -3.21806,-0.49086 -4.21039,-0.67347c0.05306,-1.59855 0.26551,-3.64249 -0.44616,-6.40975l4.84558,6.85027l5.97889,-7.36801l5.14002,8.48517l0.71985,-12.03291c0.02892,-0.48346 0.25422,-0.60601 0.67588,-0.36765l6.17551,3.49178c0.42166,0.23836 0.65243,0.59894 0.69242,1.08165l1.41405,17.0664l0.56427,-0.26856c0.44024,-0.2095 0.86207,-0.17756 1.26564,0.09597l5.91066,4.00649c0.40357,0.27354 0.37189,0.48055 -0.09488,0.62118l-7.63462,2.29992l1.93609,3.1961c0.38185,0.01827 0.7724,0.03496 1.17184,0.05009l2.79204,6.4935l0.07223,0.11923l13.04981,-1.28755c-10.19986,1.58307 -7.53405,2.45626 -11.6585,3.69244c0.09327,0.29901 0.08997,0.58456 -0.0099,0.85666l0.99222,2.30762c-0.40501,-0.3155 -0.79866,-0.63064 -1.18144,-0.94533l2.42452,3.05914c0.36646,0.4624 0.27364,0.58956 -0.27854,0.38155l-4.88872,-1.84246l-6.80852,6.3333c-0.6324,0.5882 -1.1026,0.4789 -1.4106,-0.328l-2.87319,-7.52683c-1.38377,0.16211 -2.89219,0.33096 -4.53789,0.50725c1.25692,-2.25727 2.02364,-4.26412 2.41931,-6.05723l-2.17799,-5.70561l-3.98774,1.2013c-0.34289,0.10327 -0.69057,0.12387 -1.04328,0.06178l-5.16551,-0.90965c-0.35271,-0.0621 -0.36738,-0.17009 -0.04403,-0.32397l7.99042,-3.80295c-0.79019,-0.71633 -1.32721,-1.52969 -1.7296,-2.43702c-3.89022,0.29932 -8.23393,1.46378 -12.27816,3.26408l-0.70749,-0.08519l0.92104,7.01685c0.1004,0.7647 -0.1981,1.3117 -0.8956,1.641zM-8.37766,-12.51089l-17.44979,-13.23457c-0.8381,-0.6356 -0.7581,-0.7874 0.24,-0.4555l3.48344,1.15834c-7.00376,-5.57629 0.0543,-2.61212 -1.22146,-5.6264c-0.21442,-0.159 -0.43051,-0.31161 -0.64819,-0.45795c0.35308,0.20353 0.68756,0.39298 1.00359,0.56869l5.95504,7.20788l6.04678,2.01073c0.9981,0.3319 1.5655,1.0193 1.7024,2.0622zM8.0532,2.92624l1.67136,0.12773l2.40126,-2.39542l0.04344,-0.72612c-0.66252,-0.85329 -1.3735,-1.64794 -2.16777,-2.37637c-1.65271,0.70586 -2.68596,1.33956 -3.25437,1.94867zM9.78467,7.46211l0.75486,-0.35927l-1.2149,-0.84589zM7.48803,-16.22159l-1.98767,-3.28126c-0.3687,-0.6087 -0.243,-1.0876 0.3771,-1.4367l9.0833,-5.1136c0.6201,-0.3491 0.706,-0.2474 0.2576,0.3052zM-7.7627,-7.82588l-0.61496,-4.685l3.88451,2.94616c-1.41689,-0.17296 -1.70193,0.17786 -3.26955,1.73885zM-2.89029,-9.29411c-0.01105,0.33282 -0.01519,0.64633 -0.00264,0.94304l-1.60022,-1.21366c0.41622,0.05081 0.9301,0.14681 1.60286,0.27062zM-2.89293,-8.35106l6.10635,4.63128c-5.10873,-1.29447 -6.0183,-2.5494 -6.10635,-4.63128zM-54.47244,-24.38354c1.51508,-1.30379 3.11352,-2.5325 4.76827,-3.64644c-1.24864,1.301 -2.53254,2.70161 -3.84011,4.187zM-26.1974,-34.46457c8.37387,5.25114 9.82706,7.57576 3.22733,3.90631zM-25.65552,-32.11924c-7.41615,-3.79668 -16.34296,-1.09804 -24.04865,4.08926c7.99977,-8.33523 14.5523,-12.58181 16.61043,-8.8395c2.94757,1.96627 5.42199,3.53614 7.43823,4.75024zM-53.54428,-23.84298l1.63983,0.95503l-1.88111,-0.68029c0.08051,-0.0919 0.16094,-0.18348 0.24128,-0.27474zM-40.86798,-18.89668c0.1769,0.06394 0.17281,0.11278 -0.01226,0.14631l-2.71074,0.49217c-0.18507,0.03353 -0.35883,0.00307 -0.52135,-0.09165l-7.79212,-4.5381zM-25.65552,-32.11924c0.56996,0.29179 1.13099,0.62194 1.68186,0.99228c-0.52015,-0.29984 -1.08063,-0.63024 -1.68186,-0.99228zM-27.50364,4.484c0.00483,0.02454 -0.10601,0.02767 -0.33254,0.0094l-6.37471,-0.51473c-0.43531,-0.0351 -0.43523,-0.03614 0.00014,-0.00316zM-40.97191,0.49712l-17.24533,-1.57041c-0.58425,-0.05317 -0.70039,-0.31448 -0.34842,-0.78392l2.68082,-3.57515l12.50626,5.08434c0.78867,0.32056 1.59089,0.6023 2.40667,0.84514zM-60.59765,-7.34832c-0.45068,-0.18319 -0.43823,-0.32615 0.03725,-0.42892l6.96462,-1.50492c0.47548,-0.10277 0.56739,0.04047 0.27554,0.42964l-2.56459,3.42015z" fill="none" stroke="#1d1d1b" stroke-width="2.025" stroke-linejoin="round" style=""></path></g>
<g transform="translate(-12.3258 368.6424) scale(2.4855) translate(44.014 29.5869)">
  <g data-rolle="struktur" style="display: none;">
    <g transform="matrix(1 0 0 1 -56.10154342651367 -57.53116989135742)" data-zeichen="S">
      <path d="M56.4804,80.0691C45.477,75.9252 57.96,84.035 63.3239,72.9219C60.31,77.3647 75.5578,73.7387 51.3567,67.1954C64.0541,64.5483 60.1885,63.3249 69.2642,66.1944C46.9887,56.6274 48.3467,51.5892 44.3025,42.1272C42.0922,38.1216 41.7555,33.7059 65.278,37.9426C62.7583,32.5053 77.1871,41.3339 76.8157,43.1397L65.425,47.5171C65.2065,39.1303 72.5048,30.4276 48.024,30.9819C50.9487,37.6899 53.8267,34.5007 59.1503,42.8356C48.4292,49.4985 60.215,52.0603 69.9945,52.2337C66.2866,57.4917 65.437,55.7556 55.8135,68.5073C70.4624,76.0689 56.7703,74.1453 39.3842,79.1315C48.7885,82.5494 57.9339,76.5683 48.1439,74.1724L30.271,67.6525C29.1641,67.2487 29.1444,67.2962 30.2119,67.795L56.4804,80.0691Z" style=""></path>
    </g>
    <g transform="matrix(-0.7900460785107327 -0.6130474645815063 -0.6130474645815063 0.7900460785107327 67.78751898283502 27.217608677176123)" data-zeichen="O">
      <path d="M55.6828,80.9527C56.8179,77.4731 56.9035,68.2376 47.9499,54.0574C51.2017,47.1587 63.2746,36.9948 71.3843,39.0774C66.852,37.5815 63.7235,32.4319 76.1145,31.0581L56.5311,31.4381C54.0816,32.4692 36.4861,48.3611 46.6811,50.1312C44.5044,72.6489 56.7912,80.4198 59.3504,76.2022C66.5641,82.5854 76.1462,75.1757 75.7632,79.8187L70.1966,78.4058C66.9207,77.455 62.3198,85.7629 66.9427,81.2549L55.6828,80.9527Z" style=""></path>
    </g>
    <g transform="matrix(-0.6286923471375101 -0.7776541214773626 0.7776541214773626 -0.6286923471375101 9.416143377246811 109.85611458230142)" data-zeichen="O">
      <path d="M61.3557,61.8532C66.6826,42.6305 59.9649,32.0613 42.8724,25.8215L49.5853,45.9564C55.108,37.7838 62.2623,56.2681 53.8749,56.7429C60.0576,68.1999 60.0902,80.3778 35.8681,73.4545L48.3852,83.779C56.9194,82.2392 64.3635,66.0575 65.4384,59.2099L61.3557,61.8532Z" style=""></path>
    </g>
  </g>
<path class="glyph-merged" d="M-4.74484,9.66423c3.07045,-0.64011 5.17237,-1.19698 6.72296,-1.63284c-0.69641,0.88536 -1.44874,1.86165 -2.26404,2.94195c0,0 0,0 0,0c16.66518,5.35405 6.15333,8.20118 7.16424,5.08687c-0.72428,1.32442 -1.55519,2.3434 -2.42816,3.12336c0.73218,2.83558 1.60441,8.21464 1.46691,12.63395c3.05494,-3.25941 7.35299,-6.09915 13.02561,-8.56154l-4.62234,-1.51311c6.00085,-3.46913 23.26466,-7.85351 29.82748,-2.18492l-0.15948,16.22491c-9.84432,-23.18904 -19.29402,-15.50754 -24.31658,-3.49661c-5.64232,-6.22399 -15.51886,10.96052 -5.69133,10.11722l-11.43764,17.87897c-2.87514,-8.39828 -3.39666,-15.52421 -1.05226,-21.54264c-0.40446,-0.10684 -0.84239,-0.28254 -1.31603,-0.53396c-9.22113,14.59272 -19.83166,17.23954 -24.092,15.4972c2.86798,-3.77879 8.96697,-8.92732 20.68265,-13.17315c1.06014,-4.75344 0.09469,-12.76399 -2.74251,-18.79962c-2.43854,1.05216 -6.56373,1.38788 -10.73997,-0.12993c3.35145,-0.96117 6.56564,-1.66558 9.46602,-2.23067c-0.11972,-0.19289 -0.2418,-0.38234 -0.36624,-0.5681l-18.27208,-8.53773c-1.0675,-0.4988 -1.0478,-0.5463 0.0591,-0.1425l15.61646,5.69677c-0.73156,-0.62252 -1.51567,-1.12765 -2.35158,-1.48951c4.49778,1.59669 10.12639,-0.55382 1.17914,-9.23545l15.01613,12.12594c3.64009,-1.083 3.32864,-2.50249 -3.91765,-6.24294c0.0007,-0.00093 0.00141,-0.00187 0.00211,-0.0028c-1.31166,-0.4214 -2.79167,-0.85833 -4.45891,-1.3091zM1.97811,8.03139c1.02434,-1.30226 1.92773,-2.40778 2.73267,-3.35815c2.35992,1.24974 5.14557,2.56998 8.45188,3.98999c-6.88104,-2.17561 -6.32289,-1.99844 -11.18454,-0.63184zM-11.79904,-15.40397c-1.70748,-3.09437 -2.29685,-6.43347 8.36753,-5.83938c1.75438,1.08535 3.80958,2.36641 6.48027,6.54778c-10.7211,6.6629 1.0647,9.2247 10.8442,9.3981c-2.93133,4.15678 -4.07625,3.94232 -9.18218,9.97071c-13.53951,-7.17009 -13.0659,-12.01964 -16.50982,-20.07721zM-3.43151,-21.24335c-1.7427,-1.07812 -3.18857,-1.96312 -4.64603,-5.30592c12.62558,-0.28587 16.79851,1.89045 17.90922,5.21579c-0.89397,-0.03597 -1.25541,0.44977 -0.65522,1.74491c-5.35113,-0.96381 -9.46751,-1.47984 -12.60797,-1.65478zM20.71416,-14.39147l-11.3907,4.3774c-0.10581,-4.06144 1.55117,-8.19697 0.50822,-11.31941c2.85912,0.11503 11.16541,5.56635 10.88248,6.94201zM-33.80639,51.18604c0.05179,-0.94233 -0.05371,-2.19829 -0.43148,-3.23916c2.08307,1.78782 4.77932,3.32446 8.42028,3.08936c-0.13358,1.16134 0.57705,2.12571 1.90009,2.66679c-0.99173,1.30668 -1.59712,2.44958 -1.9148,3.33474zM-36.41219,45.83363l-4.58936,-2.00201c1.20501,-1.84887 2.51864,-0.19011 4.58936,2.00201zM-35.7375,46.12795c0.71587,0.2838 1.19581,0.9818 1.49963,1.81893c-0.81125,-0.69626 -1.52949,-1.43061 -2.17432,-2.11325zM-34.91341,50.37367l1.10701,0.81237c-0.09106,1.65689 -0.6684,2.34416 -1.10701,-0.81237z" fill="none" stroke="#1d1d1b" stroke-width="2.025" stroke-linejoin="round" style=""></path></g>
<g transform="translate(-80.8634 504.5505) scale(2.4857) translate(45.3013 43.5126)">
  <g data-rolle="struktur" style="display: none;">
    <g transform="matrix(1 0 0 1 -56.10154342651367 -57.53116989135742)" data-zeichen="S">
      <path d="M30.4286,79.4379C45.477,75.9252 63.2941,70.1009 56.7874,74.6262C60.31,77.3647 52.9922,66.5789 74.2164,67.2741C64.0541,64.5483 58.6142,60.9086 46.0335,60.4033C46.9887,56.6274 37.2807,44.8912 43.9575,51.5219C42.0922,38.1216 47.2597,34.6534 44.5117,26.4722C62.7583,32.5053 56.768,25.831 79.8614,28.0412L70.5733,46.5527C65.2065,39.1303 74.8687,30.345 50.4937,29.3749C50.9487,37.6899 40.9321,39.6205 44.6513,44.3523C48.4292,49.4985 47.7831,55.4099 63.7063,60.7361C66.2866,57.4917 72.7829,55.2286 76.8638,67.8531C70.4624,76.0689 72.678,75.8101 52.5971,79.9911C48.7885,82.5494 31.5457,82.6922 28.8595,75.7008L30.1657,70.6823C30.2466,70.3715 30.2895,70.3767 30.2944,70.6978L30.4286,79.4379Z" style=""></path>
    </g>
    <g transform="matrix(-0.6986615864797253 -0.715452295808486 0.715452295808486 -0.6986615864797253 -20.010158335992088 117.14622122072346)" data-zeichen="T">
      <path d="M55.1211,35.2043L58.7471,32.7941C58.9946,32.6296 59.128,32.6956 59.1472,32.9922L62.0392,77.613C62.0764,78.1865 61.8314,78.3589 61.3042,78.1301L53.5817,74.7788C53.0545,74.55 52.8053,74.1486 52.8342,73.5746L54.7274,35.8964C54.7423,35.5995 54.8736,35.3688 55.1211,35.2043Z" style=""></path>
    </g>
    <g transform="matrix(-0.9461088435402939 -0.3238488168495413 -0.3238488168495413 0.9461088435402939 78.77669780422038 -1.895564735292396)" data-zeichen="T">
      <path d="M33.2267,52.6124L42.8396,57.2926C43.4617,57.5955 44.1186,57.7465 44.8105,57.7456L69.7343,57.7138C70.1002,57.7133 70.4622,57.7509 70.8202,57.8265L76.0644,58.9342C76.4224,59.0098 76.4197,59.0262 76.0563,58.9833L66.1599,57.8165C65.5132,57.7402 65.5004,57.6041 66.1213,57.4082L77.1668,53.9234C77.9085,53.6894 77.8906,53.5641 77.113,53.5474L27.6285,52.4882C27.3086,52.4813 27.3086,52.4758 27.6286,52.4715L32.3151,52.4087C32.6351,52.4044 32.939,52.4723 33.2267,52.6124Z" style=""></path>
    </g>
    <g transform="matrix(0.16790570674730648 -0.9858030602720239 -0.9858030602720239 -0.16790570674730648 78.30706811071249 84.29594877588379)" data-zeichen="E">
      <path d="M41.8729,73.6742L55.9579,53.6649C56.2628,53.2318 56.3389,53.2688 56.1862,53.776L53.8439,61.5589C53.7622,61.8302 53.7421,61.8257 53.7835,61.5455L54.3903,57.441C54.4317,57.1608 54.3301,56.9493 54.0854,56.8065L37.5853,47.1776C36.6821,46.6505 36.6947,46.1465 37.6232,45.6654L51.2228,38.619C52.1513,38.1379 52.216,37.5601 51.4171,36.8854L38.9582,26.3646C38.1124,25.6504 37.7516,25.8433 37.8757,26.9434L44.5347,85.9589C44.6668,87.1298 45.1743,87.325 46.057,86.5445L59.4516,74.7011C60.0239,74.1951 60.6867,74.0053 61.44,74.1316L72.4746,75.9825C73.2279,76.1088 73.2316,76.0899 72.4856,75.9256L38.4041,68.4208C38.0203,68.3363 37.9334,68.4601 38.1433,68.7923L41.2187,73.6579C41.4286,73.9901 41.6467,73.9955 41.8729,73.6742Z" style=""></path>
    </g>
    <g transform="matrix(0.5494558493549049 -0.8355227522992298 0.8355227522992298 0.5494558493549049 -98.39381446256306 47.87941988143399)" data-zeichen="S">
      <path d="M45.1733,41.8194L57.478,49.6982C61.4623,51.0468 63.4677,57.9918 71.5817,56.0438C64.0541,63.0722 60.516,70.6569 65.6024,65.8038C49.5815,66.456 34.5418,65.8977 35.5159,65.1491L36.8439,72.3475C43.6762,70.2723 55.18,72.9832 50.2132,70.5932C64.9184,71.6405 80.5365,65.1852 56.6389,56.73C70.4624,50.5428 53.4743,43.2688 57.8577,47.3296L45.2625,41.6546C44.4825,41.3031 44.4528,41.3581 45.1733,41.8194Z" style=""></path>
    </g>
    <g transform="matrix(-0.28817753281092706 0.9575769992971881 0.9575769992971881 0.28817753281092706 32.1460116558706 -25.838503722987102)" data-zeichen="H">
      <path d="M51.6897,48.8369L60.5924,27.1016C60.7311,26.7628 60.6402,26.6819 60.3197,26.8588L55.6253,29.4501C55.3048,29.627 55.1447,29.8985 55.1452,30.2646L55.213,86.0609C55.2136,86.5555 55.0511,86.6167 54.7254,86.2444L49.9556,80.7915C49.6299,80.4192 49.5777,80.0119 49.7989,79.5695L56.5703,66.0291C56.9632,65.2434 57.4749,64.5446 58.1053,63.9327L67.7327,54.5877C68.1004,54.2308 68.0281,54.0557 67.5157,54.0624L60.0107,54.1611C59.4983,54.1678 58.9974,54.0953 58.5079,53.9435L48.8968,50.9632C48.7101,50.9053 48.7006,50.8263 48.8685,50.7261L51.3268,49.2585C51.4947,49.1583 51.6156,49.0178 51.6897,48.8369Z" style=""></path>
    </g>
    <g transform="matrix(0.24169084782618042 -0.970353303738933 -0.970353303738933 -0.24169084782618042 30.89467243791681 121.34811897995264)" data-zeichen="H">
      <path d="M51.8196,27.1177L57.3193,46.6333C57.5286,47.376 57.2822,47.9073 56.5799,48.2271L46.2938,52.9114C45.5915,53.2312 45.1455,53.7651 44.9556,54.513L42.1134,65.7067C41.9246,66.4504 42.1917,66.6938 42.9146,66.4367L53.504,62.6715C54.2269,62.4144 54.5391,62.6664 54.4406,63.4273L51.3742,87.1131C51.2194,88.3087 51.672,88.6193 52.7319,88.0448L68.2563,79.631C69.3162,79.0565 69.7916,78.169 69.6823,76.9684L65.8617,34.9751C65.7844,34.126 65.3197,33.7145 64.4676,33.7405L51.3648,34.1407C50.9269,34.1541 50.7343,33.9433 50.7872,33.5084L51.562,27.1375C51.6149,26.7026 51.7007,26.696 51.8196,27.1177Z" style=""></path>
    </g>
    <g transform="matrix(0.9370725983996726 0.34913456621836514 0.34913456621836514 -0.9370725983996726 -102.4989912299644 69.99015323973478)" data-zeichen="E">
      <path d="M49.4025,55.4727L63.6102,55.1698C63.9437,55.1627 64.0169,55.2972 63.8298,55.5734L61.0884,59.6188C60.9013,59.895 60.6412,60.0223 60.3083,60.0006L54.2222,59.6048C53.8649,59.5815 53.5496,59.4541 53.2764,59.2226L49.2753,55.8314C49.0021,55.5999 49.0445,55.4803 49.4025,55.4727Z" style=""></path>
    </g>
    <g transform="matrix(0.617629425572142 -0.786469257293269 0.786469257293269 0.617629425572142 -102.11304044955313 -14.063057172102518)" data-zeichen="I">
      <path d="M50.8201,41.6789L56.8757,45.5168C57.2892,45.7788 57.4895,46.1545 57.4768,46.6438L56.7913,72.9483C56.7803,73.3702 56.6481,73.4125 56.3946,73.075L52.6818,68.1324C52.4283,67.7949 52.2848,67.4158 52.2512,66.9951L50.2583,42.0178C50.2194,41.5299 50.4066,41.4169 50.8201,41.6789Z" style=""></path>
    </g>
    <g transform="matrix(-0.6386436993509588 -0.7695025830231645 -0.7695025830231645 0.6386436993509588 82.9063388823869 -25.47890520504633)" data-zeichen="E">
      <path d="M43.4097,55.4364L61.5668,54.2805C61.9683,54.255 62.2442,54.4287 62.3946,54.8018L64.598,60.2663C64.7484,60.6394 64.6225,60.8218 64.2203,60.8135L43.2138,60.383C42.9353,60.3773 42.8017,60.2352 42.8128,59.9569L42.976,55.8804C42.9871,55.6021 43.1317,55.4541 43.4097,55.4364Z" style=""></path>
    </g>
    <g transform="matrix(0.593313835611309 0.804971237046515 -0.804971237046515 0.593313835611309 14.393751010946481 -52.439352981070975)" data-zeichen="S">
      <path d="M48.9266,54.357C48.8969,53.2065 53.1871,46.0933 69.8189,45.0675C62.434,49.2465 53.586,47.2579 79.5214,48.6851L64.9445,48.5531C66.8265,45.2143 59.3683,45.5978 50.8992,46.9375C48.8246,44.0619 46.6604,46.6612 53.3718,60.1594C42.5599,64.0795 44.188,66.7736 55.8465,66.7926L70.4979,64.6365C51.849,63.2875 48.2936,64.307 40.3678,52.9256L48.9266,54.357Z" style=""></path>
    </g>
    <g transform="matrix(-0.2355540579257751 -0.971861248221525 -0.971861248221525 0.2355540579257751 42.40439409823965 63.73005307891433)" data-zeichen="I">
      <path d="M54.3083,42.5928L60.7818,48.6921C61.2238,49.1085 61.4204,49.6193 61.3717,50.2246L59.9754,67.5563C59.9287,68.1362 59.6217,68.3613 59.0546,68.2318L50.7475,66.3346C50.1804,66.2051 49.9414,65.8529 50.0305,65.278L53.5057,42.8683C53.5988,42.2682 53.8663,42.1764 54.3083,42.5928Z" style=""></path>
    </g>
  </g>
<path class="glyph-merged" d="M0.68586,17.09503c3.37212,2.62151 -3.18975,-7.15045 14.86212,-7.38029l0.00177,-0.70501c-8.603,-2.60508 -14.13703,-5.67648 -25.61779,-6.1376c0.9552,-3.7759 -8.7528,-15.5121 -2.076,-8.8814c-0.39598,-2.84468 -0.47502,-5.24178 -0.38013,-7.33139l-3.46699,-0.07444c-0.422,-0.00908 -0.80878,-0.13036 -1.1604,-0.36378l-20.87475,-13.85936c-0.40774,-0.27075 -0.38099,-0.48777 0.08045,-0.65115l6.75851,-2.39214c0.46144,-0.16339 0.88063,-0.08887 1.25761,0.22332l17.61222,14.58876c0.71456,-6.07735 2.64226,-9.48957 0.72769,-15.18953c6.93121,2.29175 10.36513,2.74988 13.22441,2.55789l-6.53826,-7.55735c-0.26325,-0.30419 -0.2033,-0.51756 0.17986,-0.64011l5.61213,-1.79435c0.38315,-0.12254 0.69302,-0.02117 0.92981,0.30407l6.32108,8.68485c3.22731,-0.45866 7.72341,-0.74183 15.62067,0.014l-9.2881,18.5115c-2.69647,-3.72928 -1.599,-7.80261 -2.93093,-11.05588l-2.1136,1.90198c-0.20706,0.18628 -0.40173,0.17422 -0.58398,-0.03644l-6.20167,-7.1683c-2.19168,-0.40482 -4.89902,-0.68581 -8.24942,-0.81916c0.36272,6.62867 -5.92946,9.19994 -6.61228,12.36752l2.55466,2.11611c0.32502,0.26923 0.27663,0.39933 -0.14537,0.39025l-1.74683,-0.0375c0.03445,0.04674 0.07025,0.09375 0.10741,0.14104c3.7779,5.1462 3.1318,11.0576 19.055,16.3838c1.62678,-2.04547 4.8101,-3.70089 7.96332,-1.48139l0.0041,-1.63117c0.00198,-0.76381 0.02123,-0.76429 0.05794,-0.00129l0.08354,1.73772c1.79895,1.33533 3.58015,3.9504 5.04859,8.49313c-1.97533,2.53522 -3.13015,4.26348 -4.37279,5.56425l0.5639,11.72973c0.21811,0.22622 0.4375,0.45805 0.65812,0.69563l13.87467,-6.6109l5.50158,14.63646l-19.89118,-5.74272l0.10017,2.08371c0.0751,0.11047 0.15125,0.22257 0.22845,0.33634l12.8874,4.10537c-0.00347,0.00041 -0.00695,0.00084 -0.01043,0.00127l-9.35163,1.15885c0.45644,0.69023 0.93433,1.41596 1.43427,2.17871l-1.56398,-2.16264l-1.12919,0.13993c-0.68667,0.08511 -1.35707,0.01524 -2.01139,-0.20969l-19.77585,-6.79738c0.16251,-0.02608 0.07008,-0.16719 -0.27722,-0.42331l-1.2649,-0.93277c0.18004,0.33353 0.36921,0.67352 0.56749,1.02108l0.97463,0.335c-0.08267,0.01327 -0.23133,-0.00324 -0.44597,-0.04952l-0.41655,-0.08985c1.72207,2.99215 4.1082,6.55166 7.14874,11.36967l-9.67995,-9.75999c-0.75879,2.54267 -2.14032,5.47347 -3.92409,8.33174l22.28806,7.75493c0.80524,0.28023 1.09223,0.83061 0.86106,1.65116l-2.9004,10.29379l-11.33785,-6.47349c-0.6701,-0.3826 -1.2452,-0.27191 -1.72526,0.33227l-7.03148,8.849c-0.48006,0.60419 -1.10592,0.90793 -1.87755,0.91143l-11.54878,0.05252c-0.76728,0.00346 -0.93891,-0.31455 -0.51472,-0.95388l4.72775,-7.12666l-5.8272,-2.45875c0.22847,-0.11259 0.71616,-0.63487 1.40987,-1.49676l-8.20586,-0.95087l-1.46815,1.29632c-0.22283,0.19677 -0.47962,0.26401 -0.77023,0.20187l-4.25773,-0.91032c-0.29061,-0.06214 -0.33659,-0.2037 -0.1378,-0.42466l0.75916,-0.84397l-4.24861,-0.49232c-1.19757,-0.13875 -1.38957,-0.65301 -0.57593,-1.54263l10.47392,-11.4532l-5.51667,-2.19041c-0.33282,-0.13211 -0.33079,-0.25899 0.00604,-0.38054l4.93331,-1.78088c0.33683,-0.12155 0.67677,-0.13085 1.01972,-0.02794l5.84131,1.75397c0.31953,0.09589 0.51882,0.30599 0.59771,0.63013l0.14679,0.60264l0.53946,0.1877l4.44009,-4.93608c-0.18484,0.13777 -0.37171,0.2783 -0.56063,0.42162c0.49173,-3.0303 0.25053,-5.02736 -0.39834,-6.29747c1.4185,-0.32475 2.88836,-0.72892 4.2288,-1.55977c-0.19785,-0.02155 -0.39541,-0.0449 -0.59247,-0.07008l-3.69191,1.52465c0.01884,0.0345 0.03737,0.06956 0.05557,0.1052c-0.22714,0.052 -0.45297,0.10197 -0.67674,0.15132l-10.70673,4.42158l-6.97618,3.11162c-0.78131,0.34853 -0.81094,0.2935 -0.08868,-0.16508l4.67544,-2.9689l-3.77274,-7.57059c-0.25944,-0.52064 -0.11299,-0.87202 0.43959,-1.05401l10.17986,-3.35293l1.2627,-4.85138c0.0809,-0.3108 0.1238,-0.3056 0.1287,0.0155l0.06688,4.35557l4.87696,-1.60632c0.5768,-0.18991 1.11953,-0.11916 1.62833,0.21231l4.60266,2.9982c3.21944,-0.84612 6.25927,-1.65647 8.84058,-2.30069c0.3375,-1.5921 0.84798,-3.35217 1.53267,-5.36865l2.27094,4.47665c3.84686,-0.81435 5.40856,-0.74053 2.67397,1.16133zM-9.26083,32.33623l-7.26928,6.41849l2.63103,0.91544c1.49616,-2.30261 3.06318,-4.77481 4.63825,-7.33393zM18.11486,9.74293c-0.7042,-0.18889 -1.38573,-0.38216 -2.04853,-0.57848l0.02626,0.54629c0.64355,-0.00133 1.31716,0.00909 2.02227,0.03219zM-4.10075,26.1572l17.03941,5.42802l-0.32292,-0.29037c-0.29224,-0.2627 -0.26094,-0.47861 0.09378,-0.64765l1.72428,-0.82157l-13.38765,-3.86511c-1.1321,-0.32683 -1.23931,-0.8599 -0.32168,-1.59901l4.75894,-3.83328c-1.53914,0.35519 -3.3134,0.73968 -5.37476,1.17517c-0.76596,1.29495 -1.59172,2.79207 -2.47526,4.51342c-0.81139,-0.54068 -1.56263,-1.01462 -2.25389,-1.42351zM30.31258,37.1198c0.31392,-0.03735 0.61995,-0.00276 0.91802,0.10376l4.4136,1.57713c0.30136,0.1077 0.29958,0.1129 -0.00531,0.01583zM31.48617,21.70064l-0.09787,-0.26038c-0.09969,-0.2652 -0.29112,-0.40087 -0.5743,-0.40711l-4.14811,-0.09098c-0.28317,-0.00623 -0.28423,-0.02681 -0.00307,-0.06179l8.06569,-1.00225c0.52564,-0.06537 0.54934,0.01586 0.07119,0.24371zM36.98774,36.33711l4.13581,1.19404l-1.51642,2.00826c-0.63017,0.83454 -1.12913,0.76234 -1.4971,-0.21655zM48.83694,27.31601c0.63017,-0.83454 1.21063,-0.8013 1.74161,0.09954l6.47682,10.98974l6.95993,-0.67322c0.19458,-0.01883 0.36396,-0.09411 0.50829,-0.22601l2.11377,-1.93108c0.14433,-0.1319 0.21725,-0.10004 0.21889,0.09543l0.05496,6.57049l-9.24165,-2.79348l1.18852,2.01665c0.56205,0.95371 0.3113,1.277 -0.75234,0.96995l-10.716,-3.09378l-6.75321,0.65323c-0.3644,0.03518 -0.41567,-0.07518 -0.15391,-0.3311l1.82908,-1.7882l-1.18813,-0.34302zM-24.44583,54.00163l0.14605,0.06162c-0.08989,0.0443 -0.13965,0.02518 -0.14605,-0.06162zM82.10804,46.83445l11.88097,-2.05652c0.48738,-0.08433 0.86236,0.08303 1.125,0.50221l3.84702,6.13885c0.26265,0.41917 0.15721,0.55714 -0.31623,0.41403zM79.07168,47.36002c-0.86559,0.14981 -1.68221,0.43842 -2.44982,0.86575l-11.72296,6.52596c-0.44772,0.24925 -0.59456,0.12956 -0.44048,-0.35917l2.25729,-7.15817c0.15408,-0.48873 0.229,-0.98927 0.2247,-1.50175l-0.02921,-3.49173l15.19684,4.59355zM17.02377,64.75588l-6.36929,-0.78796c-0.43479,-0.05378 -0.59279,-0.29162 -0.47395,-0.7133l0.65477,-2.32383l6.26995,3.5799c0.38046,0.2173 0.35332,0.29896 -0.08147,0.24518z" fill="none" stroke="#1d1d1b" stroke-width="2.025" stroke-linejoin="round" style=""></path></g>
<g transform="translate(0.2233 665.2882) scale(2.4856) translate(59.1733 38.7535)">
  <g data-rolle="struktur" style="display: none;">
    <g transform="matrix(1 0 0 1 -55.97625160217285 -57.52730369567871)" data-zeichen="A">
      <path d="M49.8918,64.9566L46.3029,85.0103C46.1441,85.8977 45.6179,86.2816 44.7244,86.1619L31.6368,84.4096C30.7433,84.2899 30.3366,83.7811 30.4167,82.8832L34.8893,32.7558C34.9461,32.1195 35.2181,32.0079 35.7053,32.4211L42.8413,38.4736C43.3285,38.8868 43.7294,39.3714 44.0441,39.9273L69.6147,85.1045C69.9362,85.6726 69.7709,85.9701 69.1187,85.997L59.5658,86.3914C58.9136,86.4183 58.6664,86.1151 58.8242,85.4817L62.4341,70.9934C62.6272,70.2184 62.3703,69.6451 61.6634,69.2734L50.3677,63.3346C50.2881,63.2927 50.2389,63.3158 50.22,63.4037L49.9439,64.6919C49.925,64.7798 49.9077,64.8681 49.8918,64.9566ZM49.4376,60.8732L60.577,47.1707C57.0693,44.4945 66.6028,45.2914 56.2283,41.0891L38.1587,37.7907C54.7652,41.686 51.5797,37.8913 68.5195,53.8933L52.1828,61.9662C51.5396,62.2841 51.5745,62.4832 52.2875,62.5635L62.7303,63.7402C63.4433,63.8205 63.4441,63.8144 62.7326,63.7217L49.9072,62.0512C49.0468,61.9391 48.8903,61.5465 49.4376,60.8732Z" style=""></path>
    </g>
    <g transform="matrix(-0.8254065879876564 -0.5645387183414219 -0.5645387183414219 0.8254065879876564 62.38388808224535 7.722344977529474)" data-zeichen="S">
      <path d="M62.0427,41.8908L60.3954,45.3036C61.4623,51.0468 70.3986,55.1513 56.9603,60.3595C64.0541,63.0722 53.8914,65.1736 66.6006,67.2473C49.5815,66.456 53.6326,63.3831 51.2851,63.3236L50.1925,64.3776C43.6762,70.2723 40.9324,72.0619 50.971,68.5371C64.9184,71.6405 57.3727,66.8457 70.8256,60.0521C70.4624,50.5428 54.4984,42.2509 59.2959,41.0721L61.9078,41.617C62.0695,41.6507 62.1145,41.742 62.0427,41.8908Z" style=""></path>
    </g>
    <g transform="matrix(0.8878222539651625 -0.4601865332277973 0.4601865332277973 0.8878222539651625 -83.66735596272568 30.05920521508208)" data-zeichen="U">
      <path d="M51.6793,61.367L57.2411,27.26C57.336,26.6783 57.1723,26.593 56.7501,27.0043L50.5658,33.0279C50.1436,33.4392 49.8184,33.9165 49.5902,34.4599L38.0541,61.9275C46.8887,76.5008 47.5785,82.7282 69.9047,80.4617C64.431,82.1893 63.6954,83.664 65.8624,89.7776L65.2892,76.0933C58.0499,77.077 59.6998,66.1253 55.1709,58.5285L51.9159,61.4952C51.7143,61.6789 51.6354,61.6362 51.6793,61.367Z" style=""></path>
    </g>
    <g transform="matrix(0.40328832872235565 -0.9150729609797948 0.9150729609797948 0.40328832872235565 -101.13659260420405 28.837073142193862)" data-zeichen="U">
      <path d="M58.0876,37.8571L53.1347,63.9774C58.5092,72.3306 62.4369,76.3456 37.8613,70.2514L49.147,88.827C57.1655,82.0486 65.7061,75.0089 70.5427,62.7096L69.7783,40.7143C69.7362,39.5024 69.2525,38.5044 68.3274,37.7204L54.214,25.7599C53.6643,25.294 53.5282,25.3936 53.8059,26.0585L57.8725,35.7978C58.1502,36.4627 58.2219,37.1492 58.0876,37.8571Z" style=""></path>
    </g>
    <g transform="matrix(-0.94205277754992 -0.3354646990526439 0.3354646990526439 -0.94205277754992 27.0629476630071 49.437916812318605)" data-zeichen="S">
      <path d="M50.6345,58.7762C48.8969,53.2065 40.6438,52.886 48.1629,52.6121C62.434,49.2465 56.8563,52.8014 77.8281,48.3758L74.3245,47.2617C66.8265,45.2143 53.9343,39.5815 50.6083,44.8916C48.8246,44.0619 42.3294,51.0139 49.2028,60.0137C42.5599,64.0795 38.1108,69.2768 55.0934,70.3509L62.6181,66.2835C51.849,63.2875 46.4944,56.7189 59.9377,59.31L50.6345,58.7762Z" style=""></path>
    </g>
  </g>
<path class="glyph-merged" d="M-9.67335,27.48299c-0.1588,0.8874 -0.685,1.2713 -1.5785,1.1516l-11.87282,-1.58965c-0.43042,0.60149 -1.19358,0.93493 -3.50801,0.19267c-0.20647,-2.14656 -0.71533,-5.15534 -3.34509,-9.93166c1.31301,-1.7707 3.28011,-3.01489 5.48687,-3.92723l0.81129,-9.0927l-19.38893,-13.33601c-0.59362,-0.40838 -1.25073,-0.61963 -1.97116,-0.63366l-10.55218,-0.20651c-0.72043,-0.01403 -0.75668,-0.17874 -0.10866,-0.49386l16.6365,-8.09126c1.0905,-0.53036 2.19881,-0.5705 3.32477,-0.12027l13.61552,5.44403l0.26315,-2.94925c-1.88856,-1.4337 -3.67999,-2.83075 -5.23944,-3.91756l-2.92684,-2.22488c3.57019,0.48174 6.35817,0.92425 8.59523,1.3348l0.34468,-3.86308c0.0568,-0.6363 0.3288,-0.7479 0.816,-0.3347l7.136,6.0525c0.08233,0.06982 0.1622,0.14169 0.2396,0.21559l-0.19009,-0.0347c0.07793,0.02508 0.15514,0.05005 0.23175,0.07491c-0.01381,-0.01347 -0.02769,-0.02687 -0.04166,-0.04021l13.1474,2.39991c0.39349,0.15939 0.75834,0.31158 1.09635,0.45705c0.07307,-0.2992 0.13486,-0.60911 0.18403,-0.9298c0.64599,0.79999 1.08784,1.27426 0.78358,1.36145c5.34828,2.4837 1.8538,2.75465 1.49362,3.89254c-1.1661,-1.00214 -2.17821,-1.81715 -3.10002,-2.48889c-1.7548,3.79425 -5.38631,5.17894 -6.2628,4.31621c-0.47047,0.37206 -0.98989,0.62025 -1.55016,0.76097l4.37432,7.72839l7.32979,-9.01632c-0.73323,-0.55942 -0.89662,-0.96707 -0.79112,-1.30036c2.21209,1.90107 4.97834,4.47557 8.73362,8.02296l-12.94881,6.39875l1.52569,2.69553l-5.35941,-0.69806c-0.06198,0.13433 0.12153,0.22566 0.55054,0.27397l4.88008,0.54989l3.05905,5.40462l-8.66172,-4.55396c1.80381,4.4259 3.09375,8.8926 4.37834,13.25013l-8.444,1.11124zM13.63845,27.57719c0.3215,0.5681 0.1562,0.8656 -0.496,0.8925l-9.5529,0.3944c-0.6522,0.0269 -0.8994,-0.2763 -0.7416,-0.9097l3.36343,-13.49908zM6.21138,14.45531l-1.96099,-3.46461l1.43677,0.75539c0.7069,0.3717 0.9638,0.945 0.7707,1.72zM1.19133,5.58608l-0.07121,-0.1258l5.63622,0.73411c0.7115,0.0927 0.7107,0.0988 -0.0023,0.0185zM-26.63268,27.23761c0.02491,0.25898 0.04542,0.5054 0.06472,0.74087c-1.17192,-0.65134 -2.49292,-1.42692 -3.98443,-2.34839c1.65442,0.7751 2.92915,1.28983 3.91971,1.60752zM-15.69579,31.03763l0.30682,1.48679c1.93268,8.05205 3.1581,11.20341 -1.97662,4.36158l7.82054,23.87408c0.08491,0.2592 0.17461,0.26081 0.26905,0.00494l1.52463,-4.13181c7.5168,4.66047 11.09181,15.1429 17.06634,10.93812l2.34841,4.10093c-15.56568,9.18542 -19.52501,4.10177 -33.04725,-4.14442l-2.39821,-29.69511c-0.04746,-0.58746 0.02161,-1.16087 0.20717,-1.72032l0.84213,-2.5382c-3.56394,-1.87576 -3.63382,-3.13936 -3.83517,-5.59574c2.0506,1.13969 3.64478,1.89901 4.89746,2.39398l0.81415,-2.45386c0.18556,-0.55945 0.37015,-0.55905 0.55359,0.00106l1.04608,3.19341c2.47729,0.46329 2.43201,-0.80624 3.56087,-0.07543zM15.42298,69.3257c-1.57857,1.57394 -2.54023,2.78515 -2.84856,3.9375l-0.91106,-1.59095c1.18306,-0.69813 2.43317,-1.47869 3.75962,-2.34656zM12.57443,73.2632l3.54676,6.19357c-2.8975,-2.70988 -4.03235,-4.37874 -3.54676,-6.19357zM-3.15454,-23.86162c3.55892,0.25264 0.24515,-5.37469 -6.5363,-10.14918l8.45313,-1.30743c15.63818,6.70892 9.70339,10.11254 2.08149,11.71428c0.83355,2.60101 0.97444,4.82891 0.68864,6.69301c-1.02302,-1.2669 -2.55803,-3.35066 -2.45251,-6.0075zM-9.50512,-26.54222l6.35058,2.6806c-1.23778,-0.08787 -3.30689,-0.88698 -6.35058,-2.6806zM-3.89404,-16.68475c-2.08963,-0.75489 -4.36649,-1.09364 -7.94056,-1.78056c1.96266,0.63817 3.87383,1.20862 7.94056,1.78056z" fill="none" stroke="#1d1d1b" stroke-width="2.025" stroke-linejoin="round" style=""></path></g>
<g transform="translate(0 897.7965) scale(2.4854) translate(56.9044 46.8411)">
  <g data-rolle="struktur" style="display: none;">
    <g transform="matrix(1 0 0 1 -65.32729510694169 -75.45179239855452)" data-zeichen="!">
      <path d="M55.8745,39.3498L54.1787,67.0868C54.1496,67.5617 54.3508,67.8995 54.7823,68.1001L61.1024,71.0381C61.5339,71.2387 61.7556,71.1012 61.7676,70.6255L62.6618,35.0924C62.6702,34.7585 62.5125,34.6326 62.1888,34.7146L57.227,35.9712C57.0501,36.016 56.9313,36.1245 56.8706,36.2966L55.9822,38.8183C55.9215,38.9904 55.8856,39.1676 55.8745,39.3498Z" style=""></path>
    </g>
    <g transform="matrix(1 0 0 1 -102.24016729342064 -96.90401853499918)" data-zeichen="!">
      <path d="M58.096,53.6871C53.3247,53.0629 52.0626,56.2596 48.3483,58.0995C51.5249,60.0472 49.899,61.0376 57.063,62.4608C58.3657,61.9916 58.6585,59.1942 56.1759,56.1235C60.0219,54.9349 62.5839,54.4544 58.5811,53.9147L58.096,53.6871Z" style=""></path>
    </g>
  </g>
<path class="glyph-merged" d="M-9.34509,-36.63349l0.8884,-2.5217c0.0607,-0.1721 0.1795,-0.2806 0.3564,-0.3254l4.9618,-1.2566c0.3237,-0.082 0.4814,0.0439 0.473,0.3778l-0.8942,35.5331c-0.012,0.4757 -0.2337,0.6132 -0.6652,0.4126l-6.3201,-2.938c-0.4315,-0.2006 -0.6327,-0.5384 -0.6036,-1.0133l1.6958,-27.737c0.0111,-0.1822 0.047,-0.3594 0.1077,-0.5315zM-43.65907,-42.98932c4.0028,0.5397 1.4408,1.0202 -2.4052,2.2088c2.4826,3.0707 2.1898,5.8681 0.8871,6.3373c-7.164,-1.4232 -5.5381,-2.4136 -8.7147,-4.3613c3.7143,-1.8399 4.9764,-5.0366 9.7477,-4.4124z" fill="none" stroke="#1d1d1b" stroke-width="2.025" stroke-linejoin="round" style=""></path></g>
<g transform="translate(0 957.9047) scale(2.4855) translate(-1.1025 35.7377)">
  <g data-rolle="struktur" style="display: none;">
    <g transform="matrix(1 0 0 1 -48.895943502516516 -9.348711572344726)" data-zeichen="!">
      <path d="M53.0362,44.9354L56.0182,76.6256C56.0383,76.8396 56.1544,76.9641 56.3665,76.9992L59.4725,77.5124C59.6846,77.5475 59.7864,77.4576 59.778,77.2428L58.4709,43.7046C58.4505,43.1812 58.3412,42.6771 58.1429,42.1923L55.2394,35.091C55.0411,34.6062 54.8897,34.6204 54.785,35.1336L53.1258,43.2678C53.0133,43.8192 52.9835,44.3751 53.0362,44.9354Z" style=""></path>
    </g>
    <g transform="matrix(1 0 0 1 -25.541751194918547 -84.86314876406841)" data-zeichen="!">
      <path d="M52.1404,52.8692C53.3247,53.0629 53.8982,54.4521 51.7581,57.9689C51.5249,60.0472 52.5934,63.364 55.9405,60.8492C58.3657,61.9916 59.9488,60.3236 55.7877,57.3045C60.0219,54.9349 56.6783,53.0508 52.5876,52.138L52.1404,52.8692Z" style=""></path>
    </g>
  </g>
<path class="glyph-merged" d="M4.22986,33.91909l1.6592,-8.1342c0.1047,-0.5132 0.2561,-0.5274 0.4544,-0.0426l2.9035,7.1013c0.1983,0.4848 0.3076,0.9889 0.328,1.5123l1.3071,33.5382c0.0084,0.2148 -0.0934,0.3047 -0.3055,0.2696l-3.106,-0.5132c-0.2121,-0.0351 -0.3282,-0.1596 -0.3483,-0.3736l-2.982,-31.6902c-0.0527,-0.5603 -0.0229,-1.1162 0.0896,-1.6676zM27.04585,-32.72515c4.0907,0.9128 7.4343,2.7969 3.2001,5.1665c4.1611,3.0191 2.578,4.6871 0.1528,3.5447c-3.3471,2.5148 -4.4156,-0.802 -4.1824,-2.8803c2.1401,-3.5168 1.5666,-4.906 0.3823,-5.0997z" fill="none" stroke="#1d1d1b" stroke-width="2.025" stroke-linejoin="round" style=""></path></g>
<g transform="translate(0 1165.5181) scale(2.4853) translate(89.9126 83.3687)">
  <g data-rolle="struktur" style="display: none;">
    <g transform="matrix(1 0 0 1 -121.70946915431483 -116.54612528058765)" data-zeichen="?">
      <path d="M63.8585,48.3753C66.9345,44.8539 56.3097,40.7405 55.1809,36.1899C51.0937,39.7416 41.9564,42.287 34.8094,37.1714L38.1675,49.5218C48.1405,45.7904 59.1158,46.7549 58.2548,45.0079C58.1503,44.9985 57.3078,53.0099 60.2664,45.4244C60.454,54.3588 51.9483,52.9249 58.9737,66.9263C51.8134,65.3041 56.7721,68.8931 48.603,73.5547L48.9155,77.5709C48.9348,77.8196 49.0576,77.8915 49.2839,77.7865L65.8683,70.0904C66.3726,69.8564 66.3964,69.898 65.9399,70.2152L58.5678,75.3375C56.4218,69.7679 67.0005,67.464 57.6456,67.4321C64.1982,58.7513 56.1447,51.1265 70.6393,44.6347L63.8585,48.3753Z" style=""></path>
    </g>
    <g transform="matrix(1 0 0 1 -0.2633635261361178 -112.61368418637898)" data-zeichen="?">
      <path d="M53.241,54.3579C53.2895,53.0268 51.4726,54.2418 53.1567,56.0499C51.4887,60.0834 56.176,62.8332 58.2414,61.7866C58.4018,62.0278 56.0315,58.8243 59.2819,58.9715C60.058,54.8989 60.5936,53.706 58.6221,52.4988L53.241,54.3579Z" style=""></path>
    </g>
  </g>
<path class="glyph-merged" d="M-55.31587,-69.56931c-8.04683,5.60819 -3.5799,11.99044 -7.83493,19.10275c-6.26327,-13.09994 1.89146,-11.90501 1.70772,-20.65517c-2.52054,6.46237 -2.28226,1.60455 -2.09182,0.03017c-1.22405,1.15529 -11.02232,0.70558 -20.00708,4.06723l-3.3581,-12.3504c7.147,5.1156 16.2843,2.5702 20.3715,-0.9815c1.1288,4.5506 11.7536,8.664 8.6776,12.1854zM-62.73577,-49.61983c-0.30096,-0.06818 -0.58051,-0.12716 -0.84052,-0.17724c0.1508,-0.22388 0.29241,-0.44704 0.4255,-0.66949c0.13188,0.27583 0.27015,0.558 0.41502,0.84673zM-63.57629,-49.79707c-0.15287,0.22695 -0.31517,0.45463 -0.48758,0.68304c8.3232,0.02838 0.86709,1.85526 0.63268,6.1805l-8.99438,4.1739c-0.2263,0.105 -0.3491,0.0331 -0.3684,-0.2156l-0.3125,-4.0162c7.82574,-4.46567 3.60405,-7.947 9.53018,-6.80564zM-55.84117,-46.45573c0.5043,-0.234 0.5281,-0.1924 0.0716,0.1248l-7.3721,5.1223c-0.23667,-0.61424 -0.31858,-1.18877 -0.28952,-1.7249zM-51.07017,-71.91143l-4.2457,2.34212c1.14264,-0.79636 2.53761,-1.57711 4.2457,-2.34212zM58.35874,-60.11489c1.9715,1.2072 1.4359,2.4001 0.6598,6.4727c-3.01559,-0.13657 -1.19324,2.61093 -1.04229,2.816c-2.06631,1.04411 -6.75043,-1.70527 -5.08291,-5.7376c-1.6841,-1.8081 0.1328,-3.0231 0.0843,-1.692zM57.97804,-50.82709c0.01159,0.01742 0.00997,0.01687 -0.00179,0.0009c0.0006,-0.0003 0.00119,-0.0006 0.00179,-0.0009z" fill="none" stroke="#1d1d1b" stroke-width="2.025" stroke-linejoin="round" style=""></path></g>
<g transform="translate(-28.2429 1218.0489) scale(2.4856) translate(43.94 50.4673)">
  <g data-rolle="struktur" style="display: none;">
    <g transform="matrix(1 0 0 1 -55.7734489440918 -57.54725646972656)" data-zeichen="2">
      <path d="M52.8322,75.5073L39.0777,80.1434C38.5186,80.3319 38.0734,80.182 37.7421,79.6939L32.3915,71.8121C57.7539,61.2352 67.054,61.6664 61.478,41.9488C63.2256,43.3778 52.5234,46.253 58.2884,46.3904C49.6885,38.9853 39.835,41.7525 47.6526,48.2117L45.0589,46.4736C45.2246,35.7451 58.0775,34.7459 57.0415,29.8594C65.3145,33.7294 59.0695,33.7492 57.436,45.5989C69.5625,55.9784 60.9049,70.1747 54.8459,67.2003L54.9203,74.5607C54.9249,75.0165 54.7161,75.3302 54.2938,75.5019L37.2523,82.4297C36.1577,82.8747 36.1674,82.9003 37.2815,82.5066L76.9776,68.4761C77.7841,68.191 78.2133,68.4754 78.2654,69.3291L79.0281,81.834C79.0802,82.6877 78.6827,83.0552 77.8357,82.9363L42.2464,77.9415C41.5171,77.8392 41.513,77.7134 42.2342,77.5642L52.7972,75.3783C53.5184,75.2291 53.5301,75.2721 52.8322,75.5073Z" style=""></path>
    </g>
    <g transform="matrix(-0.7417313433801764 -0.670697110659826 -0.670697110659826 0.7417313433801764 74.39709867084268 30.6122646621942)" data-zeichen="4">
      <path d="M53.469,70.3546L61.2879,67.1697C61.7946,66.9633 61.917,66.6199 61.6553,66.1395L51.8145,48.0755C63.9457,51.3709 69.3181,43.959 63.8538,47.2521L57.624,51.8879C57.2382,52.175 57.1232,52.091 57.279,51.636L60.5574,42.0642C60.6415,41.8189 60.5576,41.7273 60.3058,41.7895L56.6181,42.7011C56.3663,42.7633 56.1697,42.9031 56.0282,43.1205L37.8227,71.0981C37.6065,71.4304 37.4914,71.7946 37.4773,72.1908L37.2711,77.9939C37.257,78.3901 37.4481,78.5944 37.8444,78.6068L70.535,79.6302C71.0221,79.6455 71.1711,79.4285 70.982,78.9794L68.2126,72.4006C68.0235,71.9515 67.6854,71.7208 67.1982,71.7087L48.9546,71.2531C48.6939,71.2466 48.6922,71.2223 48.9497,71.1803L52.7204,70.5652C52.9779,70.5232 53.2274,70.453 53.469,70.3546Z" style=""></path>
    </g>
    <g transform="matrix(0.9626085906630587 -0.2708961077270764 -0.2708961077270764 -0.9626085906630587 -65.33916981233887 102.4117184762711)" data-zeichen="3">
      <path d="M56.7401,67.6671C65.7099,66.4555 71.2009,62.7916 57.5387,59.6109C68.5907,51.8383 55.4575,45.4527 48.7396,49.5786C50.1571,46.3666 53.1789,47.6884 54.5452,52.4274L52.641,56.1999C46.6287,53.1351 38.2863,49.7159 61.7876,48.9461C59.8054,51.4789 69.6235,51.8691 70.3674,56.6364C62.1814,64.0794 58.1233,68.802 64.547,65.2497L43.9271,63.5961C43.0606,63.5266 43.0428,63.6199 43.8735,63.8758L57.2103,67.9846C57.2614,68.0003 57.2666,67.9908 57.226,67.9561L56.631,67.447C56.5904,67.4123 56.595,67.4046 56.6448,67.424L60.8854,69.0779C61.138,69.1764 61.1361,69.1815 60.8797,69.0932L56.7401,67.6671Z" style=""></path>
    </g>
    <g transform="matrix(-0.10186116208509395 0.9947986246767102 -0.9947986246767102 -0.10186116208509395 53.0109552392362 -16.967836350091137)" data-zeichen="6">
      <path d="M54.7193,53.1349C66.3015,51.6586 75.8978,54.6597 66.3232,54.7418L77.7594,44.1268C68.1023,46.474 74.4531,50.1545 53.969,44.4448C58.741,47.5541 59.3055,49.7714 58.8001,54.526C46.1623,57.2528 35.5371,60.4544 30.0835,68.2921L35.6593,71.5514C49.3085,60.8754 51.7595,57.2214 56.0748,53.8736L54.7193,53.1349Z" style=""></path>
    </g>
    <g transform="matrix(-0.1159344632966592 -0.9932568651764334 0.9932568651764334 -0.1159344632966592 -45.683216874428794 87.62649580945849)" data-zeichen="4">
      <path d="M58.3562,34.0001L52.1446,41.2771C51.8905,41.5748 51.8801,41.5665 52.1133,41.2522L55.8791,36.1779C52.8574,42.6937 52.424,45.0735 52.7654,50.0401L52.1261,77.9434C52.1163,78.37 52.3183,78.6352 52.7322,78.7391L58.7938,80.2606C59.2077,80.3645 59.4038,80.2033 59.3821,79.7772L57.3117,38.9934C57.2971,38.7063 57.3279,38.4242 57.4042,38.1471L58.5217,34.0879C58.598,33.8108 58.5428,33.7815 58.3562,34.0001Z" style=""></path>
    </g>
    <g transform="matrix(0.44256158905224635 -0.8967381110979675 -0.8967381110979675 -0.44256158905224635 30.809953548536818 44.01398241861099)" data-zeichen="6">
      <path d="M57.7177,41.7221c-5.1846,0-9.0732,2.4482-11.3057,5.4004h-6.1509c-.3512,1.9717-.5454,4.0608-.5454,6.2646,0,12.1689,6.5527,19.9453,16.5615,19.9453,9.7207,0,15.5537-7.9209,15.5537-16.4893,0-9.1445-5.833-15.1211-14.1133-15.1211ZM56.2773,68.436c-6.625,0-10.1533-5.6885-10.2969-13.3926,0-1.1523.2881-2.0889.7197-2.8086,1.7285-3.3848,5.2568-5.7607,9.0732-5.7607,5.832,0,9.6484,4.0322,9.6484,10.7295s-3.6719,11.2324-9.1445,11.2324Z" style=""></path>
    </g>
    <g transform="matrix(-0.027579857288461903 0.9996196033851817 -0.9996196033851817 -0.027579857288461903 78.60570008169486 -22.170791416345633)" data-zeichen="3">
      <path d="M61.1072,45.2997L56.8747,47.5548C56.5857,47.7087 56.5668,47.6807 56.8181,47.4708L61.2587,43.7607C61.4341,43.6142 61.4076,43.5354 61.1793,43.5244L57.4925,43.3464C57.8612,47.0146 77.9415,45.732 64.2028,60.451C63.9101,60.2637 67.9037,67.0178 52.7348,63.2939C48.8602,65.4482 37.331,63.7536 47.5417,60.7758L36.3197,66.5305C43.4599,68.9043 35.1408,74.738 41.1656,74.9503C64.5585,70.5606 67.0824,67.7451 64.9576,54.3794C70.3905,49.9669 67.7951,46.3771 45.6633,41.0129L61.0648,44.9472C61.3821,45.0283 61.3962,45.1458 61.1072,45.2997Z" style=""></path>
    </g>
  </g>
  <g data-rolle="akzent" style="display: none;">
    <g transform="matrix(-0.8719217410839787 0.4896452567166184 -0.4896452567166184 -0.8719217410839787 129.19715992908894 81.69369850029278)" data-zeichen="4">
      <path d="M50.9152,54.9301L60.0404,55.0889C60.3009,55.0934 60.3975,55.2216 60.3303,55.4733L59.3465,59.1599C59.2793,59.4116 59.1157,59.5459 58.8558,59.5628L50.0175,60.137C49.7166,60.1565 49.5916,60.0177 49.6424,59.7206L50.3868,55.3679C50.4376,55.0708 50.6137,54.9248 50.9152,54.9301Z" style=""></path>
    </g>
  </g>
<path class="glyph-merged" d="M-16.69575,22.59614c-0.5591,0.1885 -1.0043,0.0386 -1.3356,-0.4495l-5.3506,-7.8818c0.95175,-0.39691 1.88087,-0.77831 2.78744,-1.14586c-0.39061,-0.61078 -0.79247,-1.24414 -1.20607,-1.9013l3.8103,-5.2148c1.52576,1.31131 2.8234,2.83005 3.93463,4.53079c13.04909,-5.0678 20.00551,-7.51651 21.15053,-14.73414c2.73433,8.39883 -3.40021,16.1226 -8.02244,13.85352l0.0744,7.3604c0.0046,0.4558 -0.2042,0.7695 -0.6265,0.9412l-7.55279,3.0704l-0.69664,-0.09777c0.02991,0.1146 0.05952,0.22955 0.08885,0.34486l0.6078,-0.24708l1.19657,0.16793l-1.67626,0.59247c0.28377,1.15886 0.53976,2.35214 0.77339,3.57656l4.3743,-0.73701c-0.8605,-1.33346 -1.27446,-2.46334 -1.39365,-3.14042l-2.07778,-0.29161l10.47694,-3.70305c-0.03077,-0.19121 -0.0616,-0.38384 -0.0925,-0.57789c0.37838,-6.01665 5.98042,2.46018 8.55025,-4.61184l0.90048,1.88209l9.20486,-3.25344c0.8065,-0.2851 1.2357,-0.0007 1.2878,0.853l0.50219,8.23364l3.67747,-0.6196c0.42071,-0.07095 0.60356,0.10514 0.54834,0.52829l-0.80849,6.19712c-0.05521,0.42315 -0.29521,0.65454 -0.72007,0.69426l-12.15563,1.13728c0.09901,0.30788 0.21395,0.59231 0.3457,0.84547c-4.14084,15.06043 2.72083,11.25462 2.52553,11.54204c0.49557,0.48882 0.97313,0.93672 1.4335,1.34591c-7.30654,0.25748 -10.48127,-2.38599 -13.04082,-12.91607l-1.50252,0.14058l-0.35108,2.19968c-1.10282,-0.6057 -2.07747,-1.24331 -2.93658,-1.89209l-2.10737,0.19717c-0.05814,0.01087 -0.11594,0.02159 -0.17339,0.03216l-0.44938,1.04776c-0.18961,0.44198 -0.33124,0.42716 -0.42485,-0.04455l-0.1635,-0.82383c-1.70409,0.27288 -3.13967,0.38114 -4.67627,0.26995c0.05689,0.39229 0.11233,0.78709 0.16645,1.18428c-0.29946,-0.4114 -0.61106,-0.82694 -0.93916,-1.25775c-1.23425,-0.14474 -2.56743,-0.42891 -4.17566,-0.87863c0.01866,0.21221 0.01796,0.42094 -0.00015,0.62626l2.20396,1.47689c0.32515,0.21787 0.31811,0.22917 -0.0211,0.03398l-2.21175,-1.27298c-0.65462,4.23073 -8.57156,6.98035 -6.15854,8.7487c-1.30394,0.32128 -2.51023,0.6061 -3.62486,0.85673l13.04276,11.21472c0.19773,0.17003 0.21529,0.15315 0.05246,-0.05071l-2.3843,-2.98524c-0.16283,-0.20386 -0.30081,-0.42327 -0.41401,-0.65829l-3.66342,-7.60645c-0.2374,-0.49294 -0.09787,-0.82974 0.41844,-1.01055l8.40626,-2.94362c-0.16506,-1.45832 -0.33983,-2.89068 -0.53093,-4.29305c0.53906,0.74057 1.03878,1.46773 1.52453,2.24637l0.87293,-1.2732c0.02244,0.90661 0.01922,1.79856 -0.00538,2.66817l8.25779,-2.89163l-0.18177,1.13887c0.21244,-0.24361 0.42903,-0.50227 0.65068,-0.77663c-0.31821,0.81107 -0.61614,1.57893 -0.89484,2.30644l-2.58824,16.21663c0.48361,1.1508 1.02799,2.63944 1.37611,5.17597l-1.81755,-2.41014l-0.71793,4.49822c-0.06251,0.39148 -0.2214,0.73882 -0.47668,1.04215l-3.73918,4.44264c-0.25527,0.30333 -0.53404,0.3267 -0.8363,0.0701l-24.93403,-21.1664c-0.23883,-0.2027 -0.30967,-0.38289 -0.21258,-0.54055c-0.1043,-0.1048 -0.2082,-0.21965 -0.31143,-0.34475c0.18516,0.05253 0.3723,0.098 0.56103,0.13664c0.02145,-0.01145 0.04409,-0.02274 0.06791,-0.03387l1.99586,-0.93281c-10.06146,1.42248 -4.6632,-2.90562 -0.66296,-6.60056l2.85495,3.1156c-0.00628,0.98509 -0.11307,1.85684 -0.29777,2.59965l2.57645,-1.20416c0.44147,-0.20628 0.84698,-0.15064 1.21647,0.16715l0.76226,0.65542c3.47102,-2.76861 4.25076,-7.27714 -3.32182,-9.94389c3.1973,-1.75941 5.13785,-3.19913 6.10135,-4.34417c0.68598,0.39391 1.44484,0.81462 2.26824,1.25815l-0.94719,-0.63472c-0.23876,-0.16 -0.21606,-0.21822 0.06802,-0.17456l4.16139,0.63936c0.28408,0.04366 0.56785,0.04155 0.85132,-0.00624l1.80698,-0.30445c-0.59057,-0.78083 -1.23027,-1.64009 -1.92923,-2.60363l-4.77255,1.68685c-1.1141,0.3937 -1.1238,0.3681 -0.0292,-0.0769l4.61043,-1.87425c-0.252,-0.34888 -0.51159,-0.71121 -0.77921,-1.08813zM7.09489,-4.20048c-0.84994,-2.61068 -2.55679,-5.28659 -5.43234,-7.74788c0.02173,-0.15766 0.04428,-0.31323 0.0676,-0.46673c0.66232,-0.38699 1.5709,-0.82851 2.37091,-1.27322c-0.65948,-0.24138 -1.32222,-0.50628 -1.98747,-0.79593c-0.14222,0.64519 -0.27168,1.33355 -0.38344,2.06915c-0.16366,0.09562 -0.31228,0.18792 -0.44051,0.27611c-4.57441,-3.40513 -9.24875,-4.06763 -11.24934,-2.9373c0.79012,-2.0248 2.11815,-3.57958 3.59138,-4.86552c-5.53776,-5.3127 -6.99675,-12.23468 -3.67556,-18.96423c4.30201,-8.71692 13.98644,-10.44211 21.67005,-6.65006c8.20022,4.047 10.9782,11.92269 7.31366,19.34795l-0.00005,-0.00013c-2.2945,4.64923 -6.21084,7.0528 -9.84621,7.74824l-2.70747,5.486c0.84048,3.59334 1.07994,6.43398 0.70878,8.77355zM1.28965,-12.13898c0.4099,0.30513 0.819,0.63227 1.2253,0.98213c-2.03157,-0.04842 -2.01818,-0.43683 -1.2253,-0.98213zM-8.12085,-9.33556l-2.5937,-1.7381c0.00615,-0.39804 0.02976,-0.7827 0.06948,-1.15465c0.40869,0.84161 1.22086,1.81587 2.52422,2.89275zM1.26805,-27.68786c5.24881,2.45533 4.65372,3.36084 3.10011,6.72099c0.09091,-0.00208 0.18045,-0.00681 0.26853,-0.01402c3.80025,-0.05203 7.4923,-2.16451 9.18129,-5.58682c2.58102,-5.22978 0.65418,-10.43658 -5.35154,-13.40055c-6.00569,-2.96395 -11.69749,-1.67831 -14.11948,3.2291l-0.00004,0.00009c-2.43362,4.93123 -0.40847,9.68371 4.26477,13.18017c1.78238,-1.28194 3.00477,-2.48563 2.65636,-4.12895zM2.65183,22.66488l0.47111,0.69861l0.51589,-0.08692c-0.03009,-0.16064 -0.06016,-0.32258 -0.09023,-0.48584zM0.75219,22.39827l-5.86267,-0.8228c0.13972,0.31311 0.29331,0.72859 0.45337,1.2586l0.35339,1.7807l4.42503,-0.74555zM-10.64507,-12.22831c-0.63439,-1.30639 -0.29659,-2.29315 0.68538,-2.84797c-0.3354,0.8595 -0.57387,1.80369 -0.68538,2.84797zM2.83108,31.83101l0.115,-0.72056c0.25145,0.1381 0.50956,0.27455 0.77449,0.40909zM-29.05142,21.90412c0.04263,-0.00601 0.08519,-0.01194 0.12769,-0.0178l-0.17309,0.25923c-0.02968,0.0444 -0.02317,0.05057 0.01951,0.0184l0.41474,-0.3128c6.4417,-0.84667 11.34981,0.05514 8.66363,3.24743c-1.4436,-0.82897 -2.56438,-1.53926 -3.28435,-2.09376l-16.99922,6.28907c-0.81527,0.30163 -0.85768,0.21664 -0.12737,-0.25472l11.72506,-7.56805c0.04494,-0.02896 0.05252,-0.02122 0.02283,0.02318l-0.17388,0.26041zM-28.66257,21.85114c-0.08678,0.01141 -0.17384,0.02313 -0.26116,0.03517l0.08788,-0.13161l3.38292,-2.34476c0.22289,-0.15446 0.2261,-0.15006 0.00963,0.01318zM31.6379,37.6638l-0.1773,-0.35611c0.14603,-0.33781 0.29336,-0.69022 0.44207,-1.05754l0.35447,0.44886l-0.2657,0.93212c-0.08982,0.31494 -0.20766,0.3258 -0.35354,0.03266zM29.50039,33.37072c-0.14587,-0.29313 -0.11736,-0.31126 0.08553,-0.05426l2.27687,2.88321c-0.14514,0.32465 -0.28875,0.6756 -0.43388,1.04439zM32.25714,36.69902l0.61881,-2.17088c0.24954,-0.25149 0.51754,-0.40222 0.81421,-0.4238l-0.27961,3.68049c-0.01729,0.22791 -0.09679,0.25223 -0.2384,0.07285zM22.45546,41.26232c2.84446,3.70665 5.42111,3.82684 8.59669,-3.04035c-1.85463,4.86239 -4.33871,11.35096 -13.21166,3.46429c1.38246,-0.04872 2.91285,-0.20129 4.61497,-0.42394zM34.7862,27.82664l1.56282,-5.48263c-0.53906,1.98343 -1.05929,3.80817 -1.56282,5.48263zM31.05215,38.22197c0.12795,-0.33546 0.25291,-0.66319 0.37676,-0.97791l0.03169,0.06364c-0.13728,0.31757 -0.27341,0.62224 -0.40845,0.91428zM32.19449,35.51474c-0.09787,0.2515 -0.19514,0.49661 -0.29182,0.73542l-0.03988,-0.05049c0.10927,-0.24442 0.2194,-0.47393 0.3317,-0.68493zM32.87594,34.52815c-0.24132,0.2432 -0.46539,0.58063 -0.68145,0.98659c0.81736,-2.10034 1.67698,-4.64624 2.5917,-7.6881zM57.90682,58.72933l-8.03422,4.32965c-0.22934,0.12363 -0.37634,0.05915 -0.44099,-0.19322l-0.94733,-3.69614c-0.06465,-0.25237 0.01224,-0.44957 0.23057,-0.59157l7.42515,-4.82829c0.25281,-0.16434 0.42977,-0.10452 0.53095,0.1794l1.48222,4.15971c0.10118,0.28392 0.01912,0.49745 -0.24636,0.64046z" fill="none" stroke="#1d1d1b" stroke-width="2.025" stroke-linejoin="round" style=""></path></g>
</svg>