<svg xmlns="http://www.w3.org/2000/svg" width="72.2mm" height="479.408mm" viewBox="0 0 204.6614 1358.9523" fill="#1d1d1b">
<g transform="translate(52.3138 -403.5922) scale(0.9999) translate(49.3593 61.6904)">
  <g data-rolle="struktur">
    <g transform="matrix(1 0 0 1 -55.81448173522949 -57.51894950866699)" data-zeichen="J">
      <path d="M50.5331,40.3963L62.9146,58.1589L64.2294,72.9071C66.4662,78.2294 60.1293,82.1894 44.321,120.323C49.473,82.1894 46.6644,81.6855 44.2793,91.8806L47.5558,96.9017C47.3128,76.4287 49.1848,76.8613 55.3085,53.334C56.8889,76.8613 60.2014,74.3408 57.3546,69.993L53.942,63.4039Z" style="paint-order: stroke;" stroke="#1d1d1b" stroke-width="4" stroke-linejoin="round" stroke-linecap="round"></path>
    </g>
    <g transform="matrix(-0.22071761035298681 -0.9753377550777306 -0.9753377550777306 0.22071761035298681 64.83165618627807 15.468034356084976)" data-zeichen="A">
      <path d="M57.2077,68.1353L51.8526,57.8065L47.8429,26.5449L43.9716,66.7632C46.3039,41.6142 47.0236,44.4951 41.0569,11.9016L50.9727,87.8778L58.0407,55.8634L68.6088,42.3014L64.2942,97.0491L54.243,13.5649Z" style="paint-order: stroke;" stroke="#1d1d1b" stroke-width="4" stroke-linejoin="round" stroke-linecap="round"></path>
    </g>
    <g transform="matrix(-0.9633421790410386 -0.2682756904388909 -0.2682756904388909 0.9633421790410386 86.52813438868955 -49.99062848171769)" data-zeichen="A">
      <path d="M59.8863,87.3839C64.2326,44.6376 65.0246,41.6864 71.7978,41.7604L69.3661,69.0628L66.3173,42.1548L61.3368,28.2457L38.3863,112.7458L46.2219,47.1425L66.0186,106.2678L53.3532,79.2468L68.3748,12.4827Z" style="paint-order: stroke;" stroke="#1d1d1b" stroke-width="4" stroke-linejoin="round" stroke-linecap="round"></path>
    </g>
    <g transform="matrix(0.1975381487241265 -0.9802952003343915 -0.9802952003343915 -0.1975381487241265 49.46166275811179 33.69653954641335)" data-zeichen="A">
      <path d="M50.7861,53.3617L54.9545,56.5211L71.2884,61.1312L57.0433,55.2398L56.5721,55.7448Z" style="paint-order: stroke;" stroke="#1d1d1b" stroke-width="4" stroke-linejoin="round" stroke-linecap="round"></path>
    </g>
  </g>
</g>
<g transform="translate(56.1694 -218.4196) scale(0.9999) translate(42.3643 65.9973)">
  <g data-rolle="struktur">
    <g transform="matrix(1 0 0 1 -55.77340316772461 -57.52729606628418)" data-zeichen="I">
      <path d="M57.1191,52.0285L56.4719,114.0736L51.8903,72.1441L52.3376,19.8094L57.9718,-4.47Z" style="paint-order: stroke;" stroke="#1d1d1b" stroke-width="4" stroke-linejoin="round" stroke-linecap="round"></path>
    </g>
    <g transform="matrix(0.9686021834685827 0.24861578827559197 0.24861578827559197 -0.9686021834685827 -52.66830546829344 44.02843594482001)" data-zeichen="S">
      <path d="M60.4618,34.7758C48.8969,53.2065 51.4164,49.2465 51.3999,47.19C62.434,49.2465 65.6742,50.6869 76.945,34.5085L79.1288,24.5664C66.8265,45.2143 63.226,44.0619 67.8042,64.3459C48.8246,44.0619 42.5599,49.6781 30.7527,77.5366C42.5599,64.0795 47.4564,68.184 48.0575,54.624L53.7288,86.6921C51.849,63.2875 48.8969,61.0551 49.6779,52.9896Z" style="paint-order: stroke;" stroke="#1d1d1b" stroke-width="4" stroke-linejoin="round" stroke-linecap="round"></path>
    </g>
    <g transform="matrix(0.1268091252866283 -0.9919271373160633 -0.9919271373160633 -0.1268091252866283 42.131321884702245 99.07844852177548)" data-zeichen="S">
      <path d="M55.7661,59.9077L58.5866,37.647C61.4623,51.0468 64.0541,53.6396 73.331,58.9898C64.0541,63.0722 60.31,66.456 50.6552,84.3905C49.5815,66.456 45.477,65.0165 49.1354,49.2441L27.2144,73.9409C43.6762,70.2723 48.7885,71.6405 51.1218,52.0231C64.9184,71.6405 70.4624,65.16 78.9812,76.1684C70.4624,50.5428 66.2866,46.5828 72.0584,55.4971Z" style="paint-order: stroke;" stroke="#1d1d1b" stroke-width="4" stroke-linejoin="round" stroke-linecap="round"></path>
    </g>
  </g>
</g>
<g transform="translate(30.7625 -24.1881) scale(0.9999) translate(103.2699 68.2759)">
  <g data-rolle="struktur">
    <g transform="matrix(1 0 0 1 -55.773345947265625 -57.52725601196289)" data-zeichen="N">
      <path d="M51.3805,94.5858L38.2791,-1.9414L61.1853,18.9458L62.8735,83.6949C63.5502,63.5034 66.3588,68.6167 74.6725,104.2152L69.7958,90.0226C68.2308,67.0317 68.0863,61.1274 64.8429,13.2438L72.3936,20.0302L86.5453,54.2332L88.5023,63.648L74.3272,99.3389L59.0389,37.812C48.8607,51.7669 45.6205,46.222 36.4772,41.5334L57.2904,8.3468C43.3169,47.1585 43.4604,52.9905 47.7584,76.7475L54.0279,120.2806L40.6086,47.4335Z" style="paint-order: stroke;" stroke="#1d1d1b" stroke-width="4" stroke-linejoin="round" stroke-linecap="round"></path>
    </g>
    <g transform="matrix(-0.9976172132159853 -0.06899199877646142 -0.06899199877646142 0.9976172132159853 77.02953439736068 -61.774097382816436)" data-zeichen="I">
      <path d="M55.5079,30.2227L55.9378,44.2627L56.2377,67.4295L51.1136,66.1226Z" style="paint-order: stroke;" stroke="#1d1d1b" stroke-width="4" stroke-linejoin="round" stroke-linecap="round"></path>
    </g>
    <g transform="matrix(-0.2902539998857924 -0.95694964107329 0.95694964107329 -0.2902539998857924 -24.042452224541652 78.35887291739314)" data-zeichen="I">
      <path d="M52.7804,38.9945L57.2476,33.0279L57.5855,49.3883L52.2189,66.872Z" style="paint-order: stroke;" stroke="#1d1d1b" stroke-width="4" stroke-linejoin="round" stroke-linecap="round"></path>
    </g>
    <g transform="matrix(0.8577412809470818 0.514081603404809 -0.514081603404809 0.8577412809470818 -53.3354448181575 -104.26064054503126)" data-zeichen="C">
      <path d="M47.2029,82.5841C43.962,57.4193 51.5225,50.1468 77.0708,35.1505C66.9322,50.1468 70.3165,51.0101 60.5765,65.8469L86.1405,56.6645C72.5485,46.1858 68.732,44.8899 79.2804,26.9794C47.7063,44.8899 37.4398,55.0903 46.7116,79.4369L34.2106,82.0309L52.7567,59.764Z" style="paint-order: stroke;" stroke="#1d1d1b" stroke-width="4" stroke-linejoin="round" stroke-linecap="round"></path>
    </g>
    <g transform="matrix(-0.7612461926484304 0.6484629782634231 0.6484629782634231 0.7612461926484304 16.777572992143902 -75.572801372796)" data-zeichen="E">
      <path d="M47.1358,56.2762L64.3558,58.1546L71.6054,62.1319L39.5406,64.2805Z" style="paint-order: stroke;" stroke="#1d1d1b" stroke-width="4" stroke-linejoin="round" stroke-linecap="round"></path>
    </g>
    <g transform="matrix(-0.3589695404981662 0.933349274920453 0.933349274920453 0.3589695404981662 -73.01322724459115 -63.157024921754186)" data-zeichen="E">
      <path d="M59.0919,81.4128L39.632,96.8032L49.2619,60.9724L52.9419,71.4789L37.876,2.4379L52.0373,-3.5862L44.573,38.1805L34.2303,109.6773L56.5406,43.0687L62.1915,46.8331L38.9451,96.4796Z" style="paint-order: stroke;" stroke="#1d1d1b" stroke-width="4" stroke-linejoin="round" stroke-linecap="round"></path>
    </g>
    <g transform="matrix(-0.6460262405715801 -0.7633152012720242 -0.7633152012720242 0.6460262405715801 99.14814114367043 19.1920476624825)" data-zeichen="E">
      <path d="M46.4627,57.7044L57.4235,51.9864L69.3626,63.4792L37.7862,57.3174Z" style="paint-order: stroke;" stroke="#1d1d1b" stroke-width="4" stroke-linejoin="round" stroke-linecap="round"></path>
    </g>
    <g transform="matrix(-0.982464798939611 0.18644816664303723 -0.18644816664303723 -0.982464798939611 70.25013653995344 56.80301987224589)" data-zeichen="C">
      <path d="M48.825,63.6121C50.8414,64.6561 44.0006,57.0233 52.5444,26.7179L36.3535,30.666C37.38,45.215 37.376,45.2855 45.7584,30.983C37.376,61.2714 47.6729,69.912 67.7039,50.8809C67.2583,69.912 71.8667,68.7606 57.574,54.3075L82.335,44.8866C70.355,63.8641 66.4663,64.6561 58.5842,66.2495Z" style="paint-order: stroke;" stroke="#1d1d1b" stroke-width="4" stroke-linejoin="round" stroke-linecap="round"></path>
    </g>
  </g>
</g>
<g transform="translate(33.1766 167.5238) scale(1) translate(67.0851 56.5818)">
  <g data-rolle="struktur">
    <g transform="matrix(1 0 0 1 -56.10154342651367 -57.53116989135742)" data-zeichen="S">
      <path d="M30.4519,108.0628C45.477,75.9252 49.5815,77.3647 60.6459,60.2976C60.31,77.3647 64.0541,73.9809 61.3611,99.2576C64.0541,64.5483 61.4623,61.9555 44.4952,67.0528C46.9887,56.6274 42.0922,52.5229 30.5254,53.0552C42.0922,38.1216 48.3568,32.5053 49.1273,5.2569C62.7583,32.5053 66.3588,33.6576 58.9587,21.6946L56.1505,16.3805C65.2065,39.1303 61.9663,37.6899 50.9952,58.2027C50.9487,37.6899 48.4292,41.6499 39.3038,4.9494C48.4292,49.4985 51.3813,51.731 58.128,90.5631C66.2866,57.4917 70.4624,61.4517 81.9273,88.2748C70.4624,76.0689 64.9185,82.5494 56.5094,52.4928C48.7885,82.5494 43.6762,81.1812 45.7422,40.7049L52.5991,106.4874Z" style="paint-order: stroke;" stroke="#1d1d1b" stroke-width="4" stroke-linejoin="round" stroke-linecap="round"></path>
    </g>
    <g transform="matrix(-0.7900460785107327 -0.6130474645815063 -0.6130474645815063 0.7900460785107327 67.78751898283502 27.217608677176123)" data-zeichen="O">
      <path d="M65.628,94.2638C56.8179,77.4731 51.2017,68.184 49.7499,31.0482C51.2017,47.1587 56.3863,37.5815 67.4909,17.6516C66.852,37.5815 66.9458,37.5883 67.8991,33.2458L69.5406,-9.0477C54.0816,32.4692 44.5044,42.5503 51.2475,53.2805C44.5044,72.6489 53.5054,82.5854 76.8068,61.8995C66.5641,82.5854 66.803,82.5759 67.4587,113.1814L61.7409,86.8105C66.9207,77.455 66.8063,77.4731 65.1859,69.2029Z" style="paint-order: stroke;" stroke="#1d1d1b" stroke-width="4" stroke-linejoin="round" stroke-linecap="round"></path>
    </g>
    <g transform="matrix(-0.6286923471375101 -0.7776541214773626 0.7776541214773626 -0.6286923471375101 9.416143377246811 109.85611458230142)" data-zeichen="O">
      <path d="M66.0961,95.3631C66.6826,42.6305 58.1133,32.4772 42.9437,58.0391L42.6339,64.6914C55.108,37.7838 60.0576,47.7607 66.5459,34.4399C60.0576,68.1999 54.5716,77.2375 41.9342,107.1872L49.8546,101.4198C56.9194,82.2392 66.6826,73.4113 67.4665,26.196Z" style="paint-order: stroke;" stroke="#1d1d1b" stroke-width="4" stroke-linejoin="round" stroke-linecap="round"></path>
    </g>
  </g>
</g>
<g transform="translate(9.8206 372.1617) scale(1) translate(56.0068 49.7122)">
  <g data-rolle="struktur">
    <g transform="matrix(1 0 0 1 -56.10154342651367 -57.53116989135742)" data-zeichen="S">
      <path d="M32.0204,49.8518C45.477,75.9252 49.5815,77.3647 63.1089,74.3304C60.31,77.3647 64.0541,73.9809 56.0557,67.903C64.0541,64.5483 61.4623,61.9555 41.1062,43.1608C46.9887,56.6274 42.0922,52.5229 39.5191,59.1096C42.0922,38.1216 48.3568,32.5053 45.3985,22.5577C62.7583,32.5053 66.3588,33.6576 78.154,26.0304L77.4078,80.8443C65.2065,39.1303 61.9663,37.6899 51.9318,38.0268C50.9487,37.6899 48.4292,41.6499 52.4155,12.238C48.4292,49.4985 51.3813,51.731 49.3853,16.9809C66.2866,57.4917 70.4624,61.4517 69.9644,31.8082C70.4624,76.0689 64.9185,82.5494 39.3742,66.9549C48.7885,82.5494 43.6762,81.1812 38.495,48.5642L45.229,85.5994Z" style="paint-order: stroke;" stroke="#1d1d1b" stroke-width="4" stroke-linejoin="round" stroke-linecap="round"></path>
    </g>
    <g transform="matrix(-0.6986615864797253 -0.715452295808486 0.715452295808486 -0.6986615864797253 -20.010158335992088 117.14622122072346)" data-zeichen="T">
      <path d="M52.2722,17.8178L59.4949,46.774L57.6981,86.3084L49.9203,74.8308Z" style="paint-order: stroke;" stroke="#1d1d1b" stroke-width="4" stroke-linejoin="round" stroke-linecap="round"></path>
    </g>
    <g transform="matrix(-0.9461088435402939 -0.3238488168495413 -0.3238488168495413 0.9461088435402939 78.77669780422038 -1.895564735292396)" data-zeichen="T">
      <path d="M56.1248,53.7325L50.0388,62.0447L45.092,59.7025L62.3002,54.1869L68.4927,62.1115L78.9802,55.2961L23.9963,57.4095Z" style="paint-order: stroke;" stroke="#1d1d1b" stroke-width="4" stroke-linejoin="round" stroke-linecap="round"></path>
    </g>
    <g transform="matrix(0.16790570674730648 -0.9858030602720239 -0.9858030602720239 -0.16790570674730648 78.30706811071249 84.29594877588379)" data-zeichen="E">
      <path d="M55.4775,92.4405L41.9694,97.2597L39.6853,38.3116L42.3511,48.3035L46.6775,78.7302L58.2457,9.2537L40.8029,6.9061L38.1338,83.4756L72.5222,116.3251L77.2523,74.2044L39.6286,64.589Z" style="paint-order: stroke;" stroke="#1d1d1b" stroke-width="4" stroke-linejoin="round" stroke-linecap="round"></path>
    </g>
    <g transform="matrix(0.5494558493549049 -0.8355227522992298 0.8355227522992298 0.5494558493549049 -98.39381446256306 47.87941988143399)" data-zeichen="S">
      <path d="M67.2999,62.4848L46.4277,59.8095C61.4623,51.0468 64.0541,53.6396 70.7218,58.326C64.0541,63.0722 60.31,66.456 50.1128,61.6877C49.5815,66.456 45.477,65.0165 50.9338,52.3367L50.911,48.6426C43.6762,70.2723 48.7885,71.6405 46.9953,73.9723C64.9184,71.6405 70.4624,65.16 68.6046,52.5467C70.4624,50.5428 66.2866,46.5828 44.5834,36.7773Z" style="paint-order: stroke;" stroke="#1d1d1b" stroke-width="4" stroke-linejoin="round" stroke-linecap="round"></path>
    </g>
    <g transform="matrix(-0.28817753281092706 0.9575769992971881 0.9575769992971881 0.28817753281092706 32.1460116558706 -25.838503722987102)" data-zeichen="H">
      <path d="M62.4482,72.7957L58.4535,56.5937L48.1367,5.0313L51.8317,110.9457L61.8534,61.4566L48.7981,84.8058L62.4829,20.9409L61.6878,84.9692L55.5494,75.9101Z" style="paint-order: stroke;" stroke="#1d1d1b" stroke-width="4" stroke-linejoin="round" stroke-linecap="round"></path>
    </g>
    <g transform="matrix(0.24169084782618042 -0.970353303738933 -0.970353303738933 -0.24169084782618042 30.89467243791681 121.34811897995264)" data-zeichen="H">
      <path d="M53.5591,16.2396L61.0241,80.2091L53.4549,66.659L47.0223,90.9734L61.2285,90.8817L56.5774,58.6766L60.1166,64.7997L61.3526,3.2449L61.724,71.5134Z" style="paint-order: stroke;" stroke="#1d1d1b" stroke-width="4" stroke-linejoin="round" stroke-linecap="round"></path>
    </g>
    <g transform="matrix(0.9370725983996726 0.34913456621836514 0.34913456621836514 -0.9370725983996726 -102.4989912299644 69.99015323973478)" data-zeichen="E">
      <path d="M47.4363,57.5117L56.8364,57.1718L75.2783,59.9386L42.1744,63.1474Z" style="paint-order: stroke;" stroke="#1d1d1b" stroke-width="4" stroke-linejoin="round" stroke-linecap="round"></path>
    </g>
    <g transform="matrix(0.617629425572142 -0.786469257293269 0.786469257293269 0.617629425572142 -102.11304044955313 -14.063057172102518)" data-zeichen="I">
      <path d="M54.0471,40.9475L57.4698,46.8651L60.9081,64.3151L54.6564,56.3116Z" style="paint-order: stroke;" stroke="#1d1d1b" stroke-width="4" stroke-linejoin="round" stroke-linecap="round"></path>
    </g>
    <g transform="matrix(-0.6386436993509588 -0.7695025830231645 -0.7695025830231645 0.6386436993509588 82.9063388823869 -25.47890520504633)" data-zeichen="E">
      <path d="M52.7791,52.2117L68.566,56.797L56.2476,59.7111L41.3671,59.8968Z" style="paint-order: stroke;" stroke="#1d1d1b" stroke-width="4" stroke-linejoin="round" stroke-linecap="round"></path>
    </g>
    <g transform="matrix(0.593313835611309 0.804971237046515 -0.804971237046515 0.593313835611309 14.393751010946481 -52.439352981070975)" data-zeichen="S">
      <path d="M51.4452,65.2841C48.8969,53.2065 51.4164,49.2465 54.7337,50.062C62.434,49.2465 65.6742,50.6869 78.5635,48.0395L61.3281,25.5892C66.8265,45.2143 63.226,44.0619 54.3123,29.7316C48.8246,44.0619 42.5599,49.6781 36.2867,66.5628C42.5599,64.0795 47.4564,68.184 59.7224,92.1269L56.6712,56.8703C51.849,63.2875 48.8969,61.0551 58.4595,33.9315Z" style="paint-order: stroke;" stroke="#1d1d1b" stroke-width="4" stroke-linejoin="round" stroke-linecap="round"></path>
    </g>
    <g transform="matrix(-0.2355540579257751 -0.971861248221525 -0.971861248221525 0.2355540579257751 42.40439409823965 63.73005307891433)" data-zeichen="I">
      <path d="M50.367,46.0509L59.8292,46.7021L56.3087,82.2168L52.8027,75.3204Z" style="paint-order: stroke;" stroke="#1d1d1b" stroke-width="4" stroke-linejoin="round" stroke-linecap="round"></path>
    </g>
  </g>
</g>
<g transform="translate(47.6496 557.9203) scale(1) translate(72.5464 55.9462)">
  <g data-rolle="struktur">
    <g transform="matrix(1 0 0 1 -55.97625160217285 -57.52730369567871)" data-zeichen="A">
      <path d="M39.3147,36.5175L31.1327,73.5978L25.0611,87.3627L63.7344,22.3243L76.59,39.0549L87.5284,60.9367L88.7779,88.3916L66.799,99.7105L40.0366,87.8303ZM67.779,81.5631L56.6973,58.8701C57.0693,44.4945 56.3496,41.6137 50.2797,60.633L45.7701,5.5811C54.7652,41.686 53.9732,44.6381 55.8548,67.0897L65.9556,45.1346L77.3,25.7922Z" style="paint-order: stroke;" stroke="#1d1d1b" stroke-width="4" stroke-linejoin="round" stroke-linecap="round"></path>
    </g>
    <g transform="matrix(-0.8254065879876564 -0.5645387183414219 -0.5645387183414219 0.8254065879876564 62.38388808224535 7.722344977529474)" data-zeichen="S">
      <path d="M71.3329,38.7942L51.0965,28.4257C61.4623,51.0468 64.0541,53.6396 77.1417,55.0285C64.0541,63.0722 60.31,66.456 48.0799,50.2645C49.5815,66.456 45.477,65.0165 50.1146,46.4278L41.5277,50.6155C43.6762,70.2723 48.7885,71.6405 63.8934,51.4903C64.9184,71.6405 70.4624,65.16 69.1542,49.9495C70.4624,50.5428 66.2866,46.5828 55.9171,20.5625Z" style="paint-order: stroke;" stroke="#1d1d1b" stroke-width="4" stroke-linejoin="round" stroke-linecap="round"></path>
    </g>
    <g transform="matrix(0.8878222539651625 -0.4601865332277973 0.4601865332277973 0.8878222539651625 -83.66735596272568 30.05920521508208)" data-zeichen="U">
      <path d="M47.7004,43.9455L59.0526,27.6786L48.7592,0.7964L54.5809,41.5563C46.8887,76.5008 54.377,82.1893 65.8324,55.9799C64.431,82.1893 64.5423,82.1781 61.7125,109.4853L63.4001,104.7519C58.0499,77.077 53.2257,72.4686 56.659,49.2387Z" style="paint-order: stroke;" stroke="#1d1d1b" stroke-width="4" stroke-linejoin="round" stroke-linecap="round"></path>
    </g>
    <g transform="matrix(0.40328832872235565 -0.9150729609797948 0.9150729609797948 0.40328832872235565 -101.13659260420405 28.837073142193862)" data-zeichen="U">
      <path d="M53.6492,44.5785L65.6528,64.5416C58.5092,72.3306 53.9008,77.0835 38.2623,39.7904L43.3536,107.5949C57.1655,82.0486 64.8461,75.9107 57.3703,70.675L71.7584,64.6498L62.4439,19.4478Z" style="paint-order: stroke;" stroke="#1d1d1b" stroke-width="4" stroke-linejoin="round" stroke-linecap="round"></path>
    </g>
    <g transform="matrix(-0.94205277754992 -0.3354646990526439 0.3354646990526439 -0.94205277754992 27.0629476630071 49.437916812318605)" data-zeichen="S">
      <path d="M51.694,47.5336C48.8969,53.2065 51.4164,49.2465 51.9157,30.8091C62.434,49.2465 65.6742,50.6869 78.9742,37.2063L77.5697,37.6229C66.8265,45.2143 63.226,44.0619 62.9518,57.9C48.8246,44.0619 42.5599,49.6781 45.1111,63.7371C42.5599,64.0795 47.4564,68.184 53.2625,77.9525L64.3295,68.8103C51.849,63.2875 48.8969,61.0551 58.5723,59.7795Z" style="paint-order: stroke;" stroke="#1d1d1b" stroke-width="4" stroke-linejoin="round" stroke-linecap="round"></path>
    </g>
  </g>
</g>
<g transform="translate(0 780.5588) scale(0.9999) translate(56.0632 54.8997)">
  <g data-rolle="struktur">
    <g transform="matrix(1 0 0 1 -65.32729510694169 -75.45179239855452)" data-zeichen="!">
      <path d="M53.9119,36.8071L55.5492,98.758L59.0862,56.7003L61.4492,52.5972L55.9271,41.0459Z" style="paint-order: stroke;" stroke="#1d1d1b" stroke-width="4" stroke-linejoin="round" stroke-linecap="round"></path>
    </g>
    <g transform="matrix(1 0 0 1 -102.24016729342064 -96.90401853499918)" data-zeichen="!">
      <path d="M59.8319,46.0043C53.3247,53.0629 51.5249,54.935 50.177,63.9545C51.5249,60.0472 53.2534,61.9916 57.3365,62.9959C58.3657,61.9916 60.0219,60.0473 57.2555,63.0118C60.0219,54.9349 58.3657,53.0629 59.2543,47.8037Z" style="paint-order: stroke;" stroke="#1d1d1b" stroke-width="4" stroke-linejoin="round" stroke-linecap="round"></path>
    </g>
  </g>
</g>
<g transform="translate(0 919.4412) scale(0.9998) translate(-0.8441 42.4732)">
  <g data-rolle="struktur">
    <g transform="matrix(1 0 0 1 -48.895943502516516 -9.348711572344726)" data-zeichen="!">
      <path d="M55.137,25.2688L55.3982,72.9619L60.8665,52.1494L59.4184,26.7421L53.74,9.5381Z" style="paint-order: stroke;" stroke="#1d1d1b" stroke-width="4" stroke-linejoin="round" stroke-linecap="round"></path>
    </g>
    <g transform="matrix(1 0 0 1 -25.541751194918547 -84.86314876406841)" data-zeichen="!">
      <path d="M54.8483,46.39C53.3247,53.0629 51.5249,54.935 50.5073,55.3627C51.5249,60.0472 53.2534,61.9916 53.1221,67.6723C58.3657,61.9916 60.0219,60.0473 57.1713,52.8733C60.0219,54.9349 58.3657,53.0629 59.5538,50.9874Z" style="paint-order: stroke;" stroke="#1d1d1b" stroke-width="4" stroke-linejoin="round" stroke-linecap="round"></path>
    </g>
  </g>
</g>
<g transform="translate(0 1086.2149) scale(1) translate(81.0435 87.1989)">
  <g data-rolle="struktur">
    <g transform="matrix(1 0 0 1 -121.70946915431483 -116.54612528058765)" data-zeichen="?">
      <path d="M77.1065,52.4917C66.9345,44.8539 63.1904,39.7416 65.3938,47.331C51.0937,39.7416 46.9892,40.8939 44.666,33.3472L50.2418,40.7014C48.1405,45.7904 51.0214,44.9262 59.7565,44.2925C58.1503,44.9985 60.454,47.4467 63.0426,56.7597C60.454,54.3588 58.6542,57.1674 60.3839,84.6914C51.8134,65.3041 50.5175,69.5522 47.4432,56.8762L47.4505,66.8696L54.7684,100.7808L62.2966,55.7099C56.4218,69.7679 57.5741,66.6 67.3167,58.8452C64.1982,58.7513 66.9345,55.223 57.0439,35.5817Z" style="paint-order: stroke;" stroke="#1d1d1b" stroke-width="4" stroke-linejoin="round" stroke-linecap="round"></path>
    </g>
    <g transform="matrix(1 0 0 1 -0.2633635261361178 -112.61368418637898)" data-zeichen="?">
      <path d="M54.6927,50.0223C53.2895,53.0268 51.4887,54.8989 49.0483,51.4094C51.4887,60.0834 53.2172,62.0278 52.2674,55.6261C58.4018,62.0278 60.058,60.0835 58.8766,63.7207C60.058,54.8989 58.3295,53.0268 55.9805,55.8892Z" style="paint-order: stroke;" stroke="#1d1d1b" stroke-width="4" stroke-linejoin="round" stroke-linecap="round"></path>
    </g>
  </g>
</g>
<g transform="translate(38.0049 1218.3354) scale(1) translate(60.1238 57.5322)">
  <g data-rolle="struktur">
    <g transform="matrix(1 0 0 1 -55.7734489440918 -57.54725646972656)" data-zeichen="2">
      <path d="M47.0259,96.7429L29.4115,57.0363L50.1265,48.4254C57.7539,61.2352 63.1543,55.1864 70.3291,87.2132C63.2256,43.3778 60.9219,38.9853 49.3138,38.2025C49.6885,38.9853 46.1602,41.1455 38.9956,73.8493L52.5567,37.9719C45.2246,35.7451 49.833,33.7294 54.3689,44.9048C65.3145,33.7294 69.5625,40.6415 73.3075,66.7652C69.5625,55.9784 63.2979,62.9638 44.2799,106.5345L41.9123,77.0764L37.1744,84.9342L61.1892,65.106L67.3238,106.9101L54.1833,103.62Z" style="paint-order: stroke;" stroke="#1d1d1b" stroke-width="4" stroke-linejoin="round" stroke-linecap="round"></path>
    </g>
    <g transform="matrix(-0.7417313433801764 -0.670697110659826 -0.670697110659826 0.7417313433801764 74.39709867084268 30.6122646621942)" data-zeichen="4">
      <path d="M56.9448,55.8829L54.5949,51.6192L55.6673,72.8039C63.9457,51.3709 65.098,49.3543 74.7311,71.7993L61.5714,44.1929L67.6621,54.5969L69.5827,57.5966L34.2897,64.1956L41.7397,75.9009L74.404,85.8571L71.328,73.6574L41.4523,95.2485Z" style="paint-order: stroke;" stroke="#1d1d1b" stroke-width="4" stroke-linejoin="round" stroke-linecap="round"></path>
    </g>
    <g transform="matrix(0.9626085906630587 -0.2708961077270764 -0.2708961077270764 -0.9626085906630587 -65.33916981233887 102.4117184762711)" data-zeichen="3">
      <path d="M51.09,68.2749C65.7099,66.4555 68.5907,62.352 59.4518,70.4096C68.5907,51.8383 64.4139,46.3666 55.2738,31.5027C50.1571,46.3666 45.4041,48.1664 43.7735,56.5544L48.5639,57.259C46.6287,53.1351 50.2283,51.4789 53.3159,64.4227C59.8054,51.4789 62.1814,54.7914 65.4377,63.851C62.1814,64.0794 56.3494,66.4554 45.4387,82.8306L39.485,50.4273L36.7825,72.0493L56.7738,71.6726L65.913,51.5075Z" style="paint-order: stroke;" stroke="#1d1d1b" stroke-width="4" stroke-linejoin="round" stroke-linecap="round"></path>
    </g>
    <g transform="matrix(-0.10186116208509395 0.9947986246767102 -0.9947986246767102 -0.10186116208509395 53.0109552392362 -16.967836350091137)" data-zeichen="6">
      <path d="M67.8535,67.8313C66.3015,51.6586 67.9578,51.5863 68.0839,34.5203L74.4945,33.9067C68.1023,46.474 66.5183,46.5463 60.6179,60.6069C58.741,47.5541 53.5565,49.9311 41.8023,54.6226C46.1623,57.2528 43.411,62.3061 50.2313,66.3712L36.501,57.761C49.3085,60.8754 54.5653,53.603 75.2524,63.9858Z" style="paint-order: stroke;" stroke="#1d1d1b" stroke-width="4" stroke-linejoin="round" stroke-linecap="round"></path>
    </g>
    <g transform="matrix(-0.1159344632966592 -0.9932568651764334 0.9932568651764334 -0.1159344632966592 -45.683216874428794 87.62649580945849)" data-zeichen="4">
      <path d="M56.5233,17.8415L52.8266,13.0079L51.3105,60.0813C52.8574,42.6937 52.7852,45.142 50.962,10.0267L50.8988,57.6199L56.8237,116.6696L57.2166,-3.6132Z" style="paint-order: stroke;" stroke="#1d1d1b" stroke-width="4" stroke-linejoin="round" stroke-linecap="round"></path>
    </g>
    <g transform="matrix(0.44256158905224635 -0.8967381110979675 -0.8967381110979675 -0.44256158905224635 30.809953548536818 44.01398241861099)" data-zeichen="6">
      <path d="M57.7177,41.7221c-5.1846,0-9.0732,2.4482-11.3057,5.4004h-6.1509c-.3512,1.9717-.5454,4.0608-.5454,6.2646,0,12.1689,6.5527,19.9453,16.5615,19.9453,9.7207,0,15.5537-7.9209,15.5537-16.4893,0-9.1445-5.833-15.1211-14.1133-15.1211ZM56.2773,68.436c-6.625,0-10.1533-5.6885-10.2969-13.3926,0-1.1523.2881-2.0889.7197-2.8086,1.7285-3.3848,5.2568-5.7607,9.0732-5.7607,5.832,0,9.6484,4.0322,9.6484,10.7295s-3.6719,11.2324-9.1445,11.2324Z" style="paint-order: stroke;" stroke="#1d1d1b" stroke-width="4" stroke-linejoin="round" stroke-linecap="round"></path>
    </g>
    <g transform="matrix(-0.027579857288461903 0.9996196033851817 -0.9996196033851817 -0.027579857288461903 78.60570008169486 -22.170791416345633)" data-zeichen="3">
      <path d="M61.5929,28.3153L52.3418,42.3308L34.9051,36.4623L40.1833,37.9725C57.8612,47.0146 63.7655,49.8232 63.773,71.4725C63.9101,60.2637 61.3896,65.4482 42.9444,73.9894C48.8602,65.4482 44.6844,63.6484 55.6897,62.4395L51.1609,80.6176C43.4599,68.9043 48.0683,70.5606 66.0542,67.6246C64.5585,70.5606 70.3905,64.0079 60.9718,54.9027C70.3905,49.9669 65.7098,45.6466 65.4659,45.6476Z" style="paint-order: stroke;" stroke="#1d1d1b" stroke-width="4" stroke-linejoin="round" stroke-linecap="round"></path>
    </g>
  </g>
  <g data-rolle="akzent">
    <g transform="matrix(-0.8719217410839787 0.4896452567166184 -0.4896452567166184 -0.8719217410839787 129.19715992908894 81.69369850029278)" data-zeichen="4">
      <path d="M50.1153,52.2548L61.9051,57.9132L60.2995,56.4103L54.5316,58.3788Z" style="paint-order: stroke;" stroke="#1d1d1b" stroke-width="4" stroke-linejoin="round" stroke-linecap="round"></path>
    </g>
  </g>
</g>
</svg>