<svg xmlns="http://www.w3.org/2000/svg" width="72.2mm" height="458.369mm" viewBox="0 0 204.6614 1299.3134" fill="#1d1d1b">
<g transform="translate(32.1571 -401.819) scale(0.9714) translate(68.6977 92.4306)">
  <g data-rolle="struktur" style="display: none;">
    <g transform="matrix(1 0 0 1 -55.81448173522949 -57.51894950866699)" data-zeichen="J">
      <path d="M92.2366,38.0148L77.3816,27.0579C71.9435,23.0468 71.4675,23.5679 75.9538,28.6212L106.0672,62.5405C65.9997,68.6821 60.1293,82.1894 17.6624,80.7225C71.7211,86.1789 46.6644,81.6855 82.1716,86.1518L72.6788,69.7879C-12.6301,64.202 49.1848,76.8613 -10.2832,81.8586C94.1257,67.2469 60.2014,74.3408 41.0451,69.8963L65.4342,50.4042C69.395,47.2387 73.8937,45.3642 78.9303,44.7805L90.8023,43.4048C95.8389,42.8211 96.317,41.0245 92.2366,38.0148Z" style=""></path>
    </g>
    <g transform="matrix(-0.22071761035298681 -0.9753377550777306 -0.9753377550777306 0.22071761035298681 64.83165618627807 15.468034356084976)" data-zeichen="A">
      <path d="M18.4131,24.6216L70.7819,22.6631C82.6636,22.2187 82.6841,22.5374 70.8434,23.6192L34.3397,26.9543C28.2279,27.5127 22.4301,29.1697 16.9462,31.9253L-4.2059,42.5539C20.2487,44.6332 47.0236,44.4951 64.4008,53.2787L54.4931,67.4517C51.9244,71.1262 52.8805,72.889 57.3613,72.7401L102.7166,71.2334C114.8287,70.8311 115.0236,72.167 103.3012,75.2412L66.5863,84.8697C60.9196,86.3558 55.1715,87.3897 49.3421,87.9715L35.6015,89.3429C29.7721,89.9247 29.1172,88.3519 33.6367,84.6245L66.9968,57.1114C77.4033,48.5289 76.0028,42.8669 62.7952,40.1255L17.8947,30.8057C1.1175,27.3234 1.2903,25.262 18.4131,24.6216Z" style=""></path>
    </g>
    <g transform="matrix(-0.9633421790410386 -0.2682756904388909 -0.2682756904388909 0.9633421790410386 86.52813438868955 -49.99062848171769)" data-zeichen="A">
      <path d="M1.7046,43.6584C82.9934,44.8553 65.0246,41.6864 41.1307,32.0125L85.4626,37.1915C96.9561,38.5342 96.9171,39.2325 85.3456,39.2864L35.7135,39.5179C32.751,39.5317 31.5565,38.0853 32.1298,35.1788L33.4813,28.3278C34.0546,25.4213 34.7256,25.3985 35.4943,28.2596L43.7482,58.9807C45.8843,66.9315 50.8354,72.2734 58.6013,75.0063L76.9067,81.4482C84.6726,84.1811 84.541,84.6379 76.5118,82.8184L14.1392,68.6841C11.8828,68.1728 10.2913,66.8571 9.3646,64.7372L7.1804,59.7402C6.2537,57.6203 6.3163,55.5299 7.3681,53.4692L12.3144,43.7784C13.3818,41.6871 12.7758,40.9231 10.4964,41.4862L1.7046,43.6584Z" style=""></path>
    </g>
    <g transform="matrix(0.1975381487241265 -0.9802952003343915 -0.9802952003343915 -0.1975381487241265 49.46166275811179 33.69653954641335)" data-zeichen="A">
      <path d="M49.8726,63.3922L49.8047,61.442C49.7834,60.8289 49.6684,60.8109 49.4598,61.3878L48.9681,62.7476C48.7595,63.3245 48.9541,63.5443 49.552,63.4068L110.7448,49.3366C117.9571,47.6783 118.0842,48.1092 111.126,50.6294L93.4031,57.0483C87.3258,59.2494 81.0788,60.7381 74.662,61.5143L51.02,64.3742C50.2809,64.4636 49.8985,64.1363 49.8726,63.3922Z" style=""></path>
    </g>
  </g>
<path class="glyph-merged" d="M33.58841,-13.95199l0.04822,0.25742l0.07202,0.08112l0.22379,-0.37841zM24.94218,26.19376l1.41493,2.43909c-0.67455,-0.08485 -1.32725,-0.16646 -1.95904,-0.24498l-0.14252,0.57473c-0.06518,-0.20534 -0.13024,-0.41089 -0.19517,-0.61664c-32.1275,-3.98307 -9.36482,0.19175 -62.21246,-5.14241c27.46144,0.94858 39.61958,-4.3645 55.61753,-9.89836l4.20731,7.25266c-0.78645,-2.62305 -1.5648,-5.2595 -2.34605,-7.89087c-0.62681,0.21284 -1.24687,0.42569 -1.86126,0.63821l-0.60113,-1.03624c-13.0469,-0.85429 -22.6526,-1.28183 -29.77726,-1.3753l2.1282,-1.70089c-6.80642,-0.38557 -6.3481,-0.83665 1.37483,-1.3531l0.34727,-0.02322l18.68236,-14.93119c0.89821,-0.71785 1.82407,-1.36931 2.7776,-1.95439c-3.28781,-9.11957 -7.04424,-17.4502 -11.83333,-24.04562l-0.78695,-0.22311l-2.54962,5.63574l-0.05709,-0.01359c-0.72432,-0.17238 -0.96963,-0.6119 -0.73599,-1.31877l1.58694,-4.80117l-0.76325,-0.21639l-10.18765,11.19876l6.21578,-12.32532c-10.64062,-3.03782 -10.32907,-3.67496 0.93466,-1.91142l0.02715,0.00425l0.0934,-0.18521c2.61953,-5.19432 5.19396,-8.12685 7.72328,-8.79757l1.84342,-5.57712c2.02847,-6.13703 4.72185,-11.96686 8.08008,-17.4896l9.79337,-16.1057c3.84505,-6.32325 4.24235,-6.11354 1.19202,0.62907l-17.62424,38.95699c2.19727,1.14965 4.35941,4.06059 6.48642,8.73283l1.26958,2.78876l15.25713,2.38877l-2.20387,-16.67047c-1.55833,-11.78745 -1.24297,-11.8378 0.94609,-0.15104l3.20812,17.12688l8.00423,1.2532c-2.65404,0.30144 -5.22806,0.55267 -7.62266,0.78383l0.95545,5.10078l7.17646,2.03465l-1.87333,3.16759c0.53401,0.42251 0.97117,0.81925 1.3115,1.19022c6.48331,1.88552 14.61494,4.12781 24.65991,6.80726l2.16131,10.6435c0.46041,2.26733 -0.04009,4.2979 -1.50154,6.09147l-3.44471,4.22785c-1.46145,1.79358 -3.34758,2.63409 -5.65843,2.52131l-16.40163,-0.80031c0.57748,6.03633 -0.77415,5.97038 -4.05486,-0.19785l-5.34507,-0.26081zM22.85936,-12.70755c0.08533,-0.01067 0.17082,-0.02097 0.25646,-0.0309l7.6422,-0.88556l-0.51462,-3.89264l-3.48952,-3.93055c-5.52059,-1.83616 -8.58513,-3.16854 -9.77293,-4.17289zM-66.09768,24.33965c7.19936,-1.00753 13.74101,-1.91186 19.67513,-2.72388c-4.37856,1.02461 -10.62119,1.96305 -19.67513,2.72388zM-46.42256,21.61577c19.98231,-4.67599 1.14137,-11.14674 33.50962,-10.72212l-1.85644,1.4837c17.83541,4.13804 48.47242,-1.72596 -31.65317,9.23842zM-12.92961,-22.85328l-12.20041,24.19229c-2.63794,5.23074 -4.3165,4.93914 -5.0357,-0.87491l-1.69521,-13.70442c-0.7192,-5.81405 -0.9795,-11.64859 -0.7808,-17.50354l1.28741,-37.93461c0.41104,-12.11183 1.75701,-12.21659 4.03799,-0.31441l8.54117,44.56929c0.84376,4.40316 2.77412,4.9466 5.79104,1.63022zM73.17354,-8.38995c-3.61847,-0.95051 -7.03197,-1.85354 -10.2492,-2.71172l-0.00386,-0.01903c-0.46723,-2.301 0.32152,-2.87441 2.3663,-1.72045zM18.87032,-27.9246l-3.37397,-0.95658l0.95922,2.10702c0.22253,-0.46651 1.07414,-0.83583 2.41475,-1.15044l2.85042,0.80814l-1.02975,-1.1599c-0.67822,0.11039 -1.28804,0.22676 -1.82067,0.35175zM38.82627,-22.26675l5.92735,-10.02247c1.50808,-2.54999 2.14837,-2.34802 1.92091,0.60574l-0.536,6.96243c-0.22746,2.95376 -1.76621,4.02668 -4.6164,3.21862zM23.93535,-28.71426l4.9016,3.61537l0.41979,0.11902l-0.55912,-4.22931c-1.71915,0.1672 -3.32069,0.32789 -4.76227,0.49491zM-0.93131,-27.26391c0.59681,0.14199 0.59174,0.25828 -0.015,0.34881l-1.43013,0.2134c-0.60674,0.09053 -0.78377,-0.14365 -0.53087,-0.70261l0.13473,-0.29781z" fill="none" stroke="#1d1d1b" stroke-width="1.2" stroke-linejoin="round" style=""></path></g>
<g transform="translate(46.2645 -221.0768) scale(0.9714) translate(45.8091 37.567)">
  <g data-rolle="struktur" style="display: none;">
    <g transform="matrix(1 0 0 1 -55.77340316772461 -57.52729606628418)" data-zeichen="I">
      <path d="M19.8613,38.4397L106.5029,85.262C111.3712,87.8929 111.1571,88.4067 105.8608,86.8035L93.3766,83.0247C88.0803,81.4215 83.8908,78.3221 80.8082,73.7266L49.5576,27.1387C47.4001,23.9223 48.2559,22.4006 52.125,22.5735L61.2452,22.9813C65.1143,23.1542 65.1237,23.4494 61.2732,23.8667L21.8829,28.1363C10.1732,29.4055 9.4993,32.84 19.8613,38.4397Z" style=""></path>
    </g>
    <g transform="matrix(0.9686021834685827 0.24861578827559197 0.24861578827559197 -0.9686021834685827 -52.66830546829344 44.02843594482001)" data-zeichen="S">
      <path d="M96.4913,46.0875C61.8613,47.5457 51.4164,49.2465 109.8976,53.3085C60.4244,44.0371 65.6742,50.6869 25.1579,56.9752L63.042,51.5138C57.5993,49.8631 63.226,44.0619 45.8398,55.2903C21.4027,33.3774 42.5599,49.6781 28.1265,61.2155C61.8414,68.8078 47.4564,68.184 48.58,67.9576L103.6884,71.6041C19.9384,65.6293 48.8969,61.0551 66.8385,58.3848L96.4913,46.0875Z" style=""></path>
    </g>
    <g transform="matrix(0.1268091252866283 -0.9919271373160633 -0.9919271373160633 -0.1268091252866283 42.131321884702245 99.07844852177548)" data-zeichen="S">
      <path d="M40.3463,43.3513L47.6544,55.8034C32.6629,58.0737 64.0541,53.6396 11.5629,50.1596C128.1586,68.8556 60.31,66.456 79.2869,55.3059C81.1535,62.9769 45.477,65.0165 41.1926,52.4437L2.1108,62.8081C73.6572,57.8027 48.7885,71.6405 44.7371,83.8814C119.2039,67.0277 70.4624,65.16 23.4503,69.5684C84.7715,56.9276 66.2866,46.5828 123.4783,35.6581L43.1161,38.3227C39.3749,38.4468 38.4516,40.123 40.3463,43.3513Z" style=""></path>
    </g>
  </g>
<path class="glyph-merged" d="M-33.8905,-29.391l26.68233,-2.89216c0.18174,0.54769 0.51253,1.17921 0.99237,1.89456l14.89661,22.20762c5.43135,-0.26888 4.98401,-0.90387 3.93843,-1.28617l2.85017,0.53391c2.16316,-5.17734 4.46016,-11.37414 6.94985,-18.99156l-3.18467,19.69687l46.33183,8.67905c-23.43195,-4.26464 -38.05178,-6.38379 -46.59189,-7.07063l-1.11833,6.91678c2.81893,1.29607 5.91914,2.61119 8.7308,3.79662l14.86488,11.16893c6.35971,1.00398 14.79062,2.46855 25.58022,4.45316c-9.14485,-0.60441 -16.40124,-1.26904 -22.38114,-2.04949l7.60051,5.71075c-12.04717,-3.63881 -20.99818,-6.51594 -24.75353,-8.19719l23.23156,12.55465c4.8683,2.6309 4.6542,3.1447 -0.6421,1.5415l-12.4842,-3.7788c-5.2963,-1.6032 -9.4858,-4.7026 -12.5684,-9.2981l-2.44457,-3.64432c-1.43931,-0.55427 -2.83301,-1.1453 -4.22643,-1.7772c-0.7851,0.55064 -1.30609,1.07185 -2.32605,0.76641l-6.45225,39.90656c-0.59752,3.69526 -2.37727,4.39855 -5.33924,2.10977l-11.42484,-8.82814c-0.15245,0.53531 -0.28802,1.00976 -0.40789,1.42971c-0.307,-5.87657 -0.61279,-10.86613 -0.90759,-15.08817c6.02834,-10.46971 11.12955,-15.5381 16.78564,-25.30867c-1.6149,-0.83296 -3.33132,-1.71538 -5.19351,-2.65127c-21.36396,11.20383 -8.50971,5.62398 -10.38836,-4.98762c-2.11094,-0.96449 -4.38321,-1.97348 -6.8451,-3.02955l6.80893,2.83413c-0.11548,-0.59806 -0.27816,-1.21169 -0.49666,-1.83883l-28.089,-15.17968c-10.362,-5.5997 -9.6881,-9.0342 2.0216,-10.3034zM9.78866,-6.5294l2.77375,4.13506c0.66372,-1.3983 1.3386,-2.88391 2.02663,-4.47039c-2.31936,-0.05457 -3.87262,0.06944 -4.80038,0.33533zM-3.6484,-34.9538l9.1202,0.4078c3.8691,0.1729 3.8785,0.4681 0.028,0.8854l-12.70797,1.37744c-0.63541,-1.91489 0.55118,-2.80509 3.55977,-2.67064zM25.75332,13.68548c-1.02738,-0.339 -2.0195,-0.6933 -2.99015,-1.06416l3.0773,1.66301c-0.34829,-0.27232 -0.38638,-0.47381 -0.08715,-0.59885zM3.99602,2.64374l1.3243,0.55122l-1.16962,-0.63208c-0.05174,0.02704 -0.1033,0.05399 -0.15468,0.08086zM12.61923,-9.46715l-1.3375,-0.25055c-0.29574,-0.14289 0.65015,-0.00077 1.3375,0.25055zM-6.15707,81.2482c-0.2859,-8.97521 -0.58606,-16.87695 -0.89071,-23.82424l-12.85429,31.59609c5.0111,-25.10744 6.08239,-38.33234 4.81241,-44.84657c1.34002,-3.01104 2.62493,-5.68162 3.86586,-8.08771c0.1313,4.71725 1.0426,9.17392 3.03289,12.2309c-0.35834,1.35491 -0.10727,0.8409 0.36415,0.52696c0.13017,0.1774 0.26448,0.34926 0.403,0.51532c-0.01126,-0.22711 -0.02252,-0.45299 -0.03379,-0.67766c0.42812,-0.07812 0.93238,0.25717 1.33354,1.95905c0.45194,0.36136 0.93765,0.67247 1.4586,0.92771l-0.98461,2.42019c0.37943,4.5156 0.38219,12.68877 -0.50704,27.25996zM-7.29802,16.46472c1.36862,-2.41188 2.97579,-3.67789 4.62422,-3.0464c-1.92042,2.48276 -3.44042,3.23658 -4.62422,3.0464zM-35.39984,44.06557c20.67963,-56.70021 22.30777,-38.22079 16.97761,-5.23051c-4.16764,-1.5885 -11.03783,4.07293 -16.97761,5.23051zM-18.42223,38.83507c1.54239,0.58789 2.71464,2.16876 3.33257,5.33841c-2.68599,6.03545 -5.59344,13.43882 -8.81209,22.82207c2.16521,-9.65313 4.06678,-19.4165 5.47952,-28.16048zM-7.45755,48.6813c-0.13207,0.0241 -0.2569,0.08754 -0.36921,0.16233c-0.12519,-0.17061 -0.24655,-0.34634 -0.36415,-0.52696c0.12362,-0.46744 0.31978,-1.15731 0.60444,-2.15459c0.04296,0.82226 0.08594,1.66189 0.12891,2.51922zM-11.2238,36.08577c-0.14261,-5.12348 0.63489,-10.55436 1.94941,-14.83315c0.24563,2.6828 0.5083,5.92527 0.78034,9.82129c-0.88821,1.54259 -1.79654,3.20244 -2.72975,5.01186zM-9.27439,21.25261c-0.33051,-3.60992 -0.63016,-6.20653 -0.88023,-8.01857c0.56925,1.53003 1.48838,3.01086 2.85659,3.23067c-0.7386,1.30162 -1.40773,2.93696 -1.97636,4.78789zM-10.15461,13.23405c-1.14309,-3.07238 -0.87536,-6.34312 0,0z" fill="none" stroke="#1d1d1b" stroke-width="1.2" stroke-linejoin="round" style=""></path></g>
<g transform="translate(25.6115 -35.3895) scale(0.9714) translate(100.3395 57.6425)">
  <g data-rolle="struktur" style="display: none;">
    <g transform="matrix(1 0 0 1 -55.773345947265625 -57.52725601196289)" data-zeichen="N">
      <path d="M20.9901,80.5532L-6.7593,45.2818C-13.3672,36.8827 -11.3758,31.9675 -0.7853,30.536L24.5082,27.1172C34.8787,25.7155 35.8843,28.1625 27.5251,34.4582L-4.7175,58.7416C56.3311,55.6196 66.3588,68.6167 27.022,74.3407L45.4142,75.622C39.3433,76.4142 68.0863,61.1274 36.3819,55.5476L40.3094,47.3961C41.3277,45.2828 42.9859,43.9911 45.2842,43.521L74.2764,37.5912C82.6867,35.871 88.1851,39.1036 90.7718,47.289L99.8112,75.8942C100.5511,78.2357 100.4576,80.5433 99.5305,82.8172L97.3451,88.177C96.418,90.4509 94.8592,91.0329 92.6687,89.9232L12.2892,49.202C107.5584,64.6844 45.6205,46.222 104.989,30.5801L75.3484,45.6125C100.2579,58.7867 43.4604,52.9905 35.9658,67.6116L86.3163,68.4946C99.3702,68.7235 99.372,69.0306 86.3219,69.4159L10.8191,71.645C5.872,71.7911 5.4688,73.2196 9.6094,75.9307L19.3695,82.3212C23.5101,85.0323 24.0503,84.4429 20.9901,80.5532Z" style=""></path>
    </g>
    <g transform="matrix(-0.9976172132159853 -0.06899199877646142 -0.06899199877646142 0.9976172132159853 77.02953439736068 -61.774097382816436)" data-zeichen="I">
      <path d="M87.9979,53.1465L52.1521,51.5245C48.3774,51.3537 47.2177,53.0118 48.6732,56.4989L52.215,64.9845C53.5964,68.2942 52.4943,69.9137 48.9086,69.843L40.4565,69.6764C36.8708,69.6057 36.8266,69.173 40.3239,68.3783L88.3831,57.4574C98.8876,55.0704 98.7592,53.6334 87.9979,53.1465Z" style=""></path>
    </g>
    <g transform="matrix(-0.2902539998857924 -0.95694964107329 0.95694964107329 -0.2902539998857924 -24.042452224541652 78.35887291739314)" data-zeichen="I">
      <path d="M42.8248,38.1195L91.9483,44.9036C95.351,45.3735 95.9553,46.9299 93.7611,49.5728L88.0489,56.4529C86.2148,58.6621 84.0908,60.5442 81.6769,62.0992L75.9872,65.7645C73.5733,67.3195 71.1989,67.2614 68.864,65.5902L40.0858,44.9926C31.7168,39.0026 32.6298,36.7116 42.8248,38.1195Z" style=""></path>
    </g>
    <g transform="matrix(0.8577412809470818 0.514081603404809 -0.514081603404809 0.8577412809470818 -53.3354448181575 -104.26064054503126)" data-zeichen="C">
      <path d="M-11.7877,66.7079C-10.6762,64.305 51.5225,50.1468 116.5456,40.7491C128.5977,61.6573 70.3165,51.0101 99.4121,52.5498L125.5053,48.7832C135.7318,57.8907 68.732,44.8899 93.7199,57.3724C99.1128,52.0469 37.4398,55.0903 7.2782,68.4705L75.7104,78.8258C93.4521,81.5105 93.5908,80.7929 76.1265,76.673L1.1145,58.9773C-1.1984,58.4317 -3.2352,58.9568 -4.996,60.5526L-11.7877,66.7079Z" style=""></path>
    </g>
    <g transform="matrix(-0.7612461926484304 0.6484629782634231 0.6484629782634231 0.7612461926484304 16.777572992143902 -75.572801372796)" data-zeichen="E">
      <path d="M-1.4907,44.609L57.9534,43.2588C66.852,43.0567 75.6104,44.0686 84.2285,46.2945L104.5425,51.5413C113.1606,53.7672 113.0209,54.7586 104.1233,54.5154L19.6632,52.2068C15.4883,52.0927 11.4265,51.3557 7.4776,49.996L-1.8304,46.7909C-5.7793,45.4312 -5.666,44.7039 -1.4907,44.609Z" style=""></path>
    </g>
    <g transform="matrix(-0.3589695404981662 0.933349274920453 0.933349274920453 0.3589695404981662 -73.01322724459115 -63.157024921754186)" data-zeichen="E">
      <path d="M-1.6016,69.2369L-8.0845,58.1402C-10.8348,53.4325 -9.7165,52.1804 -4.7294,54.384L25.6039,67.7873C30.211,69.823 30.9342,68.8801 27.7735,64.9584L20.3232,55.7145C17.1625,51.7928 18.0984,49.7292 23.131,49.5235L94.8293,46.5931C98.8678,46.428 102.1989,44.8083 104.8228,41.7339L111.0077,34.4871C113.6316,31.4127 112.9252,29.7721 108.8886,29.5653L95.8261,28.8962C90.8698,28.6423 88.7304,30.9736 89.4079,35.89L94.6189,73.7022C96.2334,85.4173 91.2714,89.9793 79.7329,87.3882L23.4886,74.7577C17.9927,73.5235 17.987,72.2643 23.4713,70.98L36.3988,67.9528C41.8831,66.6685 47.3198,66.8458 52.7089,68.4846L88.0885,79.2437C99.3568,82.6704 99.1203,83.9206 87.379,82.9941L10.6769,76.9418C5.2416,76.5129 1.1487,73.9446 -1.6016,69.2369Z" style=""></path>
    </g>
    <g transform="matrix(-0.6460262405715801 -0.7633152012720242 -0.7633152012720242 0.6460262405715801 99.14814114367043 19.1920476624825)" data-zeichen="E">
      <path d="M19.5736,53.9129L13.7729,49.3057C11.312,47.3512 11.4982,47.0536 14.3317,48.4129L36.1374,58.8736C42.8927,62.1143 42.5914,63.028 35.2335,61.6148L10.9742,56.9554C7.862,56.3577 7.8887,56.1322 11.0544,56.2789L18.556,56.6265C21.6953,56.772 22.0345,55.8674 19.5736,53.9129Z" style=""></path>
    </g>
    <g transform="matrix(-0.982464798939611 0.18644816664303723 -0.18644816664303723 -0.982464798939611 70.25013653995344 56.80301987224589)" data-zeichen="C">
      <path d="M88.9789,54.4797C8.0724,71.6203 44.0006,57.0233 51.472,39.0304L64.159,52.8724C49.2504,47.3312 37.376,45.2855 77.8823,45.4185C55.772,55.0065 47.6729,69.912 109.5209,81.8142C111.1653,79.6806 71.8667,68.7606 130.3364,73.3495L43.8599,67.1371C92.9011,67.6985 66.4663,64.6561 13.9162,57.2195L88.9789,54.4797Z" style=""></path>
    </g>
  </g>
<path class="glyph-merged" d="M-62.53265,-12.24546c-5.08822,-6.46748 -5.07764,-10.86924 0.03164,-13.20539l-19.79105,-16.33824c4.39269,0.54038 9.17606,1.53172 14.14849,2.84766l12.1991,11.86715l15.80938,-2.13688c-9.14365,-3.81522 -18.89371,-7.31809 -28.00848,-9.73027l-9.03993,-8.79394c12.39728,3.95092 29.49283,9.84902 48.78125,17.01784c4.36977,-0.3208 6.24897,0.38194 5.63763,2.10824c1.06751,0.40165 2.14076,0.80684 3.21935,1.21547l-1.01099,-20.6552c-0.26651,-5.44573 1.30357,-6.04003 4.71023,-1.78312l8.02993,10.03419c3.28472,4.10454 4.26495,8.66011 2.94075,13.66654c0.32582,0.0918 0.67816,0.21744 1.05702,0.37691l8.2419,3.46931c2.36947,0.99733 4.55548,2.29316 6.558,3.88749l7.52147,-1.53837c0.21821,-0.04463 0.43446,-0.08593 0.64875,-0.12389l27.68785,-22.52108c3.23997,-2.63529 3.79785,-2.1551 1.67348,1.44068l-5.00729,8.47576c-2.12437,3.59578 -4.73848,6.79075 -7.84262,9.58487l-1.03292,0.92977c3.81196,-1.60255 8.57754,-3.21433 14.58536,-4.79721l-18.5529,9.40921c1.8851,1.68504 3.33033,4.11827 4.3357,7.29969l4.33931,13.73177c2.14092,-0.10251 4.33271,-0.20676 6.57172,-0.31199l-6.22229,1.41778l4.35065,13.76765c0.7399,2.3415 0.6464,4.6491 -0.2807,6.923l-2.1854,5.3598c-0.77337,1.89686 -1.98633,2.61638 -3.63886,2.15867l15.00229,6.72003c2.86809,1.28471 2.76122,1.6191 -0.32049,1.00331l-7.26415,-1.45139c-3.08171,-0.61578 -3.55307,0.22753 -1.41394,2.52981l5.11156,5.50153c2.1571,2.32165 2.00223,2.48771 -0.46457,0.49825l-19.22874,-15.5074c-5.83211,-4.70343 -5.32932,-5.52369 1.50846,-2.46085l5.14116,2.3029l-21.17689,-10.72846c-1.06045,2.24467 -1.94701,4.5553 -2.42403,6.83773l-4.31204,-3.21964l-0.71339,2.10525c-3.30299,9.74733 -5.76037,9.53861 -7.37222,-0.62614l-0.38441,-2.42427c-3.76596,0.79496 -8.50022,1.72146 -14.35619,2.81287c6.07059,-4.12391 10.77273,-8.49002 12.59836,-12.57298l-4.73601,1.07912l-10.55918,9.50471l-2.63967,17.91852c-1.12809,7.65748 -4.1049,11.5855 -8.93043,11.78406c-1.15191,2.80141 -1.78735,2.76749 -1.9063,-0.10176c-2.1278,-0.29706 -4.55471,-1.1975 -7.28071,-2.70132l-23.81939,-13.14011l13.89755,-32.15017l-15.78279,1.83634c6.82523,-0.84665 11.88131,-1.63777 15.54174,-2.37864l-3.85626,-4.90158c2.25013,-0.06625 4.41874,-0.10847 6.50593,-0.12815l0.4907,-1.13518c-3.65143,-1.07972 -7.79447,-1.97976 -7.39325,-2.7714c2.99751,0.00771 5.84064,0.05165 8.53514,0.1298l1.98402,-4.58977l-1.3989,-0.7087c0.53618,0.08714 1.06737,0.1732 1.59364,0.25819l0.11757,-0.27199l-2.8783,-2.37614l-10.47233,7.8872zM-11.34555,3.78903c0.46692,0.14184 0.90654,0.2873 1.31886,0.43607c0.3033,-0.13126 0.71444,-0.27597 1.23709,-0.43487c0.33018,-0.35227 0.66305,-0.70204 0.9986,-1.04931c-0.0731,-0.03557 -0.14688,-0.07101 -0.22133,-0.10632c-1.16159,0.3559 -2.27797,0.73912 -3.33321,1.15444zM-14.27172,10.18143c0.69708,-0.88882 1.40872,-1.76407 2.13494,-2.62574l-2.36833,-1.19982l-0.44125,1.48723l-0.34185,2.32051zM-41.53806,-13.05988l1.27124,1.23664l1.40625,-3.25319zM-27.55277,-23.60074c-0.09403,0.07303 -0.18941,0.14661 -0.28615,0.22075l5.32547,9.18865c0.41228,-0.33222 1.60685,-0.53967 3.58374,-0.62234c-0.00169,-0.03719 -0.00346,-0.07465 -0.0053,-0.11237l-0.21991,-4.49289c-2.60597,-1.3621 -5.42443,-2.76805 -8.39784,-4.18179zM-55.12357,-2.828l2.91578,3.70615c-2.64805,0.07797 -5.40902,0.18922 -8.28306,0.3362zM-97.73955,-53.10236c0.07068,-0.0481 0.20229,-0.07397 0.39287,-0.07815zM-77.1835,-47.73536c-11.01976,-3.51191 -18.32735,-5.48532 -20.16318,-5.44514l8.59698,-1.71002c2.33068,-0.46359 4.34767,0.13309 6.05106,1.7901zM-63.56642,42.07734c-1.60379,3.71007 -4.3113,6.23772 -8.12269,7.58312l-8.98399,3.17129c-3.81139,1.3454 -5.08907,0.09716 -3.83307,-3.74464l4.06454,-12.43206c1.54218,-4.7171 4.48608,-5.87704 8.8316,-3.47986l9.60201,5.297zM-19.04667,-11.83903c-1.25322,-0.4562 -2.18192,-0.86065 -2.7861,-1.21333c1.51997,2.40703 2.44865,2.81147 2.7861,1.21333zM-71.47667,9.0407l7.5834,-0.88233c-2.31873,0.28763 -4.84165,0.58167 -7.5834,0.88233z" fill="none" stroke="#1d1d1b" stroke-width="1.2" stroke-linejoin="round" style=""></path></g>
<g transform="translate(24.542 138.2754) scale(0.9714) translate(87.4723 34.7322)">
  <g data-rolle="struktur" style="display: none;">
    <g transform="matrix(1 0 0 1 -56.10154342651367 -57.53116989135742)" data-zeichen="S">
      <path d="M26.1814,84.0156C72.3076,77.3991 49.5815,77.3647 2.2215,72.9391C60.6153,81.7989 64.0541,73.9809 6.088,69.6804C108.8243,57.8211 61.4623,61.9555 67.6279,48.6724C-11.9164,64.7558 42.0922,52.5229 56.6004,36.593C99.4429,36.2114 48.3568,32.5053 41.6314,43.6643C19.2314,31.9326 66.3588,33.6576 61.3367,32.1429L126.1677,42.9252C126.3941,42.6407 61.9663,37.6899 57.7721,25.399C29.8065,34.5803 48.4292,41.6499 62.4725,52.1717C32.7516,45.4914 51.3813,51.731 95.2661,49.0119C61.6354,63.8568 70.4624,61.4517 53.1938,66.521C86.1937,77.4001 64.9185,82.5494 58.1723,78.38C70.7584,92.0935 43.6762,81.1812 3.39,71.7853L20.4987,81.5684C21.2834,82.0171 22.0962,82.4071 22.9373,82.7382L26.1814,84.0156Z" style=""></path>
    </g>
    <g transform="matrix(-0.7900460785107327 -0.6130474645815063 -0.6130474645815063 0.7900460785107327 67.78751898283502 27.217608677176123)" data-zeichen="O">
      <path d="M48.9354,79.5613C116.1122,87.1981 51.2017,68.184 63.5067,51.917C49.7186,51.3753 56.3863,37.5815 53.5253,40.1682C0.9153,39.8542 66.9458,37.5883 66.6643,30.203L45.1678,41.7079C25.8693,44.5849 44.5044,42.5503 63.9586,60.2745C107.6005,65.4588 53.5054,82.5854 121.3752,84.6376C58.2622,77.4201 66.803,82.5759 128.0216,84.034L37.3973,71.4514C122.443,72.2453 66.8063,77.4731 3.6576,81.6315L48.9354,79.5613Z" style=""></path>
    </g>
    <g transform="matrix(-0.6286923471375101 -0.7776541214773626 0.7776541214773626 -0.6286923471375101 9.416143377246811 109.85611458230142)" data-zeichen="O">
      <path d="M38.8116,57.3853C103.3727,35.744 58.1133,32.4772 59.7717,27.6226L-12.7365,36.6429C37.46,29.5814 60.0576,47.7607 70.1276,53.058C61.2791,58.9314 54.5716,77.2375 3.595,75.866L27.1338,81.7027C-3.3111,83.2599 66.6826,73.4113 91.2085,53.3119L38.8116,57.3853Z" style=""></path>
    </g>
  </g>
<path class="glyph-merged" d="M-33.16424,25.20703c-0.8411,-0.3311 -1.6539,-0.7211 -2.4386,-1.1698l-13.977,-7.99233c-1.39859,-0.20199 -2.83202,-0.41421 -4.3002,-0.63697c1.28498,0.12008 2.55183,0.23692 3.79966,0.35075l-2.63116,-1.50455c2.87136,0.66968 5.67564,1.34707 8.40326,2.02269c14.76163,1.30558 26.35809,2.19766 33.0842,3.09938c-4.52388,0.29849 -14.21641,-0.20344 -28.90349,-2.05092c9.85429,2.50033 18.57601,4.9081 25.66997,6.73412c-3.88203,0.69912 -8.99559,1.49738 -15.46254,2.42502zM-50.01354,12.14923c20.24559,-2.33704 34.66225,-4.05297 44.80828,-5.4035l-1.26247,-1.33507c1.25986,0.26116 2.55366,0.59114 3.8752,0.98241c6.49421,-0.88972 11.01507,-1.6158 14.07694,-2.26264c-3.06986,1.37496 -5.14506,2.10599 -10.09792,3.58968c21.69187,7.98976 48.81145,29.48217 56.80717,34.59537l7.95984,17.04857c-27.89109,-36.46344 -45.62818,-35.00145 -56.28056,-36.67304l-0.41504,-0.4389c-0.56091,0.03871 -1.13662,0.04865 -1.71318,0.02908c0.67558,0.16119 1.38464,0.29314 2.12821,0.40982l19.76856,20.90538c-5.65937,-3.60747 -10.50918,-6.4975 -14.65866,-8.77479c3.98301,4.31325 4.17064,5.10802 -6.85314,-3.16944c0.16948,0.99307 0.35763,2.03064 0.57064,3.11074c4.01421,4.28958 4.02825,4.81362 0.89432,4.1077c3.2571,13.61524 10.82415,32.57848 32.23101,53.90632l-48.50671,-46.76866c1.70813,-0.62485 -0.44676,-5.71055 -1.38119,-10.38425c-2.88565,-0.225 -6.0361,-0.30395 -9.41822,-0.13826c1.97715,-1.37252 3.23216,-3.33874 3.26717,-6.18398c2.227,1.59205 4.13768,2.27844 5.77517,2.38551c0.17898,-2.94234 1.84011,-4.87479 7.01229,-3.85248c0.20708,-0.2664 0.39783,-0.52465 0.57339,-0.76618c-3.33493,-0.46893 -7.95346,-1.55447 -13.60517,-3.00925c12.51335,-2.25355 12.23075,-3.47701 3.23352,-4.6832c9.26941,-0.61161 -3.16119,-4.58372 -38.78946,-7.22697zM2.28006,20.97261c1.58356,1.88501 3.3373,3.83926 5.07398,5.72256c-0.25284,-1.70752 -0.47403,-3.20942 -0.71858,-4.48848c-1.6238,-0.16414 -3.18208,-0.56995 -4.35541,-1.23409zM5.16752,29.41462l-1.04095,-2.33426c-0.43806,0.15002 -1.00898,0.22824 -1.70584,0.24148c0.96969,0.74111 1.88455,1.43815 2.74679,2.09278l0.31444,0.70511c0.47297,0.20078 0.96106,0.41457 1.46468,0.64179c-0.56638,-0.42745 -1.15915,-0.87621 -1.77912,-1.3469zM11.1401,-7.82064c-1.52474,-0.02101 -2.96738,-0.05111 -4.32481,-0.08731c1.51556,-0.30525 3.08542,-0.62212 4.71106,-0.95082c-0.16641,0.35851 -0.29383,0.70434 -0.38626,1.03813zM0.49886,-20.93817c1.04651,-0.00932 2.03697,-0.02063 2.97341,-0.03365c-1.14481,0.15685 -2.30531,0.33909 -3.45834,0.54976c0.16613,-0.17158 0.32785,-0.34363 0.48494,-0.51611zM-14.47014,-13.86687c-10.47366,-5.48544 -5.74685,-8.0289 1.74216,-9.33715c-0.46473,1.92708 0.60333,3.84345 2.58354,5.81658c-1.95416,0.96532 -3.48583,2.12703 -4.3257,3.52057zM-12.72798,-23.20402c0.69388,-2.87729 4.80479,-5.77846 14.39854,-8.92815c1.16708,3.42008 6.99802,6.27183 14.80203,8.61284l-11.23743,-1.86894c2.6739,0.80647 -9.43541,0.69455 -17.96314,2.18425zM69.49545,-14.70089c0.38565,0.04719 0.58364,0.07867 0.57071,0.09492zM6.37096,-5.35947c-2.2131,-0.49743 -4.15812,-0.92323 -5.84457,-1.28642c-54.25868,10.84193 -25.54877,3.68957 -7.61007,-8.12126c2.7695,2.12095 6.23538,4.33551 9.69553,6.72001c1.29315,0.05122 2.69573,0.09898 4.20345,0.13919c-1.06145,0.21379 -2.09626,0.42188 -3.10494,0.62434c0.89637,0.62892 1.78734,1.26986 2.66061,1.92414zM39.16456,-8.51927c-11.20356,4.94535 -17.69521,7.97632 -22.00943,10.00699c-0.44322,-1.84119 -7.45081,-4.12314 -6.01502,-9.30836c7.48626,0.10318 16.95142,-0.01255 28.02446,-0.69863zM17.15512,1.48772c0.21451,0.8911 -1.1086,1.67895 -5.67071,2.64272c1.50135,-0.67244 3.2406,-1.49889 5.67071,-2.64272zM-10.14444,-17.38744c2.78715,-1.3768 6.43373,-2.35408 10.15836,-3.03462c-1.8989,1.96123 -4.37411,3.86176 -7.09761,5.6549c-1.15949,-0.88797 -2.19691,-1.75952 -3.06076,-2.62028zM3.47226,-20.97182c12.81974,-1.75642 23.67046,-0.3292 0,0zM16.47259,-23.51933l53.02286,8.81844c-4.48744,-0.54916 -34.38316,-3.22698 -53.02286,-8.81844zM-19.64855,60.07498c-24.26757,-14.76915 -27.22608,-18.95902 -22.47983,-20.3656l7.44315,4.28097c9.75454,9.79128 29.02827,27.28153 49.53909,45.47763zM-17.48045,35.48579c-4.28305,2.97327 -11.9549,3.16042 -17.95417,3.46188c5.50007,3.58646 15.10514,10.55312 29.87345,21.79351l-29.12406,-16.75085c-1.8947,-1.90183 -3.43025,-3.5132 -4.54597,-4.78285c-1.13298,0.11535 -2.11871,0.27118 -2.89718,0.50188l-5.57508,-3.20653c8.60611,-0.97227 3.48379,-15.63265 28.00962,-0.87526c0.74829,-0.05923 1.4862,-0.10617 2.2134,-0.14179zM-79.99134,19.67645c3.18646,1.93635 6.15175,3.75505 8.9009,5.45586c-4.16952,-2.97229 -8.77217,-6.30768 -13.78182,-10.00729l37.16881,21.37782c-1.94849,0.22013 -4.6007,-0.2614 -8.46006,-1.94486c19.52451,12.64637 15.74824,11.8554 -5.25019,-2.63316c-4.732,-2.6292 -10.77406,-6.56245 -18.57763,-12.24837zM45.91899,96.7236c-1.41787,-1.32397 -2.78158,-2.63975 -4.09332,-3.94665zM55.89377,37.38954c5.63954,6.2894 5.74916,7.13174 2.29989,4.92596z" fill="none" stroke="#1d1d1b" stroke-width="1.2" stroke-linejoin="round" style=""></path></g>
<g transform="translate(3.6302 329.4485) scale(0.9714) translate(94.964 66.9394)">
  <g data-rolle="struktur" style="display: none;">
    <g transform="matrix(1 0 0 1 -56.10154342651367 -57.53116989135742)" data-zeichen="S">
      <path d="M79.5899,63.3505C-9.2149,84.3335 49.5815,77.3647 -1.9487,69.6099C-2.4,88.1713 64.0541,73.9809 34.1213,79.3326C30.2643,54.45 61.4623,61.9555 86.441,56.3403C37.3121,43.9362 42.0922,52.5229 -1.4596,36.1884C71.5944,31.4176 48.3568,32.5053 82.2672,24.1667C42.5089,26.7564 66.3588,33.6576 110.8202,30.036L27.0886,30.1362C77.4243,41.8269 61.9663,37.6899 26.5498,31.789C14.8734,29.1966 48.4292,41.6499 81.1587,45.393C59.0523,38.7972 51.3813,51.731 93.9058,62.4765C132.5256,69.2583 70.4624,61.4517 57.7361,81.5187C110.6915,65.4122 64.9185,82.5494 39.1949,87.0568C96.6187,75.205 43.6762,81.1812 91.4048,87.3428L55.7241,82.4319C48.5384,81.4429 48.1791,79.3059 54.646,76.021L79.5899,63.3505Z" style=""></path>
    </g>
    <g transform="matrix(-0.6986615864797253 -0.715452295808486 0.715452295808486 -0.6986615864797253 -20.010158335992088 117.14622122072346)" data-zeichen="T">
      <path d="M38.4704,41.7538L96.2527,30.07C112.9686,26.69 113.9087,29.2055 99.0728,37.6164L48.984,66.0135C44.2273,68.7102 43.9547,71.8023 48.1662,75.2896L58.0934,83.5099C62.3049,86.9972 62.4981,86.7873 58.6728,82.8801L33.6765,57.3482C25.7084,49.2093 27.3063,44.0112 38.4704,41.7538Z" style=""></path>
    </g>
    <g transform="matrix(-0.9461088435402939 -0.3238488168495413 -0.3238488168495413 0.9461088435402939 78.77669780422038 -1.895564735292396)" data-zeichen="T">
      <path d="M50.0782,56.9053L-3.9781,52.0114C-6.4226,51.7901 -6.744,52.5129 -4.9424,54.1798L-0.6956,58.1089C1.106,59.7758 3.228,60.4872 5.6703,60.2431L108.0183,50.0131C119.9794,48.8176 119.9557,48.49 107.9472,49.0305L71.6605,50.6635C64.9726,50.9645 58.2896,50.8801 51.6115,50.4104L30.3533,48.9151C27.353,48.7041 24.3783,48.3036 21.4291,47.7136L14.4773,46.3229C11.5281,45.7329 11.5189,45.7756 14.4498,46.4509L50.424,54.7404C60.8904,57.1521 60.7751,57.8738 50.0782,56.9053Z" style=""></path>
    </g>
    <g transform="matrix(0.16790570674730648 -0.9858030602720239 -0.9858030602720239 -0.16790570674730648 78.30706811071249 84.29594877588379)" data-zeichen="E">
      <path d="M21.7356,64.6376L81.2732,67.2683C87.3886,67.5385 87.691,66.3409 82.1803,63.6756L69.191,57.3929C63.6803,54.7276 57.8843,53.0456 51.8029,52.3471L32.768,50.1606C25.468,49.3221 25.4268,48.2138 32.6444,46.8357L65.7912,40.5069C77.1917,38.3302 77.1687,36.2814 65.7224,34.3606L13.6093,25.6154C7.6857,24.6213 7.4802,25.3168 12.9927,27.7019L25.9867,33.3239C31.4992,35.709 32.1272,39.0203 27.8705,43.258L9.7143,61.3335C3.3518,67.6677 4.578,71.6863 13.393,73.3892L85.9352,87.4032C92.0742,88.5892 98.227,88.6656 104.3936,87.6323L118.929,85.1968C125.0956,84.1635 125.0831,83.2117 118.8914,82.3413L16.1006,67.8919C14.9157,67.7254 14.8478,67.3543 15.8967,66.7787L18.3692,65.4218C19.4181,64.8462 20.5403,64.5848 21.7356,64.6376Z" style=""></path>
    </g>
    <g transform="matrix(0.5494558493549049 -0.8355227522992298 0.8355227522992298 0.5494558493549049 -98.39381446256306 47.87941988143399)" data-zeichen="S">
      <path d="M19.8077,55.3652L59.7901,58.9496C83.6025,58.3395 64.0541,53.6396 96.8214,68.154C129.8522,67.1332 60.31,66.456 69.3881,75.9719C78.1598,68.8764 45.477,65.0165 31.6368,50.9956L99.2095,58.7356C63.4131,64.6373 48.7885,71.6405 39.4356,71.4345C117.9101,62.9109 70.4624,65.16 28.9371,52.6528C94.2431,43.1987 66.2866,46.5828 85.3352,47.1716L19.8154,52.6666C9.4445,53.5364 9.4419,54.4359 19.8077,55.3652Z" style=""></path>
    </g>
    <g transform="matrix(-0.28817753281092706 0.9575769992971881 0.9575769992971881 0.28817753281092706 32.1460116558706 -25.838503722987102)" data-zeichen="H">
      <path d="M96.1603,51.0788L37.1854,45.3317C29.0379,44.5377 21.5793,41.8394 14.8096,37.2368L-1.1476,26.3878C-7.9173,21.7852 -8.08,22.0081 -1.6359,27.0565L63.6152,78.1749C71.0841,84.0261 70.0748,86.9058 60.5873,86.8139L34.8801,86.565C27.622,86.4947 25.2561,83.0573 27.7824,76.2527L36.1391,53.7444C37.0643,51.2523 37.1518,51.2814 36.4015,53.8316L34.6331,59.8427C33.8828,62.3929 32.949,62.462 31.8316,60.05L28.5134,52.8874C27.2186,50.0925 28.0627,49.0792 31.0456,49.8477L51.1586,55.0291C57.5331,56.6712 63.9944,57.1552 70.5424,56.4809L96.1679,53.8423C105.358,52.896 105.3554,51.9749 96.1603,51.0788Z" style=""></path>
    </g>
    <g transform="matrix(0.24169084782618042 -0.970353303738933 -0.970353303738933 -0.24169084782618042 30.89467243791681 121.34811897995264)" data-zeichen="H">
      <path d="M44.9254,24.9227L29.9473,52.0096C25.7395,59.6192 27.7337,61.9718 35.9298,59.0675L71.7274,46.3826C75.8967,44.9052 80.139,44.6526 84.4542,45.6247L94.6259,47.9162C98.9411,48.8883 98.9097,49.6906 94.5318,50.323L18.1349,61.3581C9.8238,62.5586 9.45,64.983 17.0133,68.6314L36.661,78.1089C43.0112,81.1721 42.7595,83.5309 35.906,85.1854L19.7513,89.0853C12.8978,90.7398 10.6226,88.2352 12.9257,81.5716L27.1992,40.2747C28.0453,37.8266 29.3241,35.6305 31.0356,33.6864L35.9273,28.1297C37.0671,26.835 38.4341,25.8582 40.0283,25.1994L43.7862,23.6466C45.3804,22.9878 45.7601,23.4132 44.9254,24.9227Z" style=""></path>
    </g>
    <g transform="matrix(0.9370725983996726 0.34913456621836514 0.34913456621836514 -0.9370725983996726 -102.4989912299644 69.99015323973478)" data-zeichen="E">
      <path d="M-3.1939,49.5844L18.8044,45.255C21.8717,44.6513 22.7376,45.7628 21.4022,48.5893L17.9242,55.9509C16.809,58.3114 16.5824,60.7542 17.2445,63.2795L18.8051,69.2319C19.4672,71.7572 18.6997,72.3147 16.5028,70.9044L-4.6662,57.3154C-10.5808,53.5186 -10.09,50.9416 -3.1939,49.5844Z" style=""></path>
    </g>
    <g transform="matrix(0.617629425572142 -0.786469257293269 0.786469257293269 0.617629425572142 -102.11304044955313 -14.063057172102518)" data-zeichen="I">
      <path d="M38.4742,46.0168L24.332,40.8964C18.3323,38.7241 18.27,38.8828 24.1451,41.3725L99.8303,73.4458C103.0552,74.8124 105.1813,73.8214 106.2084,70.4729L108.6296,62.5799C109.6567,59.2314 108.4341,57.3278 104.9617,56.8691L56.9625,50.5286C50.6366,49.693 44.4739,48.1891 38.4742,46.0168Z" style=""></path>
    </g>
    <g transform="matrix(-0.6386436993509588 -0.7695025830231645 -0.7695025830231645 0.6386436993509588 82.9063388823869 -25.47890520504633)" data-zeichen="E">
      <path d="M5.2777,46.9954L19.2275,51.3569C25.1456,53.2073 31.205,54.116 37.4055,54.0829L87.2336,53.8169C98.0821,53.759 98.1005,54.1778 87.2889,55.0733L59.8812,57.3435C50.3518,58.1328 40.9964,57.1921 31.8149,54.5213L5.3313,46.8176C-0.6226,45.0857 -0.6404,45.145 5.2777,46.9954Z" style=""></path>
    </g>
    <g transform="matrix(0.593313835611309 0.804971237046515 -0.804971237046515 0.593313835611309 14.393751010946481 -52.439352981070975)" data-zeichen="S">
      <path d="M3.3445,47.146C0.1124,61.7087 51.4164,49.2465 94.6451,58.5442C21.751,52.0063 65.6742,50.6869 66.5705,54.5665L21.1019,45.592C52.8106,36.1788 63.226,44.0619 70.983,41.8646C35.2735,38.7076 42.5599,49.6781 57.9344,56.0405C66.58,75.342 47.4564,68.184 67.0046,63.8676L66.0054,73.3963C101.6095,73.3823 48.8969,61.0551 43.2752,63.9007L3.3445,47.146Z" style=""></path>
    </g>
    <g transform="matrix(-0.2355540579257751 -0.971861248221525 -0.971861248221525 0.2355540579257751 42.40439409823965 63.73005307891433)" data-zeichen="I">
      <path d="M112.0493,52.7179L19.9451,45.7857C13.5699,45.3058 9.5391,48.1493 7.8527,54.3161L3.8776,68.8521C2.1912,75.0189 4.5089,77.6256 10.8306,76.6721L101.3234,63.0233C103.9615,62.6254 106.2848,61.5484 108.2932,59.7922L113.0273,55.6526C115.0357,53.8964 114.7097,52.9182 112.0493,52.7179Z" style=""></path>
    </g>
  </g>
<path class="glyph-merged" d="M23.48836,5.81933c-2.80204,0.66207 -5.45714,1.29632 -7.97339,1.90359l-0.06331,2.17873zM-1.70583,17.26349c0.00573,-0.25485 0.0118,-0.49784 0.01824,-0.72897c-0.19616,0.1668 -0.40301,0.3488 -0.62029,0.54533c0.19572,0.26344 0.39185,0.52784 0.58835,0.79316zM-0.85044,17.23801l0.07443,0.90665l1.29816,-0.65942c0.72269,-2.4471 0.14314,-2.75266 -1.4846,-1.53396c0.03613,0.38841 0.07347,0.81732 0.112,1.28673zM7.21951,14.08325l-0.04753,-2.14765c-0.5158,0.97538 -1.02444,1.96025 -1.5168,2.94227zM22.34536,0.19245c0.72909,0.27748 1.48722,0.55558 2.27498,0.83395l0.14733,-1.17682c-0.80472,0.12344 -1.61258,0.23727 -2.42231,0.34287c-2.46388,-0.93771 -4.5961,-1.8683 -6.4193,-2.77804c-0.03628,0.06676 -0.07552,0.13824 -0.11779,0.21453l-0.09507,3.27185c2.20746,-0.19404 4.42675,-0.42071 6.63216,-0.70834zM37.80426,4.94533c21.64829,3.80153 11.66045,3.01917 -3.54006,5.13186c1.02236,4.71384 1.40138,9.50113 1.13694,14.36192l-0.29078,5.34596l0.19289,0.02655c-0.06451,-0.00833 -0.12884,-0.01666 -0.19298,-0.02498l-0.26813,4.92963c1.94101,0.49667 3.89852,0.91001 5.87256,1.24004l8.70725,-23.31887c4.06001,-10.87317 6.07586,-10.50649 6.04749,1.09982l-0.07899,32.34722l4.62799,1.13013l4.82017,-24.38165c1.58761,-8.03067 1.15318,-15.95045 -1.30329,-23.75932l-5.79025,-18.40669c-2.45647,-7.80888 -2.19614,-7.90044 0.78105,-0.27488l13.70153,35.09437c-0.79234,0.0753 -1.22411,0.99816 -1.29527,2.76859l-0.83452,20.75291c-0.26455,6.57729 -1.66308,12.90396 -4.19576,18.97986l-9.91136,23.77801c-3.55454,8.52753 -4.43581,8.2596 -2.64407,-0.80366l5.34775,-27.05028c-1.10915,0.20683 -2.21675,0.16674 -3.32278,-0.12027l-0.03123,12.78729c-0.01462,6.00642 -0.73475,6.09222 -2.16041,0.25751l-3.36042,-13.75349c-0.17824,-0.72946 -0.38356,-1.38608 -0.61598,-1.96988l-6.45413,-2.95545c-0.74925,0.32437 -1.55147,0.79113 -2.40666,1.40028l-20.86741,14.86346c-7.31257,5.20862 -11.06824,3.32509 -11.26687,-5.65069l-0.54104,-24.44583c-0.5698,-0.17086 -1.03947,-0.32438 -1.40903,-0.46058c-0.63059,2.34368 -1.6424,4.56794 -3.03544,6.67274l-1.89197,2.85865c3.21455,8.48322 3.84725,14.07115 -3.46067,5.22887l-0.29098,0.43965l-0.08813,3.92118c-0.13761,6.12126 -1.59853,9.67108 -4.38278,10.64944c-0.96926,2.07346 -2.74977,3.8261 -5.34154,5.25794l-4.97432,2.7481l-3.02335,7.40644c-0.46302,-1.34913 0.36797,-3.62906 2.49296,-6.83979l0.28549,-0.43136l-7.9714,4.40386c-5.59604,3.09156 -8.67533,1.4531 -9.23776,-4.91532l-1.41576,-16.03027l-5.17426,6.51601c-6.472,8.15025 -7.22213,7.65385 -2.25051,-1.4892l5.97253,-10.98374c0.22481,-0.0521 0.44983,-0.10695 0.67502,-0.16446c-0.53285,1.13908 -1.08171,2.31181 -1.64711,3.51923c0.68448,-0.57248 1.36511,-1.15049 2.04146,-1.73294l-0.16306,-1.84628c-0.07711,0.02031 -0.15421,0.0403 -0.23128,0.05999c0.06659,-0.14234 0.13292,-0.28416 0.19901,-0.42545l-0.07731,-0.8753l-0.79673,1.46522c-0.29149,0.06755 -0.58263,0.13046 -0.87335,0.18855l1.64243,-1.96683l-0.04623,-0.52348l-28.93798,-19.70242c-0.04627,-0.03151 -0.09238,-0.06293 -0.13833,-0.09428l0.40353,4.75172c0.26454,3.11487 -0.93494,3.85411 -3.59845,2.2175l-19.10246,-11.73733c-5.9883,-3.67946 -5.5485,-6.26565 1.31951,-7.75854l24.58128,-5.34305c2.55104,-0.55454 3.0756,0.23584 1.57349,2.37107l-3.54058,5.03297c-0.53744,0.76397 -0.96459,1.55776 -1.28145,2.38139c0.99628,0.26115 2.06703,0.55733 3.21225,0.88853l23.7314,6.86311l-0.43713,-4.9495c-10.00654,-0.51504 -19.19753,-2.87566 -19.02873,-9.81811c9.19162,1.38325 14.87297,2.74149 18.50787,3.92055l-0.50849,-5.75744c-10.19245,-4.67652 -10.22382,-5.032 -0.09417,-1.06628l-2.0789,-23.53878l-12.43818,6.86366c-5.58671,3.08287 -5.67304,2.93586 -0.259,-0.44104l12.57187,-7.84151l-0.01875,-0.21233c-4.35644,-1.40672 -9.33801,-3.15231 -15.19315,-5.34833c5.46451,-0.35686 10.39026,-0.68094 14.84145,-0.97864c0.15162,-1.77305 0.65342,-3.47646 1.50546,-5.11021l2.90798,-5.57599c1.2337,-2.36557 2.26116,-2.27916 3.08249,0.2592l3.09529,9.56692c0.71404,-0.5995 1.41892,-1.21068 2.11463,-1.83354c-2.54534,-1.02915 -2.6947,-1.42801 0.4621,-0.72714c0.09608,0.01601 0.19202,0.032 0.2878,0.04799c0.50615,-0.46369 1.00735,-0.93368 1.50361,-1.40997c-0.41293,-0.09583 -0.83046,-0.19276 -1.25262,-0.29081l1.55612,-0.00186c0.08839,-0.08564 0.17662,-0.17148 0.26469,-0.25753l19.50145,-19.05181l-7.52853,-10.76956c-6.21567,-8.89146 -5.88165,-9.14476 1.00212,-0.75984l8.15726,9.93615l13.50003,-13.18876c2.50541,-2.44763 4.75765,-2.23345 6.75677,0.64247l4.7122,6.77915c1.99912,2.87591 1.46537,5.1601 -1.60121,6.85233l-0.20104,0.11094c-0.00275,0.12092 -0.00595,0.24431 -0.00961,0.37016l-0.41237,14.19159c2.63262,-0.30367 5.78132,-0.58196 9.48072,-0.82293c-3.83249,0.94241 -6.93502,1.76442 -9.5291,2.48809l-0.09958,3.4269l38.18168,-0.04569c-16.12754,1.31367 -29.54314,1.24281 -38.19475,0.4954l-0.17425,5.99678l1.05096,1.28015c2.04043,2.4854 4.25155,4.77983 6.63331,6.88327l-3.40026,-2.30131c-1.49769,-1.01364 -2.95173,-2.07158 -4.36213,-3.17383l-0.12927,4.44895c2.47522,0.17345 5.37495,0.69445 8.5873,1.63096c-0.23348,-0.1998 -0.46536,-0.40139 -0.69564,-0.60477l2.49799,1.69065c0.548,-1.12188 1.22023,-0.66692 2.01668,1.3649l14.92667,10.10242c5.13512,3.47547 5.10086,3.52704 -0.10259,0.1548l-12.26514,-7.94896c-0.77485,-0.50217 -1.53564,-1.02008 -2.28235,-1.55374c0.16465,0.47727 0.33425,1.01739 0.50881,1.62036l3.16451,10.93062c1.67414,0.4776 3.44172,0.95282 5.30574,1.42384zM-14.92769,5.63146l-2.00301,-8.26061c1.30368,1.86613 2.74079,3.84122 4.27894,5.91618c0.17919,-0.25054 0.36535,-0.51312 0.55883,-0.78842l-0.48376,0.88966c0.24248,0.32692 0.48745,0.65632 0.73479,0.98814c2.18993,-0.72453 4.64822,-1.24606 7.30032,-1.64678l-5.24485,-11.1322c4.59328,3.47049 8.38206,6.73261 11.54085,9.77981l3.43797,-4.11701c-0.70002,1.57466 -1.37171,3.11077 -2.01676,4.60927c1.23542,-0.10421 2.49295,-0.2004 3.76706,-0.29464l-0.17728,-8.00992c-11.2081,-2.07985 -18.23454,-2.68075 -25.54199,-3.8067l1.84589,7.61262c-2.10713,-3.01621 -3.86571,-5.74778 -5.13901,-8.15632c-2.05642,-0.36419 -4.18405,-0.79042 -6.47526,-1.32018l7.59228,23.4662c1.25525,-2.55405 3.33399,-4.38612 6.02501,-5.72908zM16.12758,-13.35988l-0.25455,8.76034c2.8201,0.61029 5.86933,1.30617 9.18803,2.10574l0.57895,-4.62435c0.21662,-1.73019 0.47145,-2.9754 0.76448,-3.73563c-0.53973,-0.42868 -1.07145,-0.86631 -1.59518,-1.3129c-2.89901,-0.33539 -5.80358,-0.73862 -8.68173,-1.1932zM6.57445,-15.06264l-0.00071,-0.03208c-0.08409,-3.79821 0.23653,-7.53265 0.96187,-11.20333c-0.35239,-0.37608 -0.70113,-0.75588 -1.0462,-1.1394l-1.44344,0.00173c0.37743,-0.10764 0.75812,-0.21889 1.14608,-0.33415c-2.01059,-2.26086 -3.8954,-4.64943 -5.65442,-7.1657l-1.52569,-2.1825l-17.59739,9.71063l23.63142,-0.02828c-4.74416,1.35296 -8.97351,2.13487 -20.65825,3.13968c-1.86954,-0.43041 -3.8919,-0.89681 -6.0728,-1.40095l-1.78259,0.98367c1.43414,0.24604 2.82516,0.48714 4.16924,0.72214c-1.93459,0.15445 -4.0453,0.31533 -6.35703,0.48513l-0.07879,0.04348c6.90182,2.32374 18.87647,5.74527 32.30871,8.39994zM8.75675,-31.20167c0.21443,-0.71177 0.44457,-1.42106 0.69041,-2.12787l4.10913,-11.81443l-11.71733,6.46588l6.28709,7.65814c0.19644,-0.06081 0.40662,-0.1214 0.6307,-0.18172zM7.64017,33.09048l-0.02258,-1.02032l-0.885,-0.40526c-0.07698,0.47014 -0.16837,0.93575 -0.27419,1.39686c0.32797,-0.00184 0.72189,0.00773 1.18177,0.02872zM-5.62921,31.50389c0.28033,-0.57629 0.55087,-1.13525 0.81175,-1.67718c-0.47083,-0.89487 -0.9403,-1.7571 -1.40209,-2.57307c-0.01591,0.0035 -0.03182,0.007 -0.04776,0.0105c0.01574,-0.00381 0.03148,-0.00762 0.04723,-0.01143c-0.10444,-0.18454 -0.20849,-0.36672 -0.31208,-0.54637c-0.07882,0.22387 -0.15692,0.4463 -0.23432,0.6673c0.16781,-0.03675 0.3342,-0.07325 0.49917,-0.1095c-0.16792,0.04061 -0.33568,0.081 -0.50325,0.12115c-0.77971,2.22642 -1.4884,4.30741 -2.14288,6.25234c-0.59989,0.4038 -1.21591,0.82355 -1.84664,1.25549l1.29943,0.3758c0.17825,-0.53284 0.36053,-1.07653 0.54721,-1.63129c1.15831,-0.77969 2.25647,-1.49993 3.28423,-2.13374c-0.64637,1.32878 -1.3448,2.74974 -2.09684,4.26668l0.72216,0.20885c1.6967,0.4907 3.09603,0.61783 4.198,0.38141l0.32652,-0.79989c-0.19996,-0.11093 -0.3918,-0.21184 -0.57568,-0.30337c0.23061,-0.12276 0.47091,-0.26763 0.72033,-0.43722c0.02816,0.05981 0.05629,0.11966 0.08438,0.17953l0.13657,-0.33457c-0.07442,0.05383 -0.14808,0.10549 -0.22095,0.15504c-0.65562,-1.39232 -1.33163,-2.76702 -2.00922,-4.0836c-0.41487,0.23832 -0.84357,0.49475 -1.28526,0.76714zM-16.77506,20.90038c-0.31352,0.05188 -0.65815,0.10953 -1.03504,0.17332l0.87034,2.69003l1.77524,-2.12587zM-16.837,20.87202l-1.21894,-0.55817l0.21972,0.6791c0.35589,-0.04177 0.68961,-0.08228 0.99923,-0.12093zM7.40021,22.24806l-0.08529,-3.85355c-0.0189,0.01268 -0.03778,0.02538 -0.05663,0.03809l-0.0875,3.88407c0.07674,-0.02296 0.15321,-0.04583 0.22942,-0.06861zM7.48286,25.98258l-0.39344,-0.05415l-0.00491,0.21791c0.14033,0.22192 0.27957,0.44626 0.41684,0.67183zM7.44002,24.04676l-0.00998,-0.45074c-0.09648,0.02806 -0.19314,0.05612 -0.28997,0.08419l-0.01004,0.44564c0.10523,-0.02678 0.20855,-0.05314 0.30999,-0.07909zM-19.29845,-23.99119c1.30649,-0.1043 2.53265,-0.20567 3.68615,-0.30486c29.72423,6.84317 20.81786,4.58903 -3.68615,0.30486zM18.60599,37.10191l-3.9169,-0.95649l-0.16182,5.56917c1.41752,2.34872 2.79151,4.73349 4.10401,7.14928l1.39134,-11.11327l-1.41662,-0.64869l1.4534,0.35491l0.39491,-3.15435l-5.69451,-0.59045l-0.0467,1.60728zM14.08241,57.02449c-0.03482,1.19603 0.31962,1.32528 1.06316,0.38792l1.75278,-2.20957c0.74354,-0.93736 1.18966,-1.99974 1.3383,-3.18694l0.22182,-1.77181c-1.44886,-2.4264 -2.77374,-4.66663 -3.98342,-6.73257zM23.23475,12.09378c-2.70392,0.64209 -5.38321,1.41291 -7.91499,2.34726l-0.1072,3.68936c0.18548,0.31027 0.36538,0.61546 0.5403,0.91553c-0.18422,-0.24042 -0.36637,-0.47502 -0.54645,-0.70387l-0.04726,1.62651c0.33073,-0.09501 0.6531,-0.18727 0.96721,-0.27681c-0.12201,-0.21258 -0.24644,-0.42786 -0.3735,-0.64584c0.15484,0.20208 0.31115,0.40828 0.46893,0.61864c2.67331,-0.76144 4.74295,-1.32443 6.28002,-1.71644zM22.39,18.84122c-1.46496,0.52409 -3.30813,1.1488 -5.42295,1.83298c1.35519,1.86447 2.81367,4.02372 4.3792,6.504zM15.12149,21.26437l-0.12192,4.19592c1.17177,0.56086 2.95345,1.18157 5.65371,1.83631c-1.28881,-1.70812 -2.4341,-3.89599 -3.9251,-6.54525c-0.52019,0.16777 -1.05626,0.33897 -1.60668,0.51302zM14.88453,29.41932l5.98223,1.58865l0.37316,-2.98059c-0.04842,-0.05645 -0.09656,-0.11353 -0.14444,-0.17123l-6.14096,-0.84521zM40.55405,36.38658l-5.77021,-0.5983l-0.28257,5.19518l3.97396,0.97042zM37.10686,45.57375l-2.78212,-1.27398c-0.26671,6.14307 0.66066,6.56773 2.78212,1.27398zM-1.19607,12.43545c0.30786,-0.18063 0.62785,-0.36919 0.96053,-0.56621l-0.10453,-0.22186c-0.2026,0.05157 -0.40383,0.10286 -0.60371,0.15387c-0.08468,0.21231 -0.16877,0.42371 -0.25229,0.6342zM-13.50703,19.653l1.53386,-1.83682l-0.71264,-2.93901c-2.51288,0.67733 -4.67755,1.27437 -6.54777,1.7968l0.26931,0.83238zM75.76535,24.54769l-2.56152,-0.0159c-2.65823,-0.01644 -2.66088,-0.10861 -0.00788,-0.2764l2.39611,-0.15158l-3.36439,-8.61738c0.58511,-0.0556 1.36685,0.35099 2.3452,1.21979l5.90251,5.24153c0.84389,0.74938 1.26906,1.3382 1.27551,1.76645l15.40671,-0.97462c7.24395,-0.45819 9.85373,2.79792 7.82942,9.76837l-7.1699,24.68835c-2.64608,9.1115 -5.69448,9.24811 -9.14508,0.40988zM18.53184,73.14487l-2.41501,3.27119c-1.02457,1.38771 -2.3028,2.4781 -3.8346,3.27119l-6.57424,3.40367c-2.30012,1.19089 -4.74018,1.901 -7.3202,2.13033l-21.93481,1.95006l3.3163,-8.12409c0.58267,1.69777 3.21457,1.9215 7.8957,0.67118l29.90393,-7.98739c1.66649,-0.44512 1.98751,0.02614 0.96293,1.41385zM-24.26132,88.92117c-3.17363,7.77455 -5.61649,7.55132 -7.32875,-0.66954l-0.07469,-0.35861l8.11774,-0.72169zM-31.66476,87.89301l-13.46981,1.1975c-7.02268,0.62429 -8.90314,-2.1888 -5.64126,-8.43924l7.68872,-14.7332c3.26188,-6.25044 5.61158,-5.92458 7.04918,0.97771zM-3.05505,35.25756c-4.0657,2.16422 -5.11855,-2.54802 0,0zM2.4248,23.54695l0.30064,-0.73648c-0.01423,-0.09434 -0.0281,-0.18838 -0.04161,-0.28211c-0.17686,0.21883 -0.34748,0.44134 -0.51161,0.66759c0.08418,0.11685 0.16837,0.23385 0.25258,0.351z" fill="none" stroke="#1d1d1b" stroke-width="1.2" stroke-linejoin="round" style=""></path></g>
<g transform="translate(35.9172 549.9213) scale(0.9714) translate(69.6886 41.0672)">
  <g data-rolle="struktur" style="display: none;">
    <g transform="matrix(1 0 0 1 -55.97625160217285 -57.52730369567871)" data-zeichen="A">
      <path d="M38.767,74.4831L21.0856,85.3351C17.2795,87.671 13.2027,88.3291 8.855,87.3092L-1.3932,84.9052C-5.7409,83.8853 -5.9754,82.2686 -2.0969,80.0551L90.0153,27.4857C95.019,24.63 99.9933,24.6802 104.9383,27.6363L116.5945,34.6042C121.5395,37.5603 121.7019,40.7591 117.0816,44.2007L68.5018,80.3871C61.7091,85.4469 54.0952,87.5915 45.6602,86.821L20.7779,84.5479C15.676,84.0818 12.0059,81.5447 9.7675,76.9365L1.8716,60.6809C1.3797,59.6682 0.7694,58.7329 0.0406,57.8748L-1.6772,55.8521C-2.406,54.994 -2.2288,54.7183 -1.1456,55.025L37.594,65.9929C44.4402,67.9312 44.8312,70.7612 38.767,74.4831ZM100.3992,64.3888L75.3215,59.0828C40.7538,55.629 56.3496,41.6137 63.141,42.5433L119.5199,27.4876C46.4716,45.7263 53.9732,44.6381 78.1037,47.5331L92.2606,52.7821C95.9309,54.143 95.8419,55.1815 91.9935,55.8976L70.8026,59.8412C63.8121,61.1421 63.8566,62.1235 70.9363,62.7855L100.2266,65.5242C106.8433,66.1429 106.9008,65.7644 100.3992,64.3888Z" style=""></path>
    </g>
    <g transform="matrix(-0.8254065879876564 -0.5645387183414219 -0.5645387183414219 0.8254065879876564 62.38388808224535 7.722344977529474)" data-zeichen="S">
      <path d="M104.3702,46.4975L5.6818,51.1025C123.3826,59.641 64.0541,53.6396 52.6321,64.2584C19.2466,60.5982 60.31,66.456 62.422,73.2504C9.6523,78.833 45.477,65.0165 47.4183,59.8718L-4.0418,61.2452C50.7014,71.0504 48.7885,71.6405 -3.4333,65.1748C51.1807,62.7859 70.4624,65.16 15.4058,70.059C22.5028,61.2702 66.2866,46.5828 109.1699,43.0734L106.6844,45.4935C106.04,46.1209 105.2686,46.4556 104.3702,46.4975Z" style=""></path>
    </g>
    <g transform="matrix(0.8878222539651625 -0.4601865332277973 0.4601865332277973 0.8878222539651625 -83.66735596272568 30.05920521508208)" data-zeichen="U">
      <path d="M32.4932,58.4168L82.3718,31.5811C83.2074,31.1316 83.6931,31.3763 83.8288,32.3154L84.1489,34.529C84.2846,35.4681 83.9395,36.1711 83.1135,36.638L54.0204,53.0847C12.3889,69.2264 54.377,82.1893 26.4906,89.2291C63.0132,77.7644 64.5423,82.1781 77.9128,71.513L56.8967,78.4424C58.6961,65.2573 53.2257,72.4686 95.4531,54.6918L34.8538,65.2422C20.0236,67.8241 19.2367,65.549 32.4932,58.4168Z" style=""></path>
    </g>
    <g transform="matrix(0.40328832872235565 -0.9150729609797948 0.9150729609797948 0.40328832872235565 -101.13659260420405 28.837073142193862)" data-zeichen="U">
      <path d="M27.4042,27.6156L15.3866,74.5842C50.7427,83.1013 53.9008,77.0835 40.3366,76.1362L-3.1371,88.9929C96.8438,88.8814 64.8461,75.9107 95.2475,54.9952L78.3698,40.1733C73.9941,36.3306 68.8949,34.4547 63.0721,34.5458L22.4904,35.1806C19.5277,35.2269 19.0225,34.1357 20.975,31.9068L25.5772,26.6529C27.5297,24.424 28.1387,24.7449 27.4042,27.6156Z" style=""></path>
    </g>
    <g transform="matrix(-0.94205277754992 -0.3354646990526439 0.3354646990526439 -0.94205277754992 27.0629476630071 49.437916812318605)" data-zeichen="S">
      <path d="M110.5843,53.9333C11.9695,56.2901 51.4164,49.2465 -7.4795,46.8281C33.1846,38.9213 65.6742,50.6869 9.9046,43.4363L51.2637,41.9682C45.6297,38.8894 63.226,44.0619 61.4223,36.5518C20.2002,44.2677 42.5599,49.6781 -15.3215,53.8976C107.3235,77.067 47.4564,68.184 -6.4439,61.4023L45.3911,56.5574C73.8814,56.8306 48.8969,61.0551 7.1821,62.3583L110.5843,53.9333Z" style=""></path>
    </g>
  </g>
<path class="glyph-merged" d="M-47.12125,29.78189l-10.2482,-2.404c-4.3477,-1.0199 -4.5822,-2.6366 -0.7037,-4.8501l1.72425,-0.98405l-2.36167,-1.85418l5.87655,-13.92006l-1.27064,-2.61591c-0.4919,-1.0127 -1.1022,-1.948 -1.831,-2.8061l-1.7178,-2.0227c-0.7288,-0.8581 -0.5516,-1.1338 0.5316,-0.8271l6.9493,1.96748l3.9714,-9.40725l-3.81245,-2.87726c-0.71789,-0.54177 -1.16566,-1.25351 -1.34336,-2.13516l-0.68531,-3.40073c2.34068,1.89874 4.65404,3.84525 6.93274,5.82739l1.02111,-2.41875c2.2649,-5.36503 6.03794,-9.27464 11.31896,-11.72901l3.58756,-1.66732c-8.09107,-2.85609 -17.87965,-6.18505 -29.83868,-10.12432l32.79239,8.75158l13.82843,-6.42677c0.8463,4.46047 1.96347,8.00813 3.19715,10.97053l2.92715,0.78119c-3.61717,-0.28453 -1.24214,1.36113 9.5506,5.32144l7.98287,2.02902l3.1891,-1.82005l-20.72258,-5.53041c3.17523,0.24977 10.96789,1.98689 21.73728,4.95131l2.39393,-1.36624c-34.63521,-20.77002 -21.64817,-14.60167 3.38231,-1.93032l12.80099,-7.30566c5.0037,-2.8557 9.978,-2.8055 14.923,0.1506l4.12876,2.46811c-11.32073,2.8436 -20.30176,5.13799 -27.27953,7.00587c0.19458,0.0988 0.3897,0.19788 0.58535,0.29725l26.89603,-7.18245l7.32559,4.37913c4.945,2.9561 5.1074,6.1549 0.4871,9.5965l-8.64555,6.43995c0.42428,0.21428 0.8483,0.42832 1.27195,0.64206l-1.59102,-0.40439l-4.58478,3.41514c3.76267,2.20712 7.7664,4.5509 12.02141,7.0372c-6.15274,-1.69837 -11.39594,-3.05756 -15.91036,-4.14037l-4.82464,3.59381c3.17706,1.37795 6.80195,2.89337 10.97586,4.57569c-1.29297,-0.19548 -2.5717,-0.4067 -3.8342,-0.63166c4.87987,1.09506 4.30201,1.36045 -1.73365,0.79608l-10.45871,-0.97791l2.50511,-1.86602c-0.10711,-0.02616 -0.21404,-0.0524 -0.32079,-0.07871l-6.72306,-1.42248c0.98355,0.49424 2.00028,1.00878 3.05074,1.5442l-8.55771,-2.70938l-4.40067,-0.93111c-0.09619,-0.00961 -0.19199,-0.0193 -0.2874,-0.02908l-4.2315,0.78748c-6.9905,1.3009 -6.946,2.2823 0.1337,2.9443l18.83159,1.76079l-21.26609,15.84081c-2.33968,1.7428 -4.77679,3.13974 -7.31132,4.19083l-0.79148,1.21316l15.19721,11.46934l6.62651,-5.04355c-1.84439,2.21599 -3.56662,4.25722 -5.17365,6.14002l7.77194,5.86549c-2.97402,-1.73239 -5.81677,-3.38997 -8.53328,-4.97527c-2.16883,2.53093 -4.12005,4.76468 -5.872,6.74429l16.70527,12.09217c-6.42725,-2.89062 -12.02005,-5.38978 -16.79153,-7.50115c-0.82642,-0.6007 -1.63782,-1.18843 -2.43384,-1.76296c-0.14939,0.16653 -0.29703,0.33092 -0.44293,0.49319c0.92332,0.40643 1.8822,0.82968 2.87677,1.26977c4.30089,3.12619 9.00848,6.60367 14.07086,10.40115c-3.69079,-1.90596 -7.09799,-3.67123 -10.21843,-5.29492c-6.54691,14.4809 -10.11822,12.41696 -34.12909,35.81352c9.73642,-10.95413 -6.60315,-11.37963 -6.05525,-22.58027l25.88151,-19.69887c-1.22982,-1.0301 -2.39357,-2.01138 -3.49253,-2.9446c-3.30761,-1.80396 -5.48411,-3.05594 -6.50562,-3.74928c0.6066,2.71249 0.20689,4.42312 -2.69397,3.51312l-2.48865,3.81455c-3.1352,3.55516 -5.45023,6.64486 -7.10965,9.35068c-0.82839,1.91695 -1.6878,3.88876 -2.57912,5.91734l0.14791,-1.15315c-0.73344,1.86246 -1.08879,3.49703 -1.15988,4.95021l-0.72108,0.54883c-11.97843,9.11693 -13.72402,7.45916 -5.23675,-4.97343l8.68145,-12.71713l1.42783,-11.13189c-1.44381,-1.0596 -3.04746,-2.28822 -4.82581,-3.70195c-1.23299,1.70417 -2.57344,3.50927 -4.02829,5.4171l-18.78021,-14.74461c-0.54877,-0.07561 -1.10199,-0.17882 -1.65967,-0.30964zM-1.17399,-10.94444c1.35916,-1.86151 3.75586,-3.32688 5.95783,-3.86309c-2.94828,-1.46555 -6.57291,-3.10627 -11.37886,-5.06892c1.94433,3.41865 3.91555,6.04753 5.42104,8.93201zM-7.91527,37.64159l0.26411,-0.38688c-0.19373,-0.05811 -0.4023,-0.12234 -0.62442,-0.19197c-0.03631,0.09491 -0.07275,0.19003 -0.1093,0.28534c0.1538,0.09563 0.31035,0.19347 0.46962,0.29351zM-7.22332,36.62799l1.75654,-2.57309l-1.31806,-0.95408c-0.37198,1.00656 -0.75854,2.03782 -1.16005,3.0946c0.27077,0.15901 0.51081,0.30292 0.72157,0.43257zM-3.79418,31.60476l1.72365,-2.5249c-1.10918,0.16798 -2.23463,0.27823 -3.37634,0.33075c-0.00081,0.00228 -0.00162,0.00457 -0.00243,0.00685c0.56466,0.73652 1.11651,1.46585 1.65512,2.1873zM1.53037,39.11982l-2.84612,-2.06018l-2.23125,3.42001c2.88343,1.92279 6.2908,4.27413 10.16531,7.01977c0.27929,0.52216 0.54302,1.03156 0.7908,1.5276l0.65612,-0.49938c-0.48927,-0.34863 -0.97161,-0.69139 -1.44692,-1.02821c-1.34789,-2.52001 -3.05821,-5.33689 -5.08794,-8.37961l9.68478,7.01036l7.22765,-5.50109c-5.93384,-3.46422 -11.24451,-6.57114 -15.9881,-9.3487l-3.07091,4.70702c0.75032,1.06772 1.46639,2.11274 2.14659,3.13241zM53.29266,-27.30223l-0.20186,-0.12067c3.28458,-0.82504 6.76613,-1.69631 10.45284,-2.61681zM10.11682,56.85233c-0.62869,-0.51742 -1.24436,-1.02528 -1.84715,-1.52365c-10.24184,11.26304 -8.54326,9.16557 -5.32474,18.19035l15.09746,-15.4426c-3.04891,-1.58673 -5.82223,-3.03742 -8.31697,-4.35122c-0.07756,0.08562 -0.15454,0.17055 -0.23094,0.25482c0.34644,1.08542 0.55669,2.04748 0.62234,2.87231zM-3.48474,45.41013c-0.73469,-0.63745 -1.43044,-1.24589 -2.08786,-1.82568l-0.57084,0.87497c0.53799,0.14998 1.42295,0.46652 2.6587,0.9507zM-19.08638,97.08818c1.09216,-1.08557 2.14588,-2.12227 3.16292,-3.11329c-0.84736,0.95334 -1.89223,1.98642 -3.16292,3.11329zM-64.81451,14.89728l6.10394,4.79229l-1.16309,2.75507c-1.15245,2.72976 -2.35472,2.75199 -3.60691,0.06642l-2.95169,-6.33019c-1.25219,-2.68557 -0.71294,-3.11343 1.61775,-1.28359zM-18.72901,33.80971c0.67611,0.18503 1.35276,0.37863 2.02213,0.57628l0.36022,-2.80838c-0.22003,-0.11783 -0.44409,-0.23772 -0.67222,-0.35968c-0.53375,0.82702 -1.10325,1.69081 -1.71012,2.59179zM20.78927,-19.05007c-0.67856,0.18836 -1.33231,0.3716 -1.96174,0.54992c0.24192,0.0684 0.48512,0.13734 0.72958,0.20682l1.72709,-0.46121c-0.16592,-0.09904 -0.3309,-0.19755 -0.49493,-0.29553zM17.36413,-18.0818c-1.76659,0.5099 -3.31936,0.97702 -4.67156,1.40619l0.41331,0.10505l4.95891,-1.32425z" fill="none" stroke="#1d1d1b" stroke-width="1.2" stroke-linejoin="round" style=""></path></g>
<g transform="translate(0 746.1959) scale(0.9713) translate(64.1982 58.141)">
  <g data-rolle="struktur" style="display: none;">
    <g transform="matrix(1 0 0 1 -65.32729510694169 -75.45179239855452)" data-zeichen="!">
      <path d="M10.4658,53.4021L37.6478,62.8871C43.1699,64.814 48.8523,65.6472 54.6951,65.3865L68.4674,64.772C74.3102,64.5113 79.0113,62.0606 82.5706,57.4198L98.8263,36.225C100.2112,34.4194 99.767,33.5685 97.4939,33.6724L92.1357,33.9173C89.8626,34.0212 87.6021,34.2503 85.3544,34.6048L11.103,46.314C1.4835,47.8309 1.2711,50.1936 10.4658,53.4021Z" style=""></path>
    </g>
    <g transform="matrix(1 0 0 1 -102.24016729342064 -96.90401853499918)" data-zeichen="!">
      <path d="M75.8032,41.363C52.7065,41.4921 51.5249,54.935 59.9018,65.428C83.0704,57.0351 53.2534,61.9916 70.0588,54.617C46.8814,51.955 60.0219,60.0473 125.9801,61.2559C65.5974,63.6747 58.3657,53.0629 88.7138,50.0672L75.8032,41.363Z" style=""></path>
    </g>
  </g>
<path class="glyph-merged" d="M-54.22429,-29.13779l42.95159,-6.77332c-8.23586,-0.63531 -13.78567,-1.70491 -16.8472,-2.94654c5.70676,0.74719 13.14635,1.47745 22.43631,2.06515l25.7107,-4.05449c2.2477,-0.3545 4.5082,-0.5836 6.7813,-0.6875l5.3582,-0.2449c2.2731,-0.1039 2.7173,0.747 1.3324,2.5526l-16.2557,21.1948c-3.5593,4.6408 -8.2604,7.0915 -14.1032,7.3522l-13.7723,0.6145c-5.8428,0.2607 -11.5252,-0.5725 -17.0473,-2.4994l-27.182,-9.485c-9.1947,-3.2085 -8.9823,-5.5712 0.6372,-7.0881zM-13.52637,-46.83682c-15.83948,1.56354 -21.44194,5.20175 -14.59354,7.97917c-3.31834,-0.43447 -6.05078,-0.87466 -8.22043,-1.29588c-6.3611,4.25922 14.44342,1.27252 -5.99803,8.6775c-8.3769,-10.493 -7.1953,-23.9359 15.9014,-24.065z" fill="none" stroke="#1d1d1b" stroke-width="1.2" stroke-linejoin="round" style=""></path></g>
<g transform="translate(0 862.5221) scale(0.9714) translate(43.7147 45.6553)">
  <g data-rolle="struktur" style="display: none;">
    <g transform="matrix(1 0 0 1 -48.895943502516516 -9.348711572344726)" data-zeichen="!">
      <path d="M46.6898,40.6243L53.9221,63.5499C56.5568,71.9016 53.5531,76.7851 44.9108,78.2006L16.3721,82.8749C5.6123,84.6372 4.9597,82.8032 14.4144,77.3729L77.5418,41.1155C92.1321,32.7355 91.0165,28.3558 74.1952,27.9763L19.0497,26.7323C12.5586,26.5858 12.528,26.9628 18.9581,27.8632L34.1146,29.9857C40.5447,30.8861 44.7364,34.4323 46.6898,40.6243Z" style=""></path>
    </g>
    <g transform="matrix(1 0 0 1 -25.541751194918547 -84.86314876406841)" data-zeichen="!">
      <path d="M102.2026,41.8079C35.098,53.8885 51.5249,54.935 45.8285,48.0606C46.4778,63.029 53.2534,61.9916 9.6825,67.4348C25.8456,59.5304 60.0219,60.0473 56.2424,64.1981C43.6279,43.0124 58.3657,53.0629 114.9197,56.3572L102.2026,41.8079Z" style=""></path>
    </g>
  </g>
<path class="glyph-merged" d="M-14.78134,20.63699l-15.1565,-2.1225c-6.4301,-0.9004 -6.3995,-1.2774 0.0916,-1.1309l55.1455,1.244c16.8213,0.3795 17.9369,4.7592 3.3466,13.1392l-25.98823,14.92641l-4.86377,-15.41761c-1.9534,-6.192 -6.1451,-9.7382 -12.5752,-10.6386zM5.02616,54.20119c2.6347,8.3517 -0.369,13.2352 -9.0113,14.6507l-28.5387,4.6743c-10.7598,1.7623 -11.4124,-0.0717 -1.9577,-5.502l37.13917,-21.33099zM89.37795,-28.50595c-54.92573,-3.19945 -70.40849,-12.77167 -59.6985,6.08778c-1.93615,-0.73994 -5.86505,-1.17108 -10.75782,-1.20542c3.50322,-2.29319 1.68601,-5.7814 1.36512,-13.17896c5.6964,6.8744 -10.7305,5.8279 56.3741,-6.2527zM-15.85925,-17.42835c9.1983,-4.49834 24.23048,-6.2693 34.78088,-6.19524c-3.58529,2.34691 -12.7432,3.44213 -34.78088,6.19524zM30.70065,-20.66505c-0.36319,-0.60996 -0.7037,-1.19404 -1.0212,-1.75312c1.22506,0.46818 1.65233,1.05999 1.0212,1.75312z" fill="none" stroke="#1d1d1b" stroke-width="1.2" stroke-linejoin="round" style=""></path></g>
<g transform="translate(0 1040.6342) scale(0.9714) translate(130.9773 82.0577)">
  <g data-rolle="struktur" style="display: none;">
    <g transform="matrix(1 0 0 1 -121.70946915431483 -116.54612528058765)" data-zeichen="?">
      <path d="M78.3796,41.1089C35.1715,40.046 63.1904,39.7416 57.3396,49.5994C49.6731,33.7185 46.9892,40.8939 101.9315,37.0884L19.0574,41.4195C34.6597,40.2217 51.0214,44.9262 47.6192,42.24C38.317,57.7536 60.454,47.4467 68.6153,62.4111C36.7994,52.6344 58.6542,57.1674 42.4095,60.0161C87.4222,70.2875 50.5175,69.5522 -6.6678,84.1814L6.4552,74.8589C9.8575,72.442 13.6295,71.4896 17.7713,72.0017L86.8967,80.5493C106.4288,82.9645 106.4,83.2257 86.8104,81.3328L9.7076,73.8826C70.8603,72.7854 57.5741,66.6 60.2846,72.724C33.5155,61.7052 66.9345,55.223 51.7768,47.7625L78.3796,41.1089Z" style=""></path>
    </g>
    <g transform="matrix(1 0 0 1 -0.2633635261361178 -112.61368418637898)" data-zeichen="?">
      <path d="M45.8095,41.985C21.5214,51.9415 51.4887,54.8989 37.6436,58.3258C78.4264,48.6551 53.2172,62.0278 53.2425,52.5376C63.6894,50.6124 60.058,60.0835 27.1166,64.0775C30.2731,58.8303 58.3295,53.0268 -9.9638,64.155L45.8095,41.985Z" style=""></path>
    </g>
  </g>
<path class="glyph-merged" d="M-63.58693,-70.37076c-1.13861,-6.33909 -17.18878,-5.98762 20.25705,-5.06647zM-64.36987,-66.94673c-0.50873,-1.05381 -0.99551,-2.0061 -1.44498,-2.8668l2.22792,-0.55722c0.17521,0.97548 -0.00268,2.10938 -0.78295,3.42403zM-40.15267,-78.39292l20.3747,-1.06481c-7.94294,0.55016 -14.68149,0.87081 -20.3747,1.06481zM-102.65207,-75.12663c1.06241,-0.08156 2.12834,-0.13576 3.19131,-0.16678zM-53.09417,-54.13503c-8.39035,-2.57827 -13.04812,-4.16136 -15.65641,-5.0426c1.13481,-1.33145 2.22723,-2.62006 2.7037,-3.89492c4.66832,1.18857 9.83214,3.2157 12.95271,8.93752zM-68.75058,-59.17762c-1.21099,1.42083 -2.47026,2.89044 -3.08081,4.44416c-2.18201,-0.56045 -4.66659,-1.15718 -7.46858,-1.79656c11.96072,-2.09745 3.26714,-5.10799 10.54939,-2.6476zM-128.37727,-32.36473l13.123,-9.3225c3.4023,-2.4169 7.1743,-3.3693 11.3161,-2.8572l10.59339,1.30991c12.62479,-0.578 20.20044,-1.39657 24.74094,-2.06826c-4.048,0.95572 -9.28575,1.99317 -15.47583,3.21392l49.2669,6.09203c19.5321,2.4152 19.5033,2.6764 -0.0863,0.7835l-56.388,-5.44859c-10.59198,2.11475 -23.24685,4.75577 -37.0902,8.29719zM-61.42487,-43.82213c-1.62955,-0.67076 -3.03606,-1.32471 -4.24407,-1.96309c5.84749,-1.07179 2.81149,-1.27363 4.24407,1.96309zM-66.04688,-63.07255c-7.3129,-1.86189 -13.40988,-1.666 -8.53182,-10.39134c-3.16903,0.01565 -13.86669,-2.15103 -24.88206,-1.82953l31.40265,-1.64114c-1.1751,1.02536 0.11613,3.04764 2.24326,7.12102l-4.11782,1.0299c3.93642,1.93748 4.59669,3.80897 3.88579,5.71108zM-68.05811,-76.93455c1.77752,-1.55101 9.19829,-0.82093 27.90544,-1.45837zM-71.83139,-54.73346c15.59652,4.00593 15.73521,6.15782 5.84543,8.77861c-6.05462,-3.281 -6.8783,-6.15018 -5.84543,-8.77861zM-65.66894,-45.78522c-0.80043,0.14671 -1.76732,0.30972 -2.9349,0.48245c0.93741,-0.22132 1.81102,-0.43826 2.61788,-0.65208c0.10412,0.05642 0.20978,0.11297 0.31701,0.16963zM45.54614,-70.62869c-24.2881,9.9565 5.6792,12.9139 -8.1659,16.3408c7.59032,-1.79987 12.89474,-2.80154 16.50138,-3.30095c-0.55403,-0.55889 -0.90548,-1.3625 -0.90248,-2.48725c4.18727,-0.77165 6.11283,0.28754 4.79588,2.09107c5.70286,-0.27796 1.74883,1.93068 -1.57261,1.44814c-3.70966,2.62797 -12.85539,6.00089 -29.34917,8.00069c3.1565,-5.2472 31.2129,-11.0507 -37.0804,0.0775z" fill="none" stroke="#1d1d1b" stroke-width="1.2" stroke-linejoin="round" style=""></path></g>
<g transform="translate(8.3075 1151.0453) scale(0.9714) translate(98.9315 50.4495)">
  <g data-rolle="struktur" style="display: none;">
    <g transform="matrix(1 0 0 1 -55.7734489440918 -57.54725646972656)" data-zeichen="2">
      <path d="M46.5679,76.8755L22.6596,81.1775C13.3584,82.8512 13.3013,82.5798 22.4883,80.3633L57.9239,71.8141C96.0062,55.2069 63.1543,55.1864 22.9649,59.0981C66.2738,52.2396 60.9219,38.9853 40.4814,42.6896C44.2087,48.4922 46.1602,41.1455 11.3068,35.4526L-18.9892,31.9464C8.9898,47.8724 49.833,33.7294 36.4906,25.2123C109.8508,38.3625 69.5625,40.6415 80.8526,41.3014C113.2456,68.1555 63.2979,62.9638 48.6657,75.7226L54.2715,77.236C55.7249,77.6283 55.7458,77.563 54.3342,77.0399L44.9233,73.5529C41.9345,72.4454 42.0007,71.5687 45.1219,70.9226L67.7277,66.2437C74.8022,64.7794 81.5443,65.7139 87.9538,69.0473L103.7723,77.2739C110.366,80.703 109.9519,82.2225 102.5301,81.8322L21.9385,77.5942C11.7399,77.0579 11.7413,76.5505 21.9428,76.072L46.3479,74.9272C56.3102,74.4599 56.3835,75.1093 46.5679,76.8755Z" style=""></path>
    </g>
    <g transform="matrix(-0.7417313433801764 -0.670697110659826 -0.670697110659826 0.7417313433801764 74.39709867084268 30.6122646621942)" data-zeichen="4">
      <path d="M10.5175,66.9365L28.7343,64.2994C33.9732,63.541 39.2366,63.281 44.5247,63.5193L86.9336,65.4308C100.9061,46.5705 65.098,49.3543 0.7204,46.1701L29.842,49.7682C37.3921,50.701 44.9109,50.495 52.3986,49.1502L73.1286,45.4269C80.3033,44.1383 87.5343,43.4082 94.8218,43.2367L111.9995,42.8325C119.287,42.661 119.4074,43.5084 112.3609,45.3747L18.5251,70.2278C-3.9662,76.1847 -3.6439,77.9309 19.492,75.4664L97.4037,67.167C104.9548,66.3627 105.1464,67.2143 97.9786,69.7219L72.6619,78.5786C71.1082,79.1221 69.6189,78.9819 68.194,78.1579L64.8352,76.2157C63.4103,75.3917 61.8931,74.807 60.2837,74.4617L5.3176,62.6673C4.0068,62.386 3.8345,62.7101 4.8007,63.6396L7.078,65.8304C8.0442,66.7599 9.1907,67.1286 10.5175,66.9365Z" style=""></path>
    </g>
    <g transform="matrix(0.9626085906630587 -0.2708961077270764 -0.2708961077270764 -0.9626085906630587 -65.33916981233887 102.4117184762711)" data-zeichen="3">
      <path d="M98.4578,61.5594C43.7964,70.3515 68.5907,62.352 72.9894,53.7321C2.9233,48.8549 64.4139,46.3666 119.17,47.787C29.3167,55.0384 45.4041,48.1664 98.7761,55.9218L67.9463,63.8486C66.6825,42.4097 50.2283,51.4789 112.4597,52.4135C10.608,39.4386 62.1814,54.7914 45.4529,62.1915C-0.7357,66.8313 56.3494,66.4554 14.007,76.311L-8.6317,69.8728C-14.501,68.2037 -14.4131,67.7852 -8.3681,68.6174L57.5492,77.6917C65.4356,78.7774 65.4781,78.528 57.6766,76.9435L38.2444,72.9969C31.1382,71.5536 31.2068,71.002 38.4501,71.3419L56.8974,72.2077C63.2248,72.5047 69.3816,71.6178 75.3679,69.5469L98.4578,61.5594Z" style=""></path>
    </g>
    <g transform="matrix(-0.10186116208509395 0.9947986246767102 -0.9947986246767102 -0.10186116208509395 53.0109552392362 -16.967836350091137)" data-zeichen="6">
      <path d="M88.7991,42.3077C107.1267,45.8553 67.9578,51.5863 20.4707,58.2849L38.2843,33.5191C12.9045,37.8678 66.5183,46.5463 83.2743,37.0004C11.6962,55.1979 53.5565,49.9311 88.4493,42.4291C92.5017,62.5262 43.411,62.3061 107.9121,78.9305L89.7638,67.5865C70.9504,59.9172 54.5653,53.603 69.7985,41.7907L88.7991,42.3077Z" style=""></path>
    </g>
    <g transform="matrix(-0.1159344632966592 -0.9932568651764334 0.9932568651764334 -0.1159344632966592 -45.683216874428794 87.62649580945849)" data-zeichen="4">
      <path d="M9.3683,32.0433L78.6709,36.7591C81.5292,36.9536 81.7516,37.8225 79.338,39.366L70.0283,45.3194C100.7369,50.0854 52.7852,45.142 25.795,57.6464L43.3936,76.7012C47.9562,81.6413 53.5165,83.3672 60.0745,81.8788L81.1609,77.0931C89.1781,75.2735 90.1851,71.5553 84.182,65.9385L59.4116,42.7624C52.0355,35.861 43.2984,32.28 33.2005,32.0195L9.3982,31.4054C-0.6997,31.1449 -0.7097,31.3575 9.3683,32.0433Z" style=""></path>
    </g>
    <g transform="matrix(0.44256158905224635 -0.8967381110979675 -0.8967381110979675 -0.44256158905224635 30.809953548536818 44.01398241861099)" data-zeichen="6">
      <path d="M57.7177,41.7221c-5.1846,0-9.0732,2.4482-11.3057,5.4004h-6.1509c-.3512,1.9717-.5454,4.0608-.5454,6.2646,0,12.1689,6.5527,19.9453,16.5615,19.9453,9.7207,0,15.5537-7.9209,15.5537-16.4893,0-9.1445-5.833-15.1211-14.1133-15.1211ZM56.2773,68.436c-6.625,0-10.1533-5.6885-10.2969-13.3926,0-1.1523.2881-2.0889.7197-2.8086,1.7285-3.3848,5.2568-5.7607,9.0732-5.7607,5.832,0,9.6484,4.0322,9.6484,10.7295s-3.6719,11.2324-9.1445,11.2324Z" style=""></path>
    </g>
    <g transform="matrix(-0.027579857288461903 0.9996196033851817 -0.9996196033851817 -0.027579857288461903 78.60570008169486 -22.170791416345633)" data-zeichen="3">
      <path d="M87.6553,35.6561L16.3728,52.9069C13.1536,53.686 13.1981,53.9942 16.5062,53.8316L24.304,53.4483C27.6121,53.2857 30.9217,53.1625 34.2328,53.0786L94.6831,51.5477C111.8347,48.5714 63.7655,49.8232 112.9641,45.8109C117.7525,69.953 61.3896,65.4482 31.4685,74.4451C44.5226,75.3898 44.6844,63.6484 35.4391,74.8744L59.0034,77.1589C11.4474,64.0813 48.0683,70.5606 51.9675,70.5824C114.6511,65.7135 70.3905,64.0079 123.5338,62.884C87.8133,57.1207 65.7098,45.6466 102.4379,56.2982L96.4412,40.3113C94.8865,36.1666 91.9578,34.6148 87.6553,35.6561Z" style=""></path>
    </g>
  </g>
  <g data-rolle="akzent" style="display: none;">
    <g transform="matrix(-0.8719217410839787 0.4896452567166184 -0.4896452567166184 -0.8719217410839787 129.19715992908894 81.69369850029278)" data-zeichen="4">
      <path d="M22.4858,51.8467L9.3109,60.1706C7.8268,61.1083 7.9392,61.7783 9.6479,62.1807L13.6757,63.1293C15.3844,63.5317 16.5931,62.9298 17.3016,61.3237L21.3695,52.1029C21.466,51.8842 21.6332,51.7637 21.8711,51.7414L22.432,51.6887C22.6699,51.6664 22.6879,51.719 22.4858,51.8467Z" style=""></path>
    </g>
  </g>
<path class="glyph-merged" d="M-20.25845,45.41074c-1.42533,-0.8233 -2.94285,-1.40719 -4.55239,-1.75168l-3.79396,-0.81215c-0.32006,-0.0685 -0.62388,-0.15877 -0.91145,-0.2708c-0.82104,0.07194 -1.50584,0.07272 -2.07496,0.01192c0.46955,-0.09111 0.95934,-0.18901 1.46853,-0.29348c-0.86918,-0.47438 -1.56193,-1.18512 -2.07826,-2.1322l-0.29499,-0.54111c-0.60857,0.26091 -1.17003,0.50732 -1.68565,0.73957c-0.08473,-0.91806 0.14595,-2.03265 0.35234,-3.18529l-3.69626,-6.78014c-0.2832,-0.06218 -0.5854,-0.11661 -0.90776,-0.16275c-40.33896,7.09926 -2.22637,-3.82274 -22.5306,-5.12897l16.60659,-7.23998l-0.6817,-1.25047c-3.63474,-6.66739 -2.92146,-7.17054 2.13999,-1.50947l1.3665,1.52841l10.54429,-4.597c2.83253,-1.23492 4.58194,-1.95606 5.24823,-2.16342l-5.51045,-8.47093c-0.51805,0.04933 -1.03748,0.09934 -1.55813,0.15002c0.50586,-0.08011 1.00507,-0.16109 1.49771,-0.24291l-8.06634,-12.39996c-3.97489,-6.11036 -3.31723,-6.65815 1.97311,-1.64324l12.47014,11.82084c0.30074,0.28508 0.60014,0.57139 0.89819,0.8589c33.66803,-7.10857 27.68209,-18.23422 8.74369,-14.80214c0.37451,0.58304 0.7311,1.03332 1.03422,1.36586c-1.85187,-1.19779 -6.84777,-3.66063 -17.81127,-6.1953c12.37426,-2.55508 19.5569,-8.32583 12.78625,-12.64787c2.64424,0.47399 5.14083,0.93386 7.4975,1.38004c-0.13608,-2.60642 0.43002,-5.29377 1.74148,-7.95112c4.30201,-8.71692 13.98644,-10.44211 21.67005,-6.65006c8.20022,4.047 10.9782,11.92269 7.31366,19.34795l-0.00005,-0.00013c-0.36774,0.74513 -0.77714,1.43258 -1.22037,2.06456c18.94731,6.03095 -1.00599,7.40888 7.35972,7.89785c15.43213,12.79338 12.17621,18.31365 2.95375,21.96662l0.91885,4.31399c1.08541,0.42195 2.16161,0.91038 3.22859,1.46529l15.8185,8.2266c6.5937,3.4291 6.1796,4.9486 -1.2422,4.5583l-14.937,-0.78548l0.31457,1.47692c1.40316,-0.27836 2.83484,-0.56089 4.29535,-0.84752c-1.39573,0.43215 -2.79683,0.86291 -4.20076,1.29162l7.79507,36.59768c0.94812,0.77988 1.90569,1.56555 2.87272,2.35675l-2.7877,-1.95759l0.43673,2.05046c0.92224,4.32958 -0.70974,7.21437 -4.89574,8.65417l-6.82079,2.34602c-0.02395,-0.31849 -0.04764,-0.62687 -0.07108,-0.9254c-0.1606,0.02809 -0.36215,0.04589 -0.60465,0.05338l-2.3324,0.07208c-0.17258,0.37768 -0.35921,0.44282 -0.56537,0.01747l-0.26074,0.00806c-1.34007,0.04141 -2.43775,-0.45407 -3.29304,-1.48643l-0.35968,-0.43413c-0.53256,1.76693 -1.14332,3.73128 -1.83846,5.90246l9.32542,-3.20749c0.25668,3.41352 0.54282,7.98712 0.86758,14.01892c-6.21768,1.0559 -10.4444,-1.84995 -13.42967,-7.26396c0.08327,-0.31557 0.16656,-0.62863 0.24983,-0.93911c-0.45265,-0.46267 -0.93273,-0.96119 -1.44024,-1.49557c0.37354,0.85867 0.76964,1.67159 1.19041,2.43468c-1.3691,5.18859 -2.73256,11.05734 -3.92844,17.35876c0.07439,-11.55386 -0.00563,-18.50811 -0.20866,-22.96135c-0.87743,-0.95962 -1.81268,-1.99478 -2.80573,-3.1055l-7.23347,-8.09056l-0.21257,1.63561c-1.94895,6.45468 -3.41723,5.41873 -4.58389,-0.79688c-6.73123,-2.11155 -9.96817,-10.41237 -13.3116,-14.085c0.68125,-1.11043 1.35919,-2.16209 2.03552,-3.14196l-2.25808,-1.30424l0.21427,4.43711c0.00276,0.00303 0.00552,0.00606 0.00829,0.00909c-0.00242,0.00395 -0.00485,0.00791 -0.00727,0.01186l1.08253,22.41658c0.48721,10.08955 0.27489,10.10427 -0.63706,0.04426l-1.82588,-20.14238c-1.93933,3.34472 -3.91414,7.08808 -5.9624,10.93631l-13.1336,16.89839c10.26674,-27.75592 14.94177,-33.54465 18.75675,-31.581c-0.117,-1.34874 -0.17174,-2.68007 -0.16422,-3.99398zM18.35009,43.93494c1.99632,1.67812 4.05149,3.40629 6.16584,5.18045l0.02808,-12.40253zM18.88297,47.51196c-0.74981,-0.52654 -1.4882,-1.06503 -2.21518,-1.61546l-7.1061,8.28569c0.20155,1.74604 0.41481,3.46587 0.64465,5.15003l5.83835,7.04681l-5.24453,-3.02918c0.20129,1.2547 0.41489,2.48341 0.64308,3.68174l2.11164,3.24612c1.62911,2.50433 3.02578,4.70488 4.19001,6.60165c0.64945,-2.24083 1.2867,-4.3041 1.89382,-6.16239l-3.59402,-4.33793l4.22706,2.4415c3.76622,-11.03468 6.01194,-13.12512 1.91113,1.10385l2.31366,1.33634c-0.01005,-0.06764 -0.02015,-0.13633 -0.03028,-0.2061l0.04435,-19.59079zM5.9634,50.57461c0.23879,1.51523 0.48473,3.09912 0.73797,4.7536c0.72681,0.77927 1.43922,1.57295 2.13724,2.38106c-0.09411,-0.74787 -0.18927,-1.5578 -0.28536,-2.43716c-0.91379,-1.49391 -1.77603,-3.06668 -2.58985,-4.69751zM7.99377,61.7289l-0.42602,-0.6549c0.02209,0.14858 0.04423,0.29764 0.06642,0.4472l0.3596,0.2077l2.10723,3.23933c-0.16283,-0.64454 -0.33192,-1.39666 -0.50637,-2.3147zM-0.75158,34.97451c0.10198,2.38431 0.24673,5.00567 0.42852,7.78536c1.50482,1.10501 3.05018,2.88366 4.65093,5.4509l-0.53893,4.14668c0.67951,0.65943 1.34764,1.33026 2.0044,2.01249c-0.19059,-1.55405 -0.30928,-3.19376 -0.36492,-4.89c-2.21297,-4.62315 -4.05388,-9.66301 -5.59114,-14.66664c-0.19669,0.05391 -0.39298,0.10765 -0.58886,0.16121zM-8.12037,36.95746l2.9001,4.45818c0.04333,-0.00764 0.08668,-0.01479 0.13006,-0.02143c-0.09976,-1.67138 -0.19707,-3.39486 -0.2923,-5.16577c-0.9244,0.24775 -1.83737,0.49085 -2.73786,0.72902zM-12.92327,38.21137c-0.50826,0.13086 -1.0114,0.25977 -1.50918,0.38668c0.4543,-0.15556 0.91875,-0.31622 1.39359,-0.4821l-1.89573,-1.56495c-0.81893,0.15266 -1.24438,0.02672 -1.45005,-0.39809c-0.12508,0.42773 -0.24247,0.85762 -0.35216,1.28966l-0.09464,-1.95971c-2.80944,0.66547 -4.94343,1.18652 -6.45574,1.55652l2.75267,3.07883c1.09002,-0.26441 2.21746,-0.54223 3.37909,-0.83258c0.12419,-0.61865 0.26373,-1.233 0.41862,-1.84306l0.08294,1.71745c0.72771,-0.1826 1.46843,-0.36999 2.2214,-0.56196c-0.76609,0.26232 -1.50328,0.51011 -2.21262,0.74386l0.26171,5.41929l3.0283,3.38713c1.85038,-2.55919 3.69251,-4.54939 5.561,-5.70273zM-20.21766,40.47258l2.48204,2.77614c0.11776,-1.25813 0.29544,-2.4995 0.53304,-3.72411c-1.06905,0.34834 -2.07281,0.66374 -3.01508,0.94797zM-39.51902,18.88422c1.27514,-0.12158 3.17127,-0.24141 5.68837,-0.35947l0.19432,-0.00912c1.17698,-6.00124 4.40878,-7.60214 9.77229,-5.76011l1.8062,2.77658c1.09019,-0.16848 2.18529,-0.29969 3.28532,-0.39362c-1.87055,-1.05778 -3.56713,-1.85943 -5.09152,-2.38296l-1.78431,-2.74292c-0.56437,0.37759 -2.23588,1.28036 -5.01453,2.70828l-9.84384,5.05861zM-11.11153,32.3593l1.01274,1.55683c1.41243,-0.32316 2.92541,-0.66607 4.54182,-1.02838c-0.04353,-0.85741 -0.08664,-1.72463 -0.12939,-2.60116c-1.92501,0.75006 -3.73669,1.44056 -5.42516,2.07271zM-9.60114,34.68115l1.16067,1.78424c0.96767,-0.35565 1.97085,-0.72905 3.01081,-1.12078c-0.0394,-0.7445 -0.07845,-1.4971 -0.11718,-2.25747c-1.55808,0.6063 -2.89974,1.13878 -4.0543,1.59401zM-0.80747,33.57641c0.08067,-0.03129 0.16153,-0.06268 0.24258,-0.09416c-0.0941,-0.31666 -0.187,-0.633 -0.27872,-0.94893c0.01098,0.34145 0.02304,0.68925 0.03614,1.04309zM-18.32623,21.26851l0.87319,1.34231l-0.07572,-1.5679c-0.28251,0.07581 -0.54814,0.15099 -0.79747,0.22559zM-8.1244,22.33776c-0.21559,-0.16215 -0.4298,-0.32259 -0.64265,-0.4813l-0.37232,0.50431zM-38.76689,19.72547l0.44039,0.49257l1.1198,-0.37261c-0.57883,-0.04015 -1.09889,-0.08014 -1.56019,-0.11996zM-6.97313,-0.37206c-5.00984,0.21393 -10.51354,0.58166 -16.29709,1.06058c1.71446,1.67894 3.38369,3.39877 5.00768,5.15949l-0.03011,-0.62357c-0.13819,-2.86158 0.69907,-3.18321 2.51198,-0.96483l6.99257,8.55672c0.46321,-12.25591 0.84472,-12.16703 2.09272,-6.00962c-0.09277,-2.36517 -0.18518,-4.76023 -0.27775,-7.17876zM-4.70952,-0.45929l7.50388,6.65597l4.90879,-6.64888c-3.51575,-0.17803 -7.71787,-0.16755 -12.41267,-0.00709zM-32.0691,-19.68709c-12.01075,2.48002 -28.91259,1.93053 -42.69355,-5.91377l30.296,3.5062c4.80012,0.78404 8.90213,1.59946 12.39755,2.40757zM-14.25783,-13.49179c1.41396,0.91455 0.99501,1.09159 0,0zM28.4221,73.52807c0.09813,0.05667 0.18732,0.1111 0.26758,0.16328c-1.03386,-12.58029 -1.57791,-5.661 -2.31241,-1.34435zM-48.29936,21.78402c-6.4495,3.31437 -6.23404,3.82677 0.64634,1.53739l5.30818,-1.76628l-1.20562,-2.2115zM-9.63477,30.9162c-0.88731,-0.95979 -2.12972,-1.8079 -3.4796,-2.5726c-0.09392,0.16964 -0.18646,0.33967 -0.27762,0.51008l1.79916,2.76575c0.64002,-0.23059 1.29266,-0.46499 1.95806,-0.70323zM-60.96386,25.10367l-31.01871,13.52324c-5.59353,2.43865 -5.79151,2.05961 -0.59383,-1.13705l20.04812,-12.3302c5.1101,-0.23337 8.8567,-0.23018 11.56441,-0.05599zM-31.59121,42.58803c-7.90243,1.53337 -10.07348,1.14348 -2.59037,-2.22722c0.1085,1.17558 0.7342,2.02891 2.59037,2.22722zM-24.02033,36.21934l0.50087,0.56022c1.49627,-0.50711 3.60106,-1.22587 6.23835,-2.16565l-0.77284,-0.63799c-2.17546,0.80441 -4.16146,1.55146 -5.96638,2.24342zM7.00906,60.21516l-3.53508,-5.43429l-0.52436,4.0346l4.47971,2.58743c-0.14911,-0.38205 -0.28911,-0.7783 -0.42028,-1.18773zM13.81798,-26.56771c2.58102,-5.22978 0.65418,-10.43658 -5.35154,-13.40055c-6.00569,-2.96395 -11.69749,-1.67831 -14.11948,3.2291l-0.00004,0.00009c-1.16701,2.3647 -1.3087,4.68831 -0.62474,6.85201c8.40028,1.67015 14.72849,3.13345 19.45732,4.41635c0.23607,-0.34862 0.44978,-0.71463 0.63849,-1.097zM84.20481,47.49749l0.78251,-1.44735l0.06536,0.67737c0.02294,0.23794 -0.06384,0.42488 -0.26035,0.56081l-0.46326,0.32059c-0.19651,0.13593 -0.23796,0.09888 -0.12427,-0.11142zM84.98732,46.05015l-0.90267,-9.35427c-0.16866,-1.74731 0.59051,-2.86395 2.2774,-3.34975l3.9764,-1.14509c1.68689,-0.4858 2.11295,0.04336 1.27807,1.58764z" fill="none" stroke="#1d1d1b" stroke-width="1.2" stroke-linejoin="round" style=""></path></g>
</svg>