<svg xmlns="http://www.w3.org/2000/svg" width="72.2mm" height="548.210mm" viewBox="0 0 204.6614 1553.9819" fill="#1d1d1b">
<g transform="translate(5.6513 -50.1833) scale(2.7712) translate(32.3091 45.1186)">
  <g data-rolle="struktur" style="">
    <g transform="matrix(1 0 0 1 -55.81448173522949 -57.51894950866699)" data-zeichen="J">
      <path d="M63.1526,32.6424L63.5357,32.3651C64.3905,31.7464 64.8577,31.9632 64.9372,33.0153L67.5356,67.3931C66.4662,78.2294 58.192,81.0707 52.8486,82.3664C49.473,82.1894 45.1921,84.4213 45.7493,77.3979L43.9334,78.7304C47.3128,76.4287 48.9171,77.8944 50.0521,76.2206C56.8889,76.8613 59.609,71.7434 58.9582,63.686L60.8287,31.509C60.8935,30.3939 61.0629,30.3777 61.3368,31.4606L61.4823,32.036C61.741,33.0589 62.2978,33.2611 63.1526,32.6424Z" style="paint-order: stroke;" stroke="#1d1d1b" stroke-width="2.96" stroke-linejoin="round" stroke-linecap="round"></path>
    </g>
    <g transform="matrix(-0.22071761035298681 -0.9753377550777306 -0.9753377550777306 0.22071761035298681 64.83165618627807 15.468034356084976)" data-zeichen="A">
      <path d="M47.1278,33.2922L45.3174,32.3961C44.1013,31.7942 43.5142,32.1714 43.5562,33.5277L43.6892,37.8265C43.6966,38.0656 43.7409,38.0727 43.8222,37.8476L43.9806,37.4092C46.3039,41.6142 46.7071,43.3846 48.3284,51.6112L51.5844,56.6316C52.3996,57.8886 53.0388,59.2295 53.5019,60.6543L53.7096,61.2931C54.1727,62.7179 54.5911,64.1557 54.9647,65.6066L58.1057,77.8051C58.5899,79.6856 59.7844,80.4372 61.6892,80.0599L62.5431,79.8907C64.4479,79.5134 65.0612,78.415 64.3829,76.5955L48.934,35.1513C48.7888,34.7617 48.5669,34.4222 48.2684,34.1328L48.1346,34.003C47.8361,33.7136 47.5005,33.4767 47.1278,33.2922Z" style="paint-order: stroke;" stroke="#1d1d1b" stroke-width="2.96" stroke-linejoin="round" stroke-linecap="round"></path>
    </g>
    <g transform="matrix(-0.9633421790410386 -0.2682756904388909 -0.2682756904388909 0.9633421790410386 86.52813438868955 -49.99062848171769)" data-zeichen="A">
      <path d="M63.0943,47.6535C64.2326,44.6376 66.5086,40.5758 64.9078,41.9371L67.2056,35.9411C67.5449,35.0556 67.6648,34.1413 67.5652,33.1982L67.5205,32.7754C67.4209,31.8323 66.8981,31.3938 65.9521,31.4597L64.1262,31.5869C62.4607,31.703 61.3687,32.5545 60.85,34.1414L46.3469,78.5187C45.7444,80.3621 46.3004,81.7372 48.0147,82.644L48.7831,83.0506C50.4974,83.9574 51.5963,83.4717 52.0798,81.5936L56.8119,63.2095C56.999,62.4828 57.2336,61.7718 57.5157,61.0765L57.6421,60.7648C57.9242,60.0695 58.1757,59.3632 58.3965,58.646L61.8638,47.3833C61.9785,47.0106 62.1894,46.9445 62.4963,47.185L63.0943,47.6535Z" style="paint-order: stroke;" stroke="#1d1d1b" stroke-width="2.96" stroke-linejoin="round" stroke-linecap="round"></path>
    </g>
    <g transform="matrix(0.1975381487241265 -0.9802952003343915 -0.9802952003343915 -0.1975381487241265 49.46166275811179 33.69653954641335)" data-zeichen="A">
      <path d="M49.3653,55.5519L47.2756,58.0847C46.1317,59.4712 46.458,60.1351 48.2545,60.0764L62.4334,59.6136C63.6964,59.5724 64.364,58.921 64.4362,57.6594L64.4685,57.0938C64.5407,55.8322 63.945,55.208 62.6814,55.2213L50.2244,55.3523C50.0787,55.3538 49.9332,55.3588 49.7877,55.3671L49.7226,55.3709C49.5771,55.3792 49.458,55.4396 49.3653,55.5519Z" style="paint-order: stroke;" stroke="#1d1d1b" stroke-width="2.96" stroke-linejoin="round" stroke-linecap="round"></path>
    </g>
  </g>
<path class="glyph-merged" d="M2.22272,-55.46415l7.7304,15.1159c0.37133,0.72612 0.57711,1.45852 0.61732,2.19721c0.03089,-0.03012 0.06235,-0.06011 0.09437,-0.08996l13.38224,-12.4729c1.33241,-1.24187 1.72533,-0.99408 1.17885,0.74351l-5.04842,16.05096c1.22304,-1.45615 2.51946,-3.13428 3.9119,-5.10521l0.24845,9.5231l-6.09363,5.02609l-0.05365,0.49754l4.54805,0.10447c1.16474,0.02678 1.73195,-0.54214 1.70153,-1.70685l-0.1023,-3.92125l0.31277,-0.25797c1.22811,-1.01295 2.49822,-1.06876 3.81036,-0.16724l13.17875,9.0538c1.31214,0.90152 1.18357,1.21821 -0.38569,0.95016l-23.07576,-3.94107l-1.0715,9.93741c0.02598,0.08103 0.05235,0.16214 0.07912,0.24333l-0.08185,-0.21804l-1.22954,11.40316l-9.51715,-2.09264c2.41748,-6.32128 4.15634,-11.07781 5.41381,-14.54578l-7.15045,5.89777l0.35142,4.4003c0.236,2.955 -0.2498,5.7861 -1.4574,8.4934l-1.19368,2.67598c-1.70892,-1.53943 -3.73206,-3.16284 -6.09832,-4.88208l2.40647,-5.74574l-6.96132,5.74177c4.43287,-7.57358 7.95145,-12.22388 11.05785,-15.52274l1.26693,-3.02494l0.12807,1.60365c1.92332,-1.87878 3.70801,-3.29832 5.4874,-4.67601l-4.21134,-0.09674l0.99755,-0.50813c1.07468,-0.5474 2.20638,-0.71963 3.39521,-0.51662l1.04039,0.17769c0.52786,-0.40844 1.05792,-0.82158 1.59365,-1.25023l-2.79719,-7.45124c-0.05175,-0.13787 -0.09706,-0.27422 -0.13592,-0.40906l-0.44963,1.07354c0.39372,0.00966 0.45773,0.21887 0.19204,0.62762l-1.27917,1.96804l-2.63302,6.28664l0.07609,0.00175l-0.09766,0.04975l-1.30647,3.11935l-0.18831,-2.35794l-8.20323,4.17855c-1.07468,0.5474 -2.21044,0.89516 -3.40738,1.0432l-35.76962,4.4244c-1.49235,0.18464 -1.76058,-0.30339 -0.8045,-1.46414l10.46369,-12.70342c0.38164,-0.46336 0.83745,-0.55411 1.36749,-0.27245l5.32342,2.8291c0.53004,0.28166 1.09508,0.42939 1.69522,0.44316l28.77992,0.6611l0.38588,-1.25699l-0.5611,-7.0258c-0.39138,0.01349 -0.52575,-0.18356 -0.40312,-0.59116l0.28126,-0.93476l-1.68225,-21.0643c-0.1346,-1.6851 0.183,-1.7751 0.9527,-0.27zM-15.82688,37.74885c0.40663,0.12743 0.78874,0.20008 1.14618,0.22724c-1.17173,1.86344 -2.61647,4.59067 -4.33938,8.48186l4.06836,-43.72479c3.24547,11.33647 6.44127,16.517 8.56323,19.12287l8.70954,-19.525c2.53686,2.28526 4.38126,4.38548 5.62774,6.33947l7.01298,-7.87452c0.23409,-0.26285 0.44365,-0.48276 0.62869,-0.65975l0.28403,-2.63422l3.38171,0.74357c1.11735,0.24566 1.25936,0.76043 0.42592,1.54427l-4.05692,3.81528l-0.61571,1.91917l0.16081,-1.49137l-6.41792,6.03564c5.17228,10.13969 -6.28772,16.32211 -19.67366,24.58612c-0.23204,-0.51975 -1.08719,-0.34748 -2.58426,1.61029c-0.77149,0.48628 -1.54617,0.98053 -2.32134,1.48386zM-13.43358,-13.58315c16.59733,36.72248 9.34847,34.3817 -0.96541,10.37575zM-14.39899,-3.2074l-0.55274,5.94056c-1.34043,-4.68216 -2.68934,-10.41442 -3.97456,-17.44911c1.53124,4.24113 3.06027,8.094 4.52729,11.50855zM-14.6807,37.97609c0.42807,-0.68078 0.81971,-1.24627 1.17516,-1.7111c0.86672,-0.5463 1.72942,-1.08254 2.58426,-1.61029c0.3786,0.84806 -0.90174,3.53853 -3.75942,3.32139zM14.44641,10.74639c-0.29723,2.75661 -0.93805,5.43083 -1.92238,8.02277l-9.886,26.0318c-0.98434,2.59194 -1.05311,2.56791 -0.2061,-0.07214l12.57755,-39.20451z" fill="none" stroke="#1d1d1b" stroke-width="4.203" stroke-linejoin="round" style="display: none;"></path></g>
<g transform="translate(15.6302 66.8582) scale(2.7712) translate(27.2025 30.8521)">
  <g data-rolle="struktur" style="">
    <g transform="matrix(1 0 0 1 -55.77340316772461 -57.52729606628418)" data-zeichen="I">
      <path d="M59.4756,35.3802L59.0044,77.8589C58.9827,79.8127 57.9963,80.8407 56.045,80.943L55.1704,80.9889C53.2191,81.0912 52.2567,80.1654 52.283,78.2117L52.8888,33.2059C52.9113,31.5382 53.7495,30.5972 55.4035,30.3829L56.9682,30.1802C58.0733,30.037 58.7518,30.5082 59.0036,31.5937L59.1164,32.0804C59.3682,33.1659 59.4879,34.2659 59.4756,35.3802Z" style="paint-order: stroke;" stroke="#1d1d1b" stroke-width="2.96" stroke-linejoin="round" stroke-linecap="round"></path>
    </g>
    <g transform="matrix(0.9686021834685827 0.24861578827559197 0.24861578827559197 -0.9686021834685827 -52.66830546829344 44.02843594482001)" data-zeichen="S">
      <path d="M48.6693,57.7949C48.8969,53.2065 50.905,51.4713 58.6439,50.8833C62.434,49.2465 63.4483,50.8284 67.9849,50.7071L67.9529,45.853C66.8265,45.2143 63.2708,45.8696 57.3387,45.4446C48.8246,44.0619 43.296,49.5479 43.5191,55.7159C42.5599,64.0795 45.6259,69.6374 55.1705,73.5354L60.4563,64.7195C51.849,63.2875 50.1737,62.1778 49.9988,55.9649L48.6693,57.7949Z" style="paint-order: stroke;" stroke="#1d1d1b" stroke-width="2.96" stroke-linejoin="round" stroke-linecap="round"></path>
    </g>
    <g transform="matrix(0.1268091252866283 -0.9919271373160633 -0.9919271373160633 -0.1268091252866283 42.131321884702245 99.07844852177548)" data-zeichen="S">
      <path d="M54.7336,43.3246L52.6686,48.7028C61.4623,51.0468 66.5682,51.7569 64.6194,57.7844C64.0541,63.0722 61.2355,69.2316 55.6399,67.8832C49.5815,66.456 44.684,67.4925 43.8909,62.7452L40.2071,71.3527C43.6762,70.2723 46.456,71.126 52.8457,70.4853C64.9184,71.6405 68.8372,67.1831 70.3518,59.6224C70.4624,50.5428 66.116,48.4913 58.2622,45.8996L56.7531,43.1826C55.9786,41.7881 55.3054,41.8354 54.7336,43.3246Z" style="paint-order: stroke;" stroke="#1d1d1b" stroke-width="2.96" stroke-linejoin="round" stroke-linecap="round"></path>
    </g>
  </g>
<path class="glyph-merged" d="M5.3067,-21.0381l-3.6542,9.5953c-0.3638,0.9554 -0.6425,1.935 -0.8362,2.9388l-1.43209,7.4237c6.94926,-6.51612 7.07592,-11.30762 9.60797,-3.03772l-6.65671,3.96014l-3.18583,0.29356l-0.34904,1.80936l3.53486,-2.10292l7.51629,-0.6926c-3.42054,0.69691 -7.13573,1.76058 -11.17163,3.42004l-3.46058,17.93909c9.66597,-2.00107 10.59783,1.0977 7.59337,6.13265c-3.65826,-2.2562 -6.15813,-3.53353 -7.98008,-4.12805l-1.29685,6.72265c-0.15817,0.81986 -0.28772,1.40249 -0.38867,1.74788c1.40332,0.22586 3.28866,0.44525 6.01781,0.63891c-0.90986,1.08957 -1.90437,2.21257 -2.95353,3.34922c-4.9308,2.9533 -9.58812,6.0581 -15.049,7.36762c-1.63818,-3.84735 -1.65529,-7.05186 -0.22705,-13.13447c8.11741,0.13772 7.39229,0.96696 11.95075,1.73572c-0.01519,-0.36066 -0.00239,-0.95352 0.0384,-1.77858l0.34722,-7.0202c-4.37934,-0.5691 -3.8894,4.32695 -12.15208,6.29468c0.29709,-1.2147 0.64721,-2.54088 1.0491,-4.00344c4.4864,-1.61914 8.17296,-2.76176 11.16255,-3.4957l1.03721,-20.97044c0.1437,-2.9069 0.4804,-5.7912 1.01,-8.6531l7.4129,-40.0585c0.4148,-2.2417 0.7157,-2.2266 0.9026,0.0455l2.0324,24.6995c0.0839,1.0189 -0.0561,2.006 -0.4199,2.9614zM26.13074,-14.3139c0.44259,3.84258 -2.22241,8.41581 -5.22917,12.14523c-3.26903,0.17482 -6.90956,0.4807 -10.96519,1.30101c-0.35274,-1.25455 -0.66327,-2.33284 -0.94419,-3.25036zM14.2041,3.81516c0.32824,-0.09598 0.64926,-0.18795 0.96322,-0.27595l-2.9563,-2.5537c0.66129,1.07519 1.26875,2.07889 1.82601,3.01546c0.05235,-0.05908 0.10801,-0.121 0.16708,-0.1858zM39.71938,24.74768l0.88375,0.7634c-0.30456,-0.25444 -0.59901,-0.50895 -0.88375,-0.7634zM17.45911,15.43907c-0.19555,0.66626 -1.49872,0.31575 -3.00245,-0.29718c-2.08214,-7.11293 -3.48185,-12.31593 -4.51771,-16.00041l10.69858,-0.98584c-1.79151,2.1792 -3.67463,4.04619 -5.07445,5.27371c21.68305,-5.95922 8.8042,7.59917 24.1563,21.31833l-24.41728,-21.09205c-0.3767,0.3228 -0.71207,0.59311 -0.99324,0.8036c8.10602,13.708 5.06902,12.49218 3.15025,10.97984zM14.45666,15.1419c0.37884,1.29419 0.78028,2.65161 1.20623,4.07461c-10.76128,-9.27984 -5.25628,-5.72542 -1.20623,-4.07461zM20.63752,-1.84436c0.08826,-0.10736 0.1763,-0.21548 0.26405,-0.32431c2.83504,-0.15161 5.39067,-0.20463 7.69532,-0.40912zM9.85176,-0.85048c0.02823,-0.00575 0.05643,-0.01148 0.08462,-0.01718c0.00086,0.00305 0.00171,0.00609 0.00257,0.00914zM25.1477,22.31749l-35.59329,19.42799c2.27789,-2.20848 4.57514,-4.51789 6.65719,-6.77356c1.86212,-1.11532 3.76325,-2.20903 5.76139,-3.17628c-1.02518,-0.05476 -1.95749,-0.1126 -2.80787,-0.17294c1.4849,-1.7782 2.74432,-3.46734 3.64779,-4.9814c1.46242,0.90193 3.10995,1.96029 4.9733,3.19399l17.27376,-7.69515c1.49641,-0.66662 1.52566,-0.60754 0.08772,0.17736zM-18.88016,28.43668c-0.06388,0.2612 -0.12532,0.51724 -0.18429,0.76838c-1.76571,-0.02996 -3.94981,-0.02719 -6.69768,0.01603c2.81602,-0.05946 5.06144,-0.35086 6.88196,-0.78441zM-18.8374,42.33954c1.6114,3.78445 4.79129,8.19089 9.70692,16.57037l-21.42164,-16.76218c4.41861,1.13203 8.23025,1.02738 11.71471,0.19181zM-17.83106,24.43324c-2.93572,1.0595 -6.21391,2.32303 -9.86341,3.80961c14.1271,-7.32086 -8.22464,2.52775 10.93482,-7.6228c-0.3903,1.36826 -0.74765,2.63498 -1.07141,3.81319z" fill="none" stroke="#1d1d1b" stroke-width="4.203" stroke-linejoin="round" style="display: none;"></path></g>
<g transform="translate(-44.685 213.5538) scale(2.7712) translate(74.32 50.6932)">
  <g data-rolle="struktur" style="">
    <g transform="matrix(1 0 0 1 -55.773345947265625 -57.52725601196289)" data-zeichen="N">
      <path d="M34.2374,82.2895L37.9309,33.6264C38.1119,31.2415 38.8029,31.0832 40.0038,33.1517L40.5421,34.0789C41.743,36.1474 43.1986,38.0177 44.9087,39.6899L63.0814,57.4593C63.5502,63.5034 64.5915,70.5236 69.8307,71.3191L67.26,76.6129C68.2308,67.0317 65.4376,65.8846 67.4079,57.5205L67.376,31.0711C67.3743,29.6524 67.8237,29.4911 68.7243,30.5873L69.1281,31.0788C70.0287,32.175 70.5336,33.4304 70.6428,34.8449L74.0593,79.1075C74.3312,82.6292 73.0018,83.4042 70.0711,81.4324L68.7574,80.5486C65.8267,78.5768 63.2008,76.2597 60.8795,73.5974L48.6577,59.5799C48.8607,51.7669 44.1759,43.955 40.129,39.4727L43.7072,39.2412C43.3169,47.1585 46.8728,49.2934 43.1295,58.4348L46.1835,75.5222C46.5304,77.4628 45.7255,78.5538 43.769,78.7952L42.892,78.9034C40.9355,79.1448 39.3166,80.0146 38.0353,81.5128L36.5531,83.2458C34.8058,85.2888 34.0339,84.97 34.2374,82.2895Z" style="paint-order: stroke;" stroke="#1d1d1b" stroke-width="2.96" stroke-linejoin="round" stroke-linecap="round"></path>
    </g>
    <g transform="matrix(-0.9976172132159853 -0.06899199877646142 -0.06899199877646142 0.9976172132159853 77.02953439736068 -61.774097382816436)" data-zeichen="I">
      <path d="M55.4634,47.4707L56.2781,47.4476C58.0957,47.396 58.9998,48.2793 58.9905,50.0976L58.9004,67.7136C58.8917,69.4187 58.0623,70.0563 56.4123,69.6265L55.6726,69.4338C54.0226,69.004 53.1791,67.9368 53.1422,66.2321L52.7961,50.2749C52.7567,48.457 53.6458,47.5223 55.4634,47.4707Z" style="paint-order: stroke;" stroke="#1d1d1b" stroke-width="2.96" stroke-linejoin="round" stroke-linecap="round"></path>
    </g>
    <g transform="matrix(-0.2902539998857924 -0.95694964107329 0.95694964107329 -0.2902539998857924 -24.042452224541652 78.35887291739314)" data-zeichen="I">
      <path d="M55.5128,45.4972L56.3265,45.9354C58.1418,46.9131 59.0613,48.4327 59.0851,50.4944L59.2472,64.5524C59.2712,66.6331 58.2589,67.8559 56.2102,68.2208L55.2919,68.3843C53.2432,68.7492 52.2428,67.8914 52.2905,65.8111L52.719,47.1226C52.7663,45.0613 53.6975,44.5195 55.5128,45.4972Z" style="paint-order: stroke;" stroke="#1d1d1b" stroke-width="2.96" stroke-linejoin="round" stroke-linecap="round"></path>
    </g>
    <g transform="matrix(0.8577412809470818 0.514081603404809 -0.514081603404809 0.8577412809470818 -53.3354448181575 -104.26064054503126)" data-zeichen="C">
      <path d="M45.1649,68.0663C43.962,57.4193 54.7371,52.4457 64.9494,48.6979C66.9322,50.1468 69.2098,50.4001 76.0158,53.6719L72.8142,46.2928C72.5485,46.1858 70.0972,43.5183 65.5021,42.7208C47.7063,44.8899 39.5889,56.6462 40.8968,71.0377L41.3324,69.6766C41.556,68.978 41.9648,68.8439 42.5587,69.2743L44.9255,70.9895C45.9058,71.6999 46.2174,71.4767 45.8604,70.32L45.1649,68.0663Z" style="paint-order: stroke;" stroke="#1d1d1b" stroke-width="2.96" stroke-linejoin="round" stroke-linecap="round"></path>
    </g>
    <g transform="matrix(-0.7612461926484304 0.6484629782634231 0.6484629782634231 0.7612461926484304 16.777572992143902 -75.572801372796)" data-zeichen="E">
      <path d="M49.4985,54.9381L61.6104,55.0399C63.2132,55.0534 64.3448,55.7903 65.0052,57.2508L65.3012,57.9055C65.9616,59.366 65.4904,60.0884 63.8877,60.0729L46.6882,59.9062C45.0338,59.8901 44.6141,59.1622 45.4291,57.7224L45.7944,57.0769C46.6094,55.6371 47.8441,54.9242 49.4985,54.9381Z" style="paint-order: stroke;" stroke="#1d1d1b" stroke-width="2.96" stroke-linejoin="round" stroke-linecap="round"></path>
    </g>
    <g transform="matrix(-0.3589695404981662 0.933349274920453 0.933349274920453 0.3589695404981662 -73.01322724459115 -63.157024921754186)" data-zeichen="E">
      <path d="M49.3237,79.8751L50.3867,57.73C50.4151,57.1388 50.3085,56.5731 50.0668,56.0328L49.9585,55.7905C49.7168,55.2502 49.587,54.6843 49.5691,54.0927L49.527,52.7026C49.4915,51.5337 49.4142,50.3675 49.295,49.2041L48.5279,41.7195C48.3712,40.1903 48.227,38.6599 48.0954,37.1284L48.0363,36.4418C47.9047,34.9103 47.4056,33.5097 46.539,32.24L45.7198,31.0398C44.6321,29.4463 44.0436,29.6131 43.9541,31.5404L42.1234,70.979C41.7531,78.9576 45.4698,82.0961 53.2737,80.3945L66.2659,77.5616C67.7404,77.2401 68.9096,77.698 69.7735,78.9355L70.1607,79.4903C71.0246,80.7278 70.7053,81.2751 69.2029,81.1323L50.4372,79.3483C50.0685,79.3132 49.799,79.4602 49.6288,79.7892L49.5524,79.9366C49.3822,80.2656 49.306,80.2451 49.3237,79.8751Z" style="paint-order: stroke;" stroke="#1d1d1b" stroke-width="2.96" stroke-linejoin="round" stroke-linecap="round"></path>
    </g>
    <g transform="matrix(-0.6460262405715801 -0.7633152012720242 -0.7633152012720242 0.6460262405715801 99.14814114367043 19.1920476624825)" data-zeichen="E">
      <path d="M49.9716,54.8074L61.4828,54.5919C63.2659,54.5585 64.4446,55.386 65.0188,57.0745L65.2763,57.8313C65.8505,59.5198 65.2461,60.3441 63.4631,60.3043L47.9317,59.9576C46.3518,59.9223 45.8577,59.172 46.4492,57.7067L46.7144,57.0498C47.3059,55.5845 48.3917,54.837 49.9716,54.8074Z" style="paint-order: stroke;" stroke="#1d1d1b" stroke-width="2.96" stroke-linejoin="round" stroke-linecap="round"></path>
    </g>
    <g transform="matrix(-0.982464798939611 0.18644816664303723 -0.18644816664303723 -0.982464798939611 70.25013653995344 56.80301987224589)" data-zeichen="C">
      <path d="M65.5734,63.6207C50.8414,64.6561 42.0729,58.9955 45.5475,44.5328L38.2166,45.0162C37.38,45.215 36.1961,45.2747 39.8646,45.8716C37.376,61.2714 47.9644,68.9061 63.0542,68.6332C67.2583,69.912 72.3017,68.3071 70.8078,66.2522L73.2469,64.3224C70.355,63.8641 69.7439,65.7454 63.1968,66.2468L65.5734,63.6207Z" style="paint-order: stroke;" stroke="#1d1d1b" stroke-width="2.96" stroke-linejoin="round" stroke-linecap="round"></path>
    </g>
  </g>
<path class="glyph-merged" d="M-19.6108,6.19822c-1.14652,-0.50643 -2.29822,-1.03885 -3.46239,-1.71625l5.54279,-2.24601l-0.05625,-6.09208l-1.51461,0.18488l-5.39375,7.25041c0.47631,0.33001 0.95009,0.6283 1.42182,0.90279l-0.89727,0.36358l-0.73289,-0.98632l-1.36665,1.83708l-2.31515,0.93813c-1.3423,0.5439 -1.71,0.1584 -1.1029,-1.1565l2.02899,-4.39508c0.68863,0.69501 1.37027,1.29483 2.04627,1.82162l-1.78083,-2.39662l4.22922,-9.16108l-10.74661,-2.83755c0.23134,-2.01055 1.45926,-2.52144 3.68388,-1.53262l7.53428,3.34874l3.5024,-7.58669l-7.98161,-12.93602c6.5773,-2.73197 10.64043,-1.56098 12.92877,2.21979l1.01489,-2.19839c-0.15192,-0.16579 -0.30424,-0.32138 -0.45741,-0.46755c0.20102,0.04712 0.40351,0.09461 0.6075,0.14244l9.33476,-20.22039c2.3264,-5.0394 3.6043,-4.7862 3.8338,0.7595l0.93699,22.64267c0.78744,0.16668 1.59319,0.33509 2.41815,0.50507c-0.77307,1.2107 -1.52741,2.30274 -2.26121,3.28736l0.69901,16.89184c2.43669,-0.17953 5.50914,0.32302 8.78827,2.36495c-0.15437,-1.6947 -0.3318,-3.31686 -0.5697,-4.81769l10.8609,-32.7687c0.5705,-1.7211 1.0255,-1.6911 1.365,0.09l3.4102,17.8891c0.3395,1.7811 0.5236,3.5782 0.5522,5.3912l0.33805,21.44091l5.63121,-0.93957c0.35818,-0.05974 0.67555,0.02813 0.95203,0.26372l2.77644,2.36557c0.27648,0.23559 0.24107,0.40653 -0.10623,0.51281l-8.77508,2.68566c0.64073,0.56053 0.66626,0.84582 -0.39209,0.58388l0.09997,6.34089c6.03887,6.44592 14.07563,8.82518 0.11056,7.01201l0.04027,2.55397l0.65791,0.74883l-0.65491,-0.55872l0.10138,6.43014c0.0185,1.1712 -0.2449,2.2752 -0.7901,3.3119l-5.4753,10.4127c-0.5452,1.0367 -1.1253,1.0567 -1.7404,0.0598l-11.37888,-18.44209c1.13918,-1.1497 2.15696,-2.22055 3.06232,-3.22008c1.41329,-5.13113 0.37142,-8.3217 -1.32219,-9.82172l-5.88124,1.79999c-0.2513,1.14848 -0.11439,2.63148 0.62634,4.41911l-1.24384,-0.90221l0.00055,0.0134l-0.01452,-0.02353l-3.21264,-2.33026l-0.07649,0.02341l-0.22434,8.72616c-0.02565,0.99958 -0.32036,1.84686 -0.88408,2.54182l1.52041,5.018c-0.5809,-1.71645 -1.15492,-3.30879 -1.72267,-4.78733c-0.25453,0.26905 -0.55371,0.51281 -0.89753,0.73129l-12.89075,8.1917c-1.28353,0.81561 -1.93234,0.46312 -1.94639,-1.05758l-0.20279,-21.96402l-4.22384,-5.68441l2.03802,-1.77177c0.70996,0.3136 1.41794,0.61722 2.12565,0.93913l-0.02553,-2.76489zM-17.59815,-5.10092c-0.00198,-0.21423 0.00279,-0.41759 0.01431,-0.61009l-1.29612,1.74227c0.44382,-0.12416 0.87371,-0.2073 1.28992,-0.25264zM-11.71635,-6.90476c-0.07839,-0.25873 -0.16016,-0.49805 -0.24532,-0.71797c-0.02313,0.25191 -0.04721,0.505 -0.07223,0.75923l0.38975,0.19705zM-14.15361,-9.42214c-0.45688,0.14834 -0.95498,0.53293 -1.49428,1.15375c0.57587,0.00965 1.27924,0.22451 2.11012,0.64457l0.71759,0.36279zM3.12682,18.58474l4.75805,7.71151c-1.26797,1.27968 -2.68635,2.65705 -4.26752,4.14249zM-27.19361,0.50787l-0.26545,0.575c-2.00844,-2.02703 -4.07637,-4.86369 -6.23741,-9.05941l0.47888,23.28083l7.14759,-9.60798l2.09954,-0.85076l2.32164,3.12443l-11.51511,10.01076c0.00267,2.1258 -0.92602,2.93318 -2.78616,2.42217l-0.00485,0.00422c-1.90417,1.65534 -2.1834,1.55734 -0.83771,-0.29402l-24.57878,-9.28686c-1.09646,-0.41431 -1.19542,-0.99772 -0.29691,-1.75024l9.78966,-8.19946l2.14116,-13.95569c0.25978,-1.69363 1.21801,-2.32172 2.87469,-1.88426l13.15183,3.47263c-0.03266,0.28381 -0.04545,0.5975 -0.0384,0.94107l0.04728,2.29847zM-51.08753,-38.32408c0.52145,-0.25769 1.05023,-0.27374 1.58632,-0.04815l5.38442,2.26494c0.53609,0.22559 0.56207,0.49951 0.07802,0.82182l-3.32231,2.21203c-7.56928,1.36499 -17.20304,4.03406 -31.42246,8.43437zM-13.4858,-30.64351c-12.86793,-3.01653 -19.75152,-4.56929 -31.19849,-2.87118c14.80954,-5.23632 29.17155,-5.63755 10.68044,-2.95673c12.20947,4.4634 16.63679,2.12393 20.51805,5.82791zM-49.59153,-31.58838l-12.44421,8.28552c2.93021,-3.39096 7.50454,-6.12974 12.44421,-8.28552zM-47.36108,-33.07344c0.92133,-0.16615 1.81208,-0.31297 2.67679,-0.44125c-1.64503,0.58165 -3.29558,1.22295 -4.90724,1.92631zM-16.14147,-6.85167l-0.44624,-0.19834l-0.05006,0.06729zM31.96063,29.79186l-4.13754,-4.70934l3.03091,2.58573c0.14039,0.11975 0.252,0.26215 0.33463,0.42711l0.83071,1.65704c0.08263,0.16496 0.06309,0.1781 -0.0587,0.03946z" fill="none" stroke="#1d1d1b" stroke-width="4.203" stroke-linejoin="round" style="display: none;"></path></g>
<g transform="translate(-25.0084 343.4511) scale(2.7714) translate(43.1762 30.5374)">
  <g data-rolle="struktur" style="">
    <g transform="matrix(1 0 0 1 -56.10154342651367 -57.53116989135742)" data-zeichen="S">
      <path d="M40.4023,77.0409C45.477,75.9252 47.2312,81.3285 55.3968,80.054C60.31,77.3647 61.9271,74.3381 65.0639,69.8318C64.0541,64.5483 61.3049,58.7915 56.687,57.7526C46.9887,56.6274 41.0659,57.0457 39.5705,45.1481C42.0922,38.1216 46.6497,29.3611 55.8865,30.59C62.7583,32.5053 68.7791,38.4624 70.2183,37.6405L69.5475,41.1954C65.2065,39.1303 63.9665,36.4608 55.8005,42.2487C50.9487,37.6899 49.6439,40.6577 48.3905,47.2481C48.4292,49.4985 49.6306,52.2918 57.1466,53.4873C66.2866,57.4917 72.6451,59.0588 70.1006,67.6982C70.4624,76.0689 67.4651,80.5589 54.0527,80.6945C48.7885,82.5494 46.3003,80.7966 40.9081,81.2428L42.5601,75.2377C42.9139,73.9515 42.701,73.8496 41.9213,74.932L40.4023,77.0409Z" style="paint-order: stroke;" stroke="#1d1d1b" stroke-width="2.96" stroke-linejoin="round" stroke-linecap="round"></path>
    </g>
    <g transform="matrix(-0.7900460785107327 -0.6130474645815063 -0.6130474645815063 0.7900460785107327 67.78751898283502 27.217608677176123)" data-zeichen="O">
      <path d="M68.0022,82.281C56.8179,77.4731 51.8835,72.6292 49.7755,56.7909C51.2017,47.1587 57.0503,32.6621 68.9909,40.9784C66.852,37.5815 65.3555,40.0709 66.5635,36.5299L67.85,33.1186C54.0816,32.4692 43.8231,47.3932 45.681,61.88C44.5044,72.6489 53.9185,85.5208 66.3382,85.4436C66.5641,82.5854 65.273,84.7491 67.5313,79.3671L64.8344,80.0542C66.9207,77.455 65.5517,81.7163 67.3451,74.7447L68.0022,82.281Z" style="paint-order: stroke;" stroke="#1d1d1b" stroke-width="2.96" stroke-linejoin="round" stroke-linecap="round"></path>
    </g>
    <g transform="matrix(-0.6286923471375101 -0.7776541214773626 0.7776541214773626 -0.6286923471375101 9.416143377246811 109.85611458230142)" data-zeichen="O">
      <path d="M64.7353,59.5549C66.6826,42.6305 58.4243,31.8519 45.7424,30.5182L43.4755,35.4025C55.108,37.7838 58.4605,42.7774 62.2357,53.6277C60.0576,68.1999 54.1183,81.3287 42.8304,75.485L44.9733,79.6125C56.9194,82.2392 67.5295,69.2568 66.9892,55.2424L64.7353,59.5549Z" style="paint-order: stroke;" stroke="#1d1d1b" stroke-width="2.96" stroke-linejoin="round" stroke-linecap="round"></path>
    </g>
  </g>
<path class="glyph-merged" d="M2.03825,11.99553c1.09773,3.99109 2.53811,9.20075 4.70459,15.8285c0.2341,0.17214 0.45155,0.35142 0.65468,0.53576c0.66749,-0.6172 1.32935,-1.10396 1.98968,-1.45069c0.38271,-1.0921 0.749,-2.14263 1.09953,-3.15273l-2.18088,-1.87879c1.14946,-0.70839 2.12508,-1.31313 2.96371,-1.83251c0.19011,-4.77244 1.138,-7.18725 -9.23131,-8.04955c-0.51524,-1.8733 -0.95499,-3.47814 -1.3589,-4.83516c-1.23742,1.77819 -1.98114,3.21581 -2.44973,4.60752c1.41435,0.05814 2.67869,0.13367 3.80863,0.22763zM12.57932,33.57241c0.01782,0.00039 0.03575,0.00063 0.0538,0.00069c-0.01686,0.01134 -0.03372,0.02267 -0.05057,0.03399c0.64676,6.94234 1.90198,15.01519 3.90661,23.36394c-8.56141,-4.57571 -14.81949,-8.68294 -19.35022,-12.07388c-0.03179,0.03289 -0.06363,0.06581 -0.09551,0.09876c0.02056,-0.04144 0.0411,-0.08282 0.06162,-0.12414c-0.21573,-0.16159 -0.42753,-0.32156 -0.63546,-0.47986c-2.74805,1.80293 -5.20873,3.37584 -7.4404,4.72949l-0.28473,2.43983c-0.03188,-0.76066 -0.0722,-1.49228 -0.11963,-2.19545c-1.20829,0.7275 -2.34882,1.38929 -3.4312,1.98715c0.95176,-1.79705 1.97002,-3.80611 3.0563,-5.99849c-1.494,-12.32328 -4.91086,-12.6491 1.9453,-6.2245l-0.34662,2.9701c0.36132,-0.74072 0.7294,-1.49814 1.10431,-2.27137c-0.26548,-0.24102 -0.51787,-0.474 -0.75769,-0.69872l1.40713,-12.0574c-5.87909,1.40553 -13.81997,4.26105 -24.66316,9.31667l26.45242,-24.64836l0.20656,-1.76998c0.14263,0.41602 0.27784,0.81561 0.40595,1.19924l6.13899,-5.72031c-1.41633,-4.23455 -2.58626,-5.14701 -5.57259,-3.81074l-0.97235,8.33181c-0.62882,-1.83406 -1.40194,-3.98729 -2.34711,-6.49891c-2.63379,1.60353 -6.18877,3.9291 -11.1408,6.72908c3.6839,-7.86457 5.13033,-15.96717 6.09558,-22.70752c-4.28377,-1.3438 -6.14624,-6.99697 -4.55688,-28.43158c1.47755,12.2275 3.38331,19.57928 5.24387,23.47277c1.10962,-7.88232 2.17678,-12.61394 7.34157,-10.42258c-0.19291,-2.97351 -0.18425,-6.64517 0.08676,-11.1632l5.2293,14.65221c2.03172,1.6547 4.42385,3.85702 7.251,6.67494c-0.6461,-0.29699 -2.37099,0.85977 -4.34887,1.45668l2.13743,5.98895c-1.99566,-0.94415 -3.90324,-1.46478 -5.70681,-1.73902c2.26255,4.74026 4.42943,8.93726 6.36898,12.70646l2.44047,-2.27403l-3.10263,-8.69341c1.91003,0.90364 3.90105,2.19348 5.95851,4.02833c3.22754,-19.17857 12.94113,-22.12332 1.65712,1.58588c-0.55703,-0.56851 -1.10959,-1.09558 -1.65741,-1.58413c0.0001,-0.00058 -0.0001,0.00058 0,0c-0.5005,2.97457 -0.84497,6.3396 -0.93089,10.05623l-1.84524,-5.17025c-0.82184,0.90548 -1.57637,1.74903 -2.26937,2.53842c3.08568,5.99957 5.56923,10.9067 6.90381,15.20096c0.3958,-2.94198 1.09966,-4.51905 2.03418,-4.26179c-0.51124,1.54238 -1.09232,3.27879 -1.75186,5.22391c0.14862,0.53959 0.27763,1.06969 0.38588,1.5913c2.06472,-1.26625 3.01402,-1.79772 4.09142,-2.21207c-1.0354,-2.94414 -1.95817,-4.39191 -2.72545,-4.60313c6.3781,-19.24237 1.88619,-8.28367 3.2724,4.40564c0.58474,-0.19907 1.25498,-0.39411 2.17287,-0.66569c-0.45739,0.38811 -0.928,0.79661 -1.41207,1.22592c-0.19066,0.3162 -0.38041,0.62952 -0.56941,0.94012c0.15288,1.04304 0.34929,2.09015 0.59832,3.12588c-0.27218,-1.02542 -0.53876,-1.95633 -0.79913,-2.79643c-1.51932,2.48842 -2.9928,4.80403 -4.49882,7.03245c-0.04098,0.19958 -0.08669,0.39841 -0.13721,0.59659l1.22593,1.05612c-0.45496,-0.26889 -0.90606,-0.46399 -1.35455,-0.5882c-0.1295,0.439 -0.28321,0.87503 -0.46213,1.30898c-0.1153,-0.28814 -0.22032,-0.57168 -0.31592,-0.85068c-0.01088,0.01564 -0.02176,0.03129 -0.03265,0.04692c0.08436,2.05492 0.23285,4.27242 0.45094,6.61944zM12.16572,18.87753c-0.08724,0.25574 -0.17573,0.51478 -0.26548,0.77714c0.07736,-0.04785 0.15344,-0.09489 0.22826,-0.14114c0.01131,-0.21608 0.02372,-0.42811 0.03722,-0.636zM6.99806,-17.52767c-0.06576,-0.06574 -0.1313,-0.13116 -0.1966,-0.19625c0.08469,0.03893 0.15084,0.10283 0.1966,0.19625zM-25.16168,53.90583c0.05712,0.55259 0.11918,1.07161 0.18623,1.55779c-3.23867,0.60527 -6.09472,0.22866 -9.2494,-1.00441c3.60381,-3.90212 8.11163,-8.57591 13.15438,-12.9988zM-34.22484,54.45921c-9.13856,9.895 -12.46412,14.82789 -3.95883,-1.87533c1.39586,0.75595 2.70108,1.38371 3.95883,1.87533zM-21.07046,41.46041l1.20494,-3.66541c-12.6217,9.6745 -25.19857,13.50488 -32.57764,10.42567l38.63386,-12.60396c-2.5096,1.82852 -4.94196,3.80957 -7.26116,5.8437zM-14.80637,51.35293c-5.55086,10.48076 -8.83976,13.74969 -10.16908,4.11069c2.91439,-0.54467 6.13861,-1.88443 10.16908,-4.11069zM-16.76124,73.1982l-6.32241,-8.8855c8.50355,-7.81499 14.94167,-13.95809 20.12708,-19.31678c-3.88138,7.82367 -8.33467,17.57209 -13.80467,28.20229zM32.831,11.53109c5.59219,-2.02539 13.3642,-4.97358 24.351,-9.35862l-32.16891,42.86423c6.01799,-15.50774 9.95846,-28.96908 7.81791,-33.50561zM19.88602,15.85531c7.60559,-6.45356 11.55583,-7.26829 12.94498,-4.32422c-7.17419,2.59836 -10.76078,3.67797 -12.94498,4.32422zM11.56455,24.68491c0.10096,0.51612 0.23113,1.05033 0.39756,1.60308c0.04709,0.00237 0.0942,0.00551 0.14134,0.00943c-0.01397,-0.39923 -0.02545,-0.79198 -0.0345,-1.17797z" fill="none" stroke="#1d1d1b" stroke-width="4.203" stroke-linejoin="round" style="display: none;"></path></g>
<g transform="translate(-95.2089 487.9814) scale(2.7713) translate(45.0319 45.2009)">
  <g data-rolle="struktur" style="">
    <g transform="matrix(1 0 0 1 -56.10154342651367 -57.53116989135742)" data-zeichen="S">
      <path d="M39.9394,77.5588C45.477,75.9252 52.474,75.7333 51.9027,74.9672C60.31,77.3647 65.6115,72.5605 61.1453,65.6175C64.0541,64.5483 63.0083,58.9794 55.4355,60.15C46.9887,56.6274 43.2275,50.1363 39.3836,50.0109C42.0922,38.1216 50.543,34.3338 55.7854,32.3126C62.7583,32.5053 65.9199,34.955 68.2035,32.0819L65.4579,35.2444C65.2065,39.1303 62.222,37.8174 60.1781,40.4254C50.9487,37.6899 49.2938,37.5293 48.8336,45.094C48.4292,49.4985 54.1072,47.0366 55.2663,52.2023C66.2866,57.4917 70.7057,56.5505 71.663,70.2101C70.4624,76.0689 65.8235,82.207 55.099,81.8463C48.7885,82.5494 45.9695,85.8075 40.5261,78.7534L40.9953,73.2239C41.188,70.9538 41.0893,70.9411 40.6993,73.1857L39.9394,77.5588Z" style="paint-order: stroke;" stroke="#1d1d1b" stroke-width="2.96" stroke-linejoin="round" stroke-linecap="round"></path>
    </g>
    <g transform="matrix(-0.6986615864797253 -0.715452295808486 0.715452295808486 -0.6986615864797253 -20.010158335992088 117.14622122072346)" data-zeichen="T">
      <path d="M55.531,34.6159L56.2807,34.8999C57.953,35.5334 58.7892,36.7443 58.7895,38.5326L58.7949,71.017C58.7954,73.6391 57.9335,75.938 56.2094,77.9136L55.4366,78.7993C53.7125,80.7749 52.8551,80.4516 52.8645,77.8295L53.013,36.348C53.0194,34.5597 53.8587,33.9824 55.531,34.6159Z" style="paint-order: stroke;" stroke="#1d1d1b" stroke-width="2.96" stroke-linejoin="round" stroke-linecap="round"></path>
    </g>
    <g transform="matrix(-0.9461088435402939 -0.3238488168495413 -0.3238488168495413 0.9461088435402939 78.77669780422038 -1.895564735292396)" data-zeichen="T">
      <path d="M41.1231,52.994L38.6855,56.1716C37.3664,57.8912 37.7904,58.732 39.9573,58.6941L48.1272,58.5509C50.3511,58.512 52.5752,58.4904 54.7995,58.4861L55.7966,58.4842C58.0209,58.4799 60.2453,58.4771 62.4696,58.4757L70.0327,58.4709C71.6698,58.4699 72.7767,57.7034 73.3535,56.1713L73.6121,55.4845C74.1889,53.9524 73.6588,53.1869 72.0217,53.188L41.7898,53.2082C41.6448,53.2083 41.5264,53.1522 41.4345,53.04L41.3933,52.9897C41.3014,52.8775 41.2114,52.8789 41.1231,52.994Z" style="paint-order: stroke;" stroke="#1d1d1b" stroke-width="2.96" stroke-linejoin="round" stroke-linecap="round"></path>
    </g>
    <g transform="matrix(0.16790570674730648 -0.9858030602720239 -0.9858030602720239 -0.16790570674730648 78.30706811071249 84.29594877588379)" data-zeichen="E">
      <path d="M47.0464,74.2468L48.0103,58.8248C48.063,57.9805 48.06,57.1365 48.0013,56.2926L47.975,55.9144C47.9163,55.0705 47.8599,54.2265 47.8058,53.3824L47.7266,52.1462C47.6443,50.8617 47.7145,49.5857 47.9371,48.318L48.6029,44.5272C49.0936,41.7329 48.9001,38.9869 48.0222,36.2891L47.1794,33.6991C46.6011,31.9218 45.4667,31.4318 43.7762,32.2291L43.0185,32.5865C41.328,33.3838 40.5457,34.7149 40.6715,36.5797L43.2096,74.2028C43.6804,81.1811 47.3433,83.976 54.1982,82.5876L64.487,80.5037C66.5313,80.0896 67.6393,78.8432 67.8111,76.7645L67.8881,75.8327C68.0599,73.754 67.1094,72.8312 65.0367,73.0644L51.781,74.5557C50.7778,74.6686 49.7942,74.8748 48.8301,75.1744L48.398,75.3087C47.4339,75.6083 46.9834,75.2543 47.0464,74.2468Z" style="paint-order: stroke;" stroke="#1d1d1b" stroke-width="2.96" stroke-linejoin="round" stroke-linecap="round"></path>
    </g>
    <g transform="matrix(0.5494558493549049 -0.8355227522992298 0.8355227522992298 0.5494558493549049 -98.39381446256306 47.87941988143399)" data-zeichen="S">
      <path d="M58.1758,45.2328L57.5067,49.8065C61.4623,51.0468 64.7493,52.5573 66.2405,60.2165C64.0541,63.0722 63.1376,66.4543 52.5582,68.3201C49.5815,66.456 44.7171,62.5083 45.2831,64.2081L42.9612,67.7943C43.6762,70.2723 49.9499,70.0387 54.5002,69.0556C64.9184,71.6405 70.3976,64.2106 72.3816,58.7004C70.4624,50.5428 68.3089,49.3796 55.2431,44.3115L57.0126,44.063C57.9208,43.9354 58.3085,44.3253 58.1758,45.2328Z" style="paint-order: stroke;" stroke="#1d1d1b" stroke-width="2.96" stroke-linejoin="round" stroke-linecap="round"></path>
    </g>
    <g transform="matrix(-0.28817753281092706 0.9575769992971881 0.9575769992971881 0.28817753281092706 32.1460116558706 -25.838503722987102)" data-zeichen="H">
      <path d="M55.7318,51.1486L54.8527,37.8872C54.7212,35.9029 53.9402,34.2199 52.5098,32.8382L51.8686,32.2189C50.4382,30.8372 49.6747,31.1396 49.578,33.1259L47.5909,73.9727C47.474,76.3759 48.6041,77.3918 50.9813,77.0205L52.0469,76.8541C54.4241,76.4828 55.6458,75.0945 55.712,72.6894L56.0606,60.023C56.1521,56.6984 57.7939,55.5032 60.9859,56.4373L63.6527,57.2177C66.0207,57.9107 67.2404,57.0241 67.3119,54.5578L67.3439,53.4522C67.4154,50.9859 66.2591,50.0705 63.875,50.7059L55.0567,53.0562C54.4904,53.2071 54.4367,53.1004 54.8957,52.7359L55.1015,52.5725C55.5605,52.208 55.7706,51.7334 55.7318,51.1486Z" style="paint-order: stroke;" stroke="#1d1d1b" stroke-width="2.96" stroke-linejoin="round" stroke-linecap="round"></path>
    </g>
    <g transform="matrix(0.24169084782618042 -0.970353303738933 -0.970353303738933 -0.24169084782618042 30.89467243791681 121.34811897995264)" data-zeichen="H">
      <path d="M57.2144,33.1977L57.8543,50.7754C57.9815,54.2695 56.4205,55.3708 53.1714,54.0792L49.6143,52.6653C47.7655,51.9304 46.8985,52.556 47.0134,54.5422L47.0648,55.4325C47.1797,57.4187 48.2226,58.5468 50.1937,58.8169L53.9826,59.3359C57.4449,59.8102 59.0422,61.7896 58.7745,65.2739L57.8988,76.6715C57.7714,78.33 58.4753,79.4793 60.0105,80.1196L60.6986,80.4067C62.2338,81.047 63.0093,80.5355 63.0251,78.8722L63.3975,39.6656C63.4161,37.708 62.9197,35.8911 61.9083,34.2149L60.5976,32.0425C60.1578,31.3136 59.5363,31.0901 58.733,31.3721L58.3728,31.4985C57.5695,31.7805 57.1834,32.3469 57.2144,33.1977Z" style="paint-order: stroke;" stroke="#1d1d1b" stroke-width="2.96" stroke-linejoin="round" stroke-linecap="round"></path>
    </g>
    <g transform="matrix(0.9370725983996726 0.34913456621836514 0.34913456621836514 -0.9370725983996726 -102.4989912299644 69.99015323973478)" data-zeichen="E">
      <path d="M46.9029,55.1344L64.6452,55.3057C66.0031,55.3188 66.4456,55.9619 65.9727,57.2348L65.7607,57.8054C65.2878,59.0783 64.3729,59.7392 63.0158,59.7879L48.0151,60.3266C46.4457,60.3829 45.4995,59.6427 45.1766,58.1058L45.0318,57.4169C44.7089,55.88 45.3326,55.1192 46.9029,55.1344Z" style="paint-order: stroke;" stroke="#1d1d1b" stroke-width="2.96" stroke-linejoin="round" stroke-linecap="round"></path>
    </g>
    <g transform="matrix(0.617629425572142 -0.786469257293269 0.786469257293269 0.617629425572142 -102.11304044955313 -14.063057172102518)" data-zeichen="I">
      <path d="M55.8126,43.8443L56.6645,43.8729C58.5649,43.9368 59.5045,44.9194 59.4834,46.8207L59.2467,68.1478C59.2248,70.1159 58.238,70.9733 56.2862,70.72L55.4112,70.6064C53.4594,70.3531 52.5013,69.2426 52.5368,67.2747L52.9105,46.6002C52.9448,44.6991 53.9122,43.7804 55.8126,43.8443Z" style="paint-order: stroke;" stroke="#1d1d1b" stroke-width="2.96" stroke-linejoin="round" stroke-linecap="round"></path>
    </g>
    <g transform="matrix(-0.6386436993509588 -0.7695025830231645 -0.7695025830231645 0.6386436993509588 82.9063388823869 -25.47890520504633)" data-zeichen="E">
      <path d="M48.9587,54.6968L64.0074,55.2798C65.5976,55.3414 66.0768,56.1025 65.445,57.5631L65.1618,58.2179C64.53,59.6785 63.4187,60.3852 61.828,60.338L47.4127,59.9106C45.8303,59.8637 45.2634,59.0811 45.7119,57.5628L45.913,56.8823C46.3615,55.364 47.3768,54.6355 48.9587,54.6968Z" style="paint-order: stroke;" stroke="#1d1d1b" stroke-width="2.96" stroke-linejoin="round" stroke-linecap="round"></path>
    </g>
    <g transform="matrix(0.593313835611309 0.804971237046515 -0.804971237046515 0.593313835611309 14.393751010946481 -52.439352981070975)" data-zeichen="S">
      <path d="M46.8718,58.2561C48.8969,53.2065 49.1397,49.9542 59.421,50.6126C62.434,49.2465 64.264,48.2814 66.1464,52.6067L69.5705,44.926C66.8265,45.2143 63.1079,45.7257 56.4584,45.7914C48.8246,44.0619 42.8719,52.3436 44.5108,56.7463C42.5599,64.0795 46.1055,67.6263 57.6941,73.3046L59.8241,64.9129C51.849,63.2875 51.4684,61.0575 47.3491,54.5959L46.8718,58.2561Z" style="paint-order: stroke;" stroke="#1d1d1b" stroke-width="2.96" stroke-linejoin="round" stroke-linecap="round"></path>
    </g>
    <g transform="matrix(-0.2355540579257751 -0.971861248221525 -0.971861248221525 0.2355540579257751 42.40439409823965 63.73005307891433)" data-zeichen="I">
      <path d="M55.6599,43.7576L56.4275,43.8232C58.1397,43.9695 58.9793,44.9017 58.9463,46.6198L58.5191,68.8553C58.479,70.942 57.5378,71.495 55.6954,70.5145L54.8696,70.075C53.0272,69.0945 52.147,67.5615 52.229,65.4761L52.9903,46.1139C53.0578,44.3968 53.9477,43.6113 55.6599,43.7576Z" style="paint-order: stroke;" stroke="#1d1d1b" stroke-width="2.96" stroke-linejoin="round" stroke-linecap="round"></path>
    </g>
  </g>
<path class="glyph-merged" d="M-8.32933,23.29169l0.52321,0.25877c0.01938,-0.42926 -0.11147,-0.83374 -0.40994,-1.20493c-0.02958,0.32752 -0.06739,0.64239 -0.11326,0.94617zM20.51064,36.43865l0.34668,-1.12119c-3.70122,-0.81347 -3.55578,-1.28381 0.43627,-1.41091l0.56981,-1.84279c0.97695,0.39794 2.01615,0.63888 3.11761,0.72286l11.39434,0.86883l2.21873,-0.03587l-0.92401,-0.45039c-3.1976,-1.5586 -3.09953,-1.80499 0.29426,-0.73905l3.63256,1.14089l39.13871,-0.63282c2.70464,-0.04374 5.38992,0.16391 8.05568,0.6231l27.4677,4.73098c2.2032,0.37951 3.21415,1.68336 3.0326,3.91167l-1.82295,22.38c-0.18155,2.22831 -1.19986,2.71866 -3.05517,1.47118l-23.10185,-15.53383c-2.24233,-1.50775 -4.70542,-2.41933 -7.38912,-2.73459l-21.42831,-2.51747l-6.02489,-2.93672l-13.36539,-2.62779l-12.22617,1.33018c0.20898,0.15898 0.40521,0.33617 0.58871,0.53157l4.54393,4.83913c0.45246,0.48179 0.38167,0.57774 -0.2122,0.28768l-10.37143,-5.06533l-3.40497,0.37045c-2.22845,0.24247 -3.01163,-0.70711 -2.34944,-2.84873l0.08922,-0.28855l-6.95949,-3.39896l1.61957,9.53981c-1.0803,-5.18283 -4.82889,-9.27487 -8.57146,-12.1183l-0.52017,-0.13005l-6.3453,-0.72628c-0.06462,-0.03317 -0.12872,-0.06589 -0.1923,-0.09815c-1.28718,0.88924 -2.86541,1.75592 -4.78365,2.49533c-0.11608,1.5271 -0.21778,3.07289 -0.18923,4.62732l9.09572,1.54477c1.18785,0.20177 1.21698,0.51222 0.0873,0.93131l-7.96973,2.95712c0.02851,0.39552 0.04487,0.81655 0.04901,1.264c-0.15411,-0.37612 -0.29098,-0.75258 -0.41223,-1.12923l-3.01243,1.11774c-0.2989,0.11089 -0.51972,0.22423 -0.66245,0.34003l-7.58471,-2.46505c0.84777,1.75169 1.60274,3.54456 2.26621,5.35101l11.14084,0.44815l34.58808,15.3676c3.59012,1.59509 3.4625,1.99036 -0.38271,1.18565l-43.00138,-8.99878c1.85028,8.34524 1.74519,16.09635 -0.18321,20.43676l-18.27964,-12.27257l-0.11785,0.57218c-0.28989,1.40757 -0.81192,1.49963 -1.56601,0.2763l-2.08123,-3.37628l-10.25973,-6.88817c1.63925,-0.6528 3.23113,-1.32577 4.77496,-2.0095l-0.94573,-1.53422c-0.12868,-0.20869 -0.3008,-0.37121 -0.51656,-0.4876l-2.16655,-1.16879c-0.21576,-0.1164 -0.20362,-0.14944 0.03627,-0.09928l7.38828,1.54612c3.87983,-1.84438 7.41745,-3.70897 10.60015,-5.41842l0.09993,-3.41916l-2.06926,-0.83099l-10.72342,4.97336c-1.27275,0.59028 -1.32024,0.50415 -0.14254,-0.25832l8.65453,-5.60313l-4.7655,-1.91378c-0.97015,0.96359 -1.66471,1.5835 -1.92742,1.74966l1.09556,-2.08373l-10.44144,-4.19318c-0.65417,-0.26273 -1.1427,-0.67207 -1.46559,-1.22807l-3.57952,-1.16335c-4.54284,-1.47643 -4.45958,-1.81484 0.24973,-1.01504l2.7626,0.46919l-2.35609,-8.84592c-0.25891,-0.97206 0.08432,-1.28609 1.02965,-0.9422l6.62312,2.40938l6.98258,-5.48515c1.07988,-0.84824 2.30633,-1.27772 3.67941,-1.28856l7.13322,-0.05617l0.50218,-17.18165c0.0822,-2.8133 1.2949,-3.4404 3.6381,-1.8813l10.3616,6.89461c0.45366,-0.32733 0.94398,-0.61386 1.47095,-0.85959c-3.14312,-5.46403 -2.70274,-20.69918 -0.08357,-33.08137c-4.2345,-0.44645 -10.2563,-5.74143 -18.26468,-18.77775c8.87394,6.39735 14.43546,12.6143 18.39942,18.15206c0.07854,-0.35827 0.15891,-0.71393 0.24108,-1.06666c-11.7743,-15.33076 -6.212,-5.78004 6.60361,-5.62409c-1.09417,4.41996 -3.18854,7.33644 -6.3797,7.34752c5.81292,8.30068 8.1206,14.99934 12.87299,18.36543l3.19354,-0.19076c1.75298,-3.4586 3.64615,-7.51836 5.68656,-12.2428c-1.27255,4.04087 -2.25078,8.12484 -3.06807,12.08639l12.21098,-0.72941c2.26292,-0.13516 2.36417,0.26979 0.30352,1.21491l-7.69171,3.52779c-2.24783,7.41294 -3.45621,11.78536 -4.05039,14.36527l1.11007,1.32654c2.14838,-1.46721 4.79138,-3.4937 7.69678,-6.41884c-0.75709,4.22872 -1.5765,8.62397 -2.40876,12.73802l0.4142,0.49497c0.43146,0.51556 0.96786,0.67286 1.60933,0.47181l6.4426,-2.01922c0.64146,-0.20105 0.86287,0.01956 0.6643,0.66184l-5.15531,16.67246c-0.92041,-0.37491 -1.78557,-0.88916 -2.59549,-1.54276l-3.98894,-3.21905c-0.72347,2.72291 -1.41529,4.83806 -2.03951,6.02002zM-28.4676,29.66179l0.88357,-0.84489l-3.14717,0.02143zM-5.71742,29.99162c-0.00423,0.19161 -0.01013,0.3837 -0.01743,0.57625l0.60779,-0.37748c-0.1501,-0.05671 -0.29033,-0.10864 -0.42064,-0.15634zM8.69767,21.99089c-0.40858,0.83262 -0.77787,1.58166 -1.1134,2.25138c0.76089,-0.38036 1.55306,-0.79017 2.37677,-1.23185zM0.17711,20.81304c1.48658,-0.32291 2.67322,-1.27874 3.65708,-2.74693l-1.51863,-1.22552c-0.68482,-0.55267 -1.39239,-0.89613 -2.12272,-1.0304c-0.93019,0.14968 -1.88426,0.33256 -2.83201,0.48178c0,0 0,0 0,0c1.14196,1.6049 2.06151,3.1267 2.81628,4.52107c-1.36869,0.29731 -2.99163,0.0581 -4.94465,-0.8117l-2.84233,1.5778c0.53789,0.87079 0.93394,1.76246 1.22085,2.67219l3.10165,1.53401c0.892,-1.02177 2.39504,-2.07442 4.41481,-3.11727c-0.28511,-0.58793 -0.59997,-1.20775 -0.95034,-1.85503zM-2.64517,16.28353c-0.00924,0.00455 -0.01848,0.00912 -0.02772,0.01373c0.01124,-0.00176 0.02248,-0.00353 0.03372,-0.0053c0,0 0,0 0,0c-0.002,-0.00281 -0.004,-0.00562 -0.006,-0.00843zM-22.09883,44.81982c0.16161,-0.08704 0.32214,-0.17342 0.48157,-0.25912l-0.2742,-0.11012c-0.06892,0.12204 -0.13805,0.24512 -0.20736,0.36924zM-26.34096,30.43543l1.5,0.54568l0.06381,-2.18332l-0.35091,0.00239c-0.39895,0.55323 -0.80442,1.09914 -1.2129,1.63525zM-8.90023,25.61395c-0.01248,0.03526 -0.0251,0.07039 -0.03788,0.1054c0.02267,-0.02461 0.04503,-0.04919 0.06706,-0.07374zM15.46016,-41.27477c-0.11184,0.34198 -0.22218,0.67946 -0.33103,1.01248l8.80143,4.31592c-5.40548,2.23417 -9.24989,4.91202 -12.25576,6.22952c-5.50285,16.63299 -4.52686,11.85552 -5.78091,0.6551l-5.16741,0.19125c-0.40889,0.01512 -0.55901,-0.17452 -0.45063,-0.56895l1.15036,-4.18526c0.06748,-0.24548 0.21832,-0.41823 0.45246,-0.51834l1.07448,-0.45925c-0.16738,-0.39966 -0.33518,-0.82364 -0.50378,-1.27295c0.77318,-0.11229 1.56499,-0.26276 2.37379,-0.457c-0.62171,-3.30487 -1.49279,-6.82843 -2.7514,-10.3329l12.3819,6.07166c0.33407,-0.21835 0.66959,-0.44534 1.0065,-0.68126zM2.44937,-35.87527c-1.411,0.20491 -2.75996,0.28265 -4.03691,0.26711c0.77833,-3.14413 1.05054,-7.04904 0.85139,-11.21011c1.14715,4.68826 2.18074,8.2654 3.18551,10.943zM3.92655,-0.90235l4.15625,4.96672c0.4347,-2.35101 0.86437,-4.86463 1.33413,-7.48488l-5.49039,2.51815l-0.58018,-0.69332c-0.30368,0.47889 -0.60178,0.93525 -0.89438,1.36962zM-5.71094,29.07365c0.00029,0.03166 0.00053,0.06333 0.0007,0.09502c0.00911,-0.00197 0.01827,-0.00395 0.0275,-0.00594c0.00758,-0.02652 -0.00182,-0.05622 -0.0282,-0.08908zM62.49419,45.26925l7.77886,3.79166c2.8723,1.40002 2.75054,1.7456 -0.36516,1.03675l-31.29225,-7.11945c-3.1157,-0.70885 -3.08683,-0.87696 0.08665,-0.50412zM-3.18291,49.41172l-5.20278,-2.31161c-0.80976,-0.35979 -1.01628,-0.70063 -0.61957,-1.0225l7.72342,2.51014c2.10792,0.68507 2.0545,0.9831 -0.16012,0.894zM-31.12846,-24.75099l1.33135,-5.13894c0.13262,-0.51164 0.40475,-0.60169 0.81639,-0.27016l14.14677,11.39162c0.7444,0.59947 1.17274,1.37376 1.28489,2.32303l1.12693,9.5334c0.11215,0.94927 -0.17489,1.09118 -0.86106,0.42581l-17.47495,-16.94541c-0.37948,-0.36794 -0.50294,-0.8077 -0.37031,-1.31933zM3.08777,27.69229c-0.18354,0.27865 -0.40402,0.58519 -0.6651,0.91173c0.10589,0.05093 0.21189,0.10162 0.31801,0.15208c0.12321,-0.40627 0.23953,-0.75955 0.3471,-1.06381zM14.60582,46.08675l-0.18416,-1.08474c0.0743,0.35644 0.13597,0.71804 0.18416,1.08474zM4.52533,32.55247l-4.51367,-1.12849c1.22009,0.41883 2.71831,0.79773 4.51367,1.12849zM2.80938,26.43666c-0.12384,-0.28767 -0.25559,-0.59773 -0.39742,-0.92854l-2.77505,1.72351l0.49888,0.24674c0.81693,-0.29525 1.70778,-0.63938 2.67359,-1.0417z" fill="none" stroke="#1d1d1b" stroke-width="4.203" stroke-linejoin="round" style="display: none;"></path></g>
<g transform="translate(-9.4071 650.2199) scale(2.7713) translate(57.6257 42.8741)">
  <g data-rolle="struktur" style="">
    <g transform="matrix(1 0 0 1 -55.97625160217285 -57.52730369567871)" data-zeichen="A">
      <path d="M48.671,66.2985L42.0931,79.7411C40.7964,82.391 38.8836,82.9563 36.3547,81.437L35.2211,80.7559C32.6922,79.2366 32.0641,77.1461 33.3367,74.4845L51.0453,37.4479C52.0856,35.2722 53.7566,34.5439 56.0585,35.263L57.0903,35.5853C59.3922,36.3044 60.8751,37.8231 61.539,40.1414L73.2259,80.9517C73.7875,82.9128 73.0551,84.0105 71.0287,84.2449L70.1204,84.35C68.094,84.5844 66.9021,83.6974 66.5448,81.6891L64.173,68.3587C63.5362,64.7797 61.4231,63.2781 57.8338,63.8539L51.656,64.845C51.1125,64.9322 50.5788,65.0601 50.0548,65.2286L49.8199,65.3041C49.2959,65.4726 48.9129,65.8041 48.671,66.2985ZM61.95,59.2457L57.3038,51.1704C57.0693,44.4945 55.6304,45.7989 55.3479,40.2178L58.5496,40.8888C54.7652,41.686 50.7641,46.7279 50.9965,50.4313L50.1437,55.4551C49.706,58.0336 50.7938,59.3759 53.4071,59.482L60.2244,59.7588C60.635,59.7755 61.0458,59.7832 61.4567,59.7821L61.641,59.7817C62.0519,59.7806 62.1549,59.6019 61.95,59.2457Z" style="paint-order: stroke;" stroke="#1d1d1b" stroke-width="2.96" stroke-linejoin="round" stroke-linecap="round"></path>
    </g>
    <g transform="matrix(-0.8254065879876564 -0.5645387183414219 -0.5645387183414219 0.8254065879876564 62.38388808224535 7.722344977529474)" data-zeichen="S">
      <path d="M59.0778,45.7462L54.5252,48.0246C61.4623,51.0468 65.8065,52.439 61.4269,57.6778C64.0541,63.0722 61.6377,65.1978 51.4142,65.556C49.5815,66.456 43.6739,64.0669 42.8826,61.4201L41.5819,70.6741C43.6762,70.2723 46.1631,69.1697 55.1869,70.1564C64.9184,71.6405 71.0439,64.0537 72.011,56.5328C70.4624,50.5428 64.8498,47.1109 58.9149,42.1232L59.7351,43.8058C60.1561,44.6694 59.937,45.3162 59.0778,45.7462Z" style="paint-order: stroke;" stroke="#1d1d1b" stroke-width="2.96" stroke-linejoin="round" stroke-linecap="round"></path>
    </g>
    <g transform="matrix(0.8878222539651625 -0.4601865332277973 0.4601865332277973 0.8878222539651625 -83.66735596272568 30.05920521508208)" data-zeichen="U">
      <path d="M53.6055,64.3366L51.7601,32.9895C51.6658,31.3879 50.8571,30.8391 49.3339,31.3431L48.6512,31.569C47.128,32.073 46.3684,33.1272 46.3724,34.7316L46.4394,61.5748C46.8887,76.5008 54.9806,83.1429 63.6492,80.6351C64.431,82.1893 63.2943,83.3418 62.9476,84.0655L65.4656,72.3601C58.0499,77.077 53.092,69.5297 53.6165,63.082L53.6423,64.3352C53.6556,64.9784 53.6433,64.9789 53.6055,64.3366Z" style="paint-order: stroke;" stroke="#1d1d1b" stroke-width="2.96" stroke-linejoin="round" stroke-linecap="round"></path>
    </g>
    <g transform="matrix(0.40328832872235565 -0.9150729609797948 0.9150729609797948 0.40328832872235565 -101.13659260420405 28.837073142193862)" data-zeichen="U">
      <path d="M58.8716,32.7484L58.7088,62.5546C58.5092,72.3306 54.0995,73.56 45.3425,79.6689L48.3583,80.1371C57.1655,82.0486 66.5003,79.5606 63.5515,60.2961L64.5672,33.8588C64.6425,31.8987 63.8243,31.3975 62.1125,32.3554L59.7686,33.667C59.1079,34.0367 58.792,33.8433 58.8211,33.0867L58.8342,32.7476C58.8633,31.991 58.8757,31.9913 58.8716,32.7484Z" style="paint-order: stroke;" stroke="#1d1d1b" stroke-width="2.96" stroke-linejoin="round" stroke-linecap="round"></path>
    </g>
    <g transform="matrix(-0.94205277754992 -0.3354646990526439 0.3354646990526439 -0.94205277754992 27.0629476630071 49.437916812318605)" data-zeichen="S">
      <path d="M50.2069,58.3433C48.8969,53.2065 52.4621,49.2706 60.5928,47.9948C62.434,49.2465 66.7552,52.3054 67.2427,52.2722L68.0117,44.2356C66.8265,45.2143 63.3907,41.4282 57.9674,45.8194C48.8246,44.0619 45.1467,50.0356 40.5642,59.8426C42.5599,64.0795 47.0914,67.0557 53.9779,69.6413L60.4381,66.5499C51.849,63.2875 47.9021,60.0824 49.7434,58.5405L50.2069,58.3433Z" style="paint-order: stroke;" stroke="#1d1d1b" stroke-width="2.96" stroke-linejoin="round" stroke-linecap="round"></path>
    </g>
  </g>
<path class="glyph-merged" d="M-22.96396,30.57816c-1.90535,-1.39642 -3.845,-2.8227 -5.51638,-4.17744c3.73778,-0.55753 9.01912,-1.55918 16.14791,-3.14986c-0.57381,1.53655 -1.2146,2.88667 -1.89481,4.06691l0.38351,-0.11176c0.18031,0.77232 0.34447,1.47044 0.49001,2.10134l5.05529,-8.38731l-9.73597,2.36899c-0.0361,-0.88525 -0.0293,-1.66858 0.01509,-2.35957c-5.21094,0.90831 -9.8348,2.08966 -13.07962,3.16636c-3.39146,-3.35336 -3.48653,-5.7375 5.7742,-5.12184c1.62934,-1.12221 4.45896,-0.65131 7.64405,-0.2449c1.25337,-4.5194 5.32827,-1.69966 7.56368,0.07571c0.90741,-0.18646 1.79188,-0.47793 2.63475,-0.91102c-3.98422,-1.0522 -9.46745,-3.03901 -16.65223,-6.19463l13.18276,3.86773c0.50769,-1.20648 2.33273,-1.871 4.62231,-2.15454l-50.47984,-19.76382c-1.71432,-0.67116 -1.65871,-1.12564 0.16695,-1.36347l15.16446,-1.97569c10.62984,3.79178 20.07242,8.50763 27.34041,13.00573c-0.64851,-2.62255 -1.20031,-4.51109 -1.73553,-5.95422l-7.22418,-2.90806c-1.2952,-0.5214 -1.9229,-1.4799 -1.8832,-2.8756l0.17193,-6.03388c-1.3466,-1.83615 -2.92483,-4.17942 -4.79732,-7.25539l5.00759,-0.12427l0.0172,-0.60376c0.0397,-1.3957 0.7302,-1.8996 2.0715,-1.5118l3.633,1.05043l13.85633,-23.25774c6.69231,10.08373 11.29864,7.89332 12.10612,16.04246c-2.08743,0.02964 -5.17613,0.66672 -11.27147,3.0329c0.55279,0.93779 1.18141,1.6975 1.83755,2.30972l9.56019,-2.64297c0.01379,2.84055 -0.26939,6.62045 -0.88464,11.80306l4.06156,1.17435c-0.69924,2.1125 -1.33449,3.80293 -1.88894,5.145c-0.92977,-1.516 -1.75063,-2.82368 -2.46617,-3.93679c-0.06033,0.47383 -0.12308,0.95817 -0.18825,1.4533c0.66444,1.04756 1.41562,2.19828 2.2494,3.43639c-2.66724,6.09194 -3.03071,3.25321 1.2798,1.87405c1.34977,1.94999 2.8755,4.07393 4.56388,6.32087c-1.41837,-2.44562 -2.69904,-4.61438 -3.84672,-6.52433c2.15316,-0.53633 5.26889,-0.67054 9.56015,0.53095l-0.47499,-5.75845l14.8715,4.2999c4.9901,1.4428 6.5474,4.5862 4.6717,9.4303l-18.8383,48.6513c-1.8757,4.8441 -2.6244,4.6757 -2.2463,-0.505l2.46838,-33.8177l-2.22834,-6.56569l-6.14504,29.88699c-0.4792,2.3305 -1.9035,3.3877 -4.273,3.1716l-5.45961,-0.4981c3.29276,2.82557 7.35458,21.08177 0.82408,15.16516c-0.41051,-4.59158 -0.77924,-9.73179 -0.8496,-15.16749l-8.74856,-0.79816c0.28711,1.81109 0.59522,3.51993 0.91514,5.12397l1.67687,1.34328c3.10589,5.06447 5.38314,8.02796 7.00615,9.4984c2.29775,25.70044 5.90468,34.2128 -34.17239,-18.8509l8.22137,4.68139c0.71222,0.40554 0.91173,0.22959 0.59867,-0.52781l-4.59509,-11.11642c-0.26772,-0.64754 -0.0565,-0.91043 0.63347,-0.78857l2.77292,0.48961c0.21879,-0.20428 0.46969,-0.41441 0.75467,-0.62919zM-2.75349,11.72032l2.26254,-3.75383c0.2175,-0.3609 0.5275,-0.6038 0.93,-0.7286l4.0424,-1.2533c0.4025,-0.1248 0.4082,-0.2659 0.0173,-0.4232l-7.69826,-3.0989c-1.50505,1.65694 -3.27454,3.26937 -5.35623,4.56169c2.32551,1.66952 4.27904,3.25739 5.80224,4.69614zM21.61395,-4.52221c0.3065,-4.1997 0.0358,-4.2372 -0.8123,-0.1126l-0.73162,3.55832l-0.29536,-3.58073l-4.01221,6.53469l0.20213,0.62785c0.85688,1.10392 1.74899,2.23095 2.67491,3.37571l-0.61897,3.01041l2.13117,6.61976l0.52212,-7.15322c0.06437,0.07718 0.12888,0.15443 0.19353,0.23173l-0.11165,-1.35357zM19.17735,-11.89871l-8.78816,-2.54098c1.20038,-3.62654 2.58934,-8.49695 4.08179,-14.98411l-7.25871,2.00671c-0.00491,-1.01216 -0.04753,-1.90506 -0.12627,-2.69966c2.70342,-0.03838 3.72742,0.94209 7.42816,0.50491c0.74357,-3.24324 1.51256,-6.88762 2.29649,-10.97907l0.84843,10.28573l5.65979,-1.56468c-2.27495,0.76959 -4.12211,1.30674 -5.65089,1.67262zM18.6395,5.88103l1.43053,-6.95752l0.68567,8.31261l-0.08188,1.12184c-0.695,-0.83337 -1.37328,-1.65967 -2.03432,-2.47694zM9.37503,-6.46774c-0.44597,-0.64429 -0.87273,-1.26958 -1.2798,-1.87405c0.12966,-0.29613 0.26475,-0.61337 0.40502,-0.9529c0.49908,0.81376 1.02955,1.68755 1.59194,2.62349c-0.25214,0.06281 -0.49108,0.13113 -0.71717,0.20346zM-8.95797,19.73593c0.31175,0.23631 0.43005,0.27752 0.27312,-0.02344c-0.09108,0.00768 -0.18212,0.0155 -0.27312,0.02344zM-31.09895,24.09582c0.73769,0.72941 1.63135,1.50467 2.6186,2.3049c-10.02937,1.496 -8.94538,-0.20553 -2.6186,-2.3049zM-2.29812,59.82721c1.87365,5.28934 2.772,5.53795 0,0zM-50.86329,-12.68964l-14.77174,-23.44323c-1.27966,-2.03085 -1.02641,-2.24445 0.75967,-0.64086l27.25194,24.46831c1.3698,1.22998 1.14199,1.96384 -0.68367,2.20167l-3.17076,0.4131c-3.03912,-1.08409 -6.1753,-2.09265 -9.38544,-2.99898zM0.08648,-23.13751c3.55724,1.62767 6.17921,-0.03149 0,0zM-15.93558,-22.05133l3.39862,-0.08434c0.33218,-0.54207 0.72359,-1.1904 1.17035,-1.96003c-1.41372,0.61897 -2.93344,1.2986 -4.56897,2.04437z" fill="none" stroke="#1d1d1b" stroke-width="4.203" stroke-linejoin="round" style="display: none;"></path></g>
<g transform="translate(0 908.8716) scale(2.7713) translate(54.9788 47.3506)">
  <g data-rolle="struktur" style="">
    <g transform="matrix(1 0 0 1 -65.32729510694169 -75.45179239855452)" data-zeichen="!">
      <path d="M54.6426,39.4617L54.4848,71.9719C54.4747,74.0597 55.1844,74.3428 56.6139,72.8212L57.2548,72.139C58.6843,70.6174 59.4752,68.8155 59.6275,66.7332L61.288,44.0205C61.4587,41.6854 60.3883,40.7039 58.0768,41.0759L55.4537,41.4981C54.2,41.6998 53.7296,41.1854 54.0424,39.9547L54.1826,39.4031C54.4954,38.1724 54.6487,38.192 54.6426,39.4617Z" style="paint-order: stroke;" stroke="#1d1d1b" stroke-width="2.96" stroke-linejoin="round" stroke-linecap="round"></path>
    </g>
    <g transform="matrix(1 0 0 1 -102.24016729342064 -96.90401853499918)" data-zeichen="!">
      <path d="M55.1309,53.0334C53.3247,53.0629 50.6914,54.8283 50.7421,58.1431C51.5249,60.0472 52.8878,62.0045 55.2665,61.8033C58.3657,61.9916 60.8205,59.6878 60.815,58.0863C60.0219,54.9349 59.0359,52.6978 56.0247,53.5985L55.1309,53.0334Z" style="paint-order: stroke;" stroke="#1d1d1b" stroke-width="2.96" stroke-linejoin="round" stroke-linecap="round"></path>
    </g>
  </g>
<path class="glyph-merged" d="M-15.22319,-27.41929l0.2733,-24.2277c0.0258,-2.2845 0.2669,-2.3074 0.7232,-0.0688l5.0388,24.7173c0.4958,2.4321 1.03,4.8558 1.6027,7.271l6.3196,26.6509c0.3611,1.5227 0.0524,1.6734 -0.9261,0.4521l-9.9546,-12.4252c-0.8934,-1.1151 -1.4076,-2.3839 -1.5426,-3.8064l-1.356,-14.2864c-0.135,-1.4225 -0.1944,-2.8481 -0.1783,-4.2768zM-43.02867,-38.83822c-0.8458,-5.0029 0.3481,0.3884 5.5096,-1.5732c-4.6992,3.5547 -3.418,5.6633 -6.9167,2.5702c-4.551,2.9288 -7.7589,6.7994 -5.887,-3.6773c-0.3925,-0.4505 -2.7367,-8.78 3.9726,-7.4734z" fill="none" stroke="#1d1d1b" stroke-width="4.203" stroke-linejoin="round" style="display: none;"></path></g>
<g transform="translate(0 966.5561) scale(2.7709) translate(-1.3554 35.4236)">
  <g data-rolle="struktur" style="">
    <g transform="matrix(1 0 0 1 -48.895943502516516 -9.348711572344726)" data-zeichen="!">
      <path d="M54.1116,38.2994L54.4703,72.2187C54.4886,73.9436 55.2342,74.3572 56.7072,73.4593L57.3674,73.0569C58.8404,72.159 59.6099,70.8482 59.6759,69.1244L60.6233,44.3837C60.7059,42.2264 59.7032,40.8737 57.6151,40.3256L54.3243,39.4617C53.806,39.3256 53.6275,39.0021 53.7888,38.4912L53.8612,38.2621C54.0225,37.7512 54.1059,37.7636 54.1116,38.2994Z" style="paint-order: stroke;" stroke="#1d1d1b" stroke-width="2.96" stroke-linejoin="round" stroke-linecap="round"></path>
    </g>
    <g transform="matrix(1 0 0 1 -25.541751194918547 -84.86314876406841)" data-zeichen="!">
      <path d="M55.2247,53.0452C53.3247,53.0629 51.723,55.4927 50.7591,57.9632C51.5249,60.0472 52.6414,61.9897 56.538,61.9021C58.3657,61.9916 59.3211,59.5613 60.3273,57.8944C60.0219,54.9349 58.0033,53.6279 55.8806,52.9196L55.2247,53.0452Z" style="paint-order: stroke;" stroke="#1d1d1b" stroke-width="2.96" stroke-linejoin="round" stroke-linecap="round"></path>
    </g>
  </g>
<path class="glyph-merged" d="M7.81096,51.74749l-2.8343,-0.227c-0.2822,-0.0226 -0.3226,-0.1334 -0.1211,-0.3323l3.195,-3.155c0.3029,-0.2992 0.4736,-0.2368 0.5121,0.1872l0.4068,4.4838c0.0403,0.4435 0.0383,0.8869 -0.006,1.33l-2.4666,24.6787c-0.2194,2.1955 -0.2538,2.1926 -0.1033,-0.0087l1.8117,-26.4991c0.0193,-0.2825 -0.1121,-0.435 -0.3943,-0.4576zM33.90859,-30.27049c-0.12951,1.31692 -0.43931,3.67659 -1.20332,7.59863c-0.3861,0.2965 -0.82059,0.62661 -1.30771,0.9923c-3.6859,-1.192 -0.6578,-0.6725 -3.5489,-8.4964c-0.02868,0.00381 -0.05644,0.00854 -0.0833,0.01414c0.19497,-0.87936 0.36586,-2.35978 0.4102,-4.74834zM32.41685,-21.22455c0.1027,-0.50454 0.19869,-0.9867 0.28841,-1.4473c1.31637,-1.01088 2.07041,-1.63117 2.43134,-1.93952c-0.5467,0.51538 -1.81532,1.8126 -2.71975,3.38682zM35.11945,-29.29055l-1.21086,-0.97993c0.28859,-2.9344 -0.31795,-0.69154 1.21086,0.97993zM27.76534,-30.16181c-0.53966,2.43396 -1.26383,0.26326 0,0zM35.1366,-24.61137c0.32004,-0.30171 0.39268,-0.33547 0,0z" fill="none" stroke="#1d1d1b" stroke-width="4.203" stroke-linejoin="round" style="display: none;"></path></g>
<g transform="translate(0 1177.5277) scale(2.7711) translate(82.095 83.5207)">
  <g data-rolle="struktur" style="">
    <g transform="matrix(1 0 0 1 -121.70946915431483 -116.54612528058765)" data-zeichen="?">
      <path d="M66.3665,48.5295C66.9345,44.8539 61.2891,37.4428 54.1156,36.5054C51.0937,39.7416 48.8463,41.3988 43.0945,40.2023L47.9414,47.9416C48.1405,45.7904 52.3588,46.1179 53.8662,46.7448C58.1503,44.9985 58.4867,49.8641 58.4606,52.3458C60.454,54.3588 58.8068,58.6646 54.2805,58.002C51.8134,65.3041 49.2271,72.6423 49.6038,73.004L50.4553,74.7296C50.8923,75.6153 51.5047,75.7603 52.2925,75.1646L56.5113,71.9742C56.6139,71.8966 56.7211,71.8261 56.833,71.7627L57.051,71.6391C56.4218,69.7679 56.1062,67.2633 62.6195,63.6967C64.1982,58.7513 67.6239,55.8771 65.4195,50.8041L66.3665,48.5295Z" style="paint-order: stroke;" stroke="#1d1d1b" stroke-width="2.96" stroke-linejoin="round" stroke-linecap="round"></path>
    </g>
    <g transform="matrix(1 0 0 1 -0.2633635261361178 -112.61368418637898)" data-zeichen="?">
      <path d="M55.4274,53.3329C53.2895,53.0268 51.2219,55.0821 52.2573,58.0237C51.4887,60.0834 52.7864,62.6072 56.4628,62.5037C58.4018,62.0278 60.092,60.89 59.4372,58.0534C60.058,54.8989 58.1884,53.1592 55.1637,53.427L55.4274,53.3329Z" style="paint-order: stroke;" stroke="#1d1d1b" stroke-width="2.96" stroke-linejoin="round" stroke-linecap="round"></path>
    </g>
  </g>
<path class="glyph-merged" d="M-58.87827,-54.59903c1.78486,-2.92487 1.20197,0.44903 1.19864,3.89586c-0.88637,-0.80844 -1.76176,-1.52989 -2.61524,-2.18079l0.09619,-0.65417c-0.17969,0.10697 -0.35916,0.21425 -0.53823,0.32179c-7.4978,-5.55913 -13.12328,-5.79452 -9.25057,-12.16289c1.85307,-0.78949 2.56226,-2.42309 2.58987,-4.4728c4.12019,0.66517 7.77643,-4.56492 10.68043,-20.8603c-1.8019,13.9078 -1.177,29.1032 6.0016,4.2516zM-70.63107,-71.42193c-0.73475,3.75476 -3.62925,5.77975 -11.90011,7.65491l-3.6916,-28.7487c5.41662,7.94116 10.74767,17.37227 15.59171,21.09379zM-71.16456,-82.43952c-1.78152,-4.14791 -3.01743,-7.00126 -0.45241,-5.54631c0.11511,2.0281 0.28089,3.86952 0.45241,5.54631zM-52.40037,-44.79153c-3.72112,0.71032 -6.7959,1.2015 -9.30567,1.50423l-3.18703,21.67337c-0.4067,2.7655 -0.9846,2.8018 -1.7338,0.1088l-6.38326,-22.94476c1.11578,-1.08663 2.27972,-1.96486 3.51007,-2.67749c1.95738,-1.81726 5.28585,-4.00073 8.76316,-6.08896c0.14665,0.10873 0.29401,0.21949 0.44203,0.33238l-0.451,3.06699c0.98241,-0.12834 2.00485,-0.22755 3.07164,-0.30779c-0.00396,-0.1923 -0.00559,-0.38547 -0.00541,-0.57841c0.19189,0.17502 0.38429,0.35412 0.5771,0.53745c2.64419,-0.18031 5.55752,-0.25817 8.80295,-0.38132c-2.15707,2.288 -3.82496,3.68664 -5.11263,4.42609c0.3384,0.42662 0.67587,0.86946 1.01183,1.32941zM-73.01013,-44.44989c-2.27973,2.22018 -4.35842,5.31039 -6.39174,9.63586l2.3707,-20.3391c0.2054,-1.7619 0.5458,-1.7884 1.0213,-0.0794zM-67.39761,-69.85202c-1.04932,-0.1694 -2.12872,-0.72117 -3.23346,-1.56991c0.51601,-2.63695 -0.03321,-6.12706 -0.53349,-11.01758c1.66887,3.88563 3.81653,8.90727 3.76695,12.58749zM55.14894,-64.58329c-0.16564,5.67457 -2.055,6.75954 -4.0918,8.1915zM51.05714,-56.39178l-0.7169,1.4352c7.27122,-4.3578 6.03728,-0.17023 8.75305,3.95713c-0.14906,0.11849 -0.27779,0.30994 -0.3107,0.46511c-6.44976,-0.46388 -13.26373,-5.00023 -10.22866,-3.53724c0.7844,-1.06975 1.65654,-1.72495 2.5032,-2.3202zM59.65214,-50.22799c-0.05376,-0.06742 -0.10623,-0.13499 -0.15747,-0.2027c-0.60241,0.27345 -0.76034,0.12394 -0.71207,-0.10367c0.22022,0.01584 0.44001,0.02693 0.65897,0.03287c-0.12304,-0.16552 -0.23886,-0.3317 -0.34827,-0.49798c0.27464,-0.2183 0.61829,-0.18891 0.55885,0.77147z" fill="none" stroke="#1d1d1b" stroke-width="4.203" stroke-linejoin="round" style="display: none;"></path></g>
<g transform="translate(-45.2633 1211.4313) scale(2.7713) translate(45.7279 56.8358)">
  <g data-rolle="struktur" style="">
    <g transform="matrix(1 0 0 1 -55.7734489440918 -57.54725646972656)" data-zeichen="2">
      <path d="M40.6443,77.0989L41.7039,76.9321C42.4858,76.809 43.1133,76.4302 43.5863,75.7955L44.6909,74.3133C57.7539,61.2352 61.2084,58.392 61.9091,49.2078C63.2256,43.3778 61.9208,40.2359 51.0351,35.5012C49.6885,38.9853 45.9422,40.6819 41.3425,47.335L40.0962,39.5318C45.2246,35.7451 50.3913,30.7985 53.5057,31.8604C65.3145,33.7294 70.8175,37.6735 69.1432,45.8596C69.5625,55.9784 63.3629,67.2031 52.0043,71.9598L52.0874,73.2401C52.1301,73.8973 51.8237,74.1937 51.1683,74.1294L50.7084,74.0842C49.9678,74.0115 49.9692,73.9579 50.7126,73.9236L68.371,73.1076C71.2963,72.9724 72.3549,74.3122 71.5469,77.1269L71.1846,78.3886C70.3766,81.2033 68.5392,82.3119 65.6724,81.7144L41.5495,76.6861C41.243,76.6222 40.958,76.6746 40.6943,76.8433L40.576,76.9189C40.3123,77.0876 40.3351,77.1476 40.6443,77.0989Z" style="paint-order: stroke;" stroke="#1d1d1b" stroke-width="2.96" stroke-linejoin="round" stroke-linecap="round"></path>
    </g>
    <g transform="matrix(-0.7417313433801764 -0.670697110659826 -0.670697110659826 0.7417313433801764 74.39709867084268 30.6122646621942)" data-zeichen="4">
      <path d="M50.0333,69.253L50.8971,70.7272C51.3674,71.5297 51.8611,71.5444 52.3783,70.7713L64.5064,52.645C63.9457,51.3709 65.3887,50.2084 67.3686,46.1326L66.9575,47.3864C66.7465,48.03 66.6026,48.0153 66.5257,47.3424L65.7189,40.2787C65.5134,38.4794 65.4713,38.4833 65.5925,40.2902L65.6468,41.1001C65.768,42.907 65.2224,44.4831 64.0099,45.8282L46.9612,64.7421C45.2136,66.6809 44.281,68.9541 44.1634,71.5616L44.1107,72.7304C43.9931,75.3379 45.2388,76.6024 47.8478,76.5239L63.619,76.0491C65.528,75.9916 66.6808,75.0288 67.0773,73.1605L67.255,72.323C67.6515,70.4547 66.8949,69.5138 64.9851,69.5002L50.1456,69.3942C50.0767,69.3937 50.0333,69.3602 50.0156,69.2935L50.0076,69.2637C49.9899,69.197 49.9984,69.1935 50.0333,69.253Z" style="paint-order: stroke;" stroke="#1d1d1b" stroke-width="2.96" stroke-linejoin="round" stroke-linecap="round"></path>
    </g>
    <g transform="matrix(0.9626085906630587 -0.2708961077270764 -0.2708961077270764 -0.9626085906630587 -65.33916981233887 102.4117184762711)" data-zeichen="3">
      <path d="M62.2751,70.0025C65.7099,66.4555 69.0727,61.8379 68.7706,58.0408C68.5907,51.8383 66.1267,46.7079 53.0654,44.2874C50.1571,46.3666 46.3927,49.5855 44.0473,51.888L44.5024,55.6444C46.6287,53.1351 50.9008,52.7743 55.93,51.0452C59.8054,51.4789 60.4611,53.944 63.0167,58.9894C62.1814,64.0794 54.1463,65.355 53.2825,67.5876L48.7582,66.1738C47.5491,65.7959 46.8381,66.2314 46.6253,67.4802L46.5298,68.04C46.317,69.2888 46.8313,69.7868 48.0726,69.5341L59.837,67.1387C60.4418,67.0156 60.7,67.2594 60.6115,67.8703L60.5678,68.172C60.4821,68.7643 60.7054,69.197 61.2378,69.4702L62.2751,70.0025Z" style="paint-order: stroke;" stroke="#1d1d1b" stroke-width="2.96" stroke-linejoin="round" stroke-linecap="round"></path>
    </g>
    <g transform="matrix(-0.10186116208509395 0.9947986246767102 -0.9947986246767102 -0.10186116208509395 53.0109552392362 -16.967836350091137)" data-zeichen="6">
      <path d="M64.2059,50.7608C66.3015,51.6586 65.7285,50.1205 67.6952,51.8621L69.2009,48.3745C68.1023,46.474 68.4955,47.5735 66.4662,45.3087C58.741,47.5541 54.9852,50.302 51.5237,53.8479C46.1623,57.2528 43.8804,64.3972 44.987,69.9717L48.3334,69.503C49.3085,60.8754 55.7792,55.5386 62.809,52.3303L64.2059,50.7608Z" style="paint-order: stroke;" stroke="#1d1d1b" stroke-width="2.96" stroke-linejoin="round" stroke-linecap="round"></path>
    </g>
    <g transform="matrix(-0.1159344632966592 -0.9932568651764334 0.9932568651764334 -0.1159344632966592 -45.683216874428794 87.62649580945849)" data-zeichen="4">
      <path d="M55.7786,31.4144L55.0636,31.8072C53.4685,32.6835 52.7487,34.0282 52.9041,35.8415L53.5655,43.5572C52.8574,42.6937 53.3732,42.0342 52.6757,51.9812L52.5601,80.3053C52.553,82.0589 53.4113,82.7746 55.135,82.4524L55.9078,82.308C57.6315,81.9858 58.4908,80.9479 58.4855,79.1943L58.3676,39.9195C58.3617,37.9346 58.3315,35.95 58.2771,33.9658L58.246,32.8288C58.1961,31.0096 57.3737,30.5381 55.7786,31.4144Z" style="paint-order: stroke;" stroke="#1d1d1b" stroke-width="2.96" stroke-linejoin="round" stroke-linecap="round"></path>
    </g>
    <g transform="matrix(0.44256158905224635 -0.8967381110979675 -0.8967381110979675 -0.44256158905224635 30.809953548536818 44.01398241861099)" data-zeichen="6">
      <path d="M57.7177,41.7221c-5.1846,0-9.0732,2.4482-11.3057,5.4004h-6.1509c-.3512,1.9717-.5454,4.0608-.5454,6.2646,0,12.1689,6.5527,19.9453,16.5615,19.9453,9.7207,0,15.5537-7.9209,15.5537-16.4893,0-9.1445-5.833-15.1211-14.1133-15.1211ZM56.2773,68.436c-6.625,0-10.1533-5.6885-10.2969-13.3926,0-1.1523.2881-2.0889.7197-2.8086,1.7285-3.3848,5.2568-5.7607,9.0732-5.7607,5.832,0,9.6484,4.0322,9.6484,10.7295s-3.6719,11.2324-9.1445,11.2324Z" style="paint-order: stroke;" stroke="#1d1d1b" stroke-width="2.96" stroke-linejoin="round" stroke-linecap="round"></path>
    </g>
    <g transform="matrix(-0.027579857288461903 0.9996196033851817 -0.9996196033851817 -0.027579857288461903 78.60570008169486 -22.170791416345633)" data-zeichen="3">
      <path d="M55.8934,42.6493L50.9669,43.6042C50.1973,43.7534 49.5693,44.1354 49.083,44.7502L48.8649,45.0257C48.3786,45.6405 48.4614,46.1656 49.1133,46.6009L51.612,48.2694C57.8612,47.0146 66.1822,47.8211 62.4313,55.5457C63.9101,60.2637 60.4409,64.8859 54.9654,65.6621C48.8602,65.4482 46.286,61.0595 41.0014,62.1215L38.4707,69.78C43.4599,68.9043 45.8098,71.8566 51.6063,69.1819C64.5585,70.5606 68.9836,65.807 68.5371,55.4508C70.3905,49.9669 67.2933,46.2439 60.0057,46.7113L58.8652,44.187C58.2798,42.8913 57.2892,42.3788 55.8934,42.6493Z" style="paint-order: stroke;" stroke="#1d1d1b" stroke-width="2.96" stroke-linejoin="round" stroke-linecap="round"></path>
    </g>
  </g>
  <g data-rolle="akzent" style="">
    <g transform="matrix(-0.8719217410839787 0.4896452567166184 -0.4896452567166184 -0.8719217410839787 129.19715992908894 81.69369850029278)" data-zeichen="4">
      <path d="M54.8574,54.9695L56.8713,55.0887C58.2024,55.1674 58.9419,55.8694 59.09,57.1945L59.1564,57.7885C59.3045,59.1136 58.7136,59.8248 57.3838,59.9219L54.3804,60.1413C52.7872,60.2577 52.0594,59.5202 52.1971,57.9287L52.2589,57.2152C52.3966,55.6237 53.2627,54.8752 54.8574,54.9695Z" style="paint-order: stroke;" stroke="#1d1d1b" stroke-width="2.96" stroke-linejoin="round" stroke-linecap="round"></path>
    </g>
  </g>
<path class="glyph-merged" d="M-31.22385,1.39954l4.30632,6.71772l10.24926,9.0154c1.26919,1.11643 1.06816,1.80077 -0.60319,2.05307l-2.32569,0.35111l2.39909,3.74251c1.3965,2.1785 2.9441,2.2918 4.643,0.3399l12.76844,-14.67064l-3.05731,15.04271l2.60242,-0.49669l0.84443,-3.99012l-1.37222,-2.20153c0.59814,0.27697 1.15339,0.54345 1.66889,0.79967l2.35537,-11.12959l-0.14214,-1.35585l0.56694,-0.6514l1.46703,-6.93201c0.2382,-1.12566 0.84555,-1.38419 1.82197,-0.77563l1.34761,0.83988c0.22141,-1.18359 1.57469,-4.1812 4.48985,-9.80098c3.27853,7.14059 6.84277,18.13102 10.20201,30.76014l19.34882,-3.69289c2.22004,-0.42374 2.25547,-0.28581 0.10637,0.41366l-18.71743,6.09182c0.06551,0.25322 0.13092,0.507 0.19624,0.76135c-0.36824,-0.15861 -0.72938,-0.31615 -1.08355,-0.47256l-3.68144,1.19817c-1.01494,0.33039 -2.0321,0.6538 -3.05148,0.97032l-3.66999,1.13944c2.00375,3.68601 5.72344,10.36351 12.26808,21.06694c1.72884,-0.25646 3.2796,-0.14821 5.0452,-0.02056c-2.35659,3.16731 -5.72275,7.57667 -12.1074,13.82019c-1.29477,-3.6147 -1.62483,-6.91636 -1.64616,-10.06604c2.12326,-1.34258 3.86925,-2.24108 5.39411,-2.83271c-0.14863,-0.00802 -0.30879,-0.0188 -0.48047,-0.03236l-4.85107,-0.3832c-0.03987,1.06882 -0.07001,2.1493 -0.06257,3.24828c-3.18781,2.01573 -7.22603,5.03248 -12.64307,9.51464c3.76742,-5.82367 5.90636,-10.28468 7.68756,-13.15931l-11.82665,-0.93422l-3.30643,19.42059c-1.05626,-4.27875 -1.81964,-7.85023 -2.33803,-10.82092l-1.49819,5.0066c-0.67789,2.26543 -0.75853,2.24442 -0.24191,-0.06316l1.4711,-6.57062c-0.24598,-1.58172 -0.41372,-2.97088 -0.51237,-4.18782c-0.68279,0.58415 -1.09805,0.21749 -1.24573,-1.10001l-0.27067,-2.41533c-0.43928,-0.10645 -0.85398,-0.24833 -1.24409,-0.42564c-0.28823,1.65743 -0.7029,3.459 -1.28287,5.41514l-1.89338,-5.94405l-3.31736,20.04829c-0.23737,1.43488 -1.04245,1.91192 -2.41502,1.43105l-13.78574,-4.82958c-1.37257,-0.48087 -1.48379,-1.16629 -0.33345,-2.05633l10.84104,-8.3878c-2.53612,-2.88947 -4.8215,-4.93445 -6.71562,-6.36481c1.37763,-0.56818 2.94215,-1.35956 4.84517,-2.45376c5.88612,-0.76922 0.72882,-7.23844 5.07589,-10.53026c0.7165,0.8942 1.47796,1.89753 2.28795,3.01765l-1.61291,-3.45812c-0.24724,0.13925 -0.47155,0.28638 -0.67504,0.44047c-0.17822,-0.22242 -0.35366,-0.43809 -0.52638,-0.64713c-2.61581,0.01282 -5.6974,0.01883 -9.35502,0.02108l5.86213,4.07818c0.50788,0.3533 0.45874,0.46787 -0.14725,0.34369l-17.17731,-3.51957l6.61173,-1.26191l-6.37175,-5.43094c-0.74018,-0.63088 -1.59442,-0.90034 -2.56259,-0.80833l-9.72411,0.92428c-0.96817,0.09202 -0.9715,0.06542 -0.00979,-0.07983l29.24556,-4.41522l-5.07198,-10.87444l-1.79309,-2.80709c-0.78967,-1.23623 -0.7587,-1.51569 0.09287,-0.83821l-1.8166,-3.89482c-1.0938,-2.3451 -0.9425,-2.4284 0.454,-0.2499zM4.35889,27.98039c-2.76218,0.48377 -4.43275,0.86455 -5.79892,1.16405c-0.11463,0.53384 -0.22994,1.06752 -0.34594,1.60107c0.21092,0.17205 0.41433,0.35098 0.61069,0.53894c2.18223,-0.3432 4.83262,-0.89676 8.04492,-1.72588l-1.23128,-1.97541zM1.93428,36.82633c0.15645,0.50822 0.30656,1.05367 0.45129,1.64069l11.61918,4.82064c0.66576,-0.36701 1.38275,-0.49631 2.21658,-0.37635c-0.00745,0.42674 -0.01925,0.85394 -0.03354,1.28206l5.01286,2.07977c0.72403,0.3004 1.20931,0.54338 1.45583,0.72893c0.21725,-0.06596 0.43031,-0.12557 0.63975,-0.17934c-3.20645,-2.39624 -5.3816,-3.6678 -7.0749,-3.91142c0.08772,-5.02475 -0.42798,-9.98529 -4.60005,-15.63118c-0.09526,-0.51766 -0.19378,-1.00682 -0.29177,-1.46395l-0.68459,0.21255c0.34585,0.421 0.67091,0.83804 0.97637,1.2514c0.53935,2.93086 0.97432,6.77542 0.61761,10.89264l-5.05407,-8.10856zM-23.96957,25.75066c-0.4384,-0.18409 -0.67233,-0.33817 -0.73352,-0.46145c-3.10692,-1.73148 -4.68948,0.39512 -5.86353,3.99322l8.76307,-1.67251c-0.78975,-0.78772 -1.50894,-1.40145 -2.16602,-1.85927zM-18.47115,47.37013l5.14622,-3.98167l-2.09563,-6.57901c-0.25309,2.0135 -1.03635,5.38464 -3.05058,10.56068zM10.46935,-2.83526c-0.62403,0.62588 -1.13481,1.08851 -1.50525,1.33698l0.22148,0.13804zM10.32618,15.53941l-3.08079,4.38173c0.09356,0.64935 0.18163,1.34699 0.26035,2.09485l10.68978,-2.04024c-3.45925,-1.71976 -6.01101,-3.23473 -7.86934,-4.43635zM12.80624,-11.70293c-1.31933,-2.87347 -2.59239,-5.12352 -3.78721,-6.60604l-2.6476,5.36468c-1.32442,-0.38397 -2.66582,-0.85933 -4.01801,-1.43655c-1.02053,4.45014 -1.67362,11.55489 -1.83984,21.85246l1.31777,-6.48377c0.3501,-1.7229 0.6169,-1.71 0.8002,0.0385l0.48129,4.59086l-2.89945,3.3314l0.27278,-1.34212c-4.62559,-22.67733 -2.5997,-30.35473 -10.32082,-23.13175c0.60929,-2.09758 1.16485,-4.21789 1.64155,-6.40626c-3.99541,-4.99019 -4.77132,-11.05675 -1.85077,-16.9745c0.91642,-1.85689 2.07708,-3.3965 3.41061,-4.6331c-0.18066,-2.90446 -0.50751,-6.00066 -1.00449,-9.33173c1.1095,2.97708 2.16483,5.51413 3.17651,7.67036c4.74799,-2.96143 10.87763,-2.92675 16.08742,-0.3556c4.42735,2.185 7.27413,5.48607 8.37975,9.22973c1.61015,0.16374 3.33415,0.67055 5.20682,1.71691c-5.6924,10.29459 -9.71511,17.7181 -12.40651,22.90652zM-14.87385,0.03464l-9.2017,-0.5412c6.82796,-7.2225 11.26056,-12.23065 14.2409,-15.01871c-1.48247,5.10365 -3.28298,10.0727 -5.0392,15.55991zM-53.57374,45.49657l20.58017,-4.22527c0.97124,0.45347 2.38762,1.25045 4.13821,2.57243c-6.76382,2.78962 -9.02243,0.19893 -24.71839,1.65284zM-32.99356,41.2713c-0.17227,-0.08043 -0.33054,-0.15006 -0.47418,-0.20989c0.22292,0.04757 0.48503,0.09698 0.788,0.14546zM-33.46774,41.06141c-1.39391,-0.29747 -1.25598,-0.52315 0,0zM-41.44423,30.89702l1.16613,0.23894l-4.72291,0.90141c-0.28551,0.05447 -0.29181,0.03154 -0.01901,-0.06886l2.73946,-1.0084c0.2728,-0.1004 0.55155,-0.12136 0.83633,-0.06308zM8.46644,-39.96826c-3.89,-1.91981 -7.64831,-2.05674 -10.47167,-0.58141c5.72913,9.44822 10.1792,6.74663 15.68323,5.05624c-1.07048,-1.7544 -2.81673,-3.29293 -5.21155,-4.47483zM-6.6822,-32.16627c0.04574,-0.59701 0.08479,-1.20178 0.11683,-1.81494c-0.10391,0.61185 -0.14162,1.21756 -0.11683,1.81494zM41.90292,43.99042l-1.87095,-1.43433l1.75811,-11.89085c0.13097,-0.88542 0.21804,-1.77506 0.26121,-2.66901l0.4336,-8.97866c0.04317,-0.89395 0.06577,-0.89343 0.06778,0.00157l0.05483,24.62268c0.00133,0.59356 -0.23356,0.70973 -0.70458,0.3486zM39.49008,46.22112c-4.37204,0.68598 -7.25592,0.46997 -9.721,0.29176c2.56471,-3.44703 3.93364,-5.42295 6.69634,-6.69101l3.56655,2.73422zM56.42774,60.81074l-3.69825,1.46129c-0.36825,0.14544 -0.68955,0.0755 -0.96411,-0.2098l-3.01475,-3.13313c-0.29677,-0.3085 -0.31173,-0.63006 -0.04467,-0.96468l2.844,-3.56311c0.28108,-0.35213 0.55616,-0.34753 0.82542,0.01369l4.24974,5.70135c0.23666,0.31748 0.17087,0.54894 -0.19738,0.69438z" fill="none" stroke="#1d1d1b" stroke-width="4.203" stroke-linejoin="round" style="display: none;"></path></g>
</svg>