<?xml version="1.0" encoding="UTF-8"?>
<svg id="Ebene_1" data-name="Ebene 1" xmlns="http://www.w3.org/2000/svg" width="39.3512mm" height="40.5887mm" viewBox="0 0 111.5468 115.0545">
  <path d="M46.9887,71.7841l-5.041,15.2656h-6.4805l16.4902-48.5322h7.5605l16.5615,48.5322h-6.6973l-5.1846-15.2656h-17.209ZM45.7641,31.6054c0-2.0166,1.5127-3.6006,3.6006-3.6006,1.9443,0,3.3848,1.584,3.3848,3.6006s-1.3682,3.6719-3.457,3.6719-3.5283-1.6562-3.5283-3.6719ZM62.9018,66.8876l-4.752-13.9688c-1.0801-3.168-1.8008-6.0488-2.5205-8.8564h-.1436c-.7207,2.8799-1.5127,5.832-2.4482,8.7842l-4.7529,14.041h14.6172ZM59.1577,31.6054c0-2.0166,1.5117-3.6006,3.5283-3.6006s3.4561,1.584,3.4561,3.6006-1.3682,3.6719-3.5283,3.6719c-2.0879,0-3.4561-1.6562-3.4561-3.6719Z" fill="#1d1d1b"/>
</svg>