<?xml version="1.0" encoding="UTF-8"?>
<svg id="Ebene_1" data-name="Ebene 1" xmlns="http://www.w3.org/2000/svg" width="39.3512mm" height="40.5887mm" viewBox="0 0 111.5468 115.0545">
  <path d="M44.0009,76.4878c1.3672.1445,2.9521,0,5.1123-.2158,3.6719-.5039,7.1279-2.0156,9.793-4.5361,3.0957-2.8086,5.3281-6.9131,6.1924-12.457h-.2168c-2.5918,3.168-6.3359,5.04-11.0166,5.04-8.4248,0-13.8252-6.3359-13.8252-14.3291,0-8.8564,6.4082-16.6328,15.9854-16.6328s15.4814,7.7764,15.4814,19.7295c0,10.2969-3.4561,17.4971-8.0645,21.9619-3.6006,3.5283-8.5693,5.6885-13.6094,6.2646-2.3047.3594-4.3203.4316-5.832.3594v-5.1846ZM46.3046,49.5581c0,5.832,3.5283,9.9365,9.001,9.9365,4.248,0,7.5605-2.0879,9.2168-4.8965.3594-.5762.5762-1.2959.5762-2.3037,0-7.9932-2.9521-14.1133-9.5771-14.1133-5.4004,0-9.2168,4.752-9.2168,11.377Z" fill="#1d1d1b"/>
</svg>