<?xml version="1.0" encoding="UTF-8"?>
<svg id="Ebene_1" data-name="Ebene 1" xmlns="http://www.w3.org/2000/svg" viewBox="0 0 111.5468 115.0545">
  <path d="M74.9062,77.2329c0-4.4648,2.9521-8.0645,8.4248-9.6484.3635.1033.7168.2104,1.0642.3201l.0603-5.0503c-5.0149-1.4683-8.2534-3.9668-8.2534-8.4475,0-4.0322,2.8809-7.4883,8.1367-7.4883.1062,0,.2026.0105.3062.0132l.0542-4.5493c-8.209,0-14.4727,5.04-14.4727,12.457,0,4.0322,2.2314,8.0645,7.416,10.5127l.0723.2158c-5.7607,2.4482-9.2891,6.625-9.2891,12.5293,0,6.8408,5.9043,12.6729,15.6973,12.6729l.0549-4.6125c-5.9216-.0425-9.4863-4.197-9.2717-8.9246Z"/>
</svg>