<?xml version="1.0" encoding="UTF-8"?>
<svg id="Ebene_1" data-name="Ebene 1" xmlns="http://www.w3.org/2000/svg" viewBox="0 0 115.0545 111.5468">
  <path d="M56.0507,67.8676v-.2158c5.7607-2.7363,7.7051-6.9854,7.7051-10.9453,0-5.832-4.5361-11.5205-13.6094-11.5205l-.0542,4.5493c5.4563.1409,7.6147,3.9453,7.6147,7.6196,0,4.248-3.0957,7.1279-7.1279,8.4961-.2305-.0615-.4529-.1277-.6763-.1931l-.0603,5.0503c5.7117,1.8042,9.2327,4.5422,9.2327,9.9045,0,4.8242-3.6719,8.3525-9.3604,8.3525-.0305,0-.0591-.0037-.0896-.0042l-.0549,4.6125c8.9287,0,15.9141-5.4727,15.9141-13.6094,0-5.6885-3.6006-9.793-9.4336-12.0967Z"/>
</svg>