<?xml version="1.0" encoding="UTF-8"?>
<svg id="Ebene_1" data-name="Ebene 1" xmlns="http://www.w3.org/2000/svg" width="39.3512mm" height="40.5887mm" viewBox="0 0 111.5468 115.0545">
  <path d="M39.9677,69.0483c0-5.9043,3.5283-10.0811,9.2891-12.5293l-.0723-.2158c-5.1846-2.4482-7.416-6.4805-7.416-10.5127,0-7.417,6.2637-12.457,14.4727-12.457,9.0732,0,13.6094,5.6885,13.6094,11.5205,0,3.96-1.9443,8.209-7.7051,10.9453v.2158c5.833,2.3037,9.4336,6.4082,9.4336,12.0967,0,8.1367-6.9854,13.6094-15.9141,13.6094-9.793,0-15.6973-5.832-15.6973-12.6729ZM65.1699,68.7602c0-5.6885-3.96-8.4248-10.2969-10.2246-5.4727,1.584-8.4248,5.1836-8.4248,9.6484-.2158,4.752,3.3848,8.9287,9.3613,8.9287,5.6885,0,9.3604-3.5283,9.3604-8.3525ZM47.7441,45.3578c0,4.6807,3.5283,7.2012,8.9297,8.6406,4.0322-1.3682,7.1279-4.248,7.1279-8.4961,0-3.7441-2.2324-7.6328-7.9209-7.6328-5.2559,0-8.1367,3.4561-8.1367,7.4883Z" fill="#1d1d1b"/>
</svg>