<?xml version="1.0" encoding="UTF-8"?>
<svg id="Ebene_1" data-name="Ebene 1" xmlns="http://www.w3.org/2000/svg" viewBox="0 0 111.5468 115.0545">
  <defs>
    <style>
      .cls-1 {
        fill: none;
      }
    </style>
  </defs>
  <path class="cls-1" d="M99.9382,15.2049c0,5.832,3.5283,9.9365,9.001,9.9365.1357,0,.2622-.0203.396-.0244V3.8385c-.0615-.001-.1179-.0105-.1802-.0105-5.4004,0-9.2168,4.752-9.2168,11.377Z"/>
  <path class="cls-1" d="M118.156,20.245c.3594-.5762.5762-1.2959.5762-2.3037,0-7.9182-2.9023-13.9893-9.397-14.1028v21.2786c4.0537-.1279,7.2175-2.1533,8.8208-4.8721Z"/>
  <path d="M82.4669,92.8258c-5.7607,0-9.5049-6.9121-9.5049-19.0811,0-.0249.0015-.0476.0015-.0723h-6.3384c.1445,15.4814,6.3369,24.0498,15.4814,24.0498,10.2241,0,16.0957-8.5559,16.2581-24.0498h-6.3264c-.0632,11.7402-3.1575,19.1533-9.5713,19.1533Z"/>
</svg>