<?xml version="1.0" encoding="UTF-8"?>
<svg id="Ebene_1" data-name="Ebene 1" xmlns="http://www.w3.org/2000/svg" viewBox="0 0 115.0545 111.5468">
  <path d="M65.3754,43.0278c-2.8799-1.7275-6.4805-2.5195-10.0811-2.5195-1.7275,0-2.7354.1436-3.8154.2881l-.7178,4.645c.4657-.0183.9319-.0366,1.4375-.0366,9.3604,0,13.3926,4.3203,13.4648,10.3682,0,6.2646-5.1123,10.1533-11.0889,10.1533-4.248,0-8.0645-1.4404-10.0088-2.5928l-1.584,4.8252c2.2324,1.4395,6.5527,2.8799,11.665,2.8799,10.1523,0,17.4258-6.8408,17.4258-15.9854,0-5.9043-3.0244-9.9365-6.6973-12.0254Z"/>
</svg>