<?xml version="1.0" encoding="UTF-8"?>
<svg id="Ebene_1" data-name="Ebene 1" xmlns="http://www.w3.org/2000/svg" width="39.3512mm" height="40.5887mm" viewBox="0 0 111.5468 115.0545">
  <path d="M69.3823,39.0575h-17.8574l-1.7998,12.0254c1.0801-.1445,2.0879-.2881,3.8154-.2881,3.6006,0,7.2012.792,10.0811,2.5195,3.6729,2.0889,6.6973,6.1211,6.6973,12.0254,0,9.1445-7.2734,15.9854-17.4258,15.9854-5.1123,0-9.4326-1.4404-11.665-2.8799l1.584-4.8252c1.9443,1.1523,5.7607,2.5928,10.0088,2.5928,5.9766,0,11.0889-3.8887,11.0889-10.1533-.0723-6.0479-4.1045-10.3682-13.4648-10.3682-2.6641,0-4.7529.2881-6.4805.5039l3.0244-22.4658h22.3936v5.3281Z" fill="#1d1d1b"/>
</svg>