<?xml version="1.0" encoding="UTF-8"?>
<svg id="Ebene_1" data-name="Ebene 1" xmlns="http://www.w3.org/2000/svg" width="39.3512mm" height="40.5887mm" viewBox="0 0 111.5468 115.0545">
  <path d="M51.0937,68.0404l-.1445-1.8721c-.4316-3.8887.8643-8.1367,4.4648-12.457,3.2402-3.8164,5.04-6.625,5.04-9.8652,0-3.6719-2.3037-6.1201-6.8408-6.1924-2.5918,0-5.4727.8643-7.2725,2.2324l-1.7285-4.5371c2.377-1.7275,6.4814-2.8799,10.2969-2.8799,8.2812,0,12.0254,5.1123,12.0254,10.585,0,4.8965-2.7363,8.4248-6.1924,12.5293-3.168,3.7441-4.3203,6.9121-4.1045,10.585l.0723,1.8721h-5.6162ZM49.5087,78.1215c0-2.665,1.8008-4.5371,4.3203-4.5371s4.249,1.8721,4.249,4.5371c0,2.5195-1.6562,4.4639-4.3203,4.4639-2.5205,0-4.249-1.9443-4.249-4.4639Z" fill="#1d1d1b"/>
</svg>