<?xml version="1.0" encoding="UTF-8"?>
<svg id="Ebene_1" data-name="Ebene 1" xmlns="http://www.w3.org/2000/svg" width="39.3512mm" height="40.5887mm" viewBox="0 0 111.5468 115.0545">
  <path d="M38.4565,81.7934l-12.3135-48.5322h6.625l5.7598,24.5537c1.4404,6.0488,2.7363,12.0977,3.6006,16.7783h.1445c.792-4.8252,2.3037-10.585,3.96-16.8496l6.4805-24.4824h6.5527l5.9043,24.626c1.3682,5.7607,2.6641,11.5215,3.3848,16.6338h.1436c1.0078-5.3291,2.376-10.7295,3.8887-16.7773l6.4082-24.4824h6.4082l-13.7529,48.5322h-6.5527l-6.1201-25.2744c-1.5127-6.1924-2.5205-10.9443-3.168-15.8408h-.1445c-.8643,4.8242-1.9443,9.5762-3.7441,15.8408l-6.9131,25.2744h-6.5518Z" fill="#1d1d1b"/>
</svg>