<?xml version="1.0" encoding="UTF-8"?>
<svg id="Ebene_1" data-name="Ebene 1" xmlns="http://www.w3.org/2000/svg" width="39.3512mm" height="40.5887mm" viewBox="0 0 111.5468 115.0545">
  <path d="M42.6684,74.1967c2.8086,1.7285,6.9131,3.168,11.2334,3.168,6.4082,0,10.1523-3.3838,10.1523-8.2803,0-4.5361-2.5918-7.1289-9.1445-9.6484-7.9209-2.8086-12.8174-6.9131-12.8174-13.7539,0-7.5605,6.2646-13.1768,15.6973-13.1768,4.9688,0,8.5693,1.1523,10.7295,2.376l-1.7285,5.1123c-1.584-.8633-4.8242-2.3037-9.2168-2.3037-6.625,0-9.1445,3.96-9.1445,7.2725,0,4.5361,2.9521,6.7686,9.6484,9.3604,8.209,3.1689,12.3848,7.1289,12.3848,14.2578,0,7.4883-5.5439,13.9688-16.9932,13.9688-4.6807,0-9.793-1.3682-12.3848-3.0957l1.584-5.2568Z" fill="#1d1d1b"/>
</svg>