<?xml version="1.0" encoding="UTF-8"?>
<svg id="Ebene_1" data-name="Ebene 1" xmlns="http://www.w3.org/2000/svg" viewBox="0 0 111.5468 115.0545">
  <defs>
    <style>
      .cls-1 {
        fill: none;
      }
    </style>
  </defs>
  <path class="cls-1" d="M-2.7809,60.3932c0,5.5439,4.1045,9.793,9.9375,9.793,4.1758,0,7.7041-1.8721,10.0088-4.3926-2.8809-3.168-8.2812-9.0732-13.6816-15.2656-2.5918,1.6562-6.2646,4.7529-6.2646,9.8652Z"/>
  <path class="cls-1" d="M14.1409,35.4068c0-2.9521-1.6562-6.2646-5.6162-6.2646-4.0322,0-6.1211,3.3125-6.1211,7.0566,0,3.4561,1.584,6.1201,3.6729,8.7129,4.8965-2.8086,8.0645-5.4004,8.0645-9.5049Z"/>
  <path d="M68.3388,62.0639c3.5996-4.249,5.6885-10.2969,6.9844-17.9297h-5.7607c-.9355,6.1201-2.4482,10.8008-4.6807,14.1846-3.0957-3.4561-7.7041-8.7842-11.8086-13.5371l-8.3525-1.1514c-5.5449,3.0234-9.5049,7.5605-9.5049,14.1846,0,7.2725,5.4727,13.6094,14.9053,13.6094,5.3281,0,10.0088-1.6562,14.1846-5.5439,1.873,2.0156,3.1689,3.3838,4.5371,4.752h7.4883c-2.8799-3.0967-5.4004-5.832-7.9922-8.5684ZM51.2011,66.6723c-5.833,0-9.9375-4.249-9.9375-9.793,0-5.1123,3.6729-8.209,6.2646-9.8652,5.4004,6.1924,10.8008,12.0977,13.6816,15.2656-2.3047,2.5205-5.833,4.3926-10.0088,4.3926Z"/>
</svg>