<?xml version="1.0" encoding="UTF-8"?>
<svg id="Ebene_1" data-name="Ebene 1" xmlns="http://www.w3.org/2000/svg" width="39.3512mm" height="40.5887mm" viewBox="0 0 111.5468 115.0545">
  <path d="M68.8427,81.7934c-1.3682-1.3682-2.6641-2.7363-4.5371-4.752-4.1758,3.8877-8.8564,5.5439-14.1846,5.5439-9.4326,0-14.9053-6.3369-14.9053-13.6094,0-6.624,3.96-11.1611,9.5049-14.1846v-.2168c-2.5205-3.168-4.0322-6.6963-4.0322-10.1523,0-5.9043,4.248-11.9531,12.3125-11.9531,6.0488,0,10.7295,4.0322,10.7295,10.2969,0,5.1123-2.9531,9.1445-10.6572,12.9609v.2158c4.1045,4.7529,8.7129,10.0811,11.8086,13.5371,2.2324-3.3838,3.7451-8.0645,4.6807-14.1846h5.7607c-1.2959,7.6328-3.3848,13.6807-6.9844,17.9297,2.5918,2.7363,5.1123,5.4717,7.9922,8.5684h-7.4883ZM61.2099,73.4408c-2.8809-3.168-8.2812-9.0732-13.6816-15.2656-2.5918,1.6562-6.2646,4.7529-6.2646,9.8652,0,5.5439,4.1045,9.793,9.9375,9.793,4.1758,0,7.7041-1.8721,10.0088-4.3926ZM46.4482,43.8461c0,3.4561,1.584,6.1201,3.6729,8.7129,4.8965-2.8086,8.0645-5.4004,8.0645-9.5049,0-2.9521-1.6562-6.2646-5.6162-6.2646-4.0322,0-6.1211,3.3125-6.1211,7.0566Z" fill="#1d1d1b"/>
</svg>