<?xml version="1.0" encoding="UTF-8"?>
<svg id="Ebene_1" data-name="Ebene 1" xmlns="http://www.w3.org/2000/svg" width="39.3512mm" height="40.5887mm" viewBox="0 0 111.5468 115.0545">
  <path d="M42.8837,73.6567c1.8008,1.1523,5.9766,2.9521,10.3691,2.9521,8.1367,0,10.6572-5.1846,10.585-9.0732-.0723-6.5518-5.9766-9.3604-12.0967-9.3604h-3.5283v-4.7529h3.5283c4.6084,0,10.4404-2.376,10.4404-7.9199,0-3.7441-2.376-7.0566-8.208-7.0566-3.7451,0-7.3447,1.6562-9.3613,3.0957l-1.6562-4.6084c2.4482-1.7998,7.2012-3.5996,12.2412-3.5996,9.2168,0,13.3936,5.4717,13.3936,11.1602,0,4.8252-2.8809,8.9287-8.6406,11.0176v.1436c5.7598,1.1523,10.4404,5.4727,10.4404,12.0254,0,7.4883-5.832,14.041-17.0654,14.041-5.2568,0-9.8652-1.6562-12.1689-3.168l1.7275-4.8965Z" fill="#1d1d1b"/>
</svg>