<?xml version="1.0" encoding="UTF-8"?>
<svg id="Ebene_1" data-name="Ebene 1" xmlns="http://www.w3.org/2000/svg" width="39.3512mm" height="40.5887mm" viewBox="0 0 111.5468 115.0545">
  <path d="M75.6835,79.6332c-2.8086,1.0078-8.3535,2.6641-14.9053,2.6641-7.3447,0-13.3936-1.8721-18.1465-6.4082-4.1758-4.0322-6.7686-10.5127-6.7686-18.0742.0723-14.4727,10.0098-25.0576,26.2822-25.0576,5.6172,0,10.0098,1.2236,12.0977,2.2324l-1.5127,5.1123c-2.5918-1.1523-5.832-2.0889-10.7285-2.0889-11.8086,0-19.5137,7.3447-19.5137,19.5146,0,12.3125,7.417,19.585,18.7217,19.585,4.1045,0,6.9121-.5762,8.3525-1.2959v-14.4736h-9.8643v-5.04h15.9854v23.3301Z" fill="#1d1d1b"/>
</svg>