<?xml version="1.0" encoding="UTF-8"?>
<svg id="Ebene_1" data-name="Ebene 1" xmlns="http://www.w3.org/2000/svg" width="39.3512mm" height="40.5887mm" viewBox="0 0 111.5468 115.0545">
  <path d="M73.1987,60.4799c-.3604-6.7686-.792-14.9053-.7197-20.9541h-.2168c-1.6562,5.6885-3.6719,11.7373-6.1201,18.4336l-8.5684,23.5459h-4.7529l-7.8486-23.1143c-2.3037-6.8398-4.248-13.1045-5.6162-18.8652h-.1445c-.1436,6.0488-.5039,14.1855-.9355,21.458l-1.2959,20.8096h-5.9766l3.3838-48.5322h7.9932l8.2803,23.4736c2.0166,5.9766,3.6729,11.3057,4.8965,16.3457h.2158c1.2246-4.8965,2.9521-10.2246,5.1123-16.3457l8.6406-23.4736h7.9932l3.0244,48.5322h-6.1211l-1.2236-21.3135Z" fill="#1d1d1b"/>
</svg>