<?xml version="1.0" encoding="UTF-8"?>
<svg id="Ebene_1" data-name="Ebene 1" xmlns="http://www.w3.org/2000/svg" viewBox="0 0 111.5468 115.0545">
  <path d="M65.7102,38.914c-4.248-3.96-10.6567-6.0488-19.6577-6.0488-2.4709,0-4.8347.1072-7.0566.2856v5.3315c1.6562-.3604,4.1045-.6484,7.3447-.6484,13.249,0,19.73,7.2725,19.6577,18.7217,0,13.1055-7.2725,20.5938-20.6655,20.5938-2.4482,0-4.7524-.0723-6.3369-.3604v5.2957c1.5928.0669,3.2898.1047,5.1128.1047,9.4326,0,16.9214-2.4482,21.4575-6.9844,4.5366-4.4639,6.9849-10.9443,6.9849-18.8652,0-7.8486-2.5205-13.4658-6.8408-17.4258Z"/>
</svg>