<?xml version="1.0" encoding="UTF-8"?>
<svg id="Ebene_1" data-name="Ebene 1" xmlns="http://www.w3.org/2000/svg" width="39.3512mm" height="40.5887mm" viewBox="0 0 111.5468 115.0545">
  <path d="M35.8637,33.8739c3.8159-.5762,8.3525-1.0088,13.3208-1.0088,9.001,0,15.4097,2.0889,19.6577,6.0488,4.3203,3.96,6.8408,9.5771,6.8408,17.4258,0,7.9209-2.4482,14.4014-6.9849,18.8652-4.5361,4.5361-12.0249,6.9844-21.4575,6.9844-4.4644,0-8.209-.2158-11.377-.5752v-47.7402ZM42.1279,76.789c1.5845.2881,3.8887.3604,6.3369.3604,13.3931,0,20.6655-7.4883,20.6655-20.5938.0723-11.4492-6.4087-18.7217-19.6577-18.7217-3.2402,0-5.6885.2881-7.3447.6484v38.3066Z" fill="#1d1d1b"/>
</svg>