<?xml version="1.0" encoding="UTF-8"?>
<svg id="Ebene_1" data-name="Ebene 1" xmlns="http://www.w3.org/2000/svg" width="39.3512mm" height="40.5887mm" viewBox="0 0 111.5468 115.0545">
  <path d="M77.9516,61.9555c0,16.7061-10.1533,25.5625-22.5381,25.5625-12.8174,0-21.8184-9.9365-21.8184-24.626,0-15.4092,9.5771-25.4902,22.5381-25.4902,13.249,0,21.8184,10.1533,21.8184,24.5537ZM40.2924,62.7475c0,10.3691,5.6162,19.6582,15.4814,19.6582,9.9365,0,15.5527-9.1445,15.5527-20.1621,0-9.6484-5.04-19.7295-15.4814-19.7295-10.3682,0-15.5527,9.5771-15.5527,20.2334ZM45.6206,31.1371c0-1.9443,1.5117-3.6006,3.5283-3.6006s3.4561,1.585,3.4561,3.6006-1.3682,3.6729-3.4561,3.6729c-2.1602,0-3.5283-1.6562-3.5283-3.6729ZM58.9418,31.1371c0-1.9443,1.5117-3.6006,3.6006-3.6006,2.0156,0,3.4561,1.585,3.4561,3.6006s-1.3682,3.6729-3.5283,3.6729c-2.0879,0-3.5283-1.6562-3.5283-3.6729Z" fill="#1d1d1b"/>
</svg>