<?xml version="1.0" encoding="UTF-8"?>
<svg id="Ebene_1" data-name="Ebene 1" xmlns="http://www.w3.org/2000/svg" viewBox="0 0 111.5468 115.0545">
  <path d="M61.366,73.1193c8.0645-2.8086,13.8252-10.8018,13.8252-23.2588,0-6.5898-1.8165-12.3076-5.056-16.5659l-4.5963,4.5962c2.0226,3.5356,3.0273,7.9241,3.0273,12.2578,0,11.0889-5.6162,20.1621-15.625,20.1621-5.5463,0-9.7726-2.9827-12.3849-7.4375l-4.5601,4.5601c3.9705,5.0312,9.8418,7.7505,16.2252,7.9897.9355,0,1.9434.3604,2.9521.7197,5.6162,1.9443,12.0244,3.8887,18.5771,5.6172l1.7998-5.2568c-4.1035-.7197-9.3604-1.8721-14.1846-3.0957v-.2881Z"/>
</svg>