<?xml version="1.0" encoding="UTF-8"?>
<svg id="Ebene_1" data-name="Ebene 1" xmlns="http://www.w3.org/2000/svg" width="39.3512mm" height="40.5887mm" viewBox="0 0 111.5468 115.0545">
  <path d="M76.3315,85.7538c-6.5527-1.7285-12.9609-3.6729-18.5771-5.6172-1.0088-.3594-2.0166-.7197-2.9521-.7197-11.5215-.4316-21.3867-8.9287-21.3867-24.5537,0-15.5537,9.5049-25.5625,22.6104-25.5625,13.1768,0,21.7461,10.2246,21.7461,24.5537,0,12.457-5.7607,20.4502-13.8252,23.2588v.2881c4.8242,1.2236,10.0811,2.376,14.1846,3.0957l-1.7998,5.2568ZM71.1469,54.1425c0-9.7207-5.04-19.7295-15.3369-19.7295-10.585,0-15.7695,9.793-15.6973,20.3057-.0723,10.2969,5.6162,19.5859,15.4092,19.5859,10.0088,0,15.625-9.0732,15.625-20.1621Z" fill="#1d1d1b"/>
</svg>